<svg width="28" height="27" viewBox="0 0 28 27" fill="none" xmlns="http://www.w3.org/2000/svg">
<ellipse cx="14" cy="13.5" rx="13" ry="13.5" fill="#0A66C2"/>
<path d="M19.0413 21H21.6431C21.7374 21 21.8278 20.9648 21.8945 20.9022C21.9612 20.8396 21.9986 20.7547 21.9987 20.6662L22 15.5036C22 12.8053 21.3809 10.7313 18.0233 10.7313C16.7469 10.6867 15.5433 11.3046 14.8938 12.3364C14.8906 12.3414 14.8858 12.3453 14.88 12.3475C14.8743 12.3497 14.8679 12.3501 14.8619 12.3486C14.8559 12.347 14.8506 12.3437 14.8468 12.3391C14.843 12.3345 14.8409 12.3288 14.8409 12.323V11.3143C14.8409 11.2257 14.8034 11.1408 14.7367 11.0782C14.6701 11.0156 14.5796 10.9804 14.4853 10.9804H12.0163C11.922 10.9804 11.8315 11.0156 11.7649 11.0782C11.6982 11.1408 11.6607 11.2257 11.6607 11.3143V20.6657C11.6607 20.7542 11.6982 20.8392 11.7649 20.9018C11.8315 20.9644 11.922 20.9996 12.0163 20.9996H14.6179C14.7122 20.9996 14.8026 20.9644 14.8693 20.9018C14.936 20.8392 14.9734 20.7542 14.9734 20.6657V16.0432C14.9734 14.7361 15.2374 13.4703 16.9628 13.4703C18.6637 13.4703 18.6858 14.9659 18.6858 16.1278V20.6661C18.6858 20.7546 18.7232 20.8396 18.7899 20.9022C18.8566 20.9648 18.947 21 19.0413 21ZM6 7.80549C6 8.79589 6.86818 9.61082 7.92284 9.61082C8.97724 9.61074 9.84489 8.79531 9.84489 7.80508C9.84471 6.81484 8.97698 6 7.92249 6C6.86773 6 6 6.81509 6 7.80549ZM6.61858 21H9.22364C9.31794 21 9.40838 20.9648 9.47506 20.9022C9.54174 20.8396 9.5792 20.7546 9.5792 20.6661V11.3143C9.5792 11.2257 9.54174 11.1408 9.47506 11.0782C9.40838 11.0156 9.31794 10.9804 9.22364 10.9804H6.61858C6.52428 10.9804 6.43384 11.0156 6.36716 11.0782C6.30048 11.1408 6.26302 11.2257 6.26302 11.3143V20.6661C6.26302 20.7546 6.30048 20.8396 6.36716 20.9022C6.43384 20.9648 6.52428 21 6.61858 21Z" fill="white"/>
</svg>
