<svg width="26" height="27" viewBox="0 0 26 27" fill="none" xmlns="http://www.w3.org/2000/svg">
<path d="M0.554805 13.3384C0.554195 15.6069 1.12945 17.822 2.22327 19.7744L0.450195 26.445L7.07532 24.6551C8.90774 25.683 10.9608 26.2216 13.0472 26.2217H13.0527C19.9401 26.2217 25.5467 20.4468 25.5496 13.3486C25.551 9.90901 24.2522 6.67466 21.8925 4.24131C19.5332 1.80817 16.3954 0.467482 13.0522 0.465912C6.1639 0.465912 0.55775 6.24056 0.554906 13.3384" fill="url(#paint0_linear_123_170)"/>
<path d="M9.81898 7.75968C9.57666 7.20471 9.32163 7.19351 9.09119 7.18378C8.90248 7.17541 8.68676 7.17604 8.47125 7.17604C8.25553 7.17604 7.90504 7.25965 7.60878 7.59297C7.31222 7.92659 6.47656 8.73283 6.47656 10.3726C6.47656 12.0125 7.6357 13.5972 7.79728 13.8198C7.95907 14.042 10.035 17.5147 13.3228 18.8507C16.0552 19.961 16.6113 19.7401 17.2043 19.6845C17.7974 19.629 19.1181 18.8784 19.3876 18.1002C19.6572 17.322 19.6572 16.6549 19.5764 16.5155C19.4956 16.3767 19.2798 16.2932 18.9564 16.1266C18.6328 15.9599 17.0425 15.1536 16.7461 15.0424C16.4495 14.9312 16.2339 14.8757 16.0182 15.2095C15.8024 15.5427 15.183 16.2932 14.9942 16.5155C14.8056 16.7383 14.6168 16.7661 14.2934 16.5993C13.9697 16.4321 12.928 16.0806 11.6921 14.9452C10.7305 14.0618 10.0813 12.9708 9.89262 12.637C9.70391 12.3038 9.87241 12.1232 10.0346 11.9571C10.1799 11.8078 10.3582 11.5679 10.5201 11.3734C10.6814 11.1787 10.7352 11.0399 10.843 10.8176C10.951 10.5951 10.897 10.4004 10.8162 10.2337C10.7352 10.067 10.1066 8.41866 9.81898 7.75968Z" fill="white"/>
<defs>
<linearGradient id="paint0_linear_123_170" x1="1255.42" y1="2598.38" x2="1255.42" y2="0.465912" gradientUnits="userSpaceOnUse">
<stop stop-color="#1FAF38"/>
<stop offset="1" stop-color="#60D669"/>
</linearGradient>
</defs>
</svg>
