<svg width="458" height="567" viewBox="0 0 458 567" fill="none" xmlns="http://www.w3.org/2000/svg">
<g clip-path="url(#clip0_219_105)">
<path d="M481.626 173.715C482.79 174.38 483.722 176.009 483.722 177.339L483.422 283.35C483.422 284.68 482.491 285.246 481.326 284.548L339.066 202.479C337.902 201.814 336.97 200.184 336.97 198.821L337.27 92.8428C337.27 91.5127 338.234 90.9806 339.399 91.6457L481.626 173.715Z" fill="#444053"/>
<path d="M476.369 269.018L344.356 193.001V103.517L476.369 179.534V269.018Z" fill="white"/>
<path d="M404.208 149.074V160.912L372.934 142.789L373.034 130.751L404.208 149.074Z" fill="#DFC8ED"/>
<path d="M404.208 165.501V177.339L372.934 159.249L373.034 147.212L404.208 165.501Z" fill="#DFC8ED"/>
<path d="M367.412 127.592L351.409 118.381L351.908 148.309L367.412 157.188V127.592Z" fill="#374291"/>
<path d="M577.275 386.435L577.242 400.003L289.728 567L289.761 553.466L577.275 386.435Z" fill="#999999"/>
<path d="M289.761 553.466L289.728 567L0.31665 400.003L0.349917 386.435L289.761 553.466Z" fill="#808080"/>
<path d="M577.275 386.435L289.761 553.466L0.350098 386.435L287.865 219.438L577.275 386.435Z" fill="#F1F1F1"/>
<path opacity="0.7" d="M274.877 473.549C293.606 463.497 305.244 448.75 300.872 440.611C296.499 432.473 277.772 434.025 259.043 444.077C240.314 454.13 228.675 468.877 233.048 477.015C237.42 485.154 256.148 483.602 274.877 473.549Z" fill="#CCCCCC"/>
<path opacity="0.5" d="M370.714 349.719C354.235 340.874 337.761 339.501 333.919 346.652C330.077 353.804 340.321 366.771 356.8 375.616C373.279 384.461 389.753 385.834 393.595 378.683C397.437 371.531 387.193 358.564 370.714 349.719Z" fill="#CCCCCC"/>
<path d="M303.136 257.346L291.425 250.529L290.992 100.657L302.736 107.474L303.136 257.346Z" fill="#373443"/>
<mask id="mask0_219_105" style="mask-type:luminance" maskUnits="userSpaceOnUse" x="294" y="87" width="17" height="8">
<path d="M298.544 87.6551L310.255 94.472C309.29 93.9067 307.926 93.9732 306.429 94.8378L294.718 88.0209C296.215 87.1896 297.546 87.0898 298.544 87.6551Z" fill="white"/>
</mask>
<g mask="url(#mask0_219_105)">
<path d="M306.429 94.8378L294.718 88.0209C294.851 87.9543 294.984 87.8546 295.117 87.7881L306.828 94.605C306.728 94.6715 306.562 94.7713 306.429 94.8378Z" fill="#34313F"/>
<path d="M306.861 94.6052L295.15 87.7883C296.481 87.1565 297.679 87.1232 298.544 87.6553L310.255 94.4722C309.356 93.9734 308.192 93.9734 306.861 94.6052Z" fill="#33303E"/>
</g>
<path d="M72.3783 390.492L60.6675 383.708L291.424 250.529L303.135 257.346L72.3783 390.492Z" fill="#353241"/>
<path d="M302.736 107.474L303.135 257.346L72.3785 390.492L71.9792 240.62L302.736 107.474Z" fill="#FAFAFA"/>
<path d="M72.3785 390.492L60.6676 383.708L60.2351 233.803L71.9792 240.62L72.3785 390.492Z" fill="#CFCFCF"/>
<path d="M71.9792 240.62L60.2351 233.803L290.992 100.657L302.736 107.474L71.9792 240.62Z" fill="#C7C7C7"/>
<path d="M62.065 409.081L50.3542 402.297L49.8884 235.565L61.5993 242.349L62.065 409.081Z" fill="#373443"/>
<path d="M66.9555 233.038L55.2114 226.221L294.718 88.021L306.429 94.8379L66.9555 233.038Z" fill="#353241"/>
<path d="M306.429 94.8379C309.423 93.142 311.819 94.5386 311.819 97.9637L312.284 264.695L62.065 409.081L61.5992 242.349C61.5659 238.924 63.9614 234.767 66.9556 233.038L306.429 94.8379ZM303.135 257.346L302.703 107.474L71.9793 240.62L72.4118 390.492L303.135 257.346Z" fill="#433F51"/>
<mask id="mask1_219_105" style="mask-type:luminance" maskUnits="userSpaceOnUse" x="49" y="226" width="18" height="17">
<path d="M61.5991 242.349L49.8883 235.565C49.855 232.14 52.2504 227.984 55.2447 226.255L66.9555 233.071C63.9613 234.767 61.5658 238.957 61.5991 242.349Z" fill="white"/>
</mask>
<g mask="url(#mask1_219_105)">
<path d="M61.5993 242.349L49.8884 235.565C49.8884 235.299 49.8884 235 49.9217 234.734L61.6325 241.551C61.5993 241.817 61.5993 242.083 61.5993 242.349Z" fill="#353241"/>
<path d="M61.6325 241.551L49.9216 234.734C50.1212 232.805 50.9863 230.71 52.2505 229.015L63.9613 235.831C62.6971 237.527 61.8321 239.589 61.6325 241.551Z" fill="#363342"/>
<path d="M63.9613 235.798L52.2505 228.981C52.5832 228.516 52.9824 228.083 53.3816 227.684L65.0925 234.501C64.6933 234.9 64.3273 235.333 63.9613 235.798Z" fill="#353241"/>
<path d="M65.0924 234.501L53.3816 227.684C53.7143 227.352 54.0802 227.019 54.4795 226.753L66.1903 233.57C65.7911 233.836 65.4584 234.136 65.0924 234.501Z" fill="#343140"/>
<path d="M66.1906 233.537L54.4797 226.72C54.7459 226.521 54.9788 226.354 55.2449 226.221L66.9558 233.038C66.6896 233.204 66.4235 233.371 66.1906 233.537Z" fill="#34313F"/>
</g>
<path d="M229.477 97.3984L217.732 90.5815L257.024 58.4922L268.768 65.3091L229.477 97.3984Z" fill="#D7D7D7"/>
<path d="M254.495 71.2281L242.751 64.4445V60.6869L254.462 67.4705L254.495 71.2281Z" fill="#D8D8D8"/>
<path d="M268.768 65.3091L268.867 97.2987L229.476 97.3984L268.768 65.3091Z" fill="#FBFBFB"/>
<path d="M176.711 116.12L165 109.303L242.751 64.4445L254.495 71.2281L176.711 116.12Z" fill="#D3D3D3"/>
<path d="M176.711 112.362L164.967 105.545L242.751 60.6869L254.462 67.4705L176.711 112.362Z" fill="#51A1BA"/>
<path d="M250.602 69.7317L238.891 62.9148L238.758 22.9445L250.502 29.7281L250.602 69.7317Z" fill="#D8D8D8"/>
<path d="M242.451 74.4204L230.74 67.6035L230.641 27.6332L242.351 34.4501L242.451 74.4204Z" fill="#5B54D8"/>
<path d="M235.199 78.6104L223.454 71.7935L223.388 44.2931L235.099 51.11L235.199 78.6104Z" fill="#D8D8D8"/>
<mask id="mask2_219_105" style="mask-type:luminance" maskUnits="userSpaceOnUse" x="248" y="-1" width="19" height="9">
<path d="M254.495 0.199304L266.206 7.01621C264.709 6.15163 262.646 6.28464 260.384 7.58151L248.673 0.797862C250.968 -0.532266 253.031 -0.665279 254.495 0.199304Z" fill="white"/>
</mask>
<g mask="url(#mask2_219_105)">
<path d="M260.417 7.58153L248.673 0.797876C249.139 0.531851 249.604 0.299078 250.037 0.132812L261.748 6.94972C261.349 7.11598 260.883 7.3155 260.417 7.58153Z" fill="#CECECE"/>
<path d="M261.781 6.94962L250.07 0.132719C251.8 -0.532345 253.33 -0.465837 254.528 0.23248L266.239 7.04938C265.041 6.35107 263.511 6.28456 261.781 6.94962Z" fill="#CCCCCC"/>
</g>
<path d="M250.503 29.7281L250.602 69.7317L242.451 74.4204L242.352 34.4501L250.503 29.7281Z" fill="#6A61FB"/>
<path d="M242.351 34.4501L230.641 27.6332L238.758 22.9445L250.502 29.7281L242.351 34.4501Z" fill="#5A52D3"/>
<path d="M227.048 83.2989L215.337 76.5153L215.237 49.0149L226.981 55.7985L227.048 83.2989Z" fill="#8CAD82"/>
<path d="M226.981 55.7987L215.237 49.015L223.388 44.2931L235.099 51.11L226.981 55.7987Z" fill="#89AA80"/>
<path d="M235.099 51.1099L235.199 78.6103L227.048 83.299L226.981 55.7986L235.099 51.1099Z" fill="#A2CA97"/>
<path d="M219.761 87.5221L208.051 80.7052L207.917 34.583L219.628 41.3667L219.761 87.5221Z" fill="#D8D8D8"/>
<path d="M211.644 92.2108L199.9 85.3939L199.767 39.2717L211.511 46.0886L211.644 92.2108Z" fill="#D8932A"/>
<path d="M204.358 96.4007L192.614 89.5838L192.581 69.5986L204.291 76.4155L204.358 96.4007Z" fill="#D8D8D8"/>
<path d="M196.14 81.1042L184.429 74.3206L192.58 69.5986L204.291 76.4155L196.14 81.1042Z" fill="#5A52D3"/>
<path d="M196.207 101.09L184.496 94.3059L184.429 74.3207L196.14 81.1043L196.207 101.09Z" fill="#5B54D8"/>
<path d="M204.292 76.4156L204.358 96.4008L196.207 101.09L196.141 81.1044L204.292 76.4156Z" fill="#6A61FB"/>
<path d="M188.921 105.313L177.21 98.4958L177.11 64.91L188.821 71.7269L188.921 105.313Z" fill="#D8D8D8"/>
<path d="M254.462 67.4706L254.495 71.2282L176.711 116.12V112.362L254.462 67.4706Z" fill="#60BFDD"/>
<path d="M176.711 116.12L165 109.303L164.967 105.545L176.711 112.362V116.12Z" fill="#53A4BE"/>
<path d="M211.511 46.0886L199.767 39.2717L207.918 34.583L219.629 41.3667L211.511 46.0886Z" fill="#D39029"/>
<path d="M219.629 41.3668L219.762 87.5223L211.644 92.211L211.511 46.0888L219.629 41.3668Z" fill="#FBAB31"/>
<mask id="mask3_219_105" style="mask-type:luminance" maskUnits="userSpaceOnUse" x="151" y="119" width="15" height="13">
<path d="M165.732 131.383L154.021 124.566C152.557 123.702 151.659 121.906 151.626 119.312L163.337 126.129C163.37 128.723 164.268 130.552 165.732 131.383Z" fill="white"/>
</mask>
<g mask="url(#mask3_219_105)">
<path d="M165.732 131.383L154.021 124.566C153.455 124.234 152.99 123.768 152.624 123.203L164.335 130.02C164.701 130.618 165.166 131.051 165.732 131.383Z" fill="#CCCCCC"/>
<path d="M164.335 130.02L152.624 123.203C152.358 122.771 152.125 122.272 151.958 121.706L163.669 128.523C163.836 129.089 164.035 129.587 164.335 130.02Z" fill="#CECECE"/>
<path d="M163.669 128.523L151.958 121.706C151.825 121.208 151.725 120.642 151.659 120.044L163.37 126.861C163.436 127.459 163.503 128.025 163.669 128.523Z" fill="#D0D0D0"/>
<path d="M163.37 126.861L151.659 120.044C151.626 119.811 151.626 119.578 151.626 119.312L163.337 126.129C163.337 126.395 163.37 126.628 163.37 126.861Z" fill="#D2D2D2"/>
</g>
<path d="M180.803 110.001L169.059 103.184L168.959 69.5986L180.703 76.4155L180.803 110.001Z" fill="#8CAD82"/>
<path d="M180.703 76.4156L168.959 69.5987L177.11 64.91L188.821 71.7269L180.703 76.4156Z" fill="#89AA80"/>
<path d="M188.821 71.7269L188.921 105.313L180.803 110.001L180.703 76.4156L188.821 71.7269Z" fill="#A2CA97"/>
<path d="M163.337 126.162L151.626 119.346L151.493 66.2734L163.204 73.0903L163.337 126.162Z" fill="#D8D8D8"/>
<path d="M171.355 58.9909L159.611 52.174L248.673 0.797852L260.417 7.5815L171.355 58.9909Z" fill="#D3D3D3"/>
<path d="M260.417 7.5815C264.942 4.98776 268.601 7.08271 268.634 12.237L268.768 65.3091L229.476 97.3984L171.554 130.818C167.03 133.412 163.37 131.317 163.37 126.162L163.204 73.0903C163.204 67.9028 166.83 61.5847 171.355 58.9909L260.417 7.5815ZM254.495 71.2281V67.4705L250.636 69.6985L250.503 29.7281L242.352 34.4168L242.451 74.3872L235.199 78.6103L235.132 51.1099L226.981 55.7986L227.048 83.299L219.762 87.4889L219.629 41.3668L211.478 46.0555L211.611 92.1776L204.325 96.3675L204.258 76.3824L196.107 81.0711L196.174 101.056L188.921 105.313L188.821 71.7269L180.67 76.4156L180.77 110.001L176.678 112.362V116.12L254.495 71.2281Z" fill="#FBFBFB"/>
<mask id="mask4_219_105" style="mask-type:luminance" maskUnits="userSpaceOnUse" x="151" y="52" width="21" height="22">
<path d="M163.204 73.0903L151.493 66.2734C151.493 61.0859 155.119 54.7678 159.644 52.1741L171.355 58.991C166.83 61.5847 163.17 67.9028 163.204 73.0903Z" fill="white"/>
</mask>
<g mask="url(#mask4_219_105)">
<path d="M163.204 73.0903L151.493 66.2734C151.493 65.8411 151.526 65.4088 151.559 64.9432L163.27 71.7601C163.237 72.2257 163.204 72.658 163.204 73.0903Z" fill="#D2D2D2"/>
<path d="M163.27 71.76L151.559 64.9764C151.692 63.879 151.959 62.7484 152.325 61.6178L164.035 68.4347C163.669 69.5321 163.403 70.6627 163.27 71.76Z" fill="#D4D4D4"/>
<path d="M164.036 68.4015L152.325 61.5846C152.724 60.454 153.223 59.3234 153.855 58.2261L165.566 65.043C164.967 66.1403 164.435 67.2709 164.036 68.4015Z" fill="#D6D6D6"/>
<path d="M165.566 65.0762L153.855 58.2593C154.487 57.162 155.219 56.1644 156.017 55.2333L167.728 62.0502C166.93 62.948 166.198 63.9789 165.566 65.0762Z" fill="#D4D4D4"/>
<path d="M167.728 62.0501L156.018 55.2332C156.517 54.6347 157.082 54.1026 157.615 53.6371L169.325 60.454C168.793 60.9195 168.261 61.4516 167.728 62.0501Z" fill="#D2D2D2"/>
<path d="M169.359 60.4208L157.648 53.6038C158.147 53.1716 158.679 52.7725 159.245 52.4067L170.955 59.2236C170.39 59.5894 169.858 59.9885 169.359 60.4208Z" fill="#D0D0D0"/>
<path d="M170.922 59.2237L159.211 52.4068C159.344 52.307 159.477 52.2405 159.61 52.1407L171.321 58.9577C171.221 59.0574 171.055 59.1572 170.922 59.2237Z" fill="#CECECE"/>
</g>
<path d="M262.912 178.569L231.872 196.659V289.668L262.912 271.545V178.569Z" fill="#DFC8ED"/>
<path d="M269.466 194.764V208.83L287.265 198.455V184.389L269.466 194.764Z" fill="#DFC8ED"/>
<path d="M269.466 214.716V228.782L287.265 218.374V204.341L269.466 214.716Z" fill="#DFC8ED"/>
<path d="M269.466 234.701V248.767L287.265 238.359V224.326L269.466 234.701Z" fill="#DFC8ED"/>
<path d="M269.466 254.653V268.686L287.265 258.311V244.245L269.466 254.653Z" fill="#DFC8ED"/>
<path d="M286.134 131.084L231.506 162.608C230.342 163.273 229.377 162.575 229.377 161.012C229.377 159.449 230.342 157.62 231.506 156.955L286.168 125.431C287.332 124.766 288.297 125.464 288.297 127.027C288.264 128.59 287.332 130.419 286.134 131.084Z" fill="#374291"/>
<path d="M286.134 144.751L231.506 176.308C230.342 176.973 229.377 176.275 229.377 174.712C229.377 173.149 230.342 171.32 231.506 170.655L286.168 139.131C287.332 138.466 288.297 139.164 288.297 140.727C288.264 142.257 287.332 144.086 286.134 144.751Z" fill="#374291"/>
<path d="M286.134 157.786L231.506 189.31C230.342 189.975 229.377 189.277 229.377 187.714C229.377 186.151 230.342 184.322 231.506 183.657L286.168 152.133C287.332 151.468 288.297 152.166 288.297 153.729C288.264 155.259 287.332 157.088 286.134 157.786Z" fill="#374291"/>
<path d="M175.447 206.269C186.459 226.886 205.123 254.985 202.162 274.139C190.318 270.382 189.121 269.251 182.5 278.695C173.85 269.284 155.785 241.917 155.785 241.917L150.095 196.958C150.095 196.958 165.799 188.213 175.447 206.269Z" fill="#6C63FF"/>
<path d="M83.49 384.174C130.965 356.607 143.674 350.222 172.452 332.831C171.854 318.366 169.126 309.587 169.126 309.587C169.126 309.587 107.211 290.932 108.941 304.266C108.941 304.266 86.9833 326.912 85.3198 365.319C85.1535 370.041 83.856 376.958 83.49 384.174Z" fill="#472E2E"/>
<path d="M86.4843 304.666C90.5099 284.68 78.0006 258.078 79.6641 234.867C81.6935 228.183 77.5681 223.395 82.2923 218.473C91.5412 208.797 111.037 201.847 111.037 201.847L142.443 201.281C142.443 201.281 147.101 191.771 157.016 201.281C177.975 221.366 175.746 264.23 174.549 285.811C173.451 305.464 178.84 303.568 171.488 315.107C167.229 321.791 125.143 345.268 99.3596 336.555C82.126 330.736 85.7524 308.257 86.4843 304.666Z" fill="#6C63FF"/>
<path d="M138.95 196.792L141.778 213.252C141.778 213.252 143.641 219.305 140.913 224.193C134.392 222.164 128.038 220.169 122.049 217.01C114.896 213.252 110.039 207.466 110.039 207.466L115.096 179.434L138.95 196.792Z" fill="#F7C588"/>
<path d="M112.301 148.675C119.088 140.029 138.617 132.747 151.326 151.535C164.634 171.254 152.058 203.509 140.347 201.647C133.793 200.583 119.088 194.631 112.634 184.089C105.381 172.218 107.011 155.392 112.301 148.675Z" fill="#F7C588"/>
<path d="M155.352 159.149C152.79 163.605 148.232 167.762 137.253 168.76C128.271 169.591 121.085 167.163 121.085 167.163L122.449 176.175C122.449 176.175 120.652 176.308 119.155 175.843C117.791 171.32 113.732 171.786 112.468 174.313C110.971 177.272 112.667 184.089 112.667 184.089C112.667 184.089 101.955 178.071 101.456 164.337C101.156 155.791 107.91 136.936 123.513 134.409C139.117 131.849 163.237 139.73 155.352 159.149Z" fill="#19345E"/>
<path d="M103.086 306.594C102.088 308.955 98.5944 313.644 92.9386 315.972C86.7172 319.264 87.2495 314.675 79.4978 313.577C74.7735 310.485 68.286 292.262 66.9885 272.942C65.1919 245.741 65.9571 225.656 82.2924 218.473C91.2419 214.516 98.9937 236.995 101.589 248.634C103.485 257.08 108.342 281.488 107.544 296.785C107.311 302.105 104.383 303.469 103.086 306.594Z" fill="#6C63FF"/>
<path d="M133.86 224.06C133.86 224.06 134.425 226.354 136.555 229.247C138.551 231.941 140.647 233.404 142.377 232.872C144.772 232.107 145.338 229.247 145.504 226.022C145.637 223.428 144.539 218.041 144.539 218.041C144.539 218.041 143.042 218.706 140.88 222.198C135.623 221.067 133.86 224.06 133.86 224.06Z" fill="#F8BD47"/>
<path d="M187.59 256.615C190.95 246.007 204.757 228.649 206.454 223.561C207.319 220.934 209.382 215.614 210.347 212.754C211.644 208.863 216.801 206.635 223.089 203.609C229.377 200.583 230.275 202.346 228.079 206.003C226.449 208.664 222.39 209.495 223.089 210.193C225.717 212.687 228.445 213.718 236.064 212.953C242.352 212.288 245.812 207.799 251.002 209.395C256.192 210.991 248.673 223.661 241.287 226.022C233.901 228.416 224.985 227.019 223.654 227.884C223.189 228.183 222.29 230.378 221.824 231.276C217.666 244.71 214.073 261.27 206.088 273.674C196.706 288.239 185.228 282.918 183.165 276.966C181.103 270.947 185.627 262.733 187.59 256.615Z" fill="#F7C588"/>
<path d="M161.806 331.069C157.714 330.404 154.221 330.37 151.193 330.537C152.025 329.872 153.09 329.206 154.886 328.242C159.178 325.948 158.147 323.154 153.988 323.786C149.796 324.451 148.864 324.385 142.71 327.644C140.747 328.708 139.25 329.572 138.118 330.304C136.987 329.872 135.889 329.173 134.858 328.142C128.869 322.223 116.926 306.096 110.671 302.172C104.416 298.248 98.8937 297.317 93.737 299.545C90.5431 300.908 83.3569 303.169 85.8854 313.079C88.6135 323.786 99.9251 328.907 121.018 340.712C142.077 352.517 162.838 355.776 172.02 349.491C181.202 343.206 175.912 333.396 161.806 331.069Z" fill="#F7C588"/>
<path d="M139.349 227.585C139.349 227.585 140.447 238.093 141.911 250.23C143.342 262.368 140.414 305.331 140.414 305.331L150.095 313.212C150.095 313.212 155.352 306.262 158.646 298.381C158.646 294.756 154.221 255.617 150.095 242.549C145.404 227.585 143.375 225.224 143.375 225.224L139.349 227.585Z" fill="#F8BD47"/>
<path d="M104.483 271.246C104.483 271.246 111.237 303.069 116.46 306.162C121.684 309.255 136.089 324.019 136.755 327.876C137.42 331.767 133.095 344.935 122.682 341.178C112.268 337.42 82.3258 321.226 78.1006 311.017" fill="#6C63FF"/>
<path d="M168.793 263.498C168.793 263.498 181.668 283.118 190.984 284.88C200.299 286.642 210.047 273.674 215.037 259.608C220.028 245.541 224.02 230.677 223.255 228.915C222.49 227.152 208.849 216.511 206.953 220.369C205.057 224.259 185.328 254.187 185.328 254.187" fill="#6C63FF"/>
<path d="M284.937 449.317C285.669 451.013 286.534 455.037 283.939 456.666C281.81 457.996 279.614 456.001 278.716 454.737C277.884 453.573 277.884 451.212 276.387 449.949C274.856 448.685 270.332 443.032 271.163 437.911C271.962 432.79 281.178 440.771 284.937 449.317Z" fill="#472E2E"/>
<path d="M262.414 463.516C263.046 464.58 264.476 470 261.914 471.829C261.914 471.829 259.02 474.889 255.593 470.798C255.593 470.798 255.893 469.335 253.564 469.335C251.235 469.335 246.211 464.081 246.012 460.191C245.812 456.367 249.239 456.633 254.861 460.091C258.588 462.385 262.414 463.516 262.414 463.516Z" fill="#472E2E"/>
<path d="M284.338 447.089C284.338 447.089 285.07 452.044 282.109 453.141C278.35 454.538 278.15 450.481 278.15 450.481C278.15 450.481 280.08 450.68 281.943 449.716C283.772 448.785 284.338 447.089 284.338 447.089Z" fill="#472E2E"/>
<path d="M262.546 463.217C262.779 464.381 262.779 468.105 259.319 468.87C256.225 469.568 255.56 466.276 255.56 466.276C255.56 466.276 257.589 466.01 259.685 465.079C261.814 464.181 262.546 463.217 262.546 463.217Z" fill="#472E2E"/>
<path d="M284.305 447.255C283.905 449.749 281.743 450.514 280.013 450.614C279.214 450.647 278.516 450.547 278.117 450.414C276.852 449.916 271.928 414.966 270.631 406.188C268.801 394.083 269.001 365.652 268.502 364.388C268.335 363.956 267.903 363.956 267.504 364.056C267.138 364.156 266.805 364.388 266.805 364.388C265.973 373.766 258.953 401.931 261.815 418.857C264.676 435.783 263.545 460.989 262.58 463.283C261.582 465.545 259.12 466.176 257.39 466.343C256.358 466.442 255.626 466.376 255.626 466.376C255.127 464.614 249.671 430.928 248.008 413.603C247.708 410.378 244.781 371.471 243.483 362.825C243.317 361.628 240.822 341.743 240.822 341.444C242.219 343.173 251.834 348.227 254.628 347.097C257.989 345.767 260.517 352.85 266.639 351.42C274.191 349.657 284.238 339.482 284.271 339.448C284.371 339.848 284.438 340.313 284.538 340.745C287.199 356.241 279.614 392.886 282.808 405.855C287.332 424.045 284.737 444.662 284.305 447.255Z" fill="#374291"/>
<path d="M210.114 315.473L223.022 308.157C226.516 306.129 227.547 308.49 228.845 310.984L240.289 332.831C241.587 335.325 242.685 337.087 239.79 338.85L227.281 346.066C225.285 347.396 223.954 347.562 222.523 344.902L210.613 322.223C209.349 319.696 207.386 317.202 210.114 315.473Z" fill="#472E2E"/>
<path d="M211.112 314.874L224.02 307.559C227.514 305.53 228.545 307.891 229.843 310.385L241.287 332.232C242.585 334.726 243.683 336.489 240.788 338.251L228.279 345.467C226.283 346.797 224.952 346.964 223.521 344.303L211.611 321.625C210.347 319.097 208.384 316.57 211.112 314.874Z" fill="#563D3D"/>
<path d="M240.289 333.862L224.852 342.641L211.212 317.135L226.649 308.323L240.289 333.862Z" fill="white"/>
<path d="M235.931 339.282L232.338 341.377L231.606 340.047L235.199 337.985L235.931 339.282Z" fill="white"/>
<path d="M240.189 309.121C240.189 309.121 233.935 310.751 229.41 311.117C224.886 311.482 222.79 311.649 222.79 312.148C222.79 313.511 224.486 313.444 225.085 313.577C226.416 313.843 229.31 313.644 229.31 313.644C229.31 313.644 228.944 314.442 229.876 315.805C230.475 316.703 230.641 317.701 231.473 318.499C234.667 321.558 244.381 317.767 244.381 317.767L240.189 309.121Z" fill="#F7C588"/>
<path d="M249.073 304.666C249.073 304.666 238.626 308.423 236.696 309.454C234.767 310.518 234.9 315.639 236.696 317.834C238.493 320.028 250.004 318 250.004 318L249.073 304.666Z" fill="#4F4FAA"/>
<path d="M243.417 296.452C243.55 305.53 243.65 317.136 243.483 321.991C243.15 330.503 238.293 339.382 240.289 342.608C243.084 347.097 248.939 353.847 266.239 351.952C273.426 351.154 278.416 350.655 283.34 344.104C285.636 341.078 285.636 337.786 284.105 327.644C282.342 315.938 283.407 305.63 283.639 296.785C283.839 290.599 280.512 282.087 277.984 279.526C275.255 276.733 273.858 275.968 269.167 277.265C265.408 277.631 256.924 282.419 254.129 283.982C247.243 286.742 243.383 293.792 243.417 296.452Z" fill="#6C63FF"/>
<path d="M272.128 280.59L270.631 273.441L258.887 276.201C258.887 276.201 259.353 279.293 257.889 282.984C266.373 285.778 272.927 284.481 272.128 280.59Z" fill="#F7C588"/>
<path d="M270.631 273.441C266.173 277.997 259.486 279.626 256.126 279.027C249.538 277.864 246.012 261.004 254.961 252.658C263.511 244.677 272.461 250.563 274.89 255.684C276.753 259.674 275.622 268.32 270.631 273.441Z" fill="#F7C588"/>
<path d="M248.74 251.926C248.74 251.926 249.039 255.817 251.667 258.111C254.262 260.406 259.353 262.301 259.353 262.301C259.353 262.301 259.319 263.964 258.854 266.092C258.388 268.22 259.619 269.051 259.619 269.051C259.619 269.051 262.247 264.861 264.044 268.22C265.807 271.579 262.646 273.441 262.646 273.441C262.646 273.441 263.678 275.968 265.508 277.697C266.838 278.928 269.2 280.623 269.2 280.623C269.2 280.623 271.163 275.303 274.524 270.548C277.884 265.759 278.849 261.902 278.849 259.94C278.882 257.113 277.884 252.491 272.128 249.964C266.872 245.076 260.95 248.035 259.419 248.567C257.889 249.099 254.595 249.931 251.867 248.168C252.133 250.928 253.464 252.857 253.464 252.857C253.464 252.857 251.235 252.624 248.74 251.926Z" fill="#33211F"/>
<path d="M217.599 330.936C217.599 330.936 216.701 329.04 216.402 327.378C216.202 326.347 216.934 325.05 218.132 326.879C219.329 328.708 221.592 330.803 221.592 330.803L226.017 338.617C226.017 338.617 221.026 343.805 215.969 340.646C210.946 337.487 214.006 331.966 214.672 331.401C215.37 330.869 217.599 330.936 217.599 330.936Z" fill="#F7C588"/>
<path d="M235.399 320.96C236.597 314.01 237.694 308.889 238.759 302.238C240.356 292.162 245.48 287.806 249.572 287.141C249.572 287.141 255.128 292.595 255.46 300.742C255.76 308.889 255.028 315.872 250.437 323.819C248.84 326.579 244.115 333.13 239.657 335.325C235.465 337.387 224.154 341.976 221.792 342.009C218.398 339.914 215.969 334.593 220.893 329.406C223.755 327.91 232.005 322.523 235.399 320.96Z" fill="#6C63FF"/>
<path d="M437.909 308.19L417.981 319.696L437.909 331.202L457.838 319.696L437.909 308.19Z" fill="#524BC2"/>
<path d="M417.981 362.759L437.909 374.264V331.202L417.981 319.696V362.759Z" fill="#6C63FF"/>
<path d="M437.909 374.264L457.838 362.759V319.696L437.909 331.202V374.264Z" fill="#574FCC"/>
<path d="M470.713 292.728L450.785 304.233L470.713 315.739L490.641 304.233L470.713 292.728Z" fill="#7D9C75"/>
<path d="M450.785 380.25L470.713 391.756V315.739L450.785 304.233V380.25Z" fill="#A5CD9A"/>
<path d="M368.31 354.08C368.077 352.184 362.322 355.343 360.858 353.681C358.596 351.154 356.965 347.396 357.997 337.021C359.028 326.646 360.292 320.261 360.858 314.542C361.423 308.822 362.588 301.773 363.719 294.158C364.85 286.543 366.114 263.864 366.114 263.864L345.354 266.79C345.554 270.614 345.853 284.115 349.18 292.761C352.507 301.44 348.748 306.927 347.983 311.615C346.785 318.998 347.883 325.715 349.047 335.525C350.178 345.334 350.079 348.859 348.947 350.954C347.816 353.016 349.047 356.208 355.036 357.937C355.135 357.97 355.269 358.004 355.368 358.037C356.932 358.469 358.595 358.802 360.159 358.935C364.784 359.434 368.809 358.403 368.31 354.08Z" fill="#F7C588"/>
<path d="M348.648 350.256C348.648 350.256 346.685 353.98 346.984 356.075C347.25 358.203 348.947 359.999 349.014 361.994C349.08 363.956 348.947 364.887 349.014 364.987C349.08 365.053 350.444 365.253 350.444 365.253L351.309 364.721V358.835C351.309 358.835 354.57 358.536 356.566 359.966C359.627 362.16 363.752 361.961 366.181 360.93C368.576 359.899 370.838 354.479 370.572 353.381C370.306 352.284 364.051 353.913 363.02 353.98C361.59 354.046 361.589 354.08 361.589 354.08C361.589 354.08 364.517 354.379 365.216 355.476C365.915 356.574 365.482 358.137 363.12 358.569C360.758 358.968 357.331 355.044 354.836 354.179C352.341 353.315 349.313 351.885 348.648 350.256Z" fill="#374291"/>
<path d="M379.954 364.821C377.559 363.391 376.095 364.255 375.263 363.723C373.433 362.593 370.439 360.198 370.606 355.909C370.805 351.619 375.563 323.52 376.894 317.335C378.224 311.15 378.89 307.16 379.355 300.01C379.821 292.861 380.121 283.35 379.355 276.6C379.023 273.607 374.332 271.878 369.474 271.712C363.053 271.479 355.901 273.84 358.03 279.659C359.394 283.35 361.157 290.599 362.787 295.754C364.417 300.908 366.38 306.361 365.416 310.086C364.451 313.81 362.022 320.095 362.022 328.575C362.022 337.054 362.987 354.944 361.723 357.605C360.492 360.265 359.327 362.792 359.993 364.388C360.658 366.018 366.613 366.583 371.238 369.642L371.271 369.676C371.437 369.775 371.604 369.875 371.77 369.975C371.803 370.008 371.87 370.008 371.903 370.041C372.036 370.108 372.136 370.141 372.269 370.208C372.336 370.241 372.369 370.241 372.435 370.274C372.535 370.307 372.668 370.341 372.768 370.374C372.835 370.374 372.901 370.407 372.934 370.407C373.034 370.44 373.167 370.474 373.267 370.474C373.334 370.474 373.367 370.507 373.433 370.507C373.567 370.507 373.666 370.54 373.799 370.54C373.833 370.54 373.899 370.54 373.933 370.54C374.066 370.54 374.199 370.54 374.298 370.54C374.332 370.54 374.365 370.54 374.432 370.54C374.565 370.54 374.698 370.507 374.831 370.507C374.864 370.507 374.897 370.507 374.897 370.507C375.064 370.474 375.197 370.474 375.363 370.44C378.99 369.676 381.684 365.885 379.954 364.821Z" fill="#F7C588"/>
<path d="M353.439 248.667L377.858 249.665C377.858 249.665 379.389 267.189 379.954 273.74C380.52 280.324 380.553 304.732 380.553 304.732C380.553 304.732 373.666 308.29 367.744 307.159C361.823 306.029 346.652 299.578 346.652 299.578C346.652 299.578 346.186 293.093 345.82 287.108C345.454 280.956 343.059 272.776 346.186 261.902C347.883 256.049 353.439 248.667 353.439 248.667Z" fill="#374291"/>
<path d="M361.057 358.935C361.057 358.935 358.961 362.194 359.56 365.053C360.159 367.913 361.789 368.113 361.789 370.174C361.789 372.236 361.789 373.899 361.789 373.899L363.02 374.364L364.384 373.866V367.315C364.384 367.315 366.713 367.281 369.807 369.609C372.935 371.937 376.794 372.136 379.023 371.006C381.252 369.875 385.411 364.089 384.313 362.958C383.248 361.828 375.197 363.856 375.197 363.856C375.197 363.856 377.792 364.355 378.158 365.585C378.59 367.115 376.561 369.476 374.498 368.578C372.436 367.647 370.473 364.954 366.414 363.291C362.355 361.595 361.324 359.533 361.057 358.935Z" fill="#374291"/>
<path d="M347.217 208.763C345.321 212.986 342.493 227.784 343.624 232.174C344.389 235.033 351.143 251.693 351.143 251.693L356.765 243.779L347.217 208.763Z" fill="#F9A61A"/>
<path d="M368.709 211.956C371.171 214.051 379.089 219.97 380.52 224.326C381.951 228.715 380.62 230.777 379.855 234.136C378.99 237.86 377.459 240.321 378.125 247.37C378.79 254.42 380.387 273.707 380.686 275.968C380.986 278.229 378.524 279.16 376.228 279.56C373.933 279.925 361.457 280.424 354.503 277.764C347.55 275.104 343.657 274.605 343.657 272.975C343.657 271.346 343.791 263.797 347.118 256.981C350.478 250.031 353.239 243.713 352.94 239.988C352.64 236.264 346.319 219.737 346.618 213.818C346.918 207.899 349.48 202.678 353.672 204.008C357.83 205.372 368.709 211.956 368.709 211.956Z" fill="#F9A61A"/>
<path d="M370.173 181.629C373.034 183.89 374.964 192.07 373.134 197.624C371.304 203.177 368.909 203.676 367.944 204.141C366.979 204.607 365.05 208.398 366.181 210.592C367.345 212.787 357.398 212.421 355.169 210.592C352.973 208.763 352.873 208.265 352.873 208.265C352.873 208.265 355.169 204.707 354.104 202.146C353.039 199.552 348.548 190.075 354.104 183.558C359.727 177.04 367.412 179.434 370.173 181.629Z" fill="#F7C588"/>
<path d="M392.43 235.166C397.454 229.513 400.182 226.454 400.415 224.259C400.648 222.065 401.114 219.87 401.746 218.207C402.378 216.544 403.542 214.716 404.241 214.25C404.94 213.818 406.038 214.15 405.505 215.514C404.973 216.877 403.642 219.005 404.973 218.972C406.304 218.939 408.466 215.248 408.466 214.549C408.5 213.851 407.502 212.222 408.3 211.656C409.098 211.058 410.562 212.953 410.729 213.818C410.862 214.682 410.762 215.68 410.762 215.68C410.762 215.68 411.161 215.68 411.327 216.445C411.461 217.21 411.228 218.407 411.228 218.407C411.228 218.407 411.461 218.24 411.627 219.105C411.76 219.97 411.727 222.863 410.695 223.893C409.664 224.924 406.77 227.152 405.805 228.05C404.84 228.948 397.82 238.957 397.82 238.957L392.43 235.166Z" fill="#F7C588"/>
<path d="M396.623 228.25C396.623 228.25 398.785 229.846 400.016 230.744C401.247 231.608 402.245 233.138 402.245 233.138C402.245 233.138 391.399 248.434 390.368 249.831C389.337 251.228 386.143 256.216 381.984 255.152C377.825 254.087 368.543 234.535 367.079 231.974C365.615 229.38 362.688 221.533 367.711 218.274C372.735 215.015 377.127 220.136 378.058 224.259C378.99 228.416 384.512 242.449 384.512 242.449C384.512 242.449 393.462 231.109 396.623 228.25Z" fill="#F9A61A"/>
<mask id="mask5_219_105" style="mask-type:luminance" maskUnits="userSpaceOnUse" x="417" y="406" width="7" height="9">
<path d="M423.304 407.618L423.271 414.401C421.774 413.537 419.379 413.537 417.915 414.401L417.948 407.618C419.412 406.786 421.807 406.786 423.304 407.618Z" fill="white"/>
</mask>
<g mask="url(#mask5_219_105)">
<path d="M423.304 407.618L423.271 414.401C423.238 414.401 423.238 414.368 423.204 414.368L423.238 407.584C423.271 407.618 423.271 407.618 423.304 407.618Z" fill="#566B50"/>
<path d="M423.238 407.584L423.205 414.368C422.772 414.135 422.24 413.969 421.674 413.869L421.708 407.086C422.273 407.185 422.772 407.352 423.238 407.584Z" fill="#596F53"/>
<path d="M421.707 407.086L421.674 413.869C420.743 413.703 419.711 413.769 418.813 414.035L418.846 407.252C419.745 406.986 420.776 406.919 421.707 407.086Z" fill="#5C7356"/>
<path d="M418.846 407.252L418.813 414.035C418.48 414.135 418.181 414.268 417.915 414.434L417.948 407.651C418.214 407.484 418.514 407.351 418.846 407.252Z" fill="#596F53"/>
</g>
<path d="M417.948 407.617L417.915 414.401L414.754 416.263V409.48L417.948 407.617Z" fill="#5F7658"/>
<path d="M427.23 409.879L427.197 416.662L423.271 414.401L423.304 407.617L427.23 409.879Z" fill="#5D7356"/>
<mask id="mask6_219_105" style="mask-type:luminance" maskUnits="userSpaceOnUse" x="427" y="409" width="1" height="8">
<path d="M427.197 416.662C427.197 414.401 427.197 412.14 427.23 409.879C427.33 409.945 427.396 410.045 427.396 410.111L427.363 416.895C427.363 416.829 427.33 416.729 427.197 416.662Z" fill="white"/>
</mask>
<g mask="url(#mask6_219_105)">
<path d="M427.396 410.145L427.363 416.928C427.363 416.829 427.297 416.762 427.197 416.695L427.23 409.912C427.33 409.945 427.396 410.045 427.396 410.145Z" fill="#566B50"/>
</g>
<mask id="mask7_219_105" style="mask-type:luminance" maskUnits="userSpaceOnUse" x="427" y="410" width="1" height="8">
<path d="M427.396 410.145L427.363 416.928C427.363 417.028 427.297 417.095 427.197 417.161L427.23 410.378C427.33 410.311 427.396 410.211 427.396 410.145Z" fill="white"/>
</mask>
<g mask="url(#mask7_219_105)">
<path d="M427.397 410.145L427.363 416.928C427.363 416.995 427.33 417.061 427.263 417.128L427.297 410.344C427.363 410.278 427.397 410.211 427.397 410.145Z" fill="#858585"/>
<path d="M427.297 410.311L427.263 417.094C427.23 417.094 427.23 417.128 427.197 417.128L427.23 410.344C427.263 410.344 427.263 410.344 427.297 410.311Z" fill="#8A8A8A"/>
</g>
<mask id="mask8_219_105" style="mask-type:luminance" maskUnits="userSpaceOnUse" x="413" y="409" width="2" height="9">
<path d="M414.754 416.263C414.089 416.662 413.723 417.161 413.656 417.693C413.656 415.432 413.656 413.171 413.69 410.91C413.723 410.377 414.089 409.879 414.787 409.48C414.754 411.508 414.754 414.235 414.754 416.263Z" fill="white"/>
</mask>
<g mask="url(#mask8_219_105)">
<path d="M414.754 409.48L414.721 416.263C414.555 416.363 414.422 416.463 414.289 416.563L414.322 409.779C414.455 409.679 414.588 409.579 414.754 409.48Z" fill="#596F53"/>
<path d="M414.355 409.779L414.322 416.563C413.856 416.928 413.623 417.361 413.623 417.826L413.656 411.043C413.656 410.577 413.889 410.145 414.355 409.779Z" fill="#566B50"/>
</g>
<mask id="mask9_219_105" style="mask-type:luminance" maskUnits="userSpaceOnUse" x="413" y="411" width="2" height="9">
<path d="M413.623 417.793L413.656 411.009C413.656 411.475 413.922 411.974 414.455 412.373C414.555 412.439 414.654 412.506 414.754 412.572L414.721 419.356C414.621 419.289 414.488 419.223 414.422 419.156C413.889 418.757 413.623 418.292 413.623 417.793Z" fill="white"/>
</mask>
<g mask="url(#mask9_219_105)">
<path d="M414.787 412.572L414.754 419.356C414.654 419.289 414.521 419.223 414.455 419.156C413.922 418.757 413.656 418.292 413.656 417.793L413.69 411.009C413.69 411.475 413.956 411.973 414.488 412.373C414.555 412.439 414.654 412.506 414.787 412.572Z" fill="#858585"/>
</g>
<mask id="mask10_219_105" style="mask-type:luminance" maskUnits="userSpaceOnUse" x="413" y="410" width="1" height="8">
<path d="M413.656 417.693C413.656 417.726 413.656 417.76 413.656 417.826L413.69 411.043C413.69 411.009 413.69 410.976 413.69 410.91C413.69 412.04 413.69 413.171 413.69 414.301C413.69 414.567 413.69 414.933 413.69 415.199C413.69 415.465 413.69 415.798 413.69 416.064C413.69 416.33 413.69 416.662 413.69 416.895C413.656 417.128 413.656 417.46 413.656 417.693Z" fill="white"/>
</mask>
<g mask="url(#mask10_219_105)">
<path d="M414.355 409.779L414.322 416.563C413.856 416.928 413.623 417.361 413.623 417.826L413.656 411.043C413.656 410.577 413.889 410.145 414.355 409.779Z" fill="#566B50"/>
</g>
<mask id="mask11_219_105" style="mask-type:luminance" maskUnits="userSpaceOnUse" x="428" y="410" width="2" height="8">
<path d="M428.694 417.893C428.694 415.631 428.694 413.37 428.727 411.109C428.96 410.976 429.359 410.909 429.692 410.976L429.659 417.76C429.326 417.693 428.927 417.76 428.694 417.893Z" fill="white"/>
</mask>
<g mask="url(#mask11_219_105)">
<path d="M429.659 411.009L429.626 417.793C429.592 417.793 429.592 417.793 429.559 417.793L429.592 411.009C429.626 411.009 429.659 411.009 429.659 411.009Z" fill="#596F53"/>
<path d="M429.592 410.976L429.559 417.76C429.326 417.726 429.093 417.726 428.894 417.793L428.927 411.009C429.127 410.976 429.393 410.943 429.592 410.976Z" fill="#5C7356"/>
<path d="M428.927 411.043L428.894 417.826C428.827 417.86 428.727 417.893 428.694 417.926L428.727 411.142C428.761 411.076 428.86 411.043 428.927 411.043Z" fill="#596F53"/>
</g>
<path d="M416.883 413.802V420.586L414.754 419.356L414.787 412.572L416.883 413.802Z" fill="#8F8F8F"/>
<path d="M447.558 414.9L447.525 421.65L429.659 417.793V411.009L447.558 414.9Z" fill="#627A5C"/>
<path d="M427.23 410.377L427.197 417.128L419.479 421.617L419.512 414.833L427.23 410.377Z" fill="#929292"/>
<path d="M418.68 414.833V421.617L416.883 420.586V413.802L418.68 414.833Z" fill="#8F8F8F"/>
<path d="M414.455 412.373V419.156L410.063 421.717V414.933L414.455 412.373Z" fill="#5F7658"/>
<path d="M427.23 409.879C427.463 410.012 427.463 410.211 427.23 410.344L419.512 414.833C419.279 414.966 418.913 414.966 418.68 414.833L416.883 413.803L414.754 412.572C414.654 412.506 414.521 412.439 414.455 412.373C413.29 411.508 413.39 410.278 414.754 409.48L417.948 407.617C419.412 406.753 421.807 406.753 423.304 407.617L427.23 409.879Z" fill="#FDFDFD"/>
<mask id="mask12_219_105" style="mask-type:luminance" maskUnits="userSpaceOnUse" x="418" y="414" width="2" height="8">
<path d="M419.511 414.833L419.478 421.617C419.245 421.75 418.879 421.75 418.646 421.617L418.68 414.833C418.913 414.967 419.279 414.967 419.511 414.833Z" fill="white"/>
</mask>
<g mask="url(#mask12_219_105)">
<path d="M419.512 414.833L419.479 421.617C419.445 421.65 419.379 421.65 419.345 421.684L419.379 414.9C419.412 414.9 419.479 414.867 419.512 414.833Z" fill="#8A8A8A"/>
<path d="M419.379 414.9L419.346 421.684C419.212 421.717 419.046 421.717 418.913 421.717L418.946 414.933C419.079 414.966 419.246 414.933 419.379 414.9Z" fill="#8F8F8F"/>
<path d="M418.946 414.933L418.913 421.717C418.813 421.717 418.746 421.684 418.68 421.65L418.713 414.867C418.78 414.9 418.846 414.9 418.946 414.933Z" fill="#8A8A8A"/>
<path d="M418.713 414.866C418.713 414.833 418.68 414.833 418.713 414.866Z" fill="#858585"/>
</g>
<mask id="mask13_219_105" style="mask-type:luminance" maskUnits="userSpaceOnUse" x="447" y="414" width="2" height="8">
<path d="M448.39 421.983C448.157 421.85 447.891 421.75 447.525 421.684L447.558 414.9C447.891 414.966 448.19 415.066 448.423 415.199C448.39 417.46 448.39 419.722 448.39 421.983Z" fill="white"/>
</mask>
<g mask="url(#mask13_219_105)">
<path d="M449.088 416.197L449.055 422.98C449.055 422.615 448.822 422.249 448.356 421.983L448.323 421.95L448.356 415.166C448.356 415.166 448.39 415.166 448.39 415.199C448.855 415.465 449.088 415.831 449.088 416.197Z" fill="#566B50"/>
<path d="M448.356 415.166L448.323 421.95C448.09 421.817 447.824 421.717 447.525 421.65L447.558 414.867C447.857 414.967 448.124 415.066 448.356 415.166Z" fill="#596F53"/>
</g>
<mask id="mask14_219_105" style="mask-type:luminance" maskUnits="userSpaceOnUse" x="409" y="414" width="2" height="9">
<path d="M409.697 422.216L409.731 415.432C409.731 415.233 409.864 415.066 410.097 414.933L410.063 421.717C409.83 421.85 409.697 422.016 409.697 422.216Z" fill="white"/>
</mask>
<g mask="url(#mask14_219_105)">
<path d="M410.063 414.933L410.03 421.717C409.963 421.75 409.93 421.783 409.897 421.817L409.93 415.033C409.997 415 410.03 414.966 410.063 414.933Z" fill="#596F53"/>
<path d="M409.93 415.033L409.897 421.816C409.764 421.95 409.664 422.083 409.664 422.216L409.697 415.432C409.731 415.299 409.797 415.133 409.93 415.033Z" fill="#566B50"/>
</g>
<mask id="mask15_219_105" style="mask-type:luminance" maskUnits="userSpaceOnUse" x="409" y="415" width="1" height="8">
<path d="M409.697 422.216L409.731 415.432C409.731 415.499 409.764 415.598 409.797 415.665L409.764 422.448C409.731 422.349 409.697 422.282 409.697 422.216Z" fill="white"/>
</mask>
<g mask="url(#mask15_219_105)">
<path d="M409.797 415.665L409.764 422.448C409.731 422.382 409.697 422.282 409.697 422.216L409.731 415.432C409.731 415.499 409.731 415.598 409.797 415.665Z" fill="#858585"/>
</g>
<path d="M428.727 411.109L428.694 417.893L420.743 422.515L420.776 415.731L428.727 411.109Z" fill="#5F7658"/>
<mask id="mask16_219_105" style="mask-type:luminance" maskUnits="userSpaceOnUse" x="420" y="415" width="1" height="8">
<path d="M420.743 422.515C420.576 422.615 420.477 422.748 420.477 422.881L420.51 416.097C420.51 415.964 420.61 415.831 420.776 415.731C420.776 417.76 420.776 420.486 420.743 422.515Z" fill="white"/>
</mask>
<g mask="url(#mask16_219_105)">
<path d="M420.776 415.731L420.742 422.515C420.709 422.548 420.676 422.548 420.643 422.581L420.676 415.798C420.709 415.765 420.742 415.765 420.776 415.731Z" fill="#596F53"/>
<path d="M420.676 415.798L420.643 422.581C420.543 422.681 420.477 422.781 420.477 422.881L420.51 416.097C420.51 415.997 420.576 415.897 420.676 415.798Z" fill="#566B50"/>
</g>
<mask id="mask17_219_105" style="mask-type:luminance" maskUnits="userSpaceOnUse" x="448" y="415" width="2" height="8">
<path d="M449.088 422.947C449.088 422.581 448.855 422.216 448.39 421.95C448.39 419.688 448.39 417.427 448.423 415.166C448.889 415.432 449.122 415.798 449.122 416.163C449.088 418.225 449.088 420.919 449.088 422.947Z" fill="white"/>
</mask>
<g mask="url(#mask17_219_105)">
<path d="M449.088 416.197L449.055 422.98C449.055 422.615 448.822 422.249 448.356 421.983L448.323 421.95L448.356 415.166C448.356 415.166 448.39 415.166 448.39 415.199C448.855 415.465 449.088 415.831 449.088 416.197Z" fill="#566B50"/>
</g>
<mask id="mask18_219_105" style="mask-type:luminance" maskUnits="userSpaceOnUse" x="420" y="416" width="1" height="8">
<path d="M420.51 422.881L420.543 416.097C420.543 416.163 420.576 416.23 420.609 416.296L420.576 423.08C420.51 423.014 420.51 422.947 420.51 422.881Z" fill="white"/>
</mask>
<g mask="url(#mask18_219_105)">
<path d="M420.576 416.296L420.543 423.08C420.51 423.014 420.477 422.947 420.477 422.881L420.51 416.097C420.51 416.163 420.543 416.23 420.576 416.296Z" fill="#858585"/>
</g>
<path d="M410.329 416.596L410.296 423.379L409.764 422.448L409.797 415.665L410.329 416.596Z" fill="#838383"/>
<path d="M416.883 413.802V420.586L412.458 423.612V416.862L416.883 413.802Z" fill="#909090"/>
<mask id="mask19_219_105" style="mask-type:luminance" maskUnits="userSpaceOnUse" x="448" y="416" width="2" height="8">
<path d="M449.088 416.197L449.055 422.98C449.055 423.313 448.822 423.679 448.356 423.945L448.389 417.161C448.889 416.862 449.088 416.529 449.088 416.197Z" fill="white"/>
</mask>
<g mask="url(#mask19_219_105)">
<path d="M449.088 416.197L449.055 422.98C449.055 423.246 448.922 423.513 448.622 423.745L448.656 416.962C448.955 416.729 449.088 416.463 449.088 416.197Z" fill="#858585"/>
<path d="M448.689 416.962L448.656 423.745C448.589 423.812 448.489 423.878 448.39 423.945L448.423 417.161C448.523 417.095 448.589 417.028 448.689 416.962Z" fill="#8A8A8A"/>
</g>
<path d="M414.455 412.373C414.555 412.439 414.654 412.506 414.754 412.572L416.883 413.803L412.459 416.862C411.96 417.194 411.095 417.194 410.629 416.895C410.496 416.829 410.396 416.729 410.329 416.596L409.797 415.632C409.664 415.365 409.764 415.099 410.096 414.9L414.455 412.373Z" fill="#FDFDFD"/>
<mask id="mask20_219_105" style="mask-type:luminance" maskUnits="userSpaceOnUse" x="410" y="416" width="3" height="8">
<path d="M412.459 416.862L412.425 423.645C411.926 423.978 411.061 423.978 410.596 423.679C410.462 423.612 410.363 423.512 410.296 423.379L410.329 416.596C410.396 416.696 410.496 416.795 410.629 416.895C411.128 417.194 411.96 417.194 412.459 416.862Z" fill="white"/>
</mask>
<g mask="url(#mask20_219_105)">
<path d="M412.459 416.862L412.425 423.645C412.326 423.712 412.192 423.778 412.059 423.812L412.093 417.028C412.226 416.995 412.359 416.928 412.459 416.862Z" fill="#8A8A8A"/>
<path d="M412.093 417.028L412.059 423.812C411.76 423.912 411.427 423.912 411.128 423.878L411.161 417.095C411.46 417.128 411.793 417.128 412.093 417.028Z" fill="#8F8F8F"/>
<path d="M411.161 417.061L411.128 423.845C410.928 423.812 410.762 423.745 410.629 423.679L410.662 416.895C410.795 416.995 410.961 417.061 411.161 417.061Z" fill="#8A8A8A"/>
<path d="M410.662 416.895L410.629 423.679C410.629 423.679 410.629 423.679 410.596 423.679C410.462 423.612 410.363 423.512 410.296 423.379L410.329 416.596C410.396 416.729 410.496 416.829 410.662 416.895C410.629 416.895 410.629 416.895 410.662 416.895Z" fill="#858585"/>
</g>
<path d="M427.33 426.638V433.389L420.543 423.047L420.576 416.297L427.33 426.638Z" fill="#848484"/>
<path d="M448.423 417.161L448.39 423.912L431.223 433.888L431.256 427.104L448.423 417.161Z" fill="#929292"/>
<mask id="mask21_219_105" style="mask-type:luminance" maskUnits="userSpaceOnUse" x="427" y="426" width="5" height="9">
<path d="M431.256 427.104L431.222 433.887C430.258 434.453 428.76 434.386 427.862 433.887C427.629 433.754 427.43 433.588 427.33 433.389L427.363 426.605C427.496 426.804 427.663 426.971 427.895 427.104C428.76 427.636 430.291 427.669 431.256 427.104Z" fill="white"/>
</mask>
<g mask="url(#mask21_219_105)">
<path d="M431.256 427.104L431.223 433.888C431.056 433.987 430.857 434.087 430.657 434.12L430.69 427.337C430.89 427.303 431.09 427.204 431.256 427.104Z" fill="#8A8A8A"/>
<path d="M430.69 427.37L430.657 434.153C430.091 434.32 429.459 434.353 428.86 434.253L428.894 427.47C429.459 427.569 430.125 427.536 430.69 427.37Z" fill="#8F8F8F"/>
<path d="M428.894 427.47L428.86 434.253C428.494 434.187 428.162 434.087 427.896 433.921L427.929 427.137C428.195 427.303 428.528 427.403 428.894 427.47Z" fill="#8A8A8A"/>
<path d="M427.929 427.137L427.895 433.921L427.862 433.887C427.629 433.754 427.43 433.588 427.33 433.389L427.363 426.605C427.496 426.804 427.663 426.971 427.895 427.104C427.895 427.137 427.929 427.137 427.929 427.137Z" fill="#858585"/>
</g>
<mask id="mask22_219_105" style="mask-type:luminance" maskUnits="userSpaceOnUse" x="396" y="415" width="62" height="25">
<path d="M457.838 415.498L457.805 422.282C457.805 426.771 454.844 431.227 448.955 434.652C437.111 441.536 417.815 441.536 405.871 434.652C399.849 431.194 396.855 426.638 396.888 422.083L396.922 415.299C396.922 419.855 399.916 424.377 405.904 427.869C417.848 434.752 437.111 434.752 448.988 427.869C454.877 424.477 457.838 419.988 457.838 415.498Z" fill="white"/>
</mask>
<g mask="url(#mask22_219_105)">
<path d="M457.838 415.498L457.805 422.282C457.805 425.807 455.975 429.332 452.315 432.358L452.349 425.574C456.008 422.548 457.838 419.023 457.838 415.498Z" fill="#566B50"/>
<path d="M452.348 425.574L452.315 432.358C451.317 433.156 450.219 433.954 448.955 434.686C446.759 435.982 444.297 437.013 441.669 437.811L441.702 431.028C444.331 430.23 446.792 429.166 448.988 427.902C450.252 427.17 451.384 426.372 452.348 425.574Z" fill="#596F53"/>
<path d="M441.702 431.028L441.669 437.811C434.583 439.973 426.332 440.405 418.78 439.108L418.813 432.325C426.365 433.621 434.616 433.189 441.702 431.028Z" fill="#5C7356"/>
<path d="M418.78 432.324L418.746 439.108C414.288 438.343 410.063 436.98 406.47 435.018L406.503 428.234C410.13 430.196 414.322 431.56 418.78 432.324Z" fill="#596F53"/>
<path d="M406.537 428.201L406.504 434.985C406.304 434.885 406.104 434.752 405.905 434.652C399.883 431.194 396.889 426.638 396.922 422.083L396.955 415.299C396.955 419.855 399.949 424.377 405.938 427.869C406.138 428.002 406.337 428.101 406.537 428.201Z" fill="#566B50"/>
</g>
<path d="M448.855 402.962C460.799 409.845 460.866 421.019 448.988 427.902C437.145 434.785 417.848 434.785 405.905 427.902C393.961 421.019 393.894 409.845 405.772 402.962C417.649 396.045 436.912 396.045 448.855 402.962ZM431.256 427.104L448.423 417.128C449.388 416.563 449.288 415.698 448.423 415.199C448.19 415.066 447.924 414.966 447.558 414.9L429.659 411.009C429.326 410.943 428.96 410.976 428.694 411.142L420.743 415.765C420.51 415.898 420.41 416.13 420.543 416.33L427.297 426.672C427.43 426.871 427.596 427.037 427.829 427.17C428.761 427.636 430.291 427.669 431.256 427.104ZM419.512 414.833L427.23 410.344C427.463 410.211 427.463 410.012 427.23 409.879L423.304 407.617C421.807 406.753 419.412 406.753 417.948 407.617L414.754 409.48C413.39 410.278 413.29 411.508 414.455 412.373L410.063 414.933C409.731 415.133 409.631 415.399 409.764 415.665L410.296 416.629C410.363 416.729 410.462 416.829 410.596 416.928C411.095 417.228 411.926 417.228 412.425 416.895L416.85 413.836L418.647 414.867C418.913 414.966 419.279 414.966 419.512 414.833Z" fill="#A4CB99"/>
<path d="M448.389 415.199C449.288 415.698 449.354 416.596 448.389 417.128L431.222 427.104C430.258 427.669 428.76 427.603 427.862 427.104C427.629 426.971 427.43 426.804 427.33 426.605L420.576 416.263C420.443 416.064 420.543 415.864 420.776 415.698L428.727 411.076C428.96 410.943 429.359 410.876 429.692 410.943L447.591 414.833C447.89 414.966 448.19 415.066 448.389 415.199Z" fill="#FDFDFD"/>
<path d="M364.717 188.412C364.717 189.876 364.617 191.871 364.617 193.334C363.819 191.571 360.891 191.372 359.893 193.035C358.895 194.697 360.325 199.22 362.255 199.12C362.754 203.343 363.586 207.467 361.989 211.424C361.523 212.588 360.791 213.751 359.726 214.416C358.229 215.314 355.069 215.414 353.339 215.081C351.775 214.782 349.613 214.283 348.282 213.419C346.951 212.521 345.953 211.058 345.953 209.462C345.953 203.044 350.943 201.714 351.209 198.388C351.376 196.36 350.977 194.631 350.045 192.835C348.548 189.975 348.115 186.417 349.513 183.491C351.076 180.199 354.636 178.27 358.229 177.672C361.822 177.106 367.578 176.973 370.572 179.268C373.201 181.296 374.997 184.854 371.936 187.382C369.94 188.978 367.146 189.077 364.717 188.412Z" fill="#19345E"/>
<mask id="mask23_219_105" style="mask-type:luminance" maskUnits="userSpaceOnUse" x="447" y="215" width="13" height="18">
<path d="M453.28 229.081L447.425 232.473C451.251 230.245 453.713 225.722 454.079 219.305L459.934 215.913C459.568 222.331 457.106 226.853 453.28 229.081Z" fill="white"/>
</mask>
<g mask="url(#mask23_219_105)">
<path d="M454.079 219.305L459.934 215.913C459.701 219.67 458.77 222.796 457.272 225.19L451.417 228.582C452.914 226.188 453.879 223.062 454.079 219.305Z" fill="#1C3564"/>
<path d="M451.417 228.549L457.273 225.157C456.275 226.72 455.044 227.95 453.613 228.848L447.758 232.24C449.188 231.376 450.419 230.112 451.417 228.549Z" fill="#1B3463"/>
<path d="M447.757 232.273L453.613 228.881C453.513 228.948 453.38 229.014 453.28 229.081L447.425 232.473C447.525 232.406 447.658 232.34 447.757 232.273Z" fill="#1B3462"/>
</g>
<path d="M431.09 206.037L436.978 202.611L459.934 215.879L454.079 219.305L431.09 206.037Z" fill="#1B3361"/>
<path d="M431.189 177.971L437.045 174.579L436.978 202.612L431.09 206.037L431.189 177.971Z" fill="#1C3667"/>
<path d="M431.189 177.971L431.123 206.003L454.112 219.271C453.347 232.805 443.233 237.893 431.056 230.843C418.347 223.494 408.067 205.704 408.1 191.106C408.133 176.541 418.447 170.655 431.189 177.971Z" fill="#214079"/>
<mask id="mask24_219_105" style="mask-type:luminance" maskUnits="userSpaceOnUse" x="414" y="171" width="24" height="7">
<path d="M414.788 176.375L420.643 172.983C424.835 170.555 430.624 170.888 437.045 174.579L431.189 177.971C424.768 174.28 418.98 173.947 414.788 176.375Z" fill="white"/>
</mask>
<g mask="url(#mask24_219_105)">
<path d="M414.788 176.375L420.643 172.983C424.835 170.555 430.624 170.888 437.045 174.579L431.189 177.971C424.768 174.28 418.98 173.947 414.788 176.375Z" fill="#1B3361"/>
</g>
<mask id="mask25_219_105" style="mask-type:luminance" maskUnits="userSpaceOnUse" x="438" y="170" width="32" height="49">
<path d="M438.475 173.515L444.331 170.123C458.071 178.037 469.15 197.258 469.116 213.02C469.116 213.585 469.083 214.15 469.05 214.716L463.195 218.108C463.228 217.542 463.261 216.977 463.261 216.412C463.294 200.616 452.216 181.429 438.475 173.515Z" fill="white"/>
</mask>
<g mask="url(#mask25_219_105)">
<path d="M438.475 173.515L444.331 170.123C448.756 172.684 452.914 176.408 456.541 180.831L450.685 184.223C447.059 179.8 442.9 176.075 438.475 173.515Z" fill="#C49538"/>
<path d="M450.685 184.222L456.541 180.831C458.47 183.225 460.267 185.785 461.831 188.512L455.975 191.904C454.378 189.177 452.615 186.617 450.685 184.222Z" fill="#C69739"/>
<path d="M455.942 191.871L461.797 188.479C463.394 191.206 464.758 194.099 465.889 196.992L460.034 200.384C458.936 197.49 457.539 194.631 455.942 191.871Z" fill="#C89839"/>
</g>
<path d="M438.475 173.515C452.216 181.429 463.294 200.65 463.261 216.412C463.261 216.977 463.228 217.542 463.194 218.108L438.375 203.775L438.475 173.515Z" fill="#F3B946"/>
<mask id="mask26_219_105" style="mask-type:luminance" maskUnits="userSpaceOnUse" x="362" y="433" width="35" height="17">
<path d="M362.953 444.861C362.953 441.702 362.987 438.543 362.987 435.384C372.701 432.358 384.878 433.355 392.763 437.911C393.495 438.343 394.193 438.776 394.859 439.275C395.391 439.674 395.857 440.039 396.289 440.438C396.289 443.597 396.256 446.757 396.256 449.916C395.824 449.517 395.325 449.117 394.826 448.752C394.16 448.253 393.461 447.821 392.73 447.388C384.845 442.833 372.668 441.802 362.953 444.861Z" fill="white"/>
</mask>
<g mask="url(#mask26_219_105)">
<path d="M400.249 448.286L400.215 457.763C400.215 454.604 398.452 451.412 394.826 448.718C394.16 448.22 393.462 447.787 392.73 447.355C383.814 442.234 369.508 441.602 359.394 446.191C353.073 449.051 349.746 453.341 349.746 457.664L349.779 448.186C349.779 443.863 353.106 439.607 359.427 436.714C369.541 432.125 383.847 432.757 392.763 437.878C393.495 438.31 394.194 438.742 394.859 439.241C398.485 441.935 400.249 445.127 400.249 448.286Z" fill="#CD9C3B"/>
</g>
<path d="M390.035 441.436L390.001 450.946L387.174 449.317L387.207 439.84L390.035 441.436Z" fill="#CE9D3B"/>
<mask id="mask27_219_105" style="mask-type:luminance" maskUnits="userSpaceOnUse" x="372" y="440" width="13" height="12">
<path d="M372.635 450.281C372.635 447.122 372.668 443.963 372.668 440.804C375.596 439.607 379.755 439.674 384.113 441.669L384.08 451.146C379.721 449.117 375.563 449.084 372.635 450.281Z" fill="white"/>
</mask>
<g mask="url(#mask27_219_105)">
<path d="M384.113 441.636L384.08 451.113C379.123 448.851 374.432 449.084 371.504 450.813C369.974 451.711 369.408 452.642 369.408 453.573L369.441 444.096C369.441 443.165 370.007 442.234 371.537 441.336C374.465 439.607 379.156 439.374 384.113 441.636Z" fill="#CD9C3B"/>
</g>
<path d="M387.207 439.84L387.174 449.317L384.08 451.113L384.113 441.635L387.207 439.84Z" fill="#CC9C3A"/>
<path d="M390.035 441.436L390.002 450.946L386.974 452.709V443.232L390.035 441.436Z" fill="#D2D2D2"/>
<mask id="mask28_219_105" style="mask-type:luminance" maskUnits="userSpaceOnUse" x="376" y="443" width="5" height="11">
<path d="M380.42 443.797L380.387 453.274C378.557 452.609 377.16 452.742 376.261 453.274L376.295 443.797C377.193 443.265 378.59 443.132 380.42 443.797Z" fill="white"/>
</mask>
<g mask="url(#mask28_219_105)">
<path d="M380.42 443.797L380.387 453.274C378.557 452.609 377.16 452.742 376.261 453.274L376.295 443.797C377.193 443.265 378.59 443.132 380.42 443.797Z" fill="#D3D3D3"/>
</g>
<mask id="mask29_219_105" style="mask-type:luminance" maskUnits="userSpaceOnUse" x="369" y="440" width="4" height="14">
<path d="M369.408 453.474C369.408 450.315 369.441 447.156 369.441 443.997C369.474 443.099 370.073 442.201 371.537 441.37C371.903 441.17 372.269 440.97 372.668 440.804C372.668 443.963 372.635 447.122 372.635 450.281C372.236 450.448 371.87 450.614 371.504 450.847C370.04 451.678 369.441 452.576 369.408 453.474Z" fill="white"/>
</mask>
<g mask="url(#mask29_219_105)">
<path d="M384.113 441.636L384.08 451.113C379.123 448.851 374.432 449.084 371.504 450.813C369.974 451.711 369.408 452.642 369.408 453.573L369.441 444.096C369.441 443.165 370.007 442.234 371.537 441.336C374.465 439.607 379.156 439.374 384.113 441.636Z" fill="#CD9C3B"/>
</g>
<mask id="mask30_219_105" style="mask-type:luminance" maskUnits="userSpaceOnUse" x="369" y="444" width="4" height="14">
<path d="M369.408 453.573L369.441 444.096C369.441 445.593 370.938 447.122 372.402 448.519L372.369 457.996C370.905 456.599 369.408 455.07 369.408 453.573Z" fill="white"/>
</mask>
<g mask="url(#mask30_219_105)">
<path d="M372.402 448.486L372.369 457.963C370.905 456.566 369.408 455.07 369.408 453.54L369.441 444.063C369.441 445.593 370.938 447.122 372.402 448.486Z" fill="#D3D3D3"/>
</g>
<mask id="mask31_219_105" style="mask-type:luminance" maskUnits="userSpaceOnUse" x="369" y="443" width="1" height="11">
<path d="M369.408 453.474C369.408 453.507 369.408 453.507 369.408 453.54C369.408 450.381 369.441 447.222 369.441 444.063C369.441 444.03 369.441 444.03 369.441 443.996C369.441 446.956 369.408 449.949 369.408 452.908C369.408 453.075 369.408 453.274 369.408 453.474Z" fill="white"/>
</mask>
<g mask="url(#mask31_219_105)">
<path d="M384.113 441.636L384.08 451.113C379.123 448.851 374.432 449.084 371.504 450.813C369.974 451.711 369.408 452.642 369.408 453.573L369.441 444.096C369.441 443.165 370.007 442.234 371.537 441.336C374.465 439.607 379.156 439.374 384.113 441.636Z" fill="#CD9C3B"/>
</g>
<mask id="mask32_219_105" style="mask-type:luminance" maskUnits="userSpaceOnUse" x="369" y="444" width="1" height="10">
<path d="M369.408 453.507C369.408 453.54 369.408 453.54 369.408 453.573L369.441 444.096C369.441 444.063 369.441 444.063 369.441 444.03C369.441 445.626 369.441 447.189 369.441 448.785C369.441 449.151 369.441 449.649 369.441 450.015C369.441 451.013 369.441 451.977 369.441 452.975C369.408 453.141 369.408 453.374 369.408 453.507Z" fill="white"/>
</mask>
<g mask="url(#mask32_219_105)">
<path d="M384.113 441.636L384.08 451.113C379.123 448.851 374.432 449.084 371.504 450.813C369.974 451.711 369.408 452.642 369.408 453.573L369.441 444.096C369.441 443.165 370.007 442.234 371.537 441.336C374.465 439.607 379.156 439.374 384.113 441.636Z" fill="#CD9C3B"/>
</g>
<mask id="mask33_219_105" style="mask-type:luminance" maskUnits="userSpaceOnUse" x="375" y="443" width="2" height="12">
<path d="M375.663 454.139L375.696 444.662C375.696 444.329 375.862 444.063 376.295 443.797L376.261 453.274C375.829 453.54 375.663 453.806 375.663 454.139Z" fill="white"/>
</mask>
<g mask="url(#mask33_219_105)">
<path d="M376.295 443.797L376.261 453.274C375.829 453.507 375.663 453.806 375.663 454.139L375.696 444.662C375.696 444.329 375.862 444.063 376.295 443.797Z" fill="#D3D3D3"/>
</g>
<mask id="mask34_219_105" style="mask-type:luminance" maskUnits="userSpaceOnUse" x="375" y="444" width="2" height="12">
<path d="M375.663 454.139L375.696 444.662C375.696 445.094 375.995 445.559 376.494 446.125L376.461 455.602C375.962 455.07 375.663 454.571 375.663 454.139Z" fill="white"/>
</mask>
<g mask="url(#mask34_219_105)">
<path d="M376.494 446.091L376.461 455.569C375.962 455.037 375.663 454.538 375.663 454.105L375.696 444.628C375.696 445.094 375.995 445.559 376.494 446.091Z" fill="#CD9C3B"/>
</g>
<path d="M380.42 443.797L380.387 453.274L376.461 455.602L376.494 446.091L380.42 443.797Z" fill="#CC9C3A"/>
<mask id="mask35_219_105" style="mask-type:luminance" maskUnits="userSpaceOnUse" x="386" y="443" width="6" height="14">
<path d="M391 456.965C390.434 455.502 388.937 454.006 386.974 452.709C386.974 449.915 386.974 447.122 387.007 444.329V443.232C388.937 444.528 390.467 446.025 391.033 447.488C391 450.315 391 454.139 391 456.965Z" fill="white"/>
</mask>
<g mask="url(#mask35_219_105)">
<path d="M391 447.488L390.966 456.965C390.401 455.502 388.904 454.006 386.941 452.709L386.974 443.232C388.937 444.528 390.434 446.025 391 447.488Z" fill="#CD9C3B"/>
</g>
<path d="M364.251 446.923V456.4L359.294 457.497L359.327 448.02L364.251 446.923Z" fill="#CD9C3B"/>
<path d="M383.314 445.36L383.281 454.837L378.557 457.597L378.59 448.12L383.314 445.36Z" fill="#D2D2D2"/>
<path d="M372.402 448.486L372.369 457.996L367.711 460.69L367.744 451.212L372.402 448.486Z" fill="#CC9C3A"/>
<mask id="mask36_219_105" style="mask-type:luminance" maskUnits="userSpaceOnUse" x="364" y="446" width="4" height="15">
<path d="M367.711 460.69C365.881 459.426 364.617 457.83 364.218 456.4C364.218 453.607 364.218 450.813 364.251 448.02V446.923C364.651 448.319 365.915 449.916 367.745 451.212C367.745 454.039 367.745 457.83 367.711 460.69Z" fill="white"/>
</mask>
<g mask="url(#mask36_219_105)">
<path d="M367.745 451.212L367.711 460.69C365.881 459.426 364.617 457.83 364.218 456.4L364.251 446.923C364.651 448.319 365.915 449.916 367.745 451.212Z" fill="#CD9C3B"/>
</g>
<mask id="mask37_219_105" style="mask-type:luminance" maskUnits="userSpaceOnUse" x="378" y="448" width="4" height="14">
<path d="M381.385 461.122C380.986 459.925 379.755 458.728 378.557 457.597L378.59 448.12C379.788 449.217 380.986 450.414 381.418 451.645C381.418 454.804 381.385 457.963 381.385 461.122Z" fill="white"/>
</mask>
<g mask="url(#mask37_219_105)">
<path d="M381.551 452.476L381.518 461.953C381.518 460.457 380.021 458.96 378.557 457.597L378.59 448.12C380.087 449.483 381.584 450.98 381.551 452.476Z" fill="#CD9C3B"/>
</g>
<mask id="mask38_219_105" style="mask-type:luminance" maskUnits="userSpaceOnUse" x="374" y="450" width="2" height="12">
<path d="M375.23 451.911L375.197 461.388C375.197 460.989 374.897 460.49 374.465 459.991L374.498 450.514C374.964 451.046 375.23 451.512 375.23 451.911Z" fill="white"/>
</mask>
<g mask="url(#mask38_219_105)">
<path d="M375.23 451.911L375.197 461.388C375.197 460.989 374.897 460.49 374.465 459.991L374.498 450.514C374.964 451.046 375.23 451.512 375.23 451.911Z" fill="#D3D3D3"/>
</g>
<path d="M374.531 450.514L374.498 459.991L370.672 462.252V452.742L374.531 450.514Z" fill="#D2D2D2"/>
<mask id="mask39_219_105" style="mask-type:luminance" maskUnits="userSpaceOnUse" x="359" y="448" width="6" height="15">
<path d="M364.118 453.341L364.085 462.818C361.456 461.122 359.627 459.093 359.294 457.497L359.327 448.02C359.693 449.616 361.49 451.645 364.118 453.341Z" fill="white"/>
</mask>
<g mask="url(#mask39_219_105)">
<path d="M364.118 453.341L364.085 462.818C361.456 461.122 359.627 459.093 359.294 457.497L359.327 448.02C359.693 449.616 361.49 451.645 364.118 453.341Z" fill="#D3D3D3"/>
</g>
<mask id="mask40_219_105" style="mask-type:luminance" maskUnits="userSpaceOnUse" x="370" y="451" width="6" height="12">
<path d="M375.23 451.911L375.197 461.388C375.197 461.72 374.997 462.02 374.565 462.252C373.666 462.784 372.335 462.851 370.605 462.219L370.639 452.742C372.335 453.374 373.7 453.307 374.598 452.775C375.064 452.542 375.23 452.243 375.23 451.911Z" fill="white"/>
</mask>
<g mask="url(#mask40_219_105)">
<path d="M375.23 451.911L375.197 461.388C375.197 461.72 374.997 462.02 374.565 462.252C373.666 462.784 372.335 462.851 370.605 462.219L370.639 452.742C372.335 453.374 373.7 453.307 374.598 452.775C375.064 452.542 375.23 452.243 375.23 451.911Z" fill="#CD9C3B"/>
</g>
<mask id="mask41_219_105" style="mask-type:luminance" maskUnits="userSpaceOnUse" x="349" y="435" width="15" height="23">
<path d="M359.427 446.191C353.106 449.051 349.779 453.341 349.779 457.63L349.812 448.153C349.812 443.83 353.139 439.574 359.46 436.714C360.591 436.215 361.789 435.75 363.02 435.384C363.02 438.543 362.987 441.702 362.987 444.861C361.723 445.227 360.558 445.692 359.427 446.191Z" fill="white"/>
</mask>
<g mask="url(#mask41_219_105)">
<path d="M400.249 448.286L400.215 457.763C400.215 454.604 398.452 451.412 394.826 448.718C394.16 448.22 393.462 447.787 392.73 447.355C383.814 442.234 369.508 441.602 359.394 446.191C353.073 449.051 349.746 453.341 349.746 457.664L349.779 448.186C349.779 443.863 353.106 439.607 359.427 436.714C369.541 432.125 383.847 432.757 392.763 437.878C393.495 438.31 394.194 438.742 394.859 439.241C398.485 441.935 400.249 445.127 400.249 448.286Z" fill="#CD9C3B"/>
</g>
<path d="M364.118 453.341L364.085 462.818L361.057 464.58L361.091 455.103L364.118 453.341Z" fill="#CC9C3A"/>
<mask id="mask42_219_105" style="mask-type:luminance" maskUnits="userSpaceOnUse" x="381" y="451" width="1" height="11">
<path d="M381.551 461.953C381.551 461.654 381.485 461.388 381.418 461.089C381.418 457.93 381.451 454.771 381.451 451.611C381.551 451.911 381.618 452.177 381.585 452.476C381.551 455.336 381.551 459.127 381.551 461.953Z" fill="white"/>
</mask>
<g mask="url(#mask42_219_105)">
<path d="M381.551 452.476L381.518 461.953C381.518 460.457 380.021 458.96 378.557 457.597L378.59 448.12C380.087 449.483 381.584 450.98 381.551 452.476Z" fill="#CD9C3B"/>
</g>
<mask id="mask43_219_105" style="mask-type:luminance" maskUnits="userSpaceOnUse" x="379" y="452" width="3" height="13">
<path d="M381.551 452.476L381.518 461.953C381.518 462.884 380.952 463.782 379.455 464.68L379.489 455.203C380.986 454.338 381.551 453.407 381.551 452.476Z" fill="white"/>
</mask>
<g mask="url(#mask43_219_105)">
<path d="M381.551 452.476L381.518 461.953C381.518 462.884 380.952 463.782 379.455 464.68L379.489 455.203C380.986 454.338 381.551 453.407 381.551 452.476Z" fill="#D3D3D3"/>
</g>
<mask id="mask44_219_105" style="mask-type:luminance" maskUnits="userSpaceOnUse" x="396" y="440" width="5" height="18">
<path d="M396.256 449.916C396.256 446.756 396.29 443.597 396.29 440.438C398.951 442.866 400.249 445.593 400.249 448.319L400.215 457.797C400.215 455.07 398.918 452.343 396.256 449.916Z" fill="white"/>
</mask>
<g mask="url(#mask44_219_105)">
<path d="M400.249 448.286L400.215 457.763C400.215 454.604 398.452 451.412 394.826 448.718C394.16 448.22 393.462 447.787 392.73 447.355C383.814 442.234 369.508 441.602 359.394 446.191C353.073 449.051 349.746 453.341 349.746 457.664L349.779 448.186C349.779 443.863 353.106 439.607 359.427 436.714C369.541 432.125 383.847 432.757 392.763 437.878C393.495 438.31 394.194 438.742 394.859 439.241C398.485 441.935 400.249 445.127 400.249 448.286Z" fill="#CD9C3B"/>
</g>
<mask id="mask45_219_105" style="mask-type:luminance" maskUnits="userSpaceOnUse" x="383" y="445" width="4" height="14">
<path d="M386.176 448.685L386.142 458.162C385.51 456.865 384.512 455.768 383.281 454.837L383.315 445.36C384.579 446.258 385.544 447.388 386.176 448.685Z" fill="white"/>
</mask>
<g mask="url(#mask45_219_105)">
<path d="M386.176 448.685L386.142 458.162C385.51 456.865 384.512 455.768 383.281 454.837L383.315 445.36C384.579 446.258 385.544 447.388 386.176 448.685Z" fill="#D3D3D3"/>
</g>
<path d="M391 447.488V456.965L386.143 458.162L386.176 448.685L391 447.488Z" fill="#D3D3D3"/>
<path d="M363.919 456.732L363.885 466.21L361.057 464.58L361.091 455.103L363.919 456.732Z" fill="#D4D4D4"/>
<path d="M367.012 454.903L366.979 464.381L363.885 466.21L363.918 456.732L367.012 454.903Z" fill="#D2D2D2"/>
<mask id="mask46_219_105" style="mask-type:luminance" maskUnits="userSpaceOnUse" x="366" y="454" width="14" height="13">
<path d="M379.488 455.203L379.455 464.68C376.561 466.376 371.936 466.609 366.979 464.381L367.012 454.903C371.969 457.131 376.594 456.899 379.488 455.203Z" fill="white"/>
</mask>
<g mask="url(#mask46_219_105)">
<path d="M379.488 455.203L379.455 464.68C376.561 466.376 371.936 466.609 366.979 464.381L367.012 454.903C371.969 457.131 376.594 456.899 379.488 455.203Z" fill="#D3D3D3"/>
</g>
<path d="M394.859 439.241C403.476 445.593 401.546 454.77 390.6 459.725C380.487 464.314 366.181 463.682 357.264 458.561C356.533 458.129 355.834 457.697 355.168 457.198C346.552 450.847 348.481 441.669 359.427 436.714C369.541 432.125 383.847 432.757 392.763 437.878C393.495 438.31 394.194 438.776 394.859 439.241ZM367.012 454.903C371.97 457.131 376.594 456.899 379.488 455.203C383.414 452.908 381.019 450.348 378.59 448.12L383.314 445.36C384.545 446.258 385.544 447.388 386.176 448.685L391 447.488C390.434 446.025 388.937 444.529 386.974 443.232L390.002 441.469L387.174 439.873L384.08 441.669C379.122 439.408 374.432 439.64 371.504 441.369C367.545 443.697 370.007 446.291 372.369 448.519L367.711 451.246C365.881 449.982 364.617 448.386 364.218 446.956L359.294 448.053C359.66 449.649 361.456 451.678 364.085 453.374L361.057 455.136L363.885 456.732L367.012 454.903Z" fill="#F7BC47"/>
<mask id="mask47_219_105" style="mask-type:luminance" maskUnits="userSpaceOnUse" x="349" y="448" width="52" height="25">
<path d="M400.249 448.286L400.215 457.763C400.215 462.086 396.888 466.343 390.567 469.202C380.453 473.791 366.147 473.16 357.231 468.039C356.499 467.606 355.801 467.174 355.135 466.675C351.509 463.982 349.746 460.789 349.746 457.63L349.779 448.153C349.779 451.312 351.542 454.505 355.169 457.198C355.834 457.697 356.533 458.129 357.264 458.561C366.181 463.682 380.487 464.314 390.6 459.725C396.922 456.899 400.215 452.609 400.249 448.286Z" fill="white"/>
</mask>
<g mask="url(#mask47_219_105)">
<path d="M400.249 448.286L400.215 457.763C400.215 462.086 396.888 466.343 390.567 469.202C380.453 473.791 366.147 473.16 357.231 468.039C356.499 467.606 355.801 467.174 355.135 466.675C351.509 463.982 349.746 460.789 349.746 457.63L349.779 448.153C349.779 451.312 351.542 454.505 355.169 457.198C355.834 457.697 356.533 458.129 357.264 458.561C366.181 463.682 380.487 464.314 390.6 459.725C396.922 456.899 400.215 452.609 400.249 448.286Z" fill="#CD9C3B"/>
</g>
<mask id="mask48_219_105" style="mask-type:luminance" maskUnits="userSpaceOnUse" x="345" y="448" width="60" height="27">
<path d="M404.341 448.286L404.307 457.763C404.307 462.785 400.448 467.739 393.096 471.098C381.318 476.418 364.683 475.72 354.337 469.734C353.472 469.236 352.673 468.704 351.908 468.138C347.683 465.013 345.653 461.288 345.653 457.63L345.687 448.153C345.687 451.844 347.716 455.535 351.941 458.661C352.706 459.227 353.505 459.759 354.37 460.257C364.717 466.243 381.351 466.941 393.129 461.621C400.481 458.295 404.341 453.341 404.341 448.286Z" fill="white"/>
</mask>
<g mask="url(#mask48_219_105)">
<path d="M404.341 448.286L404.307 457.763C404.307 462.785 400.448 467.739 393.096 471.098C381.318 476.418 364.683 475.72 354.337 469.734C353.472 469.236 352.673 468.704 351.908 468.138C347.683 465.013 345.653 461.288 345.653 457.63L345.687 448.153C345.687 451.844 347.716 455.535 351.941 458.661C352.706 459.227 353.505 459.759 354.37 460.257C364.717 466.243 381.351 466.941 393.129 461.621C400.481 458.295 404.341 453.341 404.341 448.286Z" fill="#CD9C3B"/>
</g>
<path d="M398.086 437.778C408.1 445.16 405.871 455.835 393.129 461.621C381.352 466.941 364.717 466.243 354.37 460.257C353.505 459.758 352.707 459.226 351.942 458.661C341.927 451.279 344.156 440.605 356.899 434.819C368.676 429.498 385.311 430.23 395.658 436.182C396.523 436.714 397.321 437.213 398.086 437.778ZM390.601 459.758C401.546 454.804 403.476 445.626 394.859 439.275C394.194 438.776 393.495 438.343 392.763 437.911C383.847 432.79 369.541 432.158 359.427 436.747C348.481 441.702 346.552 450.88 355.169 457.231C355.834 457.73 356.533 458.162 357.265 458.595C366.148 463.716 380.453 464.314 390.601 459.758Z" fill="#F7BC47"/>
<path d="M379.489 455.203C376.594 456.899 371.97 457.131 367.012 454.903L363.885 456.732L361.057 455.136L364.085 453.374C361.456 451.678 359.627 449.649 359.294 448.053L364.218 446.956C364.617 448.353 365.881 449.949 367.711 451.246L372.369 448.519C370.007 446.291 367.545 443.697 371.504 441.369C374.465 439.64 379.156 439.408 384.08 441.669L387.174 439.873L390.002 441.469L386.974 443.232C388.904 444.528 390.434 446.025 391 447.488L386.176 448.685C385.544 447.388 384.545 446.291 383.315 445.36L378.59 448.12C381.019 450.348 383.414 452.908 379.489 455.203ZM376.295 443.797C375.33 444.362 375.629 445.16 376.494 446.091L380.42 443.797C378.59 443.132 377.193 443.265 376.295 443.797ZM370.672 452.742C372.369 453.374 373.733 453.307 374.631 452.775C375.596 452.21 375.33 451.445 374.531 450.481L370.672 452.742Z" fill="#FEFEFE"/>
<path d="M376.494 446.091L380.42 443.797C378.59 443.132 377.193 443.265 376.295 443.797C375.33 444.362 375.629 445.16 376.494 446.091Z" fill="#F7BC47"/>
<path d="M374.531 450.514C375.33 451.445 375.596 452.21 374.631 452.809C373.733 453.341 372.402 453.407 370.672 452.775L374.531 450.514Z" fill="#F7BC47"/>
</g>
<defs>
<clipPath id="clip0_219_105">
<rect width="458" height="567" fill="white"/>
</clipPath>
</defs>
</svg>
