<?xml version="1.0" encoding="UTF-8"?>
<!DOCTYPE svg PUBLIC "-//W3C//DTD SVG 1.1//EN" "http://www.w3.org/Graphics/SVG/1.1/DTD/svg11.dtd">
<svg xmlns="http://www.w3.org/2000/svg" version="1.1" width="507px" height="582px" style="shape-rendering:geometricPrecision; text-rendering:geometricPrecision; image-rendering:optimizeQuality; fill-rule:evenodd; clip-rule:evenodd" xmlns:xlink="http://www.w3.org/1999/xlink">
<g><path style="opacity:0.995" fill="#d4b598" d="M 198.5,160.5 C 198.5,161.5 198.5,162.5 198.5,163.5C 198.5,163.833 198.5,164.167 198.5,164.5C 194.833,167.5 191.5,170.833 188.5,174.5C 159.201,203.298 130.035,232.298 101,261.5C 100.568,262.6 101.068,263.267 102.5,263.5C 105.029,263.929 107.362,264.596 109.5,265.5C 105.017,265.88 101.017,264.714 97.5,262C 98.03,259.864 97.1967,258.03 95,256.5C 94.6174,257.056 94.1174,257.389 93.5,257.5C 67.3644,226.524 41.3644,195.357 15.5,164C 51.3282,133.342 87.3282,102.842 123.5,72.5C 144.79,97.0545 165.623,122.054 186,147.5C 190.398,151.729 194.564,156.062 198.5,160.5 Z"/></g>
<g><path style="opacity:0.997" fill="#dfc7af" d="M 506.5,112.5 C 506.5,124.833 506.5,137.167 506.5,149.5C 499.125,169.287 492.125,189.287 485.5,209.5C 484.688,210.993 483.355,211.66 481.5,211.5C 477.868,210.754 474.202,210.421 470.5,210.5C 379.725,195.39 289.059,179.723 198.5,163.5C 198.5,162.5 198.5,161.5 198.5,160.5C 211.655,131.522 224.821,102.522 238,73.5C 238.725,72.9415 239.558,72.6082 240.5,72.5C 329.162,85.9278 417.828,99.2611 506.5,112.5 Z"/></g>
<g><path style="opacity:1" fill="#a08165" d="M 198.5,164.5 C 198.5,164.167 198.5,163.833 198.5,163.5C 289.059,179.723 379.725,195.39 470.5,210.5C 474.373,211.489 478.373,212.489 482.5,213.5C 460.712,249.942 439.379,286.609 418.5,323.5C 417.764,325.229 416.43,326.229 414.5,326.5C 343.74,312.596 273.073,298.262 202.5,283.5C 201.963,243.652 200.63,203.986 198.5,164.5 Z"/></g>
<g><path style="opacity:0.999" fill="#794a2e" d="M 198.5,164.5 C 200.63,203.986 201.963,243.652 202.5,283.5C 198.709,283.341 195.042,282.675 191.5,281.5C 190.221,245.842 189.221,210.175 188.5,174.5C 191.5,170.833 194.833,167.5 198.5,164.5 Z"/></g>
<g><path style="opacity:1" fill="#916945" d="M 188.5,174.5 C 189.221,210.175 190.221,245.842 191.5,281.5C 164.188,276.038 136.855,270.704 109.5,265.5C 107.362,264.596 105.029,263.929 102.5,263.5C 101.068,263.267 100.568,262.6 101,261.5C 130.035,232.298 159.201,203.298 188.5,174.5 Z"/></g>
<g><path style="opacity:0.994" fill="#d2b89f" d="M 506.5,198.5 C 506.5,224.833 506.5,251.167 506.5,277.5C 499.105,281.024 491.772,284.857 484.5,289C 483.748,289.671 483.414,290.504 483.5,291.5C 482.849,290.909 482.182,290.243 481.5,289.5C 460.422,301.121 439.588,313.121 419,325.5C 418.536,324.906 418.369,324.239 418.5,323.5C 439.379,286.609 460.712,249.942 482.5,213.5C 478.373,212.489 474.373,211.489 470.5,210.5C 474.202,210.421 477.868,210.754 481.5,211.5C 483.355,211.66 484.688,210.993 485.5,209.5C 492.369,205.566 499.369,201.899 506.5,198.5 Z"/></g>
<g><path style="opacity:0.997" fill="#d4b69c" d="M 109.5,265.5 C 136.855,270.704 164.188,276.038 191.5,281.5C 195.042,282.675 198.709,283.341 202.5,283.5C 273.073,298.262 343.74,312.596 414.5,326.5C 414.5,326.833 414.5,327.167 414.5,327.5C 400.223,331.653 385.89,335.653 371.5,339.5C 280.14,320.488 188.806,301.488 97.5,282.5C 78.6698,279.96 60.0031,276.46 41.5,272C 40.8333,271.333 40.1667,270.667 39.5,270C 57.3926,267.159 75.3926,264.826 93.5,263C 94.5,262.667 95.5,262.333 96.5,262C 95.6138,260.385 94.6138,258.885 93.5,257.5C 94.1174,257.389 94.6174,257.056 95,256.5C 97.1967,258.03 98.03,259.864 97.5,262C 101.017,264.714 105.017,265.88 109.5,265.5 Z"/></g>
<g><path style="opacity:0.998" fill="#ae8b66" d="M 97.5,282.5 C 188.806,301.488 280.14,320.488 371.5,339.5C 385.89,335.653 400.223,331.653 414.5,327.5C 415.162,329.304 415.495,331.304 415.5,333.5C 411.737,388.138 408.404,442.805 405.5,497.5C 405.502,501.018 405.835,504.351 406.5,507.5C 306.552,485.686 206.552,462.852 106.5,439C 103.708,392.925 101.541,346.759 100,300.5C 100.059,294.219 99.2252,288.219 97.5,282.5 Z"/></g>
<g><path style="opacity:0.996" fill="#c1a288" d="M 483.5,291.5 C 481.999,322.187 480.166,352.854 478,383.5C 453.873,424.765 430.04,466.098 406.5,507.5C 405.835,504.351 405.502,501.018 405.5,497.5C 408.404,442.805 411.737,388.138 415.5,333.5C 415.495,331.304 415.162,329.304 414.5,327.5C 414.5,327.167 414.5,326.833 414.5,326.5C 416.43,326.229 417.764,325.229 418.5,323.5C 418.369,324.239 418.536,324.906 419,325.5C 439.588,313.121 460.422,301.121 481.5,289.5C 482.182,290.243 482.849,290.909 483.5,291.5 Z"/></g>
</svg>
