<svg width="640" height="488" viewBox="0 0 640 488" fill="none" xmlns="http://www.w3.org/2000/svg">
<g clip-path="url(#clip0_225_40)">
<path d="M651.697 478.064C656.503 460.485 672.157 401.476 682.79 341.71C695.464 270.356 706.558 172.073 655.828 130.841C605.099 89.6082 538.502 138.774 503.623 122.923C468.744 107.072 467.164 27.7845 373.589 4.01624C280.014 -19.752 227.72 62.6632 186.504 107.056C145.289 151.448 99.2664 121.327 39.0557 168.896C-20.5295 215.939 30.0027 428.964 74.0662 478.064H651.697Z" fill="#92CC5C"/>
<path opacity="0.7" d="M651.697 478.064C656.503 460.485 672.157 401.476 682.79 341.71C695.464 270.356 706.558 172.073 655.828 130.841C605.099 89.6082 538.502 138.774 503.623 122.923C468.744 107.072 467.164 27.7845 373.589 4.01624C280.014 -19.752 227.72 62.6632 186.504 107.056C145.289 151.448 99.2664 121.327 39.0557 168.896C-20.5295 215.939 30.0027 428.964 74.0662 478.064H651.697Z" fill="white"/>
<path d="M668.108 144.157H538.897C538.269 144.161 537.669 144.412 537.225 144.856C536.782 145.299 536.531 145.9 536.526 146.527V479.019C536.526 479.649 536.776 480.254 537.22 480.701C537.664 481.148 538.266 481.401 538.897 481.406H668.108C668.741 481.406 669.348 481.154 669.795 480.707C670.243 480.259 670.494 479.652 670.494 479.019V146.527C670.49 145.897 670.237 145.294 669.789 144.85C669.342 144.406 668.738 144.157 668.108 144.157ZM665.737 476.649H541.283V148.914H665.737V476.649Z" fill="white"/>
<path d="M550.303 217.321H656.717C657.03 217.321 657.339 217.26 657.628 217.139C657.917 217.019 658.179 216.843 658.399 216.621C658.619 216.4 658.793 216.136 658.912 215.847C659.03 215.557 659.09 215.247 659.087 214.935V158.757C659.09 158.445 659.03 158.136 658.911 157.847C658.793 157.559 658.619 157.296 658.398 157.076C658.177 156.855 657.915 156.681 657.627 156.562C657.338 156.444 657.029 156.384 656.717 156.387H550.303C549.991 156.384 549.681 156.444 549.391 156.562C549.102 156.68 548.838 156.855 548.617 157.075C548.395 157.295 548.219 157.557 548.098 157.846C547.978 158.135 547.916 158.444 547.917 158.757V214.935C547.917 215.568 548.168 216.175 548.616 216.622C549.063 217.07 549.67 217.321 550.303 217.321ZM552.673 161.094H654.33V212.515H552.673V161.094Z" fill="white"/>
<path d="M550.303 297.12H656.717C657.029 297.122 657.338 297.062 657.627 296.944C657.915 296.825 658.177 296.651 658.398 296.43C658.619 296.21 658.793 295.947 658.911 295.659C659.03 295.37 659.09 295.061 659.087 294.749V238.571C659.09 238.259 659.03 237.949 658.912 237.659C658.793 237.37 658.619 237.106 658.399 236.885C658.179 236.663 657.917 236.487 657.628 236.367C657.339 236.246 657.03 236.185 656.717 236.185H550.303C549.67 236.185 549.063 236.436 548.616 236.884C548.168 237.331 547.917 237.938 547.917 238.571V294.749C547.916 295.062 547.978 295.371 548.098 295.66C548.219 295.949 548.395 296.211 548.617 296.431C548.838 296.651 549.102 296.826 549.391 296.944C549.681 297.062 549.991 297.122 550.303 297.12ZM552.673 240.942H654.33V292.379H552.673V240.942Z" fill="white"/>
<path d="M550.303 376.934H656.717C657.346 376.934 657.949 376.684 658.393 376.24C658.838 375.795 659.087 375.192 659.087 374.564V318.369C659.087 317.741 658.838 317.138 658.393 316.693C657.949 316.249 657.346 315.999 656.717 315.999H550.303C549.673 315.999 549.068 316.248 548.621 316.692C548.174 317.136 547.921 317.739 547.917 318.369V374.564C547.921 375.194 548.174 375.797 548.621 376.241C549.068 376.685 549.673 376.934 550.303 376.934ZM552.673 320.756H654.33V372.177H552.673V320.756Z" fill="white"/>
<path d="M550.303 456.749H656.717C657.03 456.749 657.339 456.687 657.628 456.567C657.917 456.446 658.179 456.27 658.399 456.049C658.619 455.827 658.794 455.563 658.912 455.274C659.03 454.985 659.09 454.675 659.088 454.362V398.118C659.09 397.806 659.03 397.497 658.912 397.208C658.793 396.92 658.619 396.658 658.398 396.437C658.178 396.217 657.915 396.042 657.627 395.924C657.338 395.805 657.029 395.746 656.717 395.748H550.303C549.991 395.746 549.681 395.805 549.391 395.924C549.102 396.042 548.839 396.216 548.617 396.436C548.395 396.657 548.219 396.919 548.099 397.207C547.979 397.496 547.917 397.805 547.917 398.118V454.296C547.908 454.615 547.963 454.932 548.079 455.23C548.195 455.527 548.369 455.798 548.592 456.026C548.815 456.255 549.081 456.437 549.375 456.561C549.669 456.685 549.984 456.749 550.303 456.749ZM552.674 400.571H654.331V451.992H552.674V400.571Z" fill="white"/>
<path d="M506.256 26.122H158.226C157.609 26.1218 157.016 26.3624 156.573 26.7928C156.13 27.2232 155.873 27.8093 155.856 28.4264V201.783C155.856 202.096 155.918 202.405 156.038 202.694C156.158 202.983 156.334 203.245 156.556 203.465C156.778 203.685 157.041 203.86 157.331 203.978C157.62 204.096 157.93 204.156 158.243 204.153H506.256C506.568 204.156 506.878 204.096 507.166 203.977C507.455 203.859 507.717 203.685 507.937 203.464C508.158 203.243 508.332 202.981 508.451 202.693C508.569 202.404 508.629 202.095 508.627 201.783V28.4264C508.614 27.8079 508.358 27.2193 507.914 26.7881C507.471 26.3568 506.875 26.1175 506.256 26.122ZM503.87 30.8789V191.726H160.596V30.8131L503.87 30.8789Z" fill="white"/>
<path d="M584.524 368.951L577.034 482.064C576.993 482.639 576.736 483.177 576.315 483.571C575.894 483.965 575.339 484.185 574.763 484.187C574.46 484.188 574.16 484.127 573.88 484.008C573.601 483.89 573.349 483.716 573.139 483.498C572.928 483.28 572.764 483.021 572.655 482.738C572.547 482.455 572.497 482.153 572.508 481.85L575.586 368.951H584.524Z" fill="#263238" stroke="#263238" stroke-linecap="round" stroke-linejoin="round"/>
<path d="M603.683 368.951L611.172 482.064C611.21 482.638 611.463 483.176 611.882 483.57C612.3 483.964 612.853 484.184 613.427 484.187C613.731 484.188 614.032 484.127 614.312 484.008C614.592 483.89 614.846 483.717 615.057 483.499C615.269 483.281 615.435 483.023 615.545 482.74C615.655 482.456 615.708 482.154 615.699 481.85L612.588 369.017L603.683 368.951Z" fill="#263238" stroke="#263238" stroke-linecap="round" stroke-linejoin="round"/>
<path d="M528.593 368.951L536.082 482.064C536.12 482.638 536.373 483.176 536.792 483.57C537.21 483.964 537.762 484.184 538.337 484.187C538.641 484.188 538.942 484.127 539.222 484.008C539.502 483.89 539.755 483.717 539.967 483.499C540.179 483.281 540.345 483.023 540.455 482.74C540.565 482.456 540.617 482.154 540.609 481.85L537.481 369.017L528.593 368.951Z" fill="#263238" stroke="#263238" stroke-linecap="round" stroke-linejoin="round"/>
<path d="M497.993 368.951L490.504 482.064C490.463 482.639 490.206 483.177 489.785 483.571C489.363 483.965 488.809 484.185 488.233 484.187C487.929 484.185 487.63 484.123 487.351 484.004C487.072 483.885 486.819 483.712 486.608 483.494C486.397 483.277 486.231 483.019 486.12 482.737C486.008 482.455 485.955 482.153 485.961 481.85L489.089 369.017L497.993 368.951Z" fill="#263238" stroke="#263238" stroke-linecap="round" stroke-linejoin="round"/>
<path d="M628.472 254.916C628.472 254.916 553.744 252.118 547.423 252.118C541.102 252.118 539.637 254.916 539.637 254.916L528.971 330.122C528.971 330.122 495.804 320.657 489.303 321.892C482.801 323.126 492.512 370.317 492.512 370.317H530.041L530.716 367.486H615.452L637.953 260.299C636.587 255.393 628.472 254.916 628.472 254.916Z" fill="white" stroke="#263238" stroke-linecap="round" stroke-linejoin="round"/>
<path d="M600.029 301.959C600.029 301.959 607.633 351.339 598.91 357.1C597.56 357.989 590.235 362.202 583.388 361.511C577.89 360.951 539.045 361.511 539.045 361.511C539.045 361.511 533.646 351.24 532.559 343.668C531.473 336.097 539.966 303.605 539.966 303.605L600.029 301.959Z" fill="white" stroke="#263238" stroke-linecap="round" stroke-linejoin="round"/>
<path d="M536.411 328.41C536.411 328.41 480.184 334.253 477.534 335.833C474.884 337.414 462.72 348.03 464.81 354.927C466.901 361.824 461.633 362.35 466.456 363.42C471.279 364.49 539.637 364.474 539.637 364.474" fill="#92CC5C"/>
<path d="M536.411 328.41C536.411 328.41 480.184 334.253 477.534 335.833C474.884 337.414 462.72 348.03 464.81 354.927C466.901 361.824 461.633 362.35 466.456 363.42C471.279 364.49 539.637 364.474 539.637 364.474" stroke="#263238" stroke-linecap="round" stroke-linejoin="round"/>
<path d="M485.27 370.235H618.876V360.26H485.27V370.235Z" fill="white" stroke="#263238" stroke-linecap="round" stroke-linejoin="round"/>
<path d="M587.322 330.533H506.833C506.833 330.533 502.602 335.307 502.059 345.347C501.516 355.388 502.602 357.544 510.026 360.161C517.449 362.778 583.388 361.445 583.388 361.445" fill="#92CC5C"/>
<path d="M587.322 330.533H506.833C506.833 330.533 502.602 335.307 502.059 345.347C501.516 355.388 502.602 357.544 510.026 360.161C517.449 362.778 583.388 361.445 583.388 361.445" stroke="#263238" stroke-linecap="round" stroke-linejoin="round"/>
<path d="M523.902 458.263L515.474 438.297L501.664 440.914L512.232 458.724L506.141 470.921L492.973 479.529C492.973 479.529 491.443 481.044 498.027 480.533C504.611 480.023 518.272 480.533 518.272 480.533L526.881 470.41C526.881 470.41 530.008 465.258 523.902 458.263Z" fill="white" stroke="#263238" stroke-linecap="round" stroke-linejoin="round"/>
<path d="M527.589 466.987L527.934 480.04H525.877L523.128 473.521L527.589 466.987Z" fill="#263238" stroke="#263238" stroke-linecap="round" stroke-linejoin="round"/>
<path d="M518.289 480.599L526.897 470.476C526.897 470.476 529.119 466.707 526.058 461.275C519.935 471.744 511.787 474.888 511.787 474.888L503.294 472.847L492.99 479.595C492.99 479.595 491.459 481.109 498.043 480.599C504.627 480.089 518.289 480.599 518.289 480.599Z" fill="#263238" stroke="#263238" stroke-linecap="round" stroke-linejoin="round"/>
<path d="M490.8 356.524L519.029 441.869L498.997 445.424L459.493 356.54C459.493 356.54 456.317 343.273 464.794 339.043C473.27 334.813 498.207 332.673 498.207 332.673" fill="#92CC5C"/>
<path d="M490.8 356.524L519.029 441.869L498.997 445.424L459.493 356.54C459.493 356.54 456.317 343.273 464.794 339.043C473.27 334.813 498.207 332.673 498.207 332.673" stroke="#263238" stroke-linecap="round" stroke-linejoin="round"/>
<path d="M581.347 370.218C581.347 370.218 571.619 322.962 578.137 321.793C584.655 320.624 617.806 330.023 617.806 330.023L628.472 254.916C628.472 254.916 639.731 253.138 640.916 263.146C642.101 273.154 618.876 370.218 618.876 370.218H581.347Z" fill="#263238" stroke="#263238" stroke-linecap="round" stroke-linejoin="round"/>
<path d="M466.802 231.082L461.781 222.852C461.298 222.064 460.617 221.415 459.805 220.971C458.994 220.526 458.081 220.301 457.156 220.317L452.432 220.399L444.35 217.98C443.837 217.83 443.291 217.836 442.781 217.997C442.271 218.159 441.82 218.468 441.486 218.885L441.19 219.264L448.63 222.556L441.206 225.288L433.322 221.288C433.011 221.129 432.654 221.085 432.314 221.163C431.974 221.241 431.672 221.437 431.462 221.716C431.223 222.027 431.116 222.419 431.166 222.808C431.215 223.196 431.416 223.55 431.726 223.79L442.754 232.3C443.099 232.569 443.499 232.761 443.924 232.863C444.35 232.965 444.793 232.975 445.223 232.893L457.42 230.44L460.827 234.16L466.802 231.082Z" fill="white" stroke="#263238" stroke-linecap="round" stroke-linejoin="round"/>
<path d="M551.834 214.194L506.619 261.484L463.46 226.605L457.502 230.934L504.989 284.742L546.155 262.57L551.834 214.194Z" fill="white" stroke="#263238" stroke-linecap="round" stroke-linejoin="round"/>
<path d="M619.485 226.276L643.187 299.111L622.744 299.704L602.416 265.516C602.416 265.516 613.839 231.033 619.485 226.276Z" fill="white" stroke="#263238" stroke-linecap="round" stroke-linejoin="round"/>
<path d="M593.692 213.766L619.485 226.358L597.889 286.75L600.441 303.588L539.967 303.687L547.176 276.561L542.238 259.179C541.597 256.924 541.563 254.539 542.139 252.266L551.818 214.276L577.232 210.194L593.692 213.766Z" fill="white" stroke="#263238" stroke-linecap="round" stroke-linejoin="round"/>
<path d="M592.457 210.227C592.457 210.227 597.527 213.651 597.692 216.696C597.774 218.49 597.692 221.634 597.527 224.037C597.436 225.915 597.007 227.761 596.26 229.485L587.124 240.514L576.557 232.168L567.784 236.645C567.784 236.645 566.138 223.198 569.973 213.815C573.808 204.433 590.499 207.873 592.457 210.227Z" fill="white" stroke="#263238" stroke-linecap="round" stroke-linejoin="round"/>
<path d="M599.716 184.138C599.716 184.138 597.642 191.594 596.671 196.532C595.7 201.47 593.741 211.346 593.922 215.05C594.103 218.753 578.516 234.522 576.557 232.168C574.598 229.815 572.541 216.136 572.541 216.136L574.483 194.014C574.483 194.014 594.795 171.513 599.716 184.138Z" fill="white" stroke="#263238" stroke-linecap="round" stroke-linejoin="round"/>
<path d="M567.142 172.616C567.142 172.616 564.36 177.208 564.36 179.2C564.36 181.192 565.331 185.093 565.167 186.228C565.002 187.364 562.237 191.166 561.875 192.45C561.693 192.973 561.708 193.544 561.917 194.056C562.126 194.568 562.515 194.986 563.011 195.232C563.683 195.576 564.337 195.955 564.969 196.368C564.969 196.368 565.792 206.507 567.109 209.124C568.426 211.741 569.562 212.894 573.479 213.223C577.397 213.552 586.729 209.454 588.03 206.178C589.33 202.902 589.511 198.985 589.676 194.244C589.84 189.504 586.565 182.722 584.112 176.254C581.66 169.785 571.389 166.23 567.142 172.616Z" fill="white" stroke="#263238" stroke-linecap="round" stroke-linejoin="round"/>
<path d="M609.362 206.096C616.298 206.096 621.921 200.473 621.921 193.537C621.921 186.601 616.298 180.978 609.362 180.978C602.426 180.978 596.803 186.601 596.803 193.537C596.803 200.473 602.426 206.096 609.362 206.096Z" fill="#263238" stroke="#263238" stroke-linecap="round" stroke-linejoin="round"/>
<path d="M567.076 171.908C567.076 171.908 572.129 167.546 581.215 176.221C590.301 184.895 586.845 197.438 592.918 200.038C598.992 202.639 610.234 189.636 611.535 183.15C612.835 176.665 608.934 163.217 596.803 160.617C584.672 158.016 569.809 159.794 567.076 171.908Z" fill="#263238" stroke="#263238" stroke-linecap="round" stroke-linejoin="round"/>
<path d="M567.076 171.908C566.968 170.888 567.095 169.857 567.445 168.893C567.796 167.929 568.362 167.058 569.1 166.345C569.838 165.633 570.728 165.098 571.704 164.781C572.679 164.465 573.714 164.375 574.73 164.518C582.96 164.962 583.816 177.949 588.145 183.151C592.474 188.352 594.647 187.479 594.647 187.479C594.647 187.479 587.289 189.636 582.516 187.035C577.742 184.434 575.438 169.769 567.076 171.908Z" fill="#263238" stroke="#263238" stroke-linecap="round" stroke-linejoin="round"/>
<path d="M580.524 163.003C584.854 165.678 588.292 169.58 590.4 174.213C594.136 182.13 594.136 188.665 603.008 188.204C603.008 188.204 598.811 189.142 592.276 185.866C585.742 182.591 584.343 173.274 580.145 169.538C577.856 167.371 574.893 166.052 571.751 165.802" stroke="white" stroke-width="0.5" stroke-linecap="round" stroke-linejoin="round"/>
<path d="M611.535 183.15C611.535 183.15 611.156 195.035 602.037 197.536" stroke="white" stroke-width="0.5" stroke-linecap="round" stroke-linejoin="round"/>
<path d="M586.087 195.281C586.087 195.281 594.778 183.908 596.819 192.401C598.86 200.894 591.881 202.968 588.589 201.997C585.297 201.026 585.758 199.265 585.758 199.265" fill="white"/>
<path d="M586.087 195.281C586.087 195.281 594.778 183.908 596.819 192.401C598.86 200.894 591.881 202.968 588.589 201.997C585.297 201.026 585.758 199.265 585.758 199.265" stroke="#263238" stroke-linecap="round" stroke-linejoin="round"/>
<path d="M566.747 292.609C566.747 292.609 550.155 294.914 547.39 294.914C544.625 294.914 537.711 303.67 537.711 303.67H568.13L566.747 292.609Z" fill="white" stroke="#263238" stroke-linecap="round" stroke-linejoin="round"/>
<path d="M637.229 281.449L643.187 294.881C643.454 295.671 643.531 296.514 643.411 297.34C643.29 298.166 642.977 298.952 642.496 299.633C642.014 300.315 641.379 300.874 640.641 301.263C639.903 301.653 639.084 301.863 638.249 301.876L566.319 302.288L566.78 292.609L622.546 283.787" fill="white"/>
<path d="M637.229 281.449L643.187 294.881C643.454 295.671 643.531 296.514 643.411 297.34C643.29 298.166 642.977 298.952 642.496 299.633C642.014 300.315 641.379 300.874 640.641 301.263C639.903 301.653 639.084 301.863 638.249 301.876L566.319 302.288L566.78 292.609L622.546 283.787" stroke="#263238" stroke-linecap="round" stroke-linejoin="round"/>
<path d="M540.954 466.987L541.3 480.04H539.242L536.493 473.521L540.954 466.987Z" fill="#263238" stroke="#263238" stroke-linecap="round" stroke-linejoin="round"/>
<path d="M537.267 458.263L534.617 439.268L520.824 440.157L525.597 458.855L519.507 471.052L506.339 479.661C506.339 479.661 504.825 481.175 511.409 480.665C517.993 480.155 531.654 480.665 531.654 480.665L540.263 470.542C540.263 470.542 543.374 465.258 537.267 458.263Z" fill="white" stroke="#263238" stroke-linecap="round" stroke-linejoin="round"/>
<path d="M531.654 480.599L540.263 470.476C540.263 470.476 542.485 466.707 539.407 461.275C533.284 471.744 525.136 474.888 525.136 474.888L516.659 472.847L506.339 479.595C506.339 479.595 504.825 481.109 511.409 480.599C517.993 480.089 531.654 480.599 531.654 480.599Z" fill="#263238" stroke="#263238" stroke-linecap="round" stroke-linejoin="round"/>
<path d="M530.946 341.825L536.855 442.758L518.14 443.202L499.87 351.503C499.87 351.503 500.216 334.039 505.795 332.031C511.375 330.023 526.189 332.179 526.189 332.179" fill="#92CC5C"/>
<path d="M530.946 341.825L536.855 442.758L518.14 443.202L499.87 351.503C499.87 351.503 500.216 334.039 505.795 332.031C511.375 330.023 526.189 332.179 526.189 332.179" stroke="#263238" stroke-linecap="round" stroke-linejoin="round"/>
<path d="M449.14 124.569L472.365 189.669C472.365 189.669 469.304 204.4 460.086 203.791C450.869 203.182 448.416 190.278 445.964 188.434C443.511 186.591 439.824 172.468 439.824 172.468L449.14 124.569Z" fill="white" stroke="#263238" stroke-linecap="round" stroke-linejoin="round"/>
<path d="M389.061 111.517L351.302 125.145L365.787 229.848H433.915L449.14 124.569L408.385 111.813L389.061 111.517Z" fill="white" stroke="#263238" stroke-linecap="round" stroke-linejoin="round"/>
<path d="M392.699 129.458L398.147 137.672L393.423 207.33L400.369 225.469L407.496 207.824L401.39 138.709L406.295 126.841L399.497 117.903L392.699 129.458Z" fill="#92CC5C" stroke="#263238" stroke-linecap="round" stroke-linejoin="round"/>
<path d="M400.238 126.067L390.51 133.359L384.107 114.348L388.568 104.719L408.468 104.241L413.323 108.603L412.352 132.865L400.238 126.067Z" fill="white" stroke="#263238" stroke-linecap="round" stroke-linejoin="round"/>
<path d="M410.525 99.7805L409.011 112.01L398.114 126.067L389.967 111.813V88.884C389.967 88.884 404.237 92.4558 410.525 99.7805Z" fill="white" stroke="#263238" stroke-linecap="round" stroke-linejoin="round"/>
<path d="M384.37 74.3663C384.37 63.2558 392.469 54.2522 402.476 54.2522C412.484 54.2522 418.031 63.7496 418.031 74.8601C418.031 78.4484 417.29 84.6045 416.994 87.88C416.484 93.4764 414.788 95.8466 411.48 100.867C400.633 117.327 391.728 93.1801 387.168 85.0653C385.323 81.8023 384.359 78.1151 384.37 74.3663Z" fill="white" stroke="#263238" stroke-linecap="round" stroke-linejoin="round"/>
<path d="M410.344 77.8557L411.875 89.3283L406.492 89.1802" fill="white"/>
<path d="M410.344 77.8557L411.875 89.3283L406.492 89.1802" stroke="#263238" stroke-linecap="round" stroke-linejoin="round"/>
<path d="M422.36 75.8643L396.485 75.9795C396.167 76.9857 396.118 78.0578 396.343 79.0887C396.569 80.1197 397.06 81.0737 397.769 81.8557C399.415 83.5017 406.114 82.9256 407.184 82.4976C408.254 82.0697 408.83 77.3621 408.83 77.3621H410.756C410.756 77.3621 410.97 82.3001 413.735 82.7116C416.5 83.1231 420.105 82.9914 420.796 82.4976C423.858 80.4401 422.36 75.8643 422.36 75.8643Z" fill="white" stroke="#263238" stroke-linecap="round" stroke-linejoin="round"/>
<path d="M387.563 86.9253C387.563 86.9253 393.39 98.8588 394.773 102.99C396.155 107.122 403.003 110.348 409.932 108.043C416.862 105.739 414.986 95.4845 414.986 95.4845C414.986 95.4845 407.628 89.1968 406.262 90.5465C404.896 91.8962 397.522 97.9041 397.061 96.5215C396.6 95.1388 393.39 86.8759 393.39 86.8759L391.892 81.0161L394.97 79.0409C395.415 78.6708 395.704 78.1472 395.78 77.574C395.856 77.0007 395.714 76.4198 395.382 75.9465L393.933 73.856C393.755 73.6 393.629 73.3108 393.564 73.0055C393.499 72.7002 393.496 72.3849 393.555 72.0784C393.933 70.2842 394.97 66.5643 397.374 65.4944C400.666 64.1282 404.665 66.1198 408.352 67.0416C412.039 67.9634 416.039 64.6384 416.039 64.6384L417.685 70.1032C421.335 66.6782 423.928 62.2803 425.158 57.429C427.002 49.6105 408.155 46.4008 402.114 46.4008C396.073 46.4008 386.493 49.6928 383.728 58.3507C380.963 67.0087 385.934 85.378 387.563 86.9253Z" fill="#263238" stroke="#263238" stroke-linecap="round" stroke-linejoin="round"/>
<path d="M402.476 57.4783C402.476 57.4783 405.9 62.6138 401.406 63.6837C396.913 64.7536 388.156 60.9019 384.304 62.3998" stroke="white" stroke-width="0.5" stroke-linecap="round" stroke-linejoin="round"/>
<path d="M394.773 68.8029C394.773 68.8029 387.728 67.947 384.897 70.9427" stroke="white" stroke-width="0.5" stroke-linecap="round" stroke-linejoin="round"/>
<path d="M411.727 94.7603C411.727 94.7603 406.542 97.4597 403.974 94.25" stroke="white" stroke-width="0.5" stroke-linecap="round" stroke-linejoin="round"/>
<path d="M388.436 83.2876C388.436 83.2876 383.35 77.6911 383.35 83.7978C383.35 89.9045 384.88 89.9045 387.925 92.0278C390.971 94.1511 392.008 91.5176 392.008 91.5176" fill="white"/>
<path d="M388.436 83.2876C388.436 83.2876 383.35 77.6911 383.35 83.7978C383.35 89.9045 384.88 89.9045 387.925 92.0278C390.971 94.1511 392.008 91.5176 392.008 91.5176" stroke="#263238" stroke-linecap="round" stroke-linejoin="round"/>
<path d="M456.35 462.707H456.58L456.136 460.469L433.915 229.864H365.787L343.385 462.691H343.632L358.084 463.925C358.084 463.925 374.116 410.101 374.116 406.085C374.116 402.069 378.691 364.935 378.691 364.935L401.423 285.021L421.52 364.935C421.52 364.935 426.096 402.151 426.096 406.085C426.096 410.019 442.145 463.958 442.145 463.958L455.741 462.789H456.35V462.707Z" fill="#263238" stroke="#263238" stroke-linecap="round" stroke-linejoin="round"/>
<path d="M428.829 243.427L413.669 265.072" stroke="white" stroke-width="0.5" stroke-linecap="round" stroke-linejoin="round"/>
<path d="M420.714 248.299L411.513 263.459" stroke="white" stroke-width="0.5" stroke-linecap="round" stroke-linejoin="round"/>
<path d="M377.424 247.229L390.938 261.829" stroke="white" stroke-width="0.5" stroke-linecap="round" stroke-linejoin="round"/>
<path d="M376.338 252.628L395.81 272.117" stroke="white" stroke-width="0.5" stroke-linecap="round" stroke-linejoin="round"/>
<path d="M369.836 232.07H429.915" stroke="white" stroke-width="0.5" stroke-linecap="round" stroke-linejoin="round"/>
<path d="M343.632 462.691C343.632 462.691 334.957 469.522 329.953 471.398C324.95 473.274 315.6 478.262 315.6 478.262C315.6 478.262 315.6 481.389 323.715 481.389H355.565L355.022 462.691H343.632Z" fill="#263238" stroke="#263238" stroke-linecap="round" stroke-linejoin="round"/>
<path d="M355.45 477.982C342.731 478.563 329.989 478.36 317.296 477.373L315.65 478.262C315.65 478.262 315.65 481.389 323.764 481.389H355.615L355.45 477.982Z" fill="white" stroke="#263238" stroke-linecap="round" stroke-linejoin="round"/>
<path d="M455.033 462.691C455.033 462.691 463.724 469.522 468.711 471.398C473.699 473.274 483.081 478.262 483.081 478.262C483.081 478.262 483.081 481.389 474.95 481.389H443.116L443.692 462.691H455.033Z" fill="#263238" stroke="#263238" stroke-linecap="round" stroke-linejoin="round"/>
<path d="M443.215 477.982C455.933 478.563 468.676 478.36 481.369 477.373L483.015 478.262C483.015 478.262 483.015 481.389 474.884 481.389H443.116L443.215 477.982Z" fill="white" stroke="#263238" stroke-linecap="round" stroke-linejoin="round"/>
<path d="M351.302 125.146L326.217 192.121H350.282L359.269 173.851L351.302 125.146Z" fill="white" stroke="#263238" stroke-linecap="round" stroke-linejoin="round"/>
<path d="M461.041 181.751C451 177.603 418.788 175.546 417.109 175.546C415.43 175.546 363.071 171.233 358.775 170.608C354.479 169.982 349.557 179.826 349.557 179.826L372.272 179.2L399.909 184.731C399.909 184.731 455.873 204.993 460.086 203.775C460.661 203.583 461.18 203.256 461.601 202.82" fill="white"/>
<path d="M461.041 181.751C451 177.603 418.788 175.546 417.109 175.546C415.43 175.546 363.071 171.233 358.775 170.608C354.479 169.982 349.557 179.826 349.557 179.826L372.272 179.2L399.909 184.731C399.909 184.731 455.873 204.993 460.086 203.775C460.661 203.583 461.18 203.256 461.601 202.82" stroke="#263238" stroke-linecap="round" stroke-linejoin="round"/>
<path d="M344.027 178.608L430.606 170.015L431.232 177.373L356.306 200.104C356.306 200.104 342.809 203.166 332.357 201.322C321.905 199.479 326.843 189.043 329.295 182.904" fill="white"/>
<path d="M344.027 178.608L430.606 170.015L431.232 177.373L356.306 200.104C356.306 200.104 342.809 203.166 332.357 201.322C321.905 199.479 326.843 189.043 329.295 182.904" stroke="#263238" stroke-linecap="round" stroke-linejoin="round"/>
<path d="M430.623 170.015L447.198 169.39L452.103 179.217L431.232 177.389L430.623 170.015Z" fill="white" stroke="#263238" stroke-linecap="round" stroke-linejoin="round"/>
<path d="M541.02 314.435L555.159 482.772C555.196 483.023 555.285 483.263 555.418 483.479C555.552 483.694 555.728 483.88 555.936 484.025C556.144 484.17 556.38 484.271 556.628 484.321C556.877 484.372 557.133 484.371 557.381 484.319C557.805 484.214 558.176 483.96 558.427 483.603C558.678 483.246 558.792 482.811 558.747 482.377L549.118 314.485L541.02 314.435Z" fill="#263238" stroke="#263238" stroke-linecap="round" stroke-linejoin="round"/>
<path d="M636.044 314.435L650.232 483.331C650.267 483.583 650.354 483.825 650.487 484.042C650.62 484.259 650.796 484.446 651.005 484.591C651.214 484.736 651.45 484.837 651.699 484.886C651.949 484.936 652.206 484.933 652.454 484.879C652.878 484.774 653.249 484.52 653.5 484.163C653.751 483.806 653.865 483.37 653.82 482.936L644.158 314.435H636.044Z" fill="#263238" stroke="#263238" stroke-linecap="round" stroke-linejoin="round"/>
<path d="M243.901 314.435L236.51 481.307C236.469 481.745 236.586 482.182 236.839 482.542C237.093 482.901 237.466 483.158 237.893 483.266C238.137 483.328 238.392 483.338 238.641 483.294C238.889 483.249 239.125 483.152 239.333 483.008C239.541 482.865 239.715 482.678 239.844 482.461C239.973 482.244 240.054 482.002 240.082 481.751L252.048 314.435H243.901Z" fill="#263238" stroke="#263238" stroke-linecap="round" stroke-linejoin="round"/>
<path d="M156.317 314.435L148.877 480.681C148.84 481.121 148.961 481.559 149.217 481.917C149.473 482.276 149.849 482.532 150.276 482.64C150.521 482.7 150.775 482.708 151.022 482.662C151.27 482.616 151.505 482.519 151.712 482.376C151.919 482.232 152.093 482.047 152.223 481.832C152.353 481.616 152.435 481.375 152.465 481.126L164.382 314.369L156.317 314.435Z" fill="#263238" stroke="#263238" stroke-linecap="round" stroke-linejoin="round"/>
<path d="M654.545 305.103H151.05V319.554H654.545V305.103Z" fill="#92CC5C" stroke="#263238" stroke-linecap="round" stroke-linejoin="round"/>
<path d="M654.545 305.103H151.05V310.057H654.545V305.103Z" fill="#263238" stroke="#263238" stroke-linecap="round" stroke-linejoin="round"/>
<path d="M654.528 305.103H528.543V319.554H654.528V305.103Z" fill="#263238" stroke="#263238" stroke-linecap="round" stroke-linejoin="round"/>
<path d="M659.022 300.296H146.556V305.81H659.022V300.296Z" fill="#92CC5C" stroke="#263238" stroke-linecap="round" stroke-linejoin="round"/>
<path d="M659.005 300.296H533.794V305.81H659.005V300.296Z" fill="#263238" stroke="#263238" stroke-linecap="round" stroke-linejoin="round"/>
<path d="M260.706 299.802H329.476C329.738 299.804 329.995 299.729 330.215 299.585C330.435 299.442 330.607 299.237 330.711 298.996L349.755 255.574C349.842 255.371 349.878 255.149 349.858 254.928C349.838 254.707 349.763 254.495 349.641 254.31C349.518 254.126 349.352 253.975 349.156 253.87C348.96 253.766 348.742 253.713 348.52 253.714H279.751C279.493 253.714 279.241 253.789 279.025 253.929C278.808 254.069 278.637 254.269 278.532 254.504L259.554 297.926C259.465 298.124 259.426 298.341 259.441 298.557C259.455 298.774 259.521 298.983 259.635 299.168C259.748 299.353 259.905 299.508 260.092 299.618C260.279 299.729 260.49 299.792 260.706 299.802Z" fill="white" stroke="#263238" stroke-linecap="round" stroke-linejoin="round"/>
<path d="M267.159 296.412H325.838C326.058 296.411 326.273 296.348 326.457 296.228C326.641 296.108 326.786 295.937 326.875 295.737L343.121 258.685C343.209 258.51 343.251 258.316 343.241 258.12C343.232 257.925 343.172 257.735 343.068 257.569C342.964 257.404 342.818 257.268 342.646 257.175C342.474 257.082 342.28 257.035 342.085 257.039H283.405C283.18 257.038 282.961 257.102 282.773 257.225C282.586 257.348 282.439 257.524 282.351 257.731L266.138 294.815C266.062 294.987 266.029 295.174 266.044 295.362C266.058 295.549 266.118 295.73 266.219 295.888C266.32 296.046 266.459 296.177 266.623 296.268C266.787 296.359 266.971 296.409 267.159 296.412Z" fill="#92CC5C" stroke="#263238" stroke-linecap="round" stroke-linejoin="round"/>
<path d="M330.431 296.922H227.111V300.296H330.431V296.922Z" fill="white" stroke="#263238" stroke-linecap="round" stroke-linejoin="round"/>
<path d="M330.447 296.922H280.359V300.296H330.447V296.922Z" fill="white" stroke="#263238" stroke-linecap="round" stroke-linejoin="round"/>
<path d="M363.631 273.433H345.409V300.362H363.631V273.433Z" fill="white" stroke="#263238" stroke-linecap="round" stroke-linejoin="round"/>
<path d="M362.824 296.692H360.915C360.518 296.692 360.137 296.534 359.856 296.253C359.575 295.972 359.417 295.591 359.417 295.194C359.417 294.796 359.575 294.415 359.856 294.135C360.137 293.854 360.518 293.696 360.915 293.696H362.824C363.578 293.691 364.3 293.39 364.833 292.857C365.366 292.324 365.667 291.602 365.672 290.848V284.264C365.667 283.51 365.366 282.789 364.833 282.255C364.3 281.722 363.578 281.421 362.824 281.417H360.372C360.175 281.417 359.98 281.378 359.798 281.303C359.617 281.227 359.452 281.117 359.313 280.978C359.173 280.839 359.063 280.674 358.988 280.492C358.913 280.31 358.874 280.115 358.874 279.919C358.874 279.722 358.913 279.527 358.988 279.346C359.063 279.164 359.173 278.999 359.313 278.86C359.452 278.721 359.617 278.61 359.798 278.535C359.98 278.46 360.175 278.421 360.372 278.421H362.824C363.592 278.421 364.351 278.572 365.06 278.866C365.769 279.159 366.413 279.59 366.956 280.132C367.499 280.675 367.929 281.319 368.223 282.028C368.516 282.737 368.667 283.497 368.667 284.264V290.848C368.667 291.616 368.516 292.375 368.223 293.084C367.929 293.793 367.499 294.437 366.956 294.98C366.413 295.523 365.769 295.953 365.06 296.247C364.351 296.54 363.592 296.692 362.824 296.692Z" fill="white" stroke="#263238" stroke-linecap="round" stroke-linejoin="round"/>
<path d="M505.993 299.802H437.223C436.964 299.801 436.71 299.724 436.494 299.581C436.278 299.438 436.108 299.234 436.005 298.996L416.961 255.574C416.874 255.372 416.838 255.151 416.858 254.932C416.877 254.713 416.95 254.501 417.07 254.317C417.191 254.133 417.355 253.982 417.549 253.876C417.742 253.771 417.959 253.715 418.179 253.714H486.949C487.209 253.713 487.464 253.787 487.683 253.927C487.902 254.067 488.076 254.268 488.183 254.504L507.228 297.926C507.314 298.131 507.349 298.353 507.329 298.575C507.309 298.796 507.235 299.009 507.112 299.194C506.99 299.38 506.824 299.533 506.629 299.639C506.434 299.745 506.215 299.801 505.993 299.802Z" fill="white" stroke="#263238" stroke-linecap="round" stroke-linejoin="round"/>
<path d="M436.269 300.296H539.588V296.922H436.269V300.296Z" fill="white" stroke="#263238" stroke-linecap="round" stroke-linejoin="round"/>
<path d="M436.269 300.296H507.508V296.922H436.269V300.296Z" fill="white" stroke="#263238" stroke-linecap="round" stroke-linejoin="round"/>
<path d="M463.23 271.738C463.603 272.443 463.759 273.242 463.68 274.035C463.6 274.828 463.288 275.58 462.783 276.197C462.278 276.814 461.602 277.268 460.839 277.502C460.077 277.736 459.263 277.74 458.499 277.513C457.735 277.286 457.054 276.839 456.543 276.227C456.032 275.615 455.713 274.866 455.626 274.073C455.539 273.281 455.687 272.48 456.053 271.772C456.419 271.064 456.986 270.479 457.683 270.092C458.637 269.577 459.757 269.46 460.797 269.769C461.836 270.077 462.711 270.786 463.23 271.738Z" fill="white" stroke="#263238" stroke-linecap="round" stroke-linejoin="round"/>
<path d="M141.651 143.926L146.721 194.014L169.765 260.726L161.88 265.236L134.82 204.17L121.306 151.745C121.306 151.745 120.171 135.976 125.816 133.639C131.462 131.301 139.396 133.787 141.651 143.926Z" fill="white" stroke="#263238" stroke-linecap="round" stroke-linejoin="round"/>
<path d="M169.831 260.792C169.831 260.792 174.9 271.508 175.476 274.322C176.053 277.137 176.629 282.882 174.407 285.449C171.724 288.544 169.271 286.157 169.271 286.157C169.271 286.157 162.506 284.511 162.506 278.832C162.506 273.154 161.946 265.302 161.946 265.302L169.831 260.792Z" fill="white" stroke="#263238" stroke-linecap="round" stroke-linejoin="round"/>
<path d="M164.3 277.598L173.797 280.067" stroke="#263238" stroke-linecap="round" stroke-linejoin="round"/>
<path d="M166.572 271.195L169.271 275.441C169.271 275.441 162.983 286.19 166.358 283.375C169.732 280.561 176.036 277.137 175.476 274.322C174.523 271.369 173.265 268.522 171.724 265.829" fill="white"/>
<path d="M166.572 271.195L169.271 275.441C169.271 275.441 162.983 286.19 166.358 283.375C169.732 280.561 176.036 277.137 175.476 274.322C174.523 271.369 173.265 268.522 171.724 265.829" stroke="#263238" stroke-linecap="round" stroke-linejoin="round"/>
<path d="M114.706 83.732C114.706 83.732 108.912 77.4772 95.5464 81.4934C82.1809 85.5097 79.0864 106.908 79.4979 117.59C79.9094 128.273 90.1969 140.321 87.086 145.671C83.9751 151.02 72.3708 163.497 73.2596 176.945C74.1484 190.393 85.2919 201.01 101.34 196.104C117.389 191.199 114.706 171.563 111.513 164.386C108.319 157.209 115.084 154.131 117.307 138.527C119.529 122.923 105.274 110.002 105.274 98.8587C105.274 87.7153 116.796 89.5094 116.796 89.5094L114.706 83.732Z" fill="#263238" stroke="#263238" stroke-linecap="round" stroke-linejoin="round"/>
<path d="M94.6248 126.034C96.7317 130.38 99.1842 135.021 101.62 140.025C109.752 156.617 103.398 162.608 91.0365 171.793C78.675 180.978 81.5062 192.269 84.6829 194.014" stroke="white" stroke-width="0.5" stroke-linecap="round" stroke-linejoin="round"/>
<path d="M110.459 88.1267C110.459 88.1267 93.8676 89.5423 89.6209 100.126C87.0531 106.562 89.0283 113.771 92.8141 122.166" stroke="white" stroke-width="0.5" stroke-linecap="round" stroke-linejoin="round"/>
<path d="M98.3284 189.882C99.6049 190.362 100.966 190.575 102.328 190.508" stroke="white" stroke-width="0.5" stroke-linecap="round" stroke-linejoin="round"/>
<path d="M114.706 87.0239C114.706 87.0239 99.1678 89.8386 95.6454 101.13C92.1229 112.422 112.945 129.112 113.998 141.391C115.052 153.67 100.221 160.847 94.954 170.377C91.2505 177.06 91.662 184.418 95.5631 188.121" stroke="white" stroke-width="0.5" stroke-linecap="round" stroke-linejoin="round"/>
<path d="M154.572 314.287C154.572 314.287 150.737 347.405 146.885 357.972C143.034 368.539 134.409 451.58 133.931 456.386C133.454 461.193 146.408 472.221 151.692 475.595C156.975 478.969 154.572 479.908 148.811 480.385C143.05 480.862 136.334 479.908 133.454 474.624C130.573 469.34 123.841 467.908 123.841 467.908L122.887 479.43H120.961L119.529 465.028C119.039 461.758 119.538 458.416 120.961 455.432C123.364 450.148 124.253 439.103 124.253 424.158C124.253 409.212 121.372 385.263 122.804 373.741C124.236 362.219 130.014 353.577 130.014 343.981C130.014 334.385 130.491 319.982 130.491 319.982L154.572 314.287Z" fill="white" stroke="#263238" stroke-linecap="round" stroke-linejoin="round"/>
<path d="M119.529 465.028C119.147 462.551 119.355 460.018 120.138 457.637C123.117 462.674 131.66 469.505 138.244 472.221C141.814 473.766 145.706 474.422 149.585 474.13C150.358 474.706 151.083 475.2 151.692 475.595C156.975 478.887 154.572 479.908 148.811 480.385C143.05 480.862 136.335 479.908 133.454 474.624C130.574 469.34 123.841 467.908 123.841 467.908L122.887 479.43H120.961L119.529 465.028Z" fill="#263238" stroke="#263238" stroke-linecap="round" stroke-linejoin="round"/>
<path d="M126.722 319.571C126.722 319.571 118.492 344.047 110.887 365.165C103.283 386.283 84.9627 434.774 83.0369 443.416C81.1111 452.057 80.1564 467.908 74.8069 476.073C69.4574 484.237 64.2396 488.072 65.1943 473.669C66.149 459.267 74.8069 448.7 76.7163 437.655C78.6256 426.61 79.5968 386.777 86.3125 369.017C93.0281 351.256 100.238 336.854 101.126 331.57C101.783 326.312 102.102 321.018 102.081 315.719L126.722 319.571Z" fill="white" stroke="#263238" stroke-linecap="round" stroke-linejoin="round"/>
<path d="M66.182 467.497C66.2529 470.212 67.0981 472.85 68.6181 475.101C71.3834 478.196 75.844 472.188 78.1649 468.517C77.4056 471.165 76.2986 473.7 74.8729 476.056C69.5892 484.204 64.3056 488.055 65.2602 473.653C65.419 471.581 65.7271 469.524 66.182 467.497Z" fill="#263238" stroke="#263238" stroke-linecap="round" stroke-linejoin="round"/>
<path d="M122.936 126.363C122.936 126.363 120.056 128.766 118.13 145.095C116.204 161.423 128.22 212.301 128.22 212.301C128.22 212.301 107.579 246.11 102.773 262.915C97.9662 279.721 95.0857 342.681 95.0857 342.681C95.0857 342.681 105.176 346.532 125.817 347.964C146.457 349.396 157.502 344.129 157.502 344.129C157.502 344.129 158.457 254.274 158.457 240.431C158.457 226.588 159.428 195.1 160.86 191.265C162.292 187.43 166.621 177.34 166.621 173.505C166.621 169.67 137.75 128.766 137.75 128.766L122.936 126.363Z" fill="white" stroke="#263238" stroke-linecap="round" stroke-linejoin="round"/>
<path d="M102.723 262.916C106.509 249.748 122.179 214.721 127.775 208.696C136.285 211.527 151.807 214.326 158.737 212.252C158.523 217.19 158.407 235.625 158.407 240.349C158.407 254.274 157.453 344.047 157.453 344.047C157.453 344.047 146.408 349.331 125.767 347.882C105.126 346.434 95.0364 342.598 95.0364 342.598C95.0364 342.598 97.9169 279.721 102.723 262.916Z" fill="#263238" stroke="#263238" stroke-linecap="round" stroke-linejoin="round"/>
<path d="M133.586 69.7738C133.586 69.7738 138.738 58.5481 148.926 58.5481C159.115 58.5481 163.642 67.6011 161.387 75.5184C159.132 83.4356 168.168 81.1806 169.304 86.2832C170.44 91.3858 161.946 94.7601 157.42 94.7601C152.893 94.7601 133.586 69.7738 133.586 69.7738Z" fill="#263238" stroke="#263238" stroke-linecap="round" stroke-linejoin="round"/>
<path d="M148.465 68.6216C151.494 66.9756 155.049 65.7905 156.695 68.3582C159.872 73.2962 149.996 77.1808 153.173 82.4809C156.35 87.781 164.119 86.3655 163.757 88.1267C163.395 89.8879 158.473 90.9414 158.473 90.9414" stroke="white" stroke-width="0.5" stroke-linecap="round" stroke-linejoin="round"/>
<path d="M143.281 72.2098C143.281 72.2098 144.252 71.3704 145.7 70.3499" stroke="white" stroke-width="0.5" stroke-linecap="round" stroke-linejoin="round"/>
<path d="M159.708 95.8959C158.987 95.3604 158.42 94.6453 158.062 93.822C157.239 87.7483 155.461 81.7733 152.103 78.4154C147.023 73.6335 140.545 70.605 133.619 69.7739C131.568 69.4716 129.474 69.6635 127.512 70.3336C118.772 73.3951 111.266 79.436 112.879 94.0031C114.657 110.052 127.15 114.068 127.15 114.068L128.039 123.944L140.515 129.738L140.96 119.039C140.96 119.039 149.42 122.594 152.482 122.15C155.543 121.705 156.498 117.689 157.831 111.895C158.321 109.251 158.563 106.568 158.555 103.879L162.292 100.159C164.415 98.0028 162.325 97.4761 159.708 95.8959Z" fill="white" stroke="#263238" stroke-linecap="round" stroke-linejoin="round"/>
<path d="M112.846 94.0031C111.2 79.436 118.739 73.3951 127.479 70.3336C129.441 69.6635 131.535 69.4716 133.586 69.7739C138.308 70.4053 142.854 71.9841 146.951 74.4156C144.449 73.9054 148.712 81.263 144.795 85.9376C141.364 90.2772 136.991 93.7784 132.005 96.1758C132.005 96.1758 127.561 92.6039 126.212 97.509C124.862 102.414 125.323 105.969 128.894 106.875C132.466 107.78 133.832 106.875 133.832 106.875C133.832 106.875 131.462 112.488 127.248 114.808V114.002C127.248 114.002 114.706 110.068 112.846 94.0031Z" fill="#263238" stroke="#263238" stroke-linecap="round" stroke-linejoin="round"/>
<path d="M146.885 126.841L144.499 139.811L119.052 126.363L121.455 114.364L146.885 126.841Z" fill="white" stroke="#263238" stroke-linecap="round" stroke-linejoin="round"/>
<path d="M134.59 236.201C137.225 236.765 139.899 237.128 142.589 237.287C144.68 237.156 147.527 234.802 149.634 235.806C151.741 236.81 154.687 243.147 154.687 243.147C154.687 243.147 157.486 244.563 156.679 246.06C155.873 247.558 152.416 248.941 152.416 248.941C152.416 248.941 149.124 252.052 147.215 252.365C145.305 252.677 133.668 244.135 133.668 244.135L134.59 236.201Z" fill="white" stroke="#263238" stroke-linecap="round" stroke-linejoin="round"/>
<path d="M135.824 242.357C136.209 241.894 136.486 241.351 136.634 240.767C136.782 240.184 136.797 239.574 136.679 238.984C136.56 238.393 136.311 237.837 135.95 237.355C135.588 236.874 135.123 236.479 134.59 236.201L102.608 206.244L137.437 152.09C138.991 149.227 139.369 145.871 138.489 142.734C137.61 139.597 135.543 136.926 132.727 135.288C129.911 133.65 126.567 133.173 123.406 133.959C120.244 134.745 117.513 136.732 115.792 139.498L85.6046 199.495C84.035 201.018 83.1276 203.098 83.0783 205.284C83.029 207.471 83.8419 209.589 85.3412 211.182L85.4565 211.297C88.4851 215.972 121.8 240.415 131.544 243.608C132.301 243.848 133.113 243.857 133.875 243.634C134.637 243.411 135.315 242.967 135.824 242.357Z" fill="white" stroke="#263238" stroke-linecap="round" stroke-linejoin="round"/>
<path d="M262.369 159.448C262.369 159.448 266.5 172.237 266.5 174.723C266.47 176.518 266.332 178.31 266.089 180.089L269.726 185.735C269.94 186.098 270.006 186.529 269.911 186.939C269.816 187.349 269.567 187.708 269.216 187.94L263.603 191.232C263.603 191.232 262.78 204.4 261.957 206.046C261.134 207.692 247.143 207.297 247.143 207.297L242.6 215.955L219.062 206.886L225.251 189.948L223.968 164.386C223.968 164.386 238.419 151.613 262.369 159.448Z" fill="white" stroke="#263238" stroke-linecap="round" stroke-linejoin="round"/>
<path d="M246.254 190.557C246.254 190.557 242.156 194.409 239.078 194.672C236 194.936 225.992 192.615 225.219 191.594C224.445 190.574 217.532 176.204 217.779 169.275C218.026 162.345 218.305 152.09 225.729 148.765C233.152 145.44 244.971 146.445 251.127 142.609C257.283 138.774 267.027 135.68 272.163 142.346C277.298 149.012 273.446 158.246 269.348 162.098C265.249 165.95 260.114 167.036 260.624 168.682C261.134 170.328 264.212 172.27 262.418 174.838C260.624 177.406 254.188 179.776 254.188 180.731C254.188 181.685 255.735 185.356 253.941 185.866C252.147 186.376 250.337 182.278 248.542 182.278C246.748 182.278 242.93 187.232 246.254 190.557Z" fill="#263238" stroke="#263238" stroke-linecap="round" stroke-linejoin="round"/>
<path d="M235.539 178.788C234.8 179.615 234.169 180.534 233.663 181.521" stroke="white" stroke-width="0.5" stroke-linecap="round" stroke-linejoin="round"/>
<path d="M269.249 152.206C268.923 155.031 267.894 157.729 266.255 160.052C264.615 162.376 262.419 164.251 259.867 165.505C253.283 168.912 244.51 171.694 238.683 175.974" stroke="white" stroke-width="0.5" stroke-linecap="round" stroke-linejoin="round"/>
<path d="M260.624 168.764C260.624 168.764 254.781 173.702 248.526 178.788C244.258 182.092 239.513 184.728 234.453 186.607" stroke="white" stroke-width="0.5" stroke-linecap="round" stroke-linejoin="round"/>
<path d="M245.843 191.249L249.135 192.072C248.936 193.61 249.053 195.174 249.481 196.666C249.908 198.158 250.636 199.546 251.62 200.746" fill="white"/>
<path d="M245.843 191.249L249.135 192.072C248.936 193.61 249.053 195.174 249.481 196.666C249.908 198.158 250.636 199.546 251.62 200.746" stroke="#263238" stroke-linecap="round" stroke-linejoin="round"/>
<path d="M249.662 182.41L272.903 176.649" stroke="#263238" stroke-linecap="round" stroke-linejoin="round"/>
<path d="M266.928 176.188L272.228 176.418C272.228 176.418 274.055 182.41 268.541 183.101" stroke="#263238" stroke-linecap="round" stroke-linejoin="round"/>
<path d="M243.489 460.765C243.489 460.765 264.887 474.278 268.657 474.278C272.426 474.278 274.302 477.669 272.426 478.048C270.549 478.426 258.896 478.788 251.028 479.167C243.16 479.545 237.86 478.788 233.366 478.788C228.873 478.788 223.589 479.167 221.334 478.048C219.079 476.928 222.848 464.139 222.848 461.884C222.848 459.629 240.856 459.25 243.489 460.765Z" fill="#263238" stroke="#263238" stroke-linecap="round" stroke-linejoin="round"/>
<path d="M271.076 474.838C262.764 477.57 249.283 475.776 241.185 475.036C234.782 474.46 224.725 474.328 220.626 474.295C220.462 476.221 220.626 477.686 221.268 478.048C223.523 479.167 228.79 478.789 233.3 478.789C237.81 478.789 243.061 479.546 250.962 479.167C258.863 478.788 270.5 478.41 272.36 478.048C273.825 477.752 273.134 475.809 271.076 474.838Z" fill="white" stroke="#263238" stroke-linecap="round" stroke-linejoin="round"/>
<path d="M260.394 367.93L243.506 452.617L247.028 461.407C244.5 465.067 240.686 467.641 236.346 468.616C231.519 469.565 226.615 470.072 221.696 470.13C221.696 470.13 219.82 460.732 220.955 459.596C222.091 458.46 222.453 453.967 222.453 453.967L232.214 368.671L260.394 367.93Z" fill="#92CC5C" stroke="#263238" stroke-linecap="round" stroke-linejoin="round"/>
<path d="M311.864 457.901C311.864 457.901 325.032 468.797 331.04 470.674C337.048 472.55 343.434 474.426 343.434 476.303C343.434 478.179 329.163 480.056 318.267 478.936C307.37 477.817 290.828 472.929 287.075 472.929C283.322 472.929 284.063 463.151 284.063 461.653C284.063 460.156 302.482 448.123 311.864 457.901Z" fill="#263238" stroke="#263238" stroke-linecap="round" stroke-linejoin="round"/>
<path d="M343.5 476.303C343.5 475.628 342.661 474.953 341.327 474.278C330.572 475.717 319.668 475.64 308.934 474.048C298.12 472.501 289.067 470.427 284.442 469.274C284.837 471.299 285.61 472.929 287.141 472.929C290.894 472.929 307.436 477.867 318.333 478.936C329.229 480.006 343.5 478.179 343.5 476.303Z" fill="white" stroke="#263238" stroke-linecap="round" stroke-linejoin="round"/>
<path d="M246.501 329.973C257.768 329.111 269.093 329.365 280.31 330.731C299.47 332.986 342.282 335.669 343.023 340.508C343.763 345.347 309.806 447.053 309.806 449.671C309.806 452.288 312.802 454.938 313.559 456.436C314.037 457.504 314.294 458.657 314.316 459.826C314.316 459.826 305.115 469.702 297.972 472.385C290.828 475.068 284.804 472.55 283.322 472.55C281.841 472.55 281.824 462.411 282.96 457.522C284.096 452.633 285.956 440.239 286.334 439.12C286.713 438 307.288 365.675 307.288 365.675C307.288 365.675 251.324 374.695 217.894 370.926C184.464 367.157 181.073 361.922 179.196 354.022C177.32 346.121 181.073 330.352 181.073 330.352L246.501 329.973Z" fill="#92CC5C" stroke="#263238" stroke-linecap="round" stroke-linejoin="round"/>
<path d="M242.271 354.318C241.512 355.417 240.664 356.451 239.736 357.412" stroke="#263238" stroke-linecap="round" stroke-linejoin="round"/>
<path d="M252.509 334.105C250.349 339.514 247.859 344.786 245.053 349.89" stroke="#263238" stroke-linecap="round" stroke-linejoin="round"/>
<path d="M248.032 337.874C243.499 345.353 236.634 351.136 228.494 354.334" stroke="#263238" stroke-linecap="round" stroke-linejoin="round"/>
<path d="M333.328 358.614C334.612 358.12 335.846 357.61 337.015 357.083Z" fill="white"/>
<path d="M333.328 358.614C334.612 358.12 335.846 357.61 337.015 357.083" stroke="#263238" stroke-linecap="round" stroke-linejoin="round"/>
<path d="M307.288 365.675C314.518 364.279 321.662 362.471 328.686 360.26Z" fill="white"/>
<path d="M307.288 365.675C314.518 364.279 321.662 362.471 328.686 360.26" stroke="#263238" stroke-linecap="round" stroke-linejoin="round"/>
<path d="M350.726 240.892C351.516 237.748 352.833 237.995 351.779 236.958C350.331 235.51 349.162 237.221 344.965 239.575C340.768 241.929 336.587 244.809 336.587 244.809C336.679 243.936 337.041 243.113 337.624 242.456C338.685 240.72 339.254 238.729 339.27 236.695C339.27 235.049 337.953 235.378 337.426 236.958C336.9 238.538 332.192 241.402 331.929 242.719C331.665 244.036 330.727 249.204 330.727 249.204C329.229 251.459 329.229 261.977 329.229 261.977L298.729 284.89L283.322 302.996C283.322 302.996 290.087 313.892 293.84 312.394C297.593 310.896 299.47 309.382 308.49 301.86C316.127 295.49 335.27 266.109 335.27 266.109C338.604 264.015 341.759 261.647 344.702 259.031C348.096 255.191 350.102 250.321 350.397 245.205C350.326 243.759 350.437 242.31 350.726 240.892Z" fill="white" stroke="#263238" stroke-linecap="round" stroke-linejoin="round"/>
<path d="M209.598 206.129C209.598 206.129 212.495 195.265 224.807 197.438C237.119 199.61 246.534 209.75 248.707 213.371C250.88 216.992 208.874 211.922 208.874 211.922L209.598 206.129Z" fill="white" stroke="#263238" stroke-linecap="round" stroke-linejoin="round"/>
<path d="M280.573 301.004C280.573 301.004 277.709 304.098 280.573 308.971C282.532 312.345 285.989 314.929 292.606 313.793C298.795 312.707 308.095 297.333 308.095 286.519C308.095 275.705 300.128 274.997 297.231 277.104C294.334 279.211 280.573 301.004 280.573 301.004Z" fill="white" stroke="#263238" stroke-linecap="round" stroke-linejoin="round"/>
<path d="M214.931 204.861C214.931 204.861 185.632 218.77 181.501 221.321C177.369 223.872 174.736 256.628 174.736 262.273C174.736 267.919 178.867 323.175 179.987 332.525C181.106 341.874 217.186 348.31 229.218 344.919C241.251 341.528 252.97 332.986 252.97 329.973C252.97 326.961 251.834 301.432 252.592 296.543C253.349 291.655 260.097 270.997 260.097 270.997L280.607 303.72C280.607 303.72 282.763 307.736 290.384 304.576C301.28 300.066 302.186 282.634 302.186 282.634C302.186 282.634 290.17 261.599 286.779 251.081C283.388 240.563 281.841 232.662 280.393 230.785C278.944 228.909 245.069 213.124 239.062 208.992C235.66 206.43 231.695 204.719 227.497 204C223.3 203.281 218.991 203.576 214.931 204.861Z" fill="white" stroke="#263238" stroke-linecap="round" stroke-linejoin="round"/>
<path d="M260.015 270.997L250.254 256.71" stroke="#263238" stroke-linecap="round" stroke-linejoin="round"/>
<path d="M258.435 268.956L241.234 260.479" stroke="#263238" stroke-linecap="round" stroke-linejoin="round"/>
<path d="M207.458 376.72L222.47 483.414C222.504 483.661 222.59 483.898 222.722 484.111C222.853 484.323 223.027 484.505 223.234 484.646C223.44 484.787 223.673 484.884 223.918 484.929C224.164 484.975 224.416 484.969 224.659 484.912C225.081 484.807 225.452 484.556 225.705 484.203C225.958 483.85 226.078 483.419 226.042 482.986L215.458 374.959L207.458 376.72Z" fill="#263238" stroke="#263238" stroke-linecap="round" stroke-linejoin="round"/>
<path d="M164.333 377.559L139.248 482.344C139.191 482.587 139.185 482.839 139.23 483.084C139.276 483.33 139.372 483.563 139.513 483.769C139.654 483.975 139.837 484.15 140.049 484.281C140.261 484.413 140.499 484.498 140.746 484.533C141.175 484.597 141.613 484.502 141.977 484.265C142.34 484.029 142.605 483.667 142.721 483.249L171.855 381.559L164.333 377.559Z" fill="#263238" stroke="#263238" stroke-linecap="round" stroke-linejoin="round"/>
<path d="M209.894 376.259L193.928 482.805C193.891 483.05 193.905 483.301 193.969 483.541C194.033 483.781 194.146 484.005 194.3 484.199C194.455 484.394 194.647 484.554 194.867 484.671C195.086 484.788 195.327 484.859 195.574 484.879C196.007 484.902 196.433 484.769 196.775 484.503C197.117 484.236 197.351 483.855 197.434 483.43L217.696 379.6L209.894 376.259Z" fill="#263238" stroke="#263238" stroke-linecap="round" stroke-linejoin="round"/>
<path d="M266.418 376.72L281.429 483.414C281.464 483.661 281.55 483.898 281.681 484.11C281.813 484.323 281.987 484.505 282.193 484.646C282.399 484.787 282.632 484.883 282.878 484.929C283.123 484.975 283.376 484.969 283.619 484.912C284.04 484.807 284.411 484.556 284.665 484.203C284.918 483.85 285.037 483.419 285.001 482.986L274.368 374.926L266.418 376.72Z" fill="#263238" stroke="#263238" stroke-linecap="round" stroke-linejoin="round"/>
<path d="M140.581 265.994L158.852 384.785H288.787C288.787 384.785 290.713 350.549 284.985 338.45C279.257 326.352 208.528 352.293 205.977 351.618C204.084 351.141 206.882 289.811 210.355 265.845C210.598 264.158 210.476 262.439 209.996 260.803C209.516 259.168 208.689 257.655 207.573 256.367C206.457 255.079 205.077 254.046 203.526 253.338C201.975 252.631 200.291 252.265 198.586 252.266H152.334C150.616 252.264 148.918 252.635 147.358 253.352C145.797 254.069 144.411 255.117 143.294 256.421C142.177 257.726 141.356 259.257 140.887 260.91C140.419 262.562 140.315 264.297 140.581 265.994Z" fill="#92CC5C" stroke="#263238" stroke-linecap="round" stroke-linejoin="round"/>
<path d="M284.985 338.451C279.257 326.352 208.528 352.293 205.977 351.619C204.084 351.141 206.882 289.811 210.355 265.845C210.659 264.18 210.591 262.468 210.158 260.831C209.725 259.195 208.936 257.674 207.849 256.376C206.761 255.079 205.4 254.037 203.864 253.326C202.328 252.614 200.654 252.249 198.961 252.258C197.268 252.266 195.598 252.648 194.069 253.375C192.54 254.103 191.191 255.158 190.116 256.466C189.042 257.775 188.269 259.304 187.852 260.945C187.435 262.586 187.386 264.298 187.706 265.961L205.977 384.752H288.787C288.787 384.752 290.713 350.549 284.985 338.451Z" fill="#263238" stroke="#263238" stroke-linecap="round" stroke-linejoin="round"/>
<path d="M350.726 240.892C350.726 240.892 348.636 242.983 345.492 246.653Z" fill="white"/>
<path d="M350.726 240.892C350.726 240.892 348.636 242.983 345.492 246.653" stroke="#263238" stroke-linecap="round" stroke-linejoin="round"/>
<path d="M350.397 245.139C350.397 245.139 347.845 250.324 346.282 252.677Z" fill="white"/>
<path d="M350.397 245.139C350.397 245.139 347.845 250.324 346.282 252.677" stroke="#263238" stroke-linecap="round" stroke-linejoin="round"/>
<path d="M-1.56755 305.185C1.16481 306.37 7.83112 306.222 7.84758 306.222C7.86404 306.222 6.41555 301.86 6.28387 301.597C4.81893 298.519 0.177215 293.466 -3.59213 293.976C-4.2161 294.077 -4.8116 294.31 -5.33971 294.657C-5.86782 295.005 -6.31666 295.46 -6.65688 295.993C-6.9971 296.526 -7.22105 297.124 -7.3141 297.749C-7.40715 298.375 -7.3672 299.013 -7.19687 299.622C-6.57139 302.222 -3.90487 304.165 -1.56755 305.185Z" fill="#263238"/>
<path d="M85.9175 282.454C82.1317 282.042 77.6875 287.227 76.2554 290.338C76.1402 290.601 74.7576 295.013 74.8234 295.013C74.0992 295.819 73.342 296.659 72.5355 297.679C71.0541 299.49 69.4081 301.564 67.7456 303.934C65.955 306.474 64.3065 309.112 62.8076 311.835C61.1182 314.888 59.6973 318.082 58.5609 321.382C58.5681 321.42 58.5681 321.459 58.5609 321.497C58.5609 320.394 58.5609 317.267 58.5609 317.036C58.1165 313.662 55.2689 307.407 51.549 306.716C50.9293 306.616 50.2954 306.647 49.6884 306.807C49.0814 306.966 48.5145 307.252 48.0245 307.644C47.5345 308.036 47.1321 308.527 46.8433 309.084C46.5544 309.642 46.3856 310.253 46.3476 310.88C46.1172 313.563 47.9936 316.246 49.9524 317.925C52.0922 319.834 58.0178 321.678 58.4951 321.826C57.4188 325.247 56.5828 328.74 55.9932 332.278C55.6146 334.319 55.3183 336.377 55.0385 338.451C55.0385 337.479 55.0385 336.624 55.0385 336.508C54.6105 333.134 51.7465 326.879 48.043 326.188C47.4184 326.09 46.7803 326.125 46.17 326.29C45.5597 326.455 44.9908 326.746 44.5004 327.145C44.0099 327.544 43.6088 328.041 43.323 328.605C43.0373 329.169 42.8733 329.787 42.8416 330.418C42.6277 333.101 44.4876 335.784 46.4628 337.479C48.438 339.175 53.3925 340.87 54.6928 341.282C54.5941 342.088 54.4789 342.928 54.3801 343.668C53.9357 347.487 53.4913 351.306 52.9481 355.026C52.7506 356.343 52.5201 357.626 52.2897 358.91C52.2897 358.054 52.2897 357.347 52.2897 357.264C51.8453 353.89 48.9977 347.635 45.2777 346.944C44.6531 346.849 44.0153 346.886 43.4059 347.053C42.7965 347.22 42.229 347.513 41.7402 347.913C41.2513 348.314 40.852 348.812 40.5683 349.377C40.2845 349.941 40.1225 350.559 40.0928 351.191C39.8788 353.857 41.7388 356.54 43.714 358.235C46.1717 359.86 48.864 361.098 51.6971 361.906C51.4173 363.223 51.1375 364.523 50.8083 365.791C50.5614 366.647 50.3968 367.437 50.1005 368.325C49.8042 369.214 49.5573 369.971 49.294 370.827C48.7179 372.391 48.1418 374.021 47.5492 375.535C47.1377 376.605 46.7262 377.609 46.3312 378.613C46.5287 377.313 46.8744 374.745 46.8908 374.531C46.8444 371.54 46.0342 368.611 44.537 366.021C44.5778 365.693 44.5778 365.361 44.537 365.033C44.4624 364.4 44.2537 363.789 43.9249 363.243C43.596 362.696 43.1545 362.226 42.6298 361.863C42.105 361.5 41.5091 361.253 40.8815 361.139C40.2539 361.024 39.6091 361.044 38.99 361.198C35.303 362.169 32.9821 368.622 32.801 372.013C32.801 372.21 32.9327 374.399 33.0315 375.782C32.8504 374.975 32.6694 374.136 32.4718 373.379C32.0933 371.733 31.6488 370.087 31.2044 368.441C30.9411 367.601 30.6942 366.795 30.4308 365.922C30.1674 365.05 29.8382 364.276 29.542 363.355C28.8177 361.363 27.9947 359.388 27.1059 357.412C28.5214 357.067 33.5582 355.766 35.5828 354.236C37.6074 352.705 39.7307 350.154 39.7142 347.471C39.7338 346.832 39.6168 346.196 39.3709 345.606C39.1251 345.015 38.7562 344.484 38.2888 344.048C37.8214 343.612 37.2663 343.28 36.6606 343.076C36.0548 342.871 35.4124 342.798 34.7762 342.862C30.9904 343.273 27.6984 349.298 27.0236 352.623C27.0236 352.837 26.7438 355.273 26.645 356.622C26.1183 355.437 25.5751 354.252 24.999 353.067C23.353 349.676 21.4766 346.269 19.6824 342.878L18.0364 339.751C18.5467 339.636 24.6204 338.253 26.8261 336.459C29.0317 334.665 30.974 332.393 30.9575 329.694C30.9744 329.056 30.8556 328.421 30.6088 327.832C30.3621 327.243 29.9931 326.713 29.5263 326.278C29.0595 325.842 28.5055 325.51 27.901 325.305C27.2965 325.099 26.6552 325.024 26.0195 325.085C22.2337 325.497 18.9582 331.521 18.2669 334.846C18.2669 335.109 17.8883 338.615 17.8554 339.52C16.6702 337.233 15.5016 334.928 14.4481 332.624C13.0019 329.509 11.7593 326.303 10.7282 323.028C10.9586 323.028 17.3122 321.546 19.5837 319.736C21.5918 318.188 23.7316 315.653 23.6987 312.97C23.7182 312.331 23.6012 311.696 23.3554 311.105C23.1096 310.515 22.7406 309.984 22.2732 309.548C21.8058 309.112 21.2507 308.78 20.645 308.576C20.0393 308.371 19.3968 308.298 18.7607 308.362C14.9749 308.773 11.6993 314.798 11.008 318.122C11.008 318.386 10.613 322.172 10.5965 322.863C10.5965 322.665 10.4648 322.484 10.399 322.287C9.4635 318.975 8.81911 315.588 8.47316 312.164C8.27564 310.271 8.17689 308.46 8.11105 306.683C9.31263 306.535 14.695 305.81 17.0488 304.444C19.4026 303.078 21.6247 300.839 21.9868 298.173C22.0725 297.547 22.0255 296.909 21.849 296.302C21.6725 295.695 21.3703 295.132 20.9621 294.65C20.5539 294.167 20.0488 293.775 19.4796 293.5C18.9104 293.226 18.2897 293.073 17.6578 293.054C13.8391 293.054 9.92164 298.683 8.8682 301.909C8.8682 302.09 8.44024 303.934 8.17688 305.284C8.17688 304.494 8.17688 303.638 8.17688 302.897C8.17688 300.016 8.35794 297.383 8.539 295.062C8.65422 293.729 8.7859 292.527 8.91758 291.408C10.0204 290.651 14.4152 287.556 15.7649 285.334C17.1147 283.112 18.1681 280.034 17.1805 277.532C16.9685 276.938 16.6337 276.395 16.1979 275.939C15.7622 275.483 15.2353 275.123 14.6515 274.884C14.0677 274.645 13.44 274.531 12.8095 274.551C12.1789 274.57 11.5595 274.723 10.9915 274.997C7.60079 276.742 6.71194 283.54 7.27158 286.898C7.27158 287.178 8.60484 291.622 8.65422 291.589C8.50608 292.659 8.35794 293.811 8.22626 295.078C7.99582 297.416 7.76538 300.016 7.68308 302.946C7.58387 306.054 7.66081 309.164 7.91352 312.263C8.15598 315.739 8.70681 319.188 9.55952 322.567C9.56666 322.605 9.56666 322.644 9.55952 322.682C8.96696 321.744 7.20574 319.176 7.04114 318.995C4.81904 316.427 -0.991337 312.756 -4.48086 314.254C-5.05621 314.515 -5.57008 314.895 -5.98894 315.367C-6.40781 315.84 -6.72224 316.396 -6.91174 316.999C-7.10123 317.602 -7.16152 318.237 -7.08868 318.865C-7.01583 319.493 -6.81149 320.098 -6.48898 320.641C-5.18864 322.995 -2.09416 324.163 0.424223 324.525C3.25534 324.937 9.21386 323.209 9.6912 323.077C10.6702 326.489 11.8745 329.832 13.2959 333.085C14.1189 334.977 14.9419 336.87 15.9131 338.747C15.3699 337.94 14.8761 337.233 14.8103 337.101C12.5882 334.533 6.77779 330.862 3.28827 332.36C2.72263 332.649 2.22447 333.053 1.82662 333.548C1.42876 334.043 1.14024 334.616 0.980064 335.23C0.819884 335.845 0.791679 336.486 0.897307 337.112C1.00294 337.738 1.24 338.334 1.59288 338.862C2.87676 341.216 5.9877 342.384 8.48962 342.747C10.9915 343.109 16.1435 341.759 17.4932 341.364C17.8554 342.088 18.201 342.812 18.5631 343.52C20.2091 346.96 22.0362 350.384 23.6328 353.791C24.1925 354.993 24.7027 356.194 25.2788 357.396L24.3077 356.013C22.0856 353.446 16.2752 349.792 12.7857 351.273C12.2112 351.537 11.6987 351.919 11.2815 352.394C10.8642 352.869 10.5515 353.427 10.3637 354.031C10.1759 354.635 10.1172 355.271 10.1913 355.899C10.2654 356.527 10.4708 357.132 10.794 357.676C12.0944 360.03 15.1888 361.198 17.6908 361.56C20.6653 361.572 23.624 361.128 26.4639 360.244C26.9577 361.495 27.4515 362.746 27.863 363.964C28.1429 364.819 28.4556 365.61 28.6696 366.482C28.8836 367.354 29.1469 368.128 29.3774 369.017C29.7724 370.663 30.1839 372.309 30.5296 373.955C30.7765 375.058 30.9904 376.128 31.2044 377.247C30.6448 376.045 29.5584 373.708 29.4103 373.527C27.5997 370.646 22.4148 366.153 18.7277 367.091C18.121 367.266 17.5578 367.567 17.0747 367.973C16.5915 368.38 16.1991 368.884 15.9229 369.452C15.6468 370.019 15.4929 370.639 15.4714 371.27C15.4498 371.901 15.561 372.53 15.7979 373.115C16.7196 375.634 19.6001 377.263 22.0197 378.053C24.7027 378.86 30.6119 378.053 31.3526 378.053C31.7147 379.815 32.0274 381.543 32.3237 383.172C33.3113 388.818 33.9697 393.575 34.3154 396.884C34.3154 397.476 34.447 398.003 34.4964 398.53H22.9744L27.1553 480.122H46.6768L50.8577 398.53H40.1751L40.422 398.052C41.887 394.991 43.9115 390.612 46.1007 385.246C46.8085 383.6 47.5163 381.74 48.2241 379.864C48.9483 380.012 54.8081 381.197 57.524 380.572C60.0094 380.012 63.0052 378.613 64.108 376.177C64.3894 375.611 64.5482 374.991 64.5738 374.359C64.5995 373.727 64.4915 373.097 64.2569 372.51C64.0223 371.923 63.6664 371.392 63.2124 370.951C62.7585 370.511 62.2167 370.172 61.6225 369.955C58.0178 368.737 52.5201 372.835 50.4955 375.568C50.3803 375.732 49.2775 377.625 48.6026 378.86L49.475 376.555C50.0511 374.992 50.5779 373.395 51.121 371.7L51.8617 369.181C52.1415 368.342 52.3226 367.437 52.553 366.548C53.0304 364.49 53.4254 362.383 53.7875 360.244C55.1537 360.737 60.0753 362.449 62.6101 362.268C65.1449 362.087 68.3217 361.165 69.7867 358.976C70.158 358.457 70.4147 357.864 70.5399 357.238C70.665 356.611 70.6557 355.966 70.5125 355.343C70.3694 354.721 70.0956 354.136 69.7094 353.627C69.3232 353.118 68.8334 352.697 68.2723 352.392C64.9803 350.746 58.8243 353.874 56.4211 356.26C56.273 356.425 54.7751 358.334 53.9192 359.404C54.1167 358.12 54.3143 356.836 54.4789 355.52C54.9562 351.75 55.3019 347.915 55.6804 344.096C55.7957 342.928 55.9273 341.759 56.0426 340.59C56.5364 340.771 62.3303 342.928 65.1779 342.73C67.6963 342.549 70.873 341.627 72.338 339.438C72.7093 338.919 72.9661 338.326 73.0912 337.7C73.2163 337.073 73.207 336.427 73.0638 335.805C72.9207 335.183 72.6469 334.598 72.2607 334.089C71.8745 333.58 71.3847 333.159 70.8236 332.854C67.5316 331.126 61.3921 334.336 58.9724 336.722C58.7914 336.903 56.5858 339.669 56.059 340.393C56.3389 337.825 56.6351 335.274 57.0302 332.755C57.537 329.364 58.2683 326.01 59.2193 322.715C59.4498 322.715 65.4742 325.069 68.404 324.871C70.9224 324.69 74.0992 323.752 75.5641 321.579C75.9381 321.06 76.197 320.468 76.3236 319.841C76.4502 319.214 76.4416 318.567 76.2982 317.944C76.1549 317.321 75.8802 316.735 75.4924 316.227C75.1047 315.718 74.6129 315.298 74.0498 314.995C70.7578 313.25 64.6182 316.46 62.1986 318.863C62.0175 319.044 59.6473 322.023 59.2523 322.583L59.4004 322.007C60.4455 318.725 61.7784 315.541 63.3837 312.493C64.2561 310.847 65.1779 309.201 66.0996 307.72C67.186 308.263 72.1569 310.683 74.7905 310.781C77.4241 310.88 80.5844 310.304 82.2963 308.23C82.7031 307.757 83.007 307.205 83.1886 306.608C83.3703 306.011 83.4257 305.383 83.3514 304.764C83.2771 304.145 83.0747 303.548 82.757 303.011C82.4393 302.474 82.0133 302.009 81.5062 301.646C78.3294 299.539 71.9594 302.057 69.3093 304.181C69.1612 304.296 67.8115 305.629 66.8568 306.617C67.2847 305.942 67.7127 305.234 68.1407 304.609C69.7867 302.206 71.3339 300.115 72.7824 298.255C73.6054 297.218 74.4284 296.296 75.1033 295.441C76.4365 295.441 81.8189 295.243 84.1727 294.14C86.5265 293.037 89.1107 291.046 89.6539 288.429C89.8815 287.79 89.9617 287.108 89.8885 286.434C89.8153 285.761 89.5906 285.112 89.2312 284.537C88.8718 283.962 88.387 283.476 87.8131 283.116C87.2393 282.755 86.5912 282.529 85.9175 282.454ZM44.0268 384.094C41.7388 389.361 39.6319 393.657 38.1341 396.637L37.2946 398.283H37.0477C37.0477 397.707 36.8831 397.065 36.7844 396.357C36.3235 393.065 35.5992 388.226 34.4635 382.547C34.1178 380.753 33.7063 378.843 33.2619 376.885C35.0409 376.167 36.7775 375.348 38.4633 374.432C40.7532 376.42 43.3067 378.081 46.0513 379.37C45.3765 380.967 44.6852 382.58 44.0268 384.094Z" fill="#263238"/>
<path d="M65.9842 306.65C65.9842 306.65 67.2022 302.222 67.2352 301.926C67.7125 298.552 66.6426 291.787 63.2024 290.124C62.6308 289.868 62.0122 289.735 61.386 289.731C60.7598 289.728 60.1397 289.854 59.5652 290.104C58.9908 290.353 58.4745 290.719 58.0494 291.179C57.6242 291.639 57.2994 292.182 57.0958 292.774C56.174 295.293 57.3427 298.387 58.7418 300.527C60.3878 303.095 65.9842 306.65 65.9842 306.65Z" fill="#263238"/>
<path d="M685.753 479.727H16.2422V487.924H685.753V479.727Z" fill="#263238"/>
</g>
<defs>
<clipPath id="clip0_225_40">
<rect width="640" height="488" fill="white"/>
</clipPath>
</defs>
</svg>
