<?xml version="1.0" encoding="UTF-8"?>
<!DOCTYPE svg PUBLIC "-//W3C//DTD SVG 1.1//EN" "http://www.w3.org/Graphics/SVG/1.1/DTD/svg11.dtd">
<svg xmlns="http://www.w3.org/2000/svg" version="1.1" width="600px" height="257px" style="shape-rendering:geometricPrecision; text-rendering:geometricPrecision; image-rendering:optimizeQuality; fill-rule:evenodd; clip-rule:evenodd" xmlns:xlink="http://www.w3.org/1999/xlink">
<g><path style="opacity:1" fill="#fef9f4" d="M -0.5,-0.5 C 199.5,-0.5 399.5,-0.5 599.5,-0.5C 599.5,7.5 599.5,15.5 599.5,23.5C 560.5,23.5 521.5,23.5 482.5,23.5C 359.167,23.5 235.833,23.5 112.5,23.5C 74.8333,23.5 37.1667,23.5 -0.5,23.5C -0.5,15.5 -0.5,7.5 -0.5,-0.5 Z"/></g>
<g><path style="opacity:1" fill="#9fa2ac" d="M 112.5,24.5 C 112.5,24.1667 112.5,23.8333 112.5,23.5C 235.833,23.5 359.167,23.5 482.5,23.5C 482.5,25.8333 482.5,28.1667 482.5,30.5C 481.5,30.5 480.5,30.5 479.5,30.5C 479.5,30.1667 479.5,29.8333 479.5,29.5C 481.256,28.4479 481.923,26.7812 481.5,24.5C 358.5,24.5 235.5,24.5 112.5,24.5 Z"/></g>
<g><path style="opacity:1" fill="#efe9e4" d="M -0.5,23.5 C 37.1667,23.5 74.8333,23.5 112.5,23.5C 112.5,23.8333 112.5,24.1667 112.5,24.5C 112.5,26.1667 112.5,27.8333 112.5,29.5C 112.5,29.8333 112.5,30.1667 112.5,30.5C 112.5,31.5 112.5,32.5 112.5,33.5C 112.5,77.1667 112.5,120.833 112.5,164.5C 111.791,165.404 110.791,165.737 109.5,165.5C 106.955,165.151 104.955,165.984 103.5,168C 95.0455,168.099 86.7121,168.932 78.5,170.5C 78.6646,167.482 78.498,164.482 78,161.5C 76.7083,162.791 75.5417,162.791 74.5,161.5C 75.0431,161.44 75.3764,161.107 75.5,160.5C 72.7383,157.381 72.2383,154.048 74,150.5C 74.414,150.043 74.914,149.709 75.5,149.5C 77.4866,151.501 79.8199,152.335 82.5,152C 79.8137,150.424 77.4803,148.591 75.5,146.5C 76.1667,146.167 76.8333,145.833 77.5,145.5C 77.4614,144.244 77.9614,143.244 79,142.5C 81.7372,143.61 84.5706,143.777 87.5,143C 85.1955,142.105 82.8622,141.271 80.5,140.5C 83.7021,139.765 86.7021,138.598 89.5,137C 87.5,137 85.5,137 83.5,137C 85.5,135 87.5,133 89.5,131C 86.5638,131.893 84.0638,133.726 82,136.5C 81.147,134.065 80.147,131.731 79,129.5C 79.2779,133.139 79.2779,136.806 79,140.5C 77.3333,138.167 75.6667,135.833 74,133.5C 73.5357,134.094 73.369,134.761 73.5,135.5C 66.7688,138.448 60.2688,138.115 54,134.5C 53.6232,135.942 52.7899,136.942 51.5,137.5C 50.8316,139.463 50.4983,141.463 50.5,143.5C 48.0433,141.775 45.3766,141.275 42.5,142C 44.9113,143.583 47.578,144.583 50.5,145C 48.3921,145.36 46.3921,146.027 44.5,147C 47.8492,147.388 51.1825,147.221 54.5,146.5C 54.5,147.167 54.5,147.833 54.5,148.5C 55.7562,148.461 56.7562,148.961 57.5,150C 54.2366,150.955 52.0699,152.788 51,155.5C 53.7005,153.731 56.5338,152.398 59.5,151.5C 57.7108,154.411 55.8774,157.077 54,159.5C 56.3996,157.585 58.8996,155.919 61.5,154.5C 62.1667,156.5 62.8333,158.5 63.5,160.5C 61.2362,161.219 58.9029,161.552 56.5,161.5C 56.5,163.833 56.5,166.167 56.5,168.5C 51.8333,168.5 47.1667,168.5 42.5,168.5C 42.5,169.833 42.5,171.167 42.5,172.5C 42.5,173.833 42.5,175.167 42.5,176.5C 54.8333,176.5 67.1667,176.5 79.5,176.5C 79.5,178.167 79.5,179.833 79.5,181.5C 72.8333,181.5 66.1667,181.5 59.5,181.5C 59.5,184.833 59.5,188.167 59.5,191.5C 39.5,191.5 19.5,191.5 -0.5,191.5C -0.5,135.5 -0.5,79.5 -0.5,23.5 Z"/></g>
<g><path style="opacity:1" fill="#f0eae5" d="M 482.5,23.5 C 521.5,23.5 560.5,23.5 599.5,23.5C 599.5,79.5 599.5,135.5 599.5,191.5C 595.167,191.5 590.833,191.5 586.5,191.5C 586.832,159.329 586.498,127.329 585.5,95.5C 585.167,95.5 584.833,95.5 584.5,95.5C 562.67,94.668 540.67,94.168 518.5,94C 519.185,87.531 519.851,81.031 520.5,74.5C 520.192,73.6919 519.692,73.0253 519,72.5C 518.823,76.3563 518.323,80.023 517.5,83.5C 517.5,80.8333 517.5,78.1667 517.5,75.5C 515.143,75.6633 512.81,75.4966 510.5,75C 511.167,74.6667 511.833,74.3333 512.5,74C 511.309,73.3021 510.309,72.4687 509.5,71.5C 506.51,68.8258 506.843,66.8258 510.5,65.5C 511.476,66.8149 512.476,68.1482 513.5,69.5C 514.065,67.4904 515.065,65.8237 516.5,64.5C 518.078,65.6405 519.744,66.1405 521.5,66C 519.999,64.7485 518.332,63.7485 516.5,63C 518.811,63.1554 521.144,63.1554 523.5,63C 521.941,62.0201 520.274,61.1867 518.5,60.5C 520.424,60.433 522.424,60.0997 524.5,59.5C 522.709,58.8302 521.042,58.1635 519.5,57.5C 517.904,56.0036 516.238,54.8369 514.5,54C 518.911,60.0449 518.078,60.8783 512,56.5C 511.333,57.1667 511.333,57.8333 512,58.5C 516.727,62.0372 516.561,62.7039 511.5,60.5C 510.537,60.9698 510.537,61.6365 511.5,62.5C 509.606,63.0476 507.94,64.0476 506.5,65.5C 506.167,65.1667 505.833,64.8333 505.5,64.5C 509.396,58.5299 508.896,58.1966 504,63.5C 503.424,61.6226 503.591,59.7892 504.5,58C 504.167,57.5 503.833,57 503.5,56.5C 502.702,58.0777 502.202,59.7444 502,61.5C 501,59.5 500,57.5 499,55.5C 499.096,57.3806 498.929,59.0473 498.5,60.5C 497.282,61.1614 495.949,61.8281 494.5,62.5C 497.313,63.2291 499.313,64.3958 500.5,66C 498.729,66.5354 498.396,67.3687 499.5,68.5C 500.914,67.376 502.414,66.376 504,65.5C 504.167,65.8333 504.333,66.1667 504.5,66.5C 499.063,71.6325 499.397,72.2992 505.5,68.5C 506.409,70.3747 507.743,71.708 509.5,72.5C 507.735,73.4614 505.735,73.7947 503.5,73.5C 503.105,80.1581 503.772,86.6581 505.5,93C 504.944,93.3826 504.611,93.8826 504.5,94.5C 501.287,94.19 498.287,94.5233 495.5,95.5C 494.502,127.329 494.168,159.329 494.5,191.5C 490.167,191.5 485.833,191.5 481.5,191.5C 481.5,171.833 481.5,152.167 481.5,132.5C 481.5,104.167 481.5,75.8333 481.5,47.5C 482.714,42.9896 482.714,38.3229 481.5,33.5C 482.404,32.791 482.737,31.791 482.5,30.5C 482.5,28.1667 482.5,25.8333 482.5,23.5 Z"/></g>
<g><path style="opacity:1" fill="#74798f" d="M 112.5,24.5 C 235.5,24.5 358.5,24.5 481.5,24.5C 481.923,26.7812 481.256,28.4479 479.5,29.5C 479.389,28.8826 479.056,28.3826 478.5,28C 418.5,27.8333 358.5,27.6667 298.5,27.5C 236.442,27.5223 174.442,28.1889 112.5,29.5C 112.5,27.8333 112.5,26.1667 112.5,24.5 Z"/></g>
<g><path style="opacity:1" fill="#7b7f9f" d="M 479.5,29.5 C 479.5,29.8333 479.5,30.1667 479.5,30.5C 357.167,30.5 234.833,30.5 112.5,30.5C 112.5,30.1667 112.5,29.8333 112.5,29.5C 174.442,28.1889 236.442,27.5223 298.5,27.5C 358.5,27.6667 418.5,27.8333 478.5,28C 479.056,28.3826 479.389,28.8826 479.5,29.5 Z"/></g>
<g><path style="opacity:1" fill="#a9afce" d="M 112.5,30.5 C 234.833,30.5 357.167,30.5 479.5,30.5C 480.5,30.5 481.5,30.5 482.5,30.5C 482.737,31.791 482.404,32.791 481.5,33.5C 432.616,32.8455 383.949,33.5122 335.5,35.5C 311.523,33.5097 287.19,32.843 262.5,33.5C 212.5,33.5 162.5,33.5 112.5,33.5C 112.5,32.5 112.5,31.5 112.5,30.5 Z"/></g>
<g><path style="opacity:1" fill="#b0b7c9" d="M 112.5,33.5 C 162.5,33.5 212.5,33.5 262.5,33.5C 286.477,35.4903 310.81,36.157 335.5,35.5C 383.949,33.5122 432.616,32.8455 481.5,33.5C 482.714,38.3229 482.714,42.9896 481.5,47.5C 481.167,47.5 480.833,47.5 480.5,47.5C 480.737,46.209 480.404,45.209 479.5,44.5C 468.353,43.1677 456.853,42.501 445,42.5C 433.328,42.5001 421.828,42.8335 410.5,43.5C 409.833,43.5 409.167,43.5 408.5,43.5C 396.671,42.8334 384.671,42.5001 372.5,42.5C 360.148,42.501 348.148,43.1676 336.5,44.5C 336.167,44.5 335.833,44.5 335.5,44.5C 311.523,42.5097 287.19,41.843 262.5,42.5C 261.833,42.5 261.167,42.5 260.5,42.5C 236.5,42.5 212.5,42.5 188.5,42.5C 188.167,42.5 187.833,42.5 187.5,42.5C 187.5,41.1667 187.5,39.8333 187.5,38.5C 163.167,38.5 138.833,38.5 114.5,38.5C 113.501,79.6633 113.168,120.997 113.5,162.5C 113.672,163.492 113.338,164.158 112.5,164.5C 112.5,120.833 112.5,77.1667 112.5,33.5 Z"/></g>
<g><path style="opacity:1" fill="#fbfdfc" d="M 114.5,38.5 C 138.833,38.5 163.167,38.5 187.5,38.5C 187.5,39.8333 187.5,41.1667 187.5,42.5C 187.5,43.5 187.5,44.5 187.5,45.5C 180.167,45.5 172.833,45.5 165.5,45.5C 148.5,45.5 131.5,45.5 114.5,45.5C 114.5,43.1667 114.5,40.8333 114.5,38.5 Z"/></g>
<g><path style="opacity:1" fill="#dce6f2" d="M 336.5,37.5 C 360.509,37.1669 384.509,37.5003 408.5,38.5C 396.5,38.8333 384.5,39.1667 372.5,39.5C 360.148,39.499 348.148,38.8324 336.5,37.5 Z"/></g>
<g><path style="opacity:1" fill="#dde6f3" d="M 262.5,37.5 C 286.842,37.1669 311.176,37.5003 335.5,38.5C 323.333,38.8333 311.167,39.1667 299,39.5C 286.481,39.4991 274.314,38.8324 262.5,37.5 Z"/></g>
<g><path style="opacity:1" fill="#dde6f4" d="M 188.5,37.5 C 212.509,37.1669 236.509,37.5003 260.5,38.5C 248.5,38.8333 236.5,39.1667 224.5,39.5C 212.148,39.499 200.148,38.8324 188.5,37.5 Z"/></g>
<g><path style="opacity:1" fill="#d7e0ed" d="M 409.5,37.5 C 432.843,37.1669 456.176,37.5003 479.5,38.5C 467.833,38.8333 456.167,39.1667 444.5,39.5C 432.48,39.499 420.814,38.8323 409.5,37.5 Z"/></g>
<g><path style="opacity:1" fill="#c8d1e0" d="M 262.5,33.5 C 287.19,32.843 311.523,33.5097 335.5,35.5C 310.81,36.157 286.477,35.4903 262.5,33.5 Z"/></g>
<g><path style="opacity:1" fill="#fefdfb" d="M 27.5,41.5 C 38.5,41.5 49.5,41.5 60.5,41.5C 60.5,54.5 60.5,67.5 60.5,80.5C 49.5,80.5 38.5,80.5 27.5,80.5C 27.5,67.5 27.5,54.5 27.5,41.5 Z"/></g>
<g><path style="opacity:1" fill="#aaa6af" d="M 26.5,39.5 C 26.5,40.1667 26.8333,40.5 27.5,40.5C 27.5,40.8333 27.5,41.1667 27.5,41.5C 27.5,54.5 27.5,67.5 27.5,80.5C 27.5,80.8333 27.5,81.1667 27.5,81.5C 26.8333,81.5 26.5,81.8333 26.5,82.5C 25.1667,68.1667 25.1667,53.8333 26.5,39.5 Z"/></g>
<g><path style="opacity:1" fill="#f8f7fd" d="M 188.5,42.5 C 212.5,42.5 236.5,42.5 260.5,42.5C 261.116,43.7978 261.116,44.7978 260.5,45.5C 236.5,45.5 212.5,45.5 188.5,45.5C 188.5,44.5 188.5,43.5 188.5,42.5 Z"/></g>
<g><path style="opacity:1" fill="#d2d9ef" d="M 262.5,42.5 C 287.19,41.843 311.523,42.5097 335.5,44.5C 311.5,44.5 287.5,44.5 263.5,44.5C 262.662,44.1583 262.328,43.4916 262.5,42.5 Z"/></g>
<g><path style="opacity:1" fill="#d3daf1" d="M 408.5,43.5 C 384.672,44.4976 360.672,44.8309 336.5,44.5C 348.148,43.1676 360.148,42.501 372.5,42.5C 384.671,42.5001 396.671,42.8334 408.5,43.5 Z"/></g>
<g><path style="opacity:1" fill="#d1d7ef" d="M 479.5,44.5 C 456.327,44.8308 433.327,44.4975 410.5,43.5C 421.828,42.8335 433.328,42.5001 445,42.5C 456.853,42.501 468.353,43.1677 479.5,44.5 Z"/></g>
<g><path style="opacity:1" fill="#b0b3cb" d="M 408.5,43.5 C 409.167,43.5 409.833,43.5 410.5,43.5C 433.327,44.4975 456.327,44.8308 479.5,44.5C 480.404,45.209 480.737,46.209 480.5,47.5C 480.831,73.3388 480.498,99.0054 479.5,124.5C 479.5,98.8333 479.5,73.1667 479.5,47.5C 456.5,47.5 433.5,47.5 410.5,47.5C 385.47,48.8249 360.47,48.8249 335.5,47.5C 311.316,47.1637 287.316,46.1637 263.5,44.5C 287.5,44.5 311.5,44.5 335.5,44.5C 335.833,44.5 336.167,44.5 336.5,44.5C 360.672,44.8309 384.672,44.4976 408.5,43.5 Z"/></g>
<g><path style="opacity:1" fill="#fefefd" d="M 114.5,47.5 C 138.833,47.5 163.167,47.5 187.5,47.5C 187.5,80.5 187.5,113.5 187.5,146.5C 182.167,146.5 176.833,146.5 171.5,146.5C 173.464,142.151 172.464,138.651 168.5,136C 162.167,134 155.833,134 149.5,136C 142.389,139.3 135.889,143.467 130,148.5C 129.5,148.167 129,147.833 128.5,147.5C 132.566,141.494 134.232,134.994 133.5,128C 132.207,127.51 130.873,127.343 129.5,127.5C 126.774,127.264 124.441,128.097 122.5,130C 119.449,133.299 116.782,136.799 114.5,140.5C 114.5,109.5 114.5,78.5 114.5,47.5 Z"/></g>
<g><path style="opacity:1" fill="#fefefd" d="M 258.5,47.5 C 260.436,51.7147 261.103,56.3814 260.5,61.5C 260.5,86.1667 260.5,110.833 260.5,135.5C 256.486,135.334 252.486,135.501 248.5,136C 247.944,136.383 247.611,136.883 247.5,137.5C 234.755,142.284 228.421,151.618 228.5,165.5C 227.167,165.5 225.833,165.5 224.5,165.5C 224.666,156.827 224.5,148.16 224,139.5C 217.25,135.208 210.417,131.041 203.5,127C 201.866,126.506 200.199,126.34 198.5,126.5C 198.286,128.144 198.62,129.644 199.5,131C 203.194,133.178 206.861,135.345 210.5,137.5C 210.414,138.496 210.748,139.329 211.5,140C 214.78,140.056 217.78,140.889 220.5,142.5C 220.343,149.354 219.677,156.354 218.5,163.5C 216.509,164.427 214.509,164.594 212.5,164C 211.167,165 211.167,166 212.5,167C 205.842,167.5 199.175,167.666 192.5,167.5C 192.5,166.167 192.5,164.833 192.5,163.5C 192.518,158.044 193.185,152.711 194.5,147.5C 192.735,146.539 190.735,146.205 188.5,146.5C 188.5,113.5 188.5,80.5 188.5,47.5C 211.833,47.5 235.167,47.5 258.5,47.5 Z"/></g>
<g><path style="opacity:1" fill="#fefefd" d="M 410.5,47.5 C 433.5,47.5 456.5,47.5 479.5,47.5C 479.5,73.1667 479.5,98.8333 479.5,124.5C 473.354,124.975 469.687,128.308 468.5,134.5C 467.175,133.047 466.342,133.381 466,135.5C 465.831,143.188 465.331,150.855 464.5,158.5C 462.79,156.292 461.29,153.959 460,151.5C 459.329,150.748 458.496,150.414 457.5,150.5C 453.86,146.194 449.86,142.194 445.5,138.5C 440.179,132.946 435.345,133.28 431,139.5C 429.71,148.253 431.876,155.92 437.5,162.5C 441.557,168.759 446.224,174.592 451.5,180C 450.833,180.667 450.167,180.667 449.5,180C 445.239,175.898 440.572,172.398 435.5,169.5C 432.523,167.533 429.523,165.533 426.5,163.5C 425.833,163.5 425.167,163.5 424.5,163.5C 422.052,162.527 419.385,162.194 416.5,162.5C 417.046,156.651 418.379,150.984 420.5,145.5C 419.697,142.445 417.697,140.778 414.5,140.5C 413.432,139.566 412.099,139.232 410.5,139.5C 410.5,108.833 410.5,78.1667 410.5,47.5 Z"/></g>
<g><path style="opacity:1" fill="#7a6f6c" d="M 114.5,38.5 C 114.5,40.8333 114.5,43.1667 114.5,45.5C 131.5,45.5 148.5,45.5 165.5,45.5C 148.5,46.1667 131.5,46.8333 114.5,47.5C 114.5,78.5 114.5,109.5 114.5,140.5C 114.5,147.833 114.5,155.167 114.5,162.5C 114.167,162.5 113.833,162.5 113.5,162.5C 113.168,120.997 113.501,79.6633 114.5,38.5 Z"/></g>
<g><path style="opacity:1" fill="#d9e4f5" d="M 262.5,51.5 C 359.833,52.1667 359.833,52.8333 262.5,53.5C 262.5,52.8333 262.5,52.1667 262.5,51.5 Z"/></g>
<g><path style="opacity:1" fill="#cacfe7" d="M 53.5,57.5 C 53.8205,62.6946 53.4872,67.6946 52.5,72.5C 50.8333,72.5 49.1667,72.5 47.5,72.5C 48.4637,65.4715 45.4637,61.8048 38.5,61.5C 38.5,57.5 38.5,53.5 38.5,49.5C 41.5,49.5 44.5,49.5 47.5,49.5C 47.1924,51.924 47.5258,54.2573 48.5,56.5C 50.0709,57.3094 51.7376,57.6427 53.5,57.5 Z"/></g>
<g><path style="opacity:1" fill="#c9cddb" d="M 260.5,42.5 C 261.167,42.5 261.833,42.5 262.5,42.5C 262.328,43.4916 262.662,44.1583 263.5,44.5C 287.316,46.1637 311.316,47.1637 335.5,47.5C 311.339,48.4976 287.006,48.831 262.5,48.5C 262.5,49.5 262.5,50.5 262.5,51.5C 262.5,52.1667 262.5,52.8333 262.5,53.5C 262.611,54.1174 262.944,54.6174 263.5,55C 287.498,55.5 311.498,55.6666 335.5,55.5C 335.5,56.5 335.5,57.5 335.5,58.5C 238.167,59.1667 238.167,59.8333 335.5,60.5C 335.5,94.5 335.5,128.5 335.5,162.5C 335.167,162.5 334.833,162.5 334.5,162.5C 334.5,128.833 334.5,95.1667 334.5,61.5C 310.328,61.1691 286.328,61.5024 262.5,62.5C 261.833,62.1667 261.167,61.8333 260.5,61.5C 261.103,56.3814 260.436,51.7147 258.5,47.5C 259.167,46.8333 259.833,46.1667 260.5,45.5C 261.116,44.7978 261.116,43.7978 260.5,42.5 Z"/></g>
<g><path style="opacity:1" fill="#808275" d="M 519.5,57.5 C 518.61,55.2181 518.444,52.8848 519,50.5C 519.29,52.0441 519.956,53.3774 521,54.5C 522.113,52.6707 523.613,51.8374 525.5,52C 521.998,54.0105 521.998,55.3439 525.5,56C 523.564,56.813 521.564,57.313 519.5,57.5 Z"/></g>
<g><path style="opacity:1" fill="#838275" d="M 498.5,60.5 C 496.345,60.628 494.345,60.128 492.5,59C 494.881,58.2615 496.881,58.7615 498.5,60.5 Z"/></g>
<g><path style="opacity:1" fill="#a9b0c5" d="M 335.5,47.5 C 360.47,48.8249 385.47,48.8249 410.5,47.5C 410.5,78.1667 410.5,108.833 410.5,139.5C 409.833,113.5 409.167,87.5 408.5,61.5C 384.5,61.5 360.5,61.5 336.5,61.5C 336.5,95.1667 336.5,128.833 336.5,162.5C 336.167,162.5 335.833,162.5 335.5,162.5C 335.5,128.5 335.5,94.5 335.5,60.5C 238.167,59.8333 238.167,59.1667 335.5,58.5C 335.5,57.5 335.5,56.5 335.5,55.5C 311.498,55.6666 287.498,55.5 263.5,55C 262.944,54.6174 262.611,54.1174 262.5,53.5C 359.833,52.8333 359.833,52.1667 262.5,51.5C 262.5,50.5 262.5,49.5 262.5,48.5C 287.006,48.831 311.339,48.4976 335.5,47.5 Z"/></g>
<g><path style="opacity:1" fill="#dde2f4" d="M 336.5,51.5 C 360.509,51.1669 384.509,51.5003 408.5,52.5C 396.5,52.8333 384.5,53.1667 372.5,53.5C 360.148,53.499 348.148,52.8324 336.5,51.5 Z"/></g>
<g><path style="opacity:1" fill="#8c8989" d="M 26.5,39.5 C 38.5,39.5 50.5,39.5 62.5,39.5C 62.5,53.8333 62.5,68.1667 62.5,82.5C 50.5,82.5 38.5,82.5 26.5,82.5C 26.5,81.8333 26.8333,81.5 27.5,81.5C 38.8333,81.5 50.1667,81.5 61.5,81.5C 61.5,67.8333 61.5,54.1667 61.5,40.5C 50.1667,40.5 38.8333,40.5 27.5,40.5C 26.8333,40.5 26.5,40.1667 26.5,39.5 Z"/></g>
<g><path style="opacity:1" fill="#fefefe" d="M 334.5,162.5 C 332.833,162.5 331.167,162.5 329.5,162.5C 326.167,162.5 322.833,162.5 319.5,162.5C 314.919,161.923 310.752,162.923 307,165.5C 308.607,161.416 309.773,157.083 310.5,152.5C 310.175,147.165 307.842,143.165 303.5,140.5C 298.683,138.592 293.683,138.092 288.5,139C 286.34,139.996 284.673,141.496 283.5,143.5C 282.85,143.804 282.183,144.137 281.5,144.5C 275.964,139.879 269.63,137.212 262.5,136.5C 262.5,136.167 262.5,135.833 262.5,135.5C 262.5,111.167 262.5,86.8333 262.5,62.5C 286.328,61.5024 310.328,61.1691 334.5,61.5C 334.5,95.1667 334.5,128.833 334.5,162.5 Z"/></g>
<g><path style="opacity:1" fill="#fefefe" d="M 408.5,61.5 C 408.5,87.5 408.5,113.5 408.5,139.5C 393.83,139.333 379.163,139.5 364.5,140C 359.266,146.522 356.266,154.022 355.5,162.5C 349.167,162.5 342.833,162.5 336.5,162.5C 336.5,128.833 336.5,95.1667 336.5,61.5C 360.5,61.5 384.5,61.5 408.5,61.5 Z"/></g>
<g><path style="opacity:1" fill="#8b8e7f" d="M 519.5,57.5 C 521.042,58.1635 522.709,58.8302 524.5,59.5C 522.424,60.0997 520.424,60.433 518.5,60.5C 520.274,61.1867 521.941,62.0201 523.5,63C 521.144,63.1554 518.811,63.1554 516.5,63C 518.332,63.7485 519.999,64.7485 521.5,66C 519.744,66.1405 518.078,65.6405 516.5,64.5C 515.065,65.8237 514.065,67.4904 513.5,69.5C 512.476,68.1482 511.476,66.8149 510.5,65.5C 511.496,65.4142 512.329,65.7476 513,66.5C 515.216,64.2057 514.716,62.8724 511.5,62.5C 510.537,61.6365 510.537,60.9698 511.5,60.5C 516.561,62.7039 516.727,62.0372 512,58.5C 511.333,57.8333 511.333,57.1667 512,56.5C 518.078,60.8783 518.911,60.0449 514.5,54C 516.238,54.8369 517.904,56.0036 519.5,57.5 Z"/></g>
<g><path style="opacity:1" fill="#f3e4dd" d="M 53.5,57.5 C 51.7376,57.6427 50.0709,57.3094 48.5,56.5C 47.5258,54.2573 47.1924,51.924 47.5,49.5C 44.5,49.5 41.5,49.5 38.5,49.5C 38.5,53.5 38.5,57.5 38.5,61.5C 45.4637,61.8048 48.4637,65.4715 47.5,72.5C 49.1667,72.5 50.8333,72.5 52.5,72.5C 53.3984,73.1577 54.3984,73.8243 55.5,74.5C 50.1084,75.2739 44.9417,76.6073 40,78.5C 36.2333,78.0783 33.5666,76.0783 32,72.5C 31.9271,69.8424 32.2604,67.1757 33,64.5C 33.414,64.0426 33.914,63.7093 34.5,63.5C 35.497,56.5316 35.8303,49.5316 35.5,42.5C 36.552,42.3505 37.552,42.5172 38.5,43C 37.5939,44.6995 37.2606,46.5328 37.5,48.5C 42.8746,48.1718 48.2079,48.5052 53.5,49.5C 56.126,52.3157 56.126,54.9823 53.5,57.5 Z"/></g>
<g><path style="opacity:1" fill="#a19698" d="M 187.5,42.5 C 187.833,42.5 188.167,42.5 188.5,42.5C 188.5,43.5 188.5,44.5 188.5,45.5C 212.5,45.5 236.5,45.5 260.5,45.5C 259.833,46.1667 259.167,46.8333 258.5,47.5C 235.167,47.5 211.833,47.5 188.5,47.5C 188.5,80.5 188.5,113.5 188.5,146.5C 190.735,146.205 192.735,146.539 194.5,147.5C 179.5,147.5 164.5,147.5 149.5,147.5C 149.167,147.5 148.833,147.5 148.5,147.5C 155.982,146.508 163.648,146.175 171.5,146.5C 176.833,146.5 182.167,146.5 187.5,146.5C 187.5,113.5 187.5,80.5 187.5,47.5C 163.167,47.5 138.833,47.5 114.5,47.5C 131.5,46.8333 148.5,46.1667 165.5,45.5C 172.833,45.5 180.167,45.5 187.5,45.5C 187.5,44.5 187.5,43.5 187.5,42.5 Z"/></g>
<g><path style="opacity:1" fill="#e9ecdd" d="M 511.5,62.5 C 514.716,62.8724 515.216,64.2057 513,66.5C 512.329,65.7476 511.496,65.4142 510.5,65.5C 510.557,64.391 510.89,63.391 511.5,62.5 Z"/></g>
<g><path style="opacity:1" fill="#dddadc" d="M 27.5,41.5 C 27.5,41.1667 27.5,40.8333 27.5,40.5C 38.8333,40.5 50.1667,40.5 61.5,40.5C 61.5,54.1667 61.5,67.8333 61.5,81.5C 50.1667,81.5 38.8333,81.5 27.5,81.5C 27.5,81.1667 27.5,80.8333 27.5,80.5C 38.5,80.5 49.5,80.5 60.5,80.5C 60.5,67.5 60.5,54.5 60.5,41.5C 49.5,41.5 38.5,41.5 27.5,41.5 Z"/></g>
<g><path style="opacity:1" fill="#949888" d="M 511.5,62.5 C 510.89,63.391 510.557,64.391 510.5,65.5C 506.843,66.8258 506.51,68.8258 509.5,71.5C 509.5,71.8333 509.5,72.1667 509.5,72.5C 507.743,71.708 506.409,70.3747 505.5,68.5C 499.397,72.2992 499.063,71.6325 504.5,66.5C 504.333,66.1667 504.167,65.8333 504,65.5C 502.414,66.376 500.914,67.376 499.5,68.5C 498.396,67.3687 498.729,66.5354 500.5,66C 499.313,64.3958 497.313,63.2291 494.5,62.5C 495.949,61.8281 497.282,61.1614 498.5,60.5C 498.929,59.0473 499.096,57.3806 499,55.5C 500,57.5 501,59.5 502,61.5C 502.202,59.7444 502.702,58.0777 503.5,56.5C 503.833,57 504.167,57.5 504.5,58C 503.591,59.7892 503.424,61.6226 504,63.5C 508.896,58.1966 509.396,58.5299 505.5,64.5C 505.833,64.8333 506.167,65.1667 506.5,65.5C 507.94,64.0476 509.606,63.0476 511.5,62.5 Z"/></g>
<g><path style="opacity:1" fill="#8c787a" d="M 480.5,47.5 C 480.833,47.5 481.167,47.5 481.5,47.5C 481.5,75.8333 481.5,104.167 481.5,132.5C 480.833,130.167 480.167,127.833 479.5,125.5C 479.5,125.167 479.5,124.833 479.5,124.5C 480.498,99.0054 480.831,73.3388 480.5,47.5 Z"/></g>
<g><path style="opacity:1" fill="#fdfdfa" d="M 509.5,71.5 C 510.309,72.4687 511.309,73.3021 512.5,74C 511.833,74.3333 511.167,74.6667 510.5,75C 512.81,75.4966 515.143,75.6633 517.5,75.5C 517.5,78.1667 517.5,80.8333 517.5,83.5C 516.886,87.1352 516.552,90.8019 516.5,94.5C 512.5,94.5 508.5,94.5 504.5,94.5C 504.611,93.8826 504.944,93.3826 505.5,93C 503.772,86.6581 503.105,80.1581 503.5,73.5C 505.735,73.7947 507.735,73.4614 509.5,72.5C 509.5,72.1667 509.5,71.8333 509.5,71.5 Z"/></g>
<g><path style="opacity:1" fill="#d2ceb6" d="M 99.5,88.5 C 95.5,88.5 91.5,88.5 87.5,88.5C 87.1712,82.7945 87.5046,77.1278 88.5,71.5C 89.7362,70.7542 91.0695,70.4208 92.5,70.5C 92.5,68.5 92.5,66.5 92.5,64.5C 94.5,64.5 96.5,64.5 98.5,64.5C 98.1995,72.5856 98.5328,80.5856 99.5,88.5 Z"/></g>
<g><path style="opacity:1" fill="#a49a9b" d="M 260.5,61.5 C 261.167,61.8333 261.833,62.1667 262.5,62.5C 262.5,86.8333 262.5,111.167 262.5,135.5C 261.833,135.5 261.167,135.5 260.5,135.5C 260.5,110.833 260.5,86.1667 260.5,61.5 Z"/></g>
<g><path style="opacity:1" fill="#ad9c99" d="M 87.5,88.5 C 91.5,88.5 95.5,88.5 99.5,88.5C 101.604,88.2011 103.604,88.5344 105.5,89.5C 85.8333,90.8333 66.1667,90.8333 46.5,89.5C 60.1504,88.5008 73.8171,88.1675 87.5,88.5 Z"/></g>
<g><path style="opacity:1" fill="#e3d7d5" d="M 584.5,95.5 C 554.833,95.5 525.167,95.5 495.5,95.5C 498.287,94.5233 501.287,94.19 504.5,94.5C 508.5,94.5 512.5,94.5 516.5,94.5C 516.552,90.8019 516.886,87.1352 517.5,83.5C 518.323,80.023 518.823,76.3563 519,72.5C 519.692,73.0253 520.192,73.6919 520.5,74.5C 519.851,81.031 519.185,87.531 518.5,94C 540.67,94.168 562.67,94.668 584.5,95.5 Z"/></g>
<g><path style="opacity:1" fill="#5c4543" d="M 495.5,95.5 C 525.167,95.5 554.833,95.5 584.5,95.5C 584.833,95.5 585.167,95.5 585.5,95.5C 585.5,118.167 585.5,140.833 585.5,163.5C 584.833,141.5 584.167,119.5 583.5,97.5C 554.5,97.5 525.5,97.5 496.5,97.5C 496.5,98.5 496.5,99.5 496.5,100.5C 497.833,100.5 499.167,100.5 500.5,100.5C 500.737,101.791 500.404,102.791 499.5,103.5C 497.612,105.988 496.945,108.988 497.5,112.5C 496.549,113.919 496.216,115.585 496.5,117.5C 496.5,118.5 496.5,119.5 496.5,120.5C 496.5,120.833 496.5,121.167 496.5,121.5C 496.5,128.167 496.5,134.833 496.5,141.5C 496.5,142.167 496.5,142.833 496.5,143.5C 496.176,150.354 496.509,157.021 497.5,163.5C 497.5,163.833 497.5,164.167 497.5,164.5C 496.513,169.305 496.179,174.305 496.5,179.5C 496.5,180.167 496.5,180.833 496.5,181.5C 496.5,182.5 496.5,183.5 496.5,184.5C 496.5,185.167 496.5,185.833 496.5,186.5C 496.5,188.167 496.5,189.833 496.5,191.5C 496.167,191.5 495.833,191.5 495.5,191.5C 495.5,159.5 495.5,127.5 495.5,95.5 Z"/></g>
<g><path style="opacity:1" fill="#f1e9e2" d="M 583.5,97.5 C 583.5,103.167 583.5,108.833 583.5,114.5C 581.833,114.5 580.167,114.5 578.5,114.5C 578.5,113.167 578.5,111.833 578.5,110.5C 571.5,110.5 564.5,110.5 557.5,110.5C 557.5,111.833 557.5,113.167 557.5,114.5C 546.5,114.5 535.5,114.5 524.5,114.5C 523.167,114.5 521.833,114.5 520.5,114.5C 520.819,109.637 520.486,104.97 519.5,100.5C 513.167,100.5 506.833,100.5 500.5,100.5C 499.167,100.5 497.833,100.5 496.5,100.5C 496.5,99.5 496.5,98.5 496.5,97.5C 525.5,97.5 554.5,97.5 583.5,97.5 Z"/></g>
<g><path style="opacity:1" fill="#858594" d="M 77.5,105.5 C 72.5,105.5 67.5,105.5 62.5,105.5C 62.5,104.5 62.5,103.5 62.5,102.5C 70.5,102.5 78.5,102.5 86.5,102.5C 86.5,103.5 86.5,104.5 86.5,105.5C 83.5,105.5 80.5,105.5 77.5,105.5 Z"/></g>
<g><path style="opacity:1" fill="#a09fb0" d="M 62.5,105.5 C 67.5,105.5 72.5,105.5 77.5,105.5C 77.5,106.5 77.5,107.5 77.5,108.5C 69.5,108.5 61.5,108.5 53.5,108.5C 53.5,107.5 53.5,106.5 53.5,105.5C 56.5,105.5 59.5,105.5 62.5,105.5 Z"/></g>
<g><path style="opacity:1" fill="#9f9b9f" d="M 12.5,92.5 C 19.5,92.5 26.5,92.5 33.5,92.5C 33.5,100.833 33.5,109.167 33.5,117.5C 26.5778,117.812 19.7445,117.479 13,116.5C 12.5003,108.507 12.3336,100.507 12.5,92.5 Z"/></g>
<g><path style="opacity:1" fill="#f9f8fb" d="M 14.5,93.5 C 20.5,93.5 26.5,93.5 32.5,93.5C 32.5,100.833 32.5,108.167 32.5,115.5C 26.5,115.5 20.5,115.5 14.5,115.5C 14.5,108.167 14.5,100.833 14.5,93.5 Z"/></g>
<g><path style="opacity:1" fill="#c8cee5" d="M 19.5,98.5 C 22.1667,98.5 24.8333,98.5 27.5,98.5C 27.5,102.5 27.5,106.5 27.5,110.5C 24.8333,110.5 22.1667,110.5 19.5,110.5C 19.5,106.5 19.5,102.5 19.5,98.5 Z"/></g>
<g><path style="opacity:1" fill="#b57570" d="M 500.5,100.5 C 506.833,100.5 513.167,100.5 519.5,100.5C 517.987,104.318 517.32,108.318 517.5,112.5C 516.849,113.091 516.182,113.757 515.5,114.5C 514.702,114.043 514.369,113.376 514.5,112.5C 513.833,100.5 513.167,100.5 512.5,112.5C 511.778,112.918 511.278,113.584 511,114.5C 510.722,113.584 510.222,112.918 509.5,112.5C 508.833,100.5 508.167,100.5 507.5,112.5C 506.778,112.918 506.278,113.584 506,114.5C 505.722,113.584 505.222,112.918 504.5,112.5C 504.817,109.428 504.484,106.428 503.5,103.5C 502.52,106.086 502.187,108.753 502.5,111.5C 501.609,112.11 500.609,112.443 499.5,112.5C 499.5,109.5 499.5,106.5 499.5,103.5C 500.404,102.791 500.737,101.791 500.5,100.5 Z"/></g>
<g><path style="opacity:1" fill="#f5c7c0" d="M 514.5,112.5 C 513.833,112.5 513.167,112.5 512.5,112.5C 513.167,100.5 513.833,100.5 514.5,112.5 Z"/></g>
<g><path style="opacity:1" fill="#fee0db" d="M 509.5,112.5 C 508.833,112.5 508.167,112.5 507.5,112.5C 508.167,100.5 508.833,100.5 509.5,112.5 Z"/></g>
<g><path style="opacity:1" fill="#fed5cf" d="M 504.5,112.5 C 503.508,112.672 502.842,112.338 502.5,111.5C 502.187,108.753 502.52,106.086 503.5,103.5C 504.484,106.428 504.817,109.428 504.5,112.5 Z"/></g>
<g><path style="opacity:1" fill="#f4dad8" d="M 499.5,103.5 C 499.5,106.5 499.5,109.5 499.5,112.5C 498.833,112.5 498.167,112.5 497.5,112.5C 496.945,108.988 497.612,105.988 499.5,103.5 Z"/></g>
<g><path style="opacity:1" fill="#ab9b9b" d="M 53.5,108.5 C 61.5,108.5 69.5,108.5 77.5,108.5C 86.8571,108.168 96.1904,108.502 105.5,109.5C 85.8333,110.833 66.1667,110.833 46.5,109.5C 48.7427,108.526 51.076,108.192 53.5,108.5 Z"/></g>
<g><path style="opacity:1" fill="#d2c9b5" d="M 578.5,114.5 C 578.5,115.5 578.5,116.5 578.5,117.5C 571.5,117.5 564.5,117.5 557.5,117.5C 557.5,116.5 557.5,115.5 557.5,114.5C 557.5,113.167 557.5,111.833 557.5,110.5C 564.5,110.5 571.5,110.5 578.5,110.5C 578.5,111.833 578.5,113.167 578.5,114.5 Z"/></g>
<g><path style="opacity:1" fill="#a54d49" d="M 502.5,111.5 C 502.842,112.338 503.508,112.672 504.5,112.5C 505.222,112.918 505.722,113.584 506,114.5C 506.278,113.584 506.778,112.918 507.5,112.5C 508.167,112.5 508.833,112.5 509.5,112.5C 510.222,112.918 510.722,113.584 511,114.5C 511.278,113.584 511.778,112.918 512.5,112.5C 513.167,112.5 513.833,112.5 514.5,112.5C 514.369,113.376 514.702,114.043 515.5,114.5C 516.182,113.757 516.849,113.091 517.5,112.5C 519.256,113.552 519.923,115.219 519.5,117.5C 512.167,117.5 504.833,117.5 497.5,117.5C 497.167,117.5 496.833,117.5 496.5,117.5C 496.216,115.585 496.549,113.919 497.5,112.5C 498.167,112.5 498.833,112.5 499.5,112.5C 500.609,112.443 501.609,112.11 502.5,111.5 Z"/></g>
<g><path style="opacity:1" fill="#bf8e8a" d="M 519.5,100.5 C 520.486,104.97 520.819,109.637 520.5,114.5C 521.833,114.5 523.167,114.5 524.5,114.5C 524.371,116.216 524.038,117.883 523.5,119.5C 514.435,120.136 505.769,119.47 497.5,117.5C 504.833,117.5 512.167,117.5 519.5,117.5C 519.923,115.219 519.256,113.552 517.5,112.5C 517.32,108.318 517.987,104.318 519.5,100.5 Z"/></g>
<g><path style="opacity:1" fill="#af918d" d="M 524.5,114.5 C 535.5,114.5 546.5,114.5 557.5,114.5C 557.5,115.5 557.5,116.5 557.5,117.5C 564.5,117.5 571.5,117.5 578.5,117.5C 578.5,116.5 578.5,115.5 578.5,114.5C 580.167,114.5 581.833,114.5 583.5,114.5C 583.5,116.167 583.5,117.833 583.5,119.5C 563.5,119.5 543.5,119.5 523.5,119.5C 524.038,117.883 524.371,116.216 524.5,114.5 Z"/></g>
<g><path style="opacity:1" fill="#8a6262" d="M 496.5,117.5 C 496.833,117.5 497.167,117.5 497.5,117.5C 505.769,119.47 514.435,120.136 523.5,119.5C 543.5,119.5 563.5,119.5 583.5,119.5C 554.671,120.498 525.671,120.831 496.5,120.5C 496.5,119.5 496.5,118.5 496.5,117.5 Z"/></g>
<g><path style="opacity:1" fill="#765454" d="M 583.5,97.5 C 584.167,119.5 584.833,141.5 585.5,163.5C 585.5,163.833 585.5,164.167 585.5,164.5C 584.833,186.5 584.167,208.5 583.5,230.5C 583.815,226.629 583.482,222.962 582.5,219.5C 582.5,219.167 582.5,218.833 582.5,218.5C 583.482,215.038 583.815,211.371 583.5,207.5C 554.833,207.5 526.167,207.5 497.5,207.5C 497.167,207.5 496.833,207.5 496.5,207.5C 496.5,207.167 496.5,206.833 496.5,206.5C 525.671,206.831 554.671,206.498 583.5,205.5C 583.5,204.833 583.5,204.167 583.5,203.5C 583.5,202.5 583.5,201.5 583.5,200.5C 583.5,197.5 583.5,194.5 583.5,191.5C 583.5,189.833 583.5,188.167 583.5,186.5C 554.833,186.5 526.167,186.5 497.5,186.5C 497.167,186.5 496.833,186.5 496.5,186.5C 496.5,185.833 496.5,185.167 496.5,184.5C 525.853,185.159 554.853,184.492 583.5,182.5C 583.5,178.5 583.5,174.5 583.5,170.5C 583.5,168.833 583.5,167.167 583.5,165.5C 555.005,164.502 526.338,164.169 497.5,164.5C 497.5,164.167 497.5,163.833 497.5,163.5C 526.338,163.831 555.005,163.498 583.5,162.5C 583.5,160.833 583.5,159.167 583.5,157.5C 583.5,152.833 583.5,148.167 583.5,143.5C 554.833,143.5 526.167,143.5 497.5,143.5C 497.167,143.5 496.833,143.5 496.5,143.5C 496.5,142.833 496.5,142.167 496.5,141.5C 525.5,141.5 554.5,141.5 583.5,141.5C 583.5,139.833 583.5,138.167 583.5,136.5C 583.5,131.5 583.5,126.5 583.5,121.5C 554.833,121.5 526.167,121.5 497.5,121.5C 497.167,121.5 496.833,121.5 496.5,121.5C 496.5,121.167 496.5,120.833 496.5,120.5C 525.671,120.831 554.671,120.498 583.5,119.5C 583.5,117.833 583.5,116.167 583.5,114.5C 583.5,108.833 583.5,103.167 583.5,97.5 Z"/></g>
<g><path style="opacity:1" fill="#eee6e3" d="M 497.5,121.5 C 526.167,121.5 554.833,121.5 583.5,121.5C 583.5,126.5 583.5,131.5 583.5,136.5C 578.833,136.5 574.167,136.5 569.5,136.5C 569.5,137.5 569.5,138.5 569.5,139.5C 567.5,139.5 565.5,139.5 563.5,139.5C 563.5,138.5 563.5,137.5 563.5,136.5C 559.167,136.5 554.833,136.5 550.5,136.5C 550.5,135.5 550.5,134.5 550.5,133.5C 543.313,133.175 536.313,133.509 529.5,134.5C 529.5,134.833 529.5,135.167 529.5,135.5C 524.786,135.827 520.12,135.493 515.5,134.5C 511.783,123.68 510.783,124.014 512.5,135.5C 511.5,135.5 510.5,135.5 509.5,135.5C 509.5,132.833 509.5,130.167 509.5,127.5C 505.653,126.98 501.653,126.98 497.5,127.5C 497.5,125.5 497.5,123.5 497.5,121.5 Z"/></g>
<g><path style="opacity:1" fill="#cccbb5" d="M 562.5,123.5 C 564.167,123.5 565.833,123.5 567.5,123.5C 567.786,125.277 568.453,126.944 569.5,128.5C 564.793,131.903 562.459,130.236 562.5,123.5 Z"/></g>
<g><path style="opacity:1" fill="#cccce0" d="M 529.5,135.5 C 528.791,136.404 527.791,136.737 526.5,136.5C 522.241,136.003 518.241,136.669 514.5,138.5C 513.476,137.147 512.143,136.48 510.5,136.5C 510.5,137.5 510.5,138.5 510.5,139.5C 506.167,139.5 501.833,139.5 497.5,139.5C 497.5,135.5 497.5,131.5 497.5,127.5C 501.653,126.98 505.653,126.98 509.5,127.5C 509.5,130.167 509.5,132.833 509.5,135.5C 510.5,135.5 511.5,135.5 512.5,135.5C 510.783,124.014 511.783,123.68 515.5,134.5C 520.12,135.493 524.786,135.827 529.5,135.5 Z"/></g>
<g><path style="opacity:1" fill="#a65956" d="M 228.5,165.5 C 230.027,165.427 231.027,166.094 231.5,167.5C 228.913,168.816 225.913,169.483 222.5,169.5C 219.314,169.498 216.314,169.165 213.5,168.5C 215.391,165.828 218.058,164.828 221.5,165.5C 221.666,157.16 221.5,148.827 221,140.5C 217.478,139.422 213.978,138.422 210.5,137.5C 206.861,135.345 203.194,133.178 199.5,131C 198.62,129.644 198.286,128.144 198.5,126.5C 200.199,126.34 201.866,126.506 203.5,127C 210.417,131.041 217.25,135.208 224,139.5C 224.5,148.16 224.666,156.827 224.5,165.5C 225.833,165.5 227.167,165.5 228.5,165.5 Z"/></g>
<g><path style="opacity:1" fill="#b2b9a0" d="M 445.5,138.5 C 443.735,146.935 441.068,154.935 437.5,162.5C 431.876,155.92 429.71,148.253 431,139.5C 435.345,133.28 440.179,132.946 445.5,138.5 Z"/></g>
<g><path style="opacity:1" fill="#e7e9da" d="M 73.5,135.5 C 74.81,137.435 76.1433,139.435 77.5,141.5C 76.9653,143.101 75.9653,143.601 74.5,143C 72.8741,140.412 70.8741,139.245 68.5,139.5C 71.2089,141.542 73.5422,143.876 75.5,146.5C 74.8826,146.611 74.3826,146.944 74,147.5C 71.8513,145.339 69.3513,144.172 66.5,144C 68.6572,145.912 70.9906,147.579 73.5,149C 72.5399,150.419 71.7065,151.919 71,153.5C 69.5905,152.213 68.0905,151.046 66.5,150C 67.4506,149.282 67.6172,148.449 67,147.5C 64.708,148.79 62.708,150.457 61,152.5C 60.6174,151.944 60.1174,151.611 59.5,151.5C 61.0209,148.534 62.1875,145.534 63,142.5C 61.6924,144.641 60.1924,146.641 58.5,148.5C 57.6786,145.553 57.1786,142.553 57,139.5C 56.0977,141.927 55.2644,144.26 54.5,146.5C 53.6552,143.457 52.6552,140.457 51.5,137.5C 52.7899,136.942 53.6232,135.942 54,134.5C 60.2688,138.115 66.7688,138.448 73.5,135.5 Z"/></g>
<g><path style="opacity:1" fill="#ab8b8e" d="M 496.5,121.5 C 496.833,121.5 497.167,121.5 497.5,121.5C 497.5,123.5 497.5,125.5 497.5,127.5C 497.5,131.5 497.5,135.5 497.5,139.5C 501.833,139.5 506.167,139.5 510.5,139.5C 510.5,138.5 510.5,137.5 510.5,136.5C 512.143,136.48 513.476,137.147 514.5,138.5C 518.241,136.669 522.241,136.003 526.5,136.5C 529.598,137.821 533.098,138.488 537,138.5C 540.5,138.167 544,137.833 547.5,137.5C 548.167,136.833 548.833,136.167 549.5,135.5C 542.866,134.503 536.2,134.17 529.5,134.5C 536.313,133.509 543.313,133.175 550.5,133.5C 550.5,134.5 550.5,135.5 550.5,136.5C 554.833,136.5 559.167,136.5 563.5,136.5C 563.5,137.5 563.5,138.5 563.5,139.5C 565.5,139.5 567.5,139.5 569.5,139.5C 569.5,138.5 569.5,137.5 569.5,136.5C 574.167,136.5 578.833,136.5 583.5,136.5C 583.5,138.167 583.5,139.833 583.5,141.5C 554.5,141.5 525.5,141.5 496.5,141.5C 496.5,134.833 496.5,128.167 496.5,121.5 Z"/></g>
<g><path style="opacity:1" fill="#7e5d69" d="M 529.5,134.5 C 536.2,134.17 542.866,134.503 549.5,135.5C 548.833,136.167 548.167,136.833 547.5,137.5C 544,137.833 540.5,138.167 537,138.5C 533.098,138.488 529.598,137.821 526.5,136.5C 527.791,136.737 528.791,136.404 529.5,135.5C 529.5,135.167 529.5,134.833 529.5,134.5 Z"/></g>
<g><path style="opacity:1" fill="#707764" d="M 77.5,145.5 C 76.8333,145.833 76.1667,146.167 75.5,146.5C 73.5422,143.876 71.2089,141.542 68.5,139.5C 70.8741,139.245 72.8741,140.412 74.5,143C 75.9653,143.601 76.9653,143.101 77.5,141.5C 76.1433,139.435 74.81,137.435 73.5,135.5C 73.369,134.761 73.5357,134.094 74,133.5C 75.6667,135.833 77.3333,138.167 79,140.5C 79.2779,136.806 79.2779,133.139 79,129.5C 80.147,131.731 81.147,134.065 82,136.5C 84.0638,133.726 86.5638,131.893 89.5,131C 87.5,133 85.5,135 83.5,137C 85.5,137 87.5,137 89.5,137C 86.7021,138.598 83.7021,139.765 80.5,140.5C 82.8622,141.271 85.1955,142.105 87.5,143C 84.5706,143.777 81.7372,143.61 79,142.5C 77.9614,143.244 77.4614,144.244 77.5,145.5 Z"/></g>
<g><path style="opacity:1" fill="#d2cbaf" d="M 247.5,137.5 C 250.5,137.5 253.5,137.5 256.5,137.5C 252.835,147.499 249.168,157.499 245.5,167.5C 250.5,167.5 255.5,167.5 260.5,167.5C 260.5,167.833 260.5,168.167 260.5,168.5C 250.75,168.806 241.084,168.473 231.5,167.5C 231.027,166.094 230.027,165.427 228.5,165.5C 228.421,151.618 234.755,142.284 247.5,137.5 Z"/></g>
<g><path style="opacity:1" fill="#ded8c1" d="M 262.5,136.5 C 269.63,137.212 275.964,139.879 281.5,144.5C 282.183,144.137 282.85,143.804 283.5,143.5C 277.971,156.754 272.638,170.087 267.5,183.5C 265.833,183.5 264.167,183.5 262.5,183.5C 262.5,167.833 262.5,152.167 262.5,136.5 Z"/></g>
<g><path style="opacity:1" fill="#b1b9a1" d="M 129.5,127.5 C 130.873,127.343 132.207,127.51 133.5,128C 134.232,134.994 132.566,141.494 128.5,147.5C 129,147.833 129.5,148.167 130,148.5C 135.889,143.467 142.389,139.3 149.5,136C 155.833,134 162.167,134 168.5,136C 172.464,138.651 173.464,142.151 171.5,146.5C 163.648,146.175 155.982,146.508 148.5,147.5C 140.231,149.47 131.565,150.136 122.5,149.5C 121.761,149.631 121.094,149.464 120.5,149C 123.282,141.656 126.282,134.489 129.5,127.5 Z"/></g>
<g><path style="opacity:1" fill="#979eba" d="M 408.5,61.5 C 409.167,87.5 409.833,113.5 410.5,139.5C 412.099,139.232 413.432,139.566 414.5,140.5C 409.596,146.839 406.596,154.172 405.5,162.5C 395.085,162.192 384.751,162.525 374.5,163.5C 371.101,162.18 367.601,162.18 364,163.5C 363.501,168.155 363.334,172.821 363.5,177.5C 356.167,177.5 348.833,177.5 341.5,177.5C 340.508,177.672 339.842,177.338 339.5,176.5C 344.5,176.5 349.5,176.5 354.5,176.5C 354.283,171.77 354.617,167.103 355.5,162.5C 356.266,154.022 359.266,146.522 364.5,140C 379.163,139.5 393.83,139.333 408.5,139.5C 408.5,113.5 408.5,87.5 408.5,61.5 Z"/></g>
<g><path style="opacity:1" fill="#fcefef" d="M 210.5,137.5 C 213.978,138.422 217.478,139.422 221,140.5C 221.5,148.827 221.666,157.16 221.5,165.5C 218.058,164.828 215.391,165.828 213.5,168.5C 206.5,168.5 199.5,168.5 192.5,168.5C 192.167,168.5 191.833,168.5 191.5,168.5C 191.216,166.585 191.549,164.919 192.5,163.5C 192.5,164.833 192.5,166.167 192.5,167.5C 199.175,167.666 205.842,167.5 212.5,167C 211.167,166 211.167,165 212.5,164C 214.509,164.594 216.509,164.427 218.5,163.5C 219.677,156.354 220.343,149.354 220.5,142.5C 217.78,140.889 214.78,140.056 211.5,140C 210.748,139.329 210.414,138.496 210.5,137.5 Z"/></g>
<g><path style="opacity:1" fill="#767a97" d="M 414.5,140.5 C 417.697,140.778 419.697,142.445 420.5,145.5C 418.379,150.984 417.046,156.651 416.5,162.5C 419.385,162.194 422.052,162.527 424.5,163.5C 418.171,163.1 411.838,162.767 405.5,162.5C 406.596,154.172 409.596,146.839 414.5,140.5 Z"/></g>
<g><path style="opacity:1" fill="#97a07b" d="M 479.5,124.5 C 479.5,124.833 479.5,125.167 479.5,125.5C 479.5,144.833 479.5,164.167 479.5,183.5C 463.833,183.5 448.167,183.5 432.5,183.5C 433.481,178.856 434.481,174.189 435.5,169.5C 440.572,172.398 445.239,175.898 449.5,180C 450.167,180.667 450.833,180.667 451.5,180C 446.224,174.592 441.557,168.759 437.5,162.5C 441.068,154.935 443.735,146.935 445.5,138.5C 449.86,142.194 453.86,146.194 457.5,150.5C 461.834,157.835 465.667,165.501 469,173.5C 468.382,165.041 467.882,156.541 467.5,148C 467.559,143.451 467.893,138.951 468.5,134.5C 469.687,128.308 473.354,124.975 479.5,124.5 Z"/></g>
<g><path style="opacity:1" fill="#f2e9e4" d="M 497.5,143.5 C 526.167,143.5 554.833,143.5 583.5,143.5C 583.5,148.167 583.5,152.833 583.5,157.5C 579.731,157.756 576.064,157.423 572.5,156.5C 567.637,156.181 562.97,156.514 558.5,157.5C 542.833,157.5 527.167,157.5 511.5,157.5C 511.5,158.5 511.5,159.5 511.5,160.5C 506.833,160.5 502.167,160.5 497.5,160.5C 497.5,160.167 497.5,159.833 497.5,159.5C 499.5,159.5 501.5,159.5 503.5,159.5C 503.281,158.325 503.614,157.325 504.5,156.5C 505.425,157.641 506.259,157.641 507,156.5C 507.833,154.5 508.667,152.5 509.5,150.5C 510.987,155.657 511.653,155.324 511.5,149.5C 506.798,148.996 502.131,148.329 497.5,147.5C 497.5,146.167 497.5,144.833 497.5,143.5 Z"/></g>
<g><path style="opacity:1" fill="#6f7263" d="M 51.5,137.5 C 52.6552,140.457 53.6552,143.457 54.5,146.5C 51.1825,147.221 47.8492,147.388 44.5,147C 46.3921,146.027 48.3921,145.36 50.5,145C 47.578,144.583 44.9113,143.583 42.5,142C 45.3766,141.275 48.0433,141.775 50.5,143.5C 50.4983,141.463 50.8316,139.463 51.5,137.5 Z"/></g>
<g><path style="opacity:1" fill="#9ba083" d="M 129.5,127.5 C 126.282,134.489 123.282,141.656 120.5,149C 121.094,149.464 121.761,149.631 122.5,149.5C 117.679,152.803 115.179,157.47 115,163.5C 114.601,163.272 114.435,162.938 114.5,162.5C 114.5,155.167 114.5,147.833 114.5,140.5C 116.782,136.799 119.449,133.299 122.5,130C 124.441,128.097 126.774,127.264 129.5,127.5 Z"/></g>
<g><path style="opacity:1" fill="#ded7c3" d="M 260.5,135.5 C 260.5,146.167 260.5,156.833 260.5,167.5C 255.5,167.5 250.5,167.5 245.5,167.5C 249.168,157.499 252.835,147.499 256.5,137.5C 253.5,137.5 250.5,137.5 247.5,137.5C 247.611,136.883 247.944,136.383 248.5,136C 252.486,135.501 256.486,135.334 260.5,135.5 Z"/></g>
<g><path style="opacity:1" fill="#757765" d="M 77.5,145.5 C 80.3214,145.539 82.9881,146.205 85.5,147.5C 85,147.833 84.5,148.167 84,148.5C 81.3911,148.162 79.2244,147.162 77.5,145.5 Z"/></g>
<g><path style="opacity:1" fill="#797d6c" d="M 75.5,146.5 C 77.4803,148.591 79.8137,150.424 82.5,152C 79.8199,152.335 77.4866,151.501 75.5,149.5C 74.914,149.709 74.414,150.043 74,150.5C 72.2383,154.048 72.7383,157.381 75.5,160.5C 75.3764,161.107 75.0431,161.44 74.5,161.5C 72.5469,157.214 69.5469,153.881 65.5,151.5C 63.739,152.035 62.4057,153.035 61.5,154.5C 58.8996,155.919 56.3996,157.585 54,159.5C 55.8774,157.077 57.7108,154.411 59.5,151.5C 60.1174,151.611 60.6174,151.944 61,152.5C 62.708,150.457 64.708,148.79 67,147.5C 67.6172,148.449 67.4506,149.282 66.5,150C 68.0905,151.046 69.5905,152.213 71,153.5C 71.7065,151.919 72.5399,150.419 73.5,149C 70.9906,147.579 68.6572,145.912 66.5,144C 69.3513,144.172 71.8513,145.339 74,147.5C 74.3826,146.944 74.8826,146.611 75.5,146.5 Z"/></g>
<g><path style="opacity:1" fill="#676a5b" d="M 54.5,148.5 C 52.6724,150.61 50.3391,151.444 47.5,151C 49.441,149.097 51.7743,148.264 54.5,148.5 Z"/></g>
<g><path style="opacity:1" fill="#747967" d="M 59.5,151.5 C 56.5338,152.398 53.7005,153.731 51,155.5C 52.0699,152.788 54.2366,150.955 57.5,150C 56.7562,148.961 55.7562,148.461 54.5,148.5C 54.5,147.833 54.5,147.167 54.5,146.5C 55.2644,144.26 56.0977,141.927 57,139.5C 57.1786,142.553 57.6786,145.553 58.5,148.5C 60.1924,146.641 61.6924,144.641 63,142.5C 62.1875,145.534 61.0209,148.534 59.5,151.5 Z"/></g>
<g><path style="opacity:1" fill="#797b8f" d="M 148.5,147.5 C 148.833,147.5 149.167,147.5 149.5,147.5C 149.5,148.833 149.5,150.167 149.5,151.5C 143.529,152.241 137.529,152.575 131.5,152.5C 131.5,153.5 131.5,154.5 131.5,155.5C 130.167,155.5 128.833,155.5 127.5,155.5C 127.5,156.833 127.5,158.167 127.5,159.5C 125.508,159.328 123.842,159.995 122.5,161.5C 121.914,161.291 121.414,160.957 121,160.5C 120.316,161.784 120.483,162.951 121.5,164C 120.643,164.689 119.977,165.522 119.5,166.5C 130.146,167.499 140.813,167.832 151.5,167.5C 151.5,167.833 151.5,168.167 151.5,168.5C 138.496,168.667 125.496,168.5 112.5,168C 111.429,167.148 110.429,166.315 109.5,165.5C 110.791,165.737 111.791,165.404 112.5,164.5C 113.338,164.158 113.672,163.492 113.5,162.5C 113.833,162.5 114.167,162.5 114.5,162.5C 114.435,162.938 114.601,163.272 115,163.5C 115.179,157.47 117.679,152.803 122.5,149.5C 131.565,150.136 140.231,149.47 148.5,147.5 Z"/></g>
<g><path style="opacity:1" fill="#8e7b6d" d="M 479.5,125.5 C 480.167,127.833 480.833,130.167 481.5,132.5C 481.5,152.167 481.5,171.833 481.5,191.5C 480.508,191.672 479.842,191.338 479.5,190.5C 479.5,189.5 479.5,188.5 479.5,187.5C 479.5,186.167 479.5,184.833 479.5,183.5C 479.5,164.167 479.5,144.833 479.5,125.5 Z"/></g>
<g><path style="opacity:1" fill="#767996" d="M 149.5,151.5 C 150.81,156.743 151.476,162.077 151.5,167.5C 140.813,167.832 130.146,167.499 119.5,166.5C 119.977,165.522 120.643,164.689 121.5,164C 120.483,162.951 120.316,161.784 121,160.5C 121.414,160.957 121.914,161.291 122.5,161.5C 123.842,159.995 125.508,159.328 127.5,159.5C 127.5,158.167 127.5,156.833 127.5,155.5C 128.833,155.5 130.167,155.5 131.5,155.5C 131.5,154.5 131.5,153.5 131.5,152.5C 137.529,152.575 143.529,152.241 149.5,151.5 Z"/></g>
<g><path style="opacity:1" fill="#fcfbf7" d="M 497.5,147.5 C 502.131,148.329 506.798,148.996 511.5,149.5C 511.653,155.324 510.987,155.657 509.5,150.5C 508.667,152.5 507.833,154.5 507,156.5C 506.259,157.641 505.425,157.641 504.5,156.5C 503.614,157.325 503.281,158.325 503.5,159.5C 501.5,159.5 499.5,159.5 497.5,159.5C 497.5,155.5 497.5,151.5 497.5,147.5 Z"/></g>
<g><path style="opacity:1" fill="#f0f5e7" d="M 468.5,134.5 C 467.893,138.951 467.559,143.451 467.5,148C 467.882,156.541 468.382,165.041 469,173.5C 465.667,165.501 461.834,157.835 457.5,150.5C 458.496,150.414 459.329,150.748 460,151.5C 461.29,153.959 462.79,156.292 464.5,158.5C 465.331,150.855 465.831,143.188 466,135.5C 466.342,133.381 467.175,133.047 468.5,134.5 Z"/></g>
<g><path style="opacity:1" fill="#878b7c" d="M 61.5,154.5 C 63.5716,156.35 64.9049,158.683 65.5,161.5C 64.5084,161.672 63.8417,161.338 63.5,160.5C 62.8333,158.5 62.1667,156.5 61.5,154.5 Z"/></g>
<g><path style="opacity:1" fill="#9e504e" d="M 572.5,156.5 C 572.5,157.5 572.5,158.5 572.5,159.5C 567.381,160.103 562.715,159.436 558.5,157.5C 562.97,156.514 567.637,156.181 572.5,156.5 Z"/></g>
<g><path style="opacity:1" fill="#e2e4d7" d="M 74.5,161.5 C 71.393,162.076 68.393,162.076 65.5,161.5C 64.9049,158.683 63.5716,156.35 61.5,154.5C 62.4057,153.035 63.739,152.035 65.5,151.5C 69.5469,153.881 72.5469,157.214 74.5,161.5 Z"/></g>
<g><path style="opacity:1" fill="#2e3d5e" d="M 149.5,147.5 C 164.5,147.5 179.5,147.5 194.5,147.5C 193.185,152.711 192.518,158.044 192.5,163.5C 191.549,164.919 191.216,166.585 191.5,168.5C 178.265,169.821 164.931,169.821 151.5,168.5C 151.5,168.167 151.5,167.833 151.5,167.5C 151.476,162.077 150.81,156.743 149.5,151.5C 149.5,150.167 149.5,148.833 149.5,147.5 Z"/></g>
<g><path style="opacity:1" fill="#b28d8f" d="M 572.5,156.5 C 576.064,157.423 579.731,157.756 583.5,157.5C 583.5,159.167 583.5,160.833 583.5,162.5C 554.481,163.159 525.814,162.492 497.5,160.5C 502.167,160.5 506.833,160.5 511.5,160.5C 511.5,159.5 511.5,158.5 511.5,157.5C 527.167,157.5 542.833,157.5 558.5,157.5C 562.715,159.436 567.381,160.103 572.5,159.5C 572.5,158.5 572.5,157.5 572.5,156.5 Z"/></g>
<g><path style="opacity:1" fill="#fdfbf9" d="M 63.5,160.5 C 63.8417,161.338 64.5084,161.672 65.5,161.5C 68.393,162.076 71.393,162.076 74.5,161.5C 75.5417,162.791 76.7083,162.791 78,161.5C 78.498,164.482 78.6646,167.482 78.5,170.5C 70.7572,171.13 63.4238,170.463 56.5,168.5C 56.5,166.167 56.5,163.833 56.5,161.5C 58.9029,161.552 61.2362,161.219 63.5,160.5 Z"/></g>
<g><path style="opacity:1" fill="#d2ccb2" d="M 303.5,140.5 C 303.477,142.6 304.144,144.433 305.5,146C 303.889,149.957 302.056,153.791 300,157.5C 300.399,162.585 298.232,165.919 293.5,167.5C 291.8,167.374 290.3,166.707 289,165.5C 286.029,167.486 282.862,168.986 279.5,170C 281.004,171.337 282.004,173.004 282.5,175C 281.262,174.923 280.262,175.089 279.5,175.5C 280.243,176.182 280.909,176.849 281.5,177.5C 279.143,177.337 276.81,177.503 274.5,178C 273.209,179.292 273.209,180.458 274.5,181.5C 275.708,182.234 277.041,182.567 278.5,182.5C 275.038,183.482 271.371,183.815 267.5,183.5C 272.638,170.087 277.971,156.754 283.5,143.5C 284.673,141.496 286.34,139.996 288.5,139C 293.683,138.092 298.683,138.592 303.5,140.5 Z"/></g>
<g><path style="opacity:1" fill="#906d6f" d="M 496.5,143.5 C 496.833,143.5 497.167,143.5 497.5,143.5C 497.5,144.833 497.5,146.167 497.5,147.5C 497.5,151.5 497.5,155.5 497.5,159.5C 497.5,159.833 497.5,160.167 497.5,160.5C 525.814,162.492 554.481,163.159 583.5,162.5C 555.005,163.498 526.338,163.831 497.5,163.5C 496.509,157.021 496.176,150.354 496.5,143.5 Z"/></g>
<g><path style="opacity:1" fill="#dcd8c5" d="M 303.5,140.5 C 307.842,143.165 310.175,147.165 310.5,152.5C 309.773,157.083 308.607,161.416 307,165.5C 310.752,162.923 314.919,161.923 319.5,162.5C 319.5,165.5 319.5,168.5 319.5,171.5C 317.143,171.337 314.81,171.503 312.5,172C 312.381,173.145 312.048,174.312 311.5,175.5C 306.5,175.5 301.5,175.5 296.5,175.5C 297.812,173.521 299.479,171.855 301.5,170.5C 299.234,169.686 296.9,169.186 294.5,169C 293.944,168.617 293.611,168.117 293.5,167.5C 298.232,165.919 300.399,162.585 300,157.5C 302.056,153.791 303.889,149.957 305.5,146C 304.144,144.433 303.477,142.6 303.5,140.5 Z"/></g>
<g><path style="opacity:1" fill="#c5adae" d="M 497.5,164.5 C 526.338,164.169 555.005,164.502 583.5,165.5C 554.833,165.5 526.167,165.5 497.5,165.5C 497.5,169.833 497.5,174.167 497.5,178.5C 498.833,178.5 500.167,178.5 501.5,178.5C 507.69,178.177 513.69,178.51 519.5,179.5C 518.833,179.5 518.167,179.5 517.5,179.5C 510.5,179.5 503.5,179.5 496.5,179.5C 496.179,174.305 496.513,169.305 497.5,164.5 Z"/></g>
<g><path style="opacity:1" fill="#767a96" d="M 329.5,162.5 C 331.167,162.5 332.833,162.5 334.5,162.5C 334.833,162.5 335.167,162.5 335.5,162.5C 335.833,162.5 336.167,162.5 336.5,162.5C 342.833,162.5 349.167,162.5 355.5,162.5C 354.617,167.103 354.283,171.77 354.5,176.5C 349.5,176.5 344.5,176.5 339.5,176.5C 335.731,176.756 332.064,176.423 328.5,175.5C 328.231,171.069 328.564,166.735 329.5,162.5 Z"/></g>
<g><path style="opacity:1" fill="#606583" d="M 405.5,162.5 C 411.838,162.767 418.171,163.1 424.5,163.5C 425.167,163.5 425.833,163.5 426.5,163.5C 426.5,170.167 426.5,176.833 426.5,183.5C 426.5,185.833 426.5,188.167 426.5,190.5C 426.5,191.167 426.5,191.833 426.5,192.5C 426.666,196.846 426.499,201.179 426,205.5C 424.378,206.099 422.878,206.766 421.5,207.5C 419.5,207.5 417.5,207.5 415.5,207.5C 405.167,207.5 394.833,207.5 384.5,207.5C 384.167,207.5 383.833,207.5 383.5,207.5C 381.833,207.5 380.167,207.5 378.5,207.5C 376.833,207.5 375.167,207.5 373.5,207.5C 373.184,192.755 373.517,178.088 374.5,163.5C 384.751,162.525 395.085,162.192 405.5,162.5 Z"/></g>
<g><path style="opacity:1" fill="#5b6284" d="M 391.5,163.5 C 394.167,163.5 396.833,163.5 399.5,163.5C 399.5,164.833 399.5,166.167 399.5,167.5C 400.833,167.5 402.167,167.5 403.5,167.5C 403.5,170.167 403.5,172.833 403.5,175.5C 407.5,175.5 411.5,175.5 415.5,175.5C 415.5,183.833 415.5,192.167 415.5,200.5C 402.137,200.758 388.804,200.425 375.5,199.5C 375.5,196.167 375.5,192.833 375.5,189.5C 377.124,189.36 378.29,190.027 379,191.5C 379.49,190.207 379.657,188.873 379.5,187.5C 380.833,187.5 382.167,187.5 383.5,187.5C 383.5,183.5 383.5,179.5 383.5,175.5C 384.833,175.5 386.167,175.5 387.5,175.5C 387.5,172.833 387.5,170.167 387.5,167.5C 388.833,167.5 390.167,167.5 391.5,167.5C 391.5,166.167 391.5,164.833 391.5,163.5 Z"/></g>
<g><path style="opacity:1" fill="#fdfaf4" d="M 293.5,167.5 C 293.611,168.117 293.944,168.617 294.5,169C 296.9,169.186 299.234,169.686 301.5,170.5C 299.479,171.855 297.812,173.521 296.5,175.5C 293.444,179.241 289.444,180.407 284.5,179C 283.756,177.961 282.756,177.461 281.5,177.5C 280.909,176.849 280.243,176.182 279.5,175.5C 280.262,175.089 281.262,174.923 282.5,175C 282.004,173.004 281.004,171.337 279.5,170C 282.862,168.986 286.029,167.486 289,165.5C 290.3,166.707 291.8,167.374 293.5,167.5 Z"/></g>
<g><path style="opacity:1" fill="#c6cde5" d="M 319.5,162.5 C 322.833,162.5 326.167,162.5 329.5,162.5C 328.564,166.735 328.231,171.069 328.5,175.5C 325.5,175.5 322.5,175.5 319.5,175.5C 319.5,174.167 319.5,172.833 319.5,171.5C 319.5,168.5 319.5,165.5 319.5,162.5 Z"/></g>
<g><path style="opacity:1" fill="#f1eae4" d="M 583.5,165.5 C 583.5,167.167 583.5,168.833 583.5,170.5C 579.76,170.759 576.094,170.426 572.5,169.5C 571.454,172.428 569.788,174.928 567.5,177C 568.167,177.333 568.833,177.667 569.5,178C 553.5,178.667 537.5,178.667 521.5,178C 520.692,177.692 520.025,177.192 519.5,176.5C 514.282,175.811 509.116,175.144 504,174.5C 502.294,175.308 501.461,176.641 501.5,178.5C 500.167,178.5 498.833,178.5 497.5,178.5C 497.5,174.167 497.5,169.833 497.5,165.5C 526.167,165.5 554.833,165.5 583.5,165.5 Z"/></g>
<g><path style="opacity:1" fill="#a48d91" d="M 109.5,165.5 C 110.429,166.315 111.429,167.148 112.5,168C 125.496,168.5 138.496,168.667 151.5,168.5C 164.931,169.821 178.265,169.821 191.5,168.5C 191.833,168.5 192.167,168.5 192.5,168.5C 192.586,169.496 192.252,170.329 191.5,171C 170.347,171.779 149.347,171.279 128.5,169.5C 113.822,169.667 99.1553,170.167 84.5,171C 83.944,171.383 83.6107,171.883 83.5,172.5C 69.8333,172.5 56.1667,172.5 42.5,172.5C 42.5,171.167 42.5,169.833 42.5,168.5C 47.1667,168.5 51.8333,168.5 56.5,168.5C 63.4238,170.463 70.7572,171.13 78.5,170.5C 86.7121,168.932 95.0455,168.099 103.5,168C 104.955,165.984 106.955,165.151 109.5,165.5 Z"/></g>
<g><path style="opacity:1" fill="#b38f90" d="M 231.5,167.5 C 241.084,168.473 250.75,168.806 260.5,168.5C 261.833,171.167 261.833,173.833 260.5,176.5C 260.5,175.167 260.5,173.833 260.5,172.5C 201.5,172.5 142.5,172.5 83.5,172.5C 83.6107,171.883 83.944,171.383 84.5,171C 99.1553,170.167 113.822,169.667 128.5,169.5C 149.347,171.279 170.347,171.779 191.5,171C 192.252,170.329 192.586,169.496 192.5,168.5C 199.5,168.5 206.5,168.5 213.5,168.5C 216.314,169.165 219.314,169.498 222.5,169.5C 225.913,169.483 228.913,168.816 231.5,167.5 Z"/></g>
<g><path style="opacity:1" fill="#b5a594" d="M 260.5,135.5 C 261.167,135.5 261.833,135.5 262.5,135.5C 262.5,135.833 262.5,136.167 262.5,136.5C 262.5,152.167 262.5,167.833 262.5,183.5C 262.5,185.833 262.5,188.167 262.5,190.5C 261.833,188.167 261.167,185.833 260.5,183.5C 260.5,181.5 260.5,179.5 260.5,177.5C 248.5,177.5 236.5,177.5 224.5,177.5C 224.5,178.833 224.5,180.167 224.5,181.5C 224.167,181.5 223.833,181.5 223.5,181.5C 223.5,179.833 223.5,178.167 223.5,176.5C 235.833,176.5 248.167,176.5 260.5,176.5C 261.833,173.833 261.833,171.167 260.5,168.5C 260.5,168.167 260.5,167.833 260.5,167.5C 260.5,156.833 260.5,146.167 260.5,135.5 Z"/></g>
<g><path style="opacity:1" fill="#7b5858" d="M 42.5,172.5 C 56.1667,172.5 69.8333,172.5 83.5,172.5C 142.5,172.5 201.5,172.5 260.5,172.5C 260.5,173.833 260.5,175.167 260.5,176.5C 248.167,176.5 235.833,176.5 223.5,176.5C 223.5,178.167 223.5,179.833 223.5,181.5C 222.5,181.5 221.5,181.5 220.5,181.5C 220.5,179.833 220.5,178.167 220.5,176.5C 209.654,176.172 198.987,176.506 188.5,177.5C 188.5,179.5 188.5,181.5 188.5,183.5C 188.167,183.5 187.833,183.5 187.5,183.5C 187.5,181.167 187.5,178.833 187.5,176.5C 179.833,176.5 172.167,176.5 164.5,176.5C 164.167,176.5 163.833,176.5 163.5,176.5C 145.5,176.5 127.5,176.5 109.5,176.5C 100.833,176.5 92.1667,176.5 83.5,176.5C 83.5,178.167 83.5,179.833 83.5,181.5C 82.5,181.5 81.5,181.5 80.5,181.5C 80.7845,179.585 80.4511,177.919 79.5,176.5C 67.1667,176.5 54.8333,176.5 42.5,176.5C 42.5,175.167 42.5,173.833 42.5,172.5 Z"/></g>
<g><path style="opacity:1" fill="#fdf9f6" d="M 319.5,171.5 C 319.5,172.833 319.5,174.167 319.5,175.5C 316.887,179.48 314.22,179.48 311.5,175.5C 312.048,174.312 312.381,173.145 312.5,172C 314.81,171.503 317.143,171.337 319.5,171.5 Z"/></g>
<g><path style="opacity:1" fill="#b1b89f" d="M 426.5,163.5 C 429.523,165.533 432.523,167.533 435.5,169.5C 434.481,174.189 433.481,178.856 432.5,183.5C 432.167,183.5 431.833,183.5 431.5,183.5C 429.833,183.5 428.167,183.5 426.5,183.5C 426.5,176.833 426.5,170.167 426.5,163.5 Z"/></g>
<g><path style="opacity:1" fill="#d5bab8" d="M 109.5,176.5 C 109.5,176.833 109.5,177.167 109.5,177.5C 101.167,177.5 92.8333,177.5 84.5,177.5C 84.5,178.833 84.5,180.167 84.5,181.5C 84.1667,181.5 83.8333,181.5 83.5,181.5C 83.5,179.833 83.5,178.167 83.5,176.5C 92.1667,176.5 100.833,176.5 109.5,176.5 Z"/></g>
<g><path style="opacity:1" fill="#837687" d="M 109.5,177.5 C 109.5,177.167 109.5,176.833 109.5,176.5C 127.5,176.5 145.5,176.5 163.5,176.5C 161.833,177.167 160.167,177.833 158.5,178.5C 143.833,178.5 129.167,178.5 114.5,178.5C 113.081,177.549 111.415,177.216 109.5,177.5 Z"/></g>
<g><path style="opacity:1" fill="#f7f4f2" d="M 164.5,176.5 C 172.167,176.5 179.833,176.5 187.5,176.5C 187.5,178.833 187.5,181.167 187.5,183.5C 179.5,183.5 171.5,183.5 163.5,183.5C 163.993,181.194 164.326,178.861 164.5,176.5 Z"/></g>
<g><path style="opacity:1" fill="#fdf9f9" d="M 188.5,177.5 C 195.167,177.5 201.833,177.5 208.5,177.5C 208.5,178.833 208.5,180.167 208.5,181.5C 204.988,180.945 201.988,181.612 199.5,183.5C 195.833,183.5 192.167,183.5 188.5,183.5C 188.5,181.5 188.5,179.5 188.5,177.5 Z"/></g>
<g><path style="opacity:1" fill="#d2c0b0" d="M 188.5,177.5 C 198.987,176.506 209.654,176.172 220.5,176.5C 220.5,178.167 220.5,179.833 220.5,181.5C 216.5,181.5 212.5,181.5 208.5,181.5C 208.5,180.167 208.5,178.833 208.5,177.5C 201.833,177.5 195.167,177.5 188.5,177.5 Z"/></g>
<g><path style="opacity:1" fill="#edd8d5" d="M 583.5,170.5 C 583.5,174.5 583.5,178.5 583.5,182.5C 579.167,182.5 574.833,182.5 570.5,182.5C 570.5,181.5 570.5,180.5 570.5,179.5C 553.5,179.5 536.5,179.5 519.5,179.5C 513.69,178.51 507.69,178.177 501.5,178.5C 501.461,176.641 502.294,175.308 504,174.5C 509.116,175.144 514.282,175.811 519.5,176.5C 520.025,177.192 520.692,177.692 521.5,178C 537.5,178.667 553.5,178.667 569.5,178C 568.833,177.667 568.167,177.333 567.5,177C 569.788,174.928 571.454,172.428 572.5,169.5C 576.094,170.426 579.76,170.759 583.5,170.5 Z"/></g>
<g><path style="opacity:1" fill="#f3e9e4" d="M 109.5,177.5 C 109.226,182.263 109.559,186.93 110.5,191.5C 108.167,191.5 105.833,191.5 103.5,191.5C 103.813,187.958 103.479,184.625 102.5,181.5C 96.5,181.5 90.5,181.5 84.5,181.5C 84.5,180.167 84.5,178.833 84.5,177.5C 92.8333,177.5 101.167,177.5 109.5,177.5 Z"/></g>
<g><path style="opacity:1" fill="#dfd4be" d="M 260.5,183.5 C 254.833,183.5 249.167,183.5 243.5,183.5C 243.672,182.508 243.338,181.842 242.5,181.5C 236.5,181.5 230.5,181.5 224.5,181.5C 224.5,180.167 224.5,178.833 224.5,177.5C 236.5,177.5 248.5,177.5 260.5,177.5C 260.5,179.5 260.5,181.5 260.5,183.5 Z"/></g>
<g><path style="opacity:1" fill="#9da0b9" d="M 163.5,176.5 C 163.833,176.5 164.167,176.5 164.5,176.5C 164.326,178.861 163.993,181.194 163.5,183.5C 163.5,185.833 163.5,188.167 163.5,190.5C 163.5,191.167 163.5,191.833 163.5,192.5C 161.068,193.75 158.734,195.25 156.5,197C 153.937,198.079 151.271,198.579 148.5,198.5C 147.833,198.5 147.167,198.5 146.5,198.5C 145.5,198.5 144.5,198.5 143.5,198.5C 139.069,198.231 134.735,198.564 130.5,199.5C 129.652,198.375 128.652,198.375 127.5,199.5C 122.673,198.97 118.006,197.637 113.5,195.5C 112.488,194.128 111.488,192.795 110.5,191.5C 109.559,186.93 109.226,182.263 109.5,177.5C 111.415,177.216 113.081,177.549 114.5,178.5C 114.19,181.713 114.523,184.713 115.5,187.5C 116.031,189.624 117.365,191.124 119.5,192C 131.595,194.268 143.595,193.935 155.5,191C 157.141,189.871 158.141,188.371 158.5,186.5C 158.5,183.833 158.5,181.167 158.5,178.5C 160.167,177.833 161.833,177.167 163.5,176.5 Z"/></g>
<g><path style="opacity:1" fill="#757998" d="M 114.5,178.5 C 129.167,178.5 143.833,178.5 158.5,178.5C 158.5,181.167 158.5,183.833 158.5,186.5C 143.99,186.171 129.657,186.504 115.5,187.5C 114.523,184.713 114.19,181.713 114.5,178.5 Z"/></g>
<g><path style="opacity:1" fill="#ac8e8e" d="M 296.5,175.5 C 301.5,175.5 306.5,175.5 311.5,175.5C 314.22,179.48 316.887,179.48 319.5,175.5C 322.5,175.5 325.5,175.5 328.5,175.5C 332.064,176.423 335.731,176.756 339.5,176.5C 339.842,177.338 340.508,177.672 341.5,177.5C 341.833,178.167 342.167,178.833 342.5,179.5C 334.942,181.036 327.276,182.036 319.5,182.5C 305.607,182.909 291.774,182.243 278,180.5C 276.615,180.514 275.449,180.848 274.5,181.5C 273.209,180.458 273.209,179.292 274.5,178C 276.81,177.503 279.143,177.337 281.5,177.5C 282.756,177.461 283.756,177.961 284.5,179C 289.444,180.407 293.444,179.241 296.5,175.5 Z"/></g>
<g><path style="opacity:1" fill="#655e6c" d="M 496.5,179.5 C 503.5,179.5 510.5,179.5 517.5,179.5C 510.913,181.461 503.913,182.128 496.5,181.5C 496.5,180.833 496.5,180.167 496.5,179.5 Z"/></g>
<g><path style="opacity:1" fill="#ae8c8b" d="M 517.5,179.5 C 518.167,179.5 518.833,179.5 519.5,179.5C 536.5,179.5 553.5,179.5 570.5,179.5C 570.5,180.5 570.5,181.5 570.5,182.5C 574.833,182.5 579.167,182.5 583.5,182.5C 554.853,184.492 525.853,185.159 496.5,184.5C 496.5,183.5 496.5,182.5 496.5,181.5C 503.913,182.128 510.913,181.461 517.5,179.5 Z"/></g>
<g><path style="opacity:1" fill="#a57874" d="M 79.5,176.5 C 80.4511,177.919 80.7845,179.585 80.5,181.5C 80.6107,182.117 80.944,182.617 81.5,183C 76.8333,183.667 72.1667,184.333 67.5,185C 71.0296,185.672 72.3629,187.838 71.5,191.5C 68.2123,191.927 65.2123,191.26 62.5,189.5C 61.6858,191.766 61.1858,194.1 61,196.5C 60.5002,206.161 60.3335,215.828 60.5,225.5C 63.1985,225.534 65.6985,224.867 68,223.5C 78.4831,224.432 88.8164,224.432 99,223.5C 99.7096,224.973 100.876,225.64 102.5,225.5C 102.5,210.833 102.5,196.167 102.5,181.5C 103.479,184.625 103.813,187.958 103.5,191.5C 103.5,194.833 103.5,198.167 103.5,201.5C 103.5,209.833 103.5,218.167 103.5,226.5C 102.167,226.5 100.833,226.5 99.5,226.5C 99.5,228.833 99.5,231.167 99.5,233.5C 99.5,235.167 99.5,236.833 99.5,238.5C 99.1667,238.5 98.8333,238.5 98.5,238.5C 98.5,234.5 98.5,230.5 98.5,226.5C 97.5,226.5 96.5,226.5 95.5,226.5C 95.1667,226.5 94.8333,226.5 94.5,226.5C 85.8333,226.5 77.1667,226.5 68.5,226.5C 67.5,226.5 66.5,226.5 65.5,226.5C 65.5,230.167 65.5,233.833 65.5,237.5C 66.5,237.5 67.5,237.5 68.5,237.5C 68.5,237.833 68.5,238.167 68.5,238.5C 67.1667,238.5 65.8333,238.5 64.5,238.5C 64.5,236.833 64.5,235.167 64.5,233.5C 64.5,231.167 64.5,228.833 64.5,226.5C 62.8333,226.5 61.1667,226.5 59.5,226.5C 59.5,217.833 59.5,209.167 59.5,200.5C 59.5,197.5 59.5,194.5 59.5,191.5C 59.5,188.167 59.5,184.833 59.5,181.5C 66.1667,181.5 72.8333,181.5 79.5,181.5C 79.5,179.833 79.5,178.167 79.5,176.5 Z"/></g>
<g><path style="opacity:1" fill="#c4cde8" d="M 374.5,163.5 C 373.517,178.088 373.184,192.755 373.5,207.5C 361.5,207.5 349.5,207.5 337.5,207.5C 333.598,199.808 330.264,191.808 327.5,183.5C 331.534,183.328 335.534,182.828 339.5,182C 341.119,181.764 342.119,180.931 342.5,179.5C 342.167,178.833 341.833,178.167 341.5,177.5C 348.833,177.5 356.167,177.5 363.5,177.5C 363.334,172.821 363.501,168.155 364,163.5C 367.601,162.18 371.101,162.18 374.5,163.5 Z"/></g>
<g><path style="opacity:1" fill="#ccab91" d="M 431.5,183.5 C 431.833,183.5 432.167,183.5 432.5,183.5C 448.167,183.5 463.833,183.5 479.5,183.5C 479.5,184.833 479.5,186.167 479.5,187.5C 472.601,186.086 465.601,185.419 458.5,185.5C 453.019,185.281 447.685,185.948 442.5,187.5C 439.045,185.767 435.545,185.434 432,186.5C 431.517,185.552 431.351,184.552 431.5,183.5 Z"/></g>
<g><path style="opacity:1" fill="#d7ac98" d="M 278.5,182.5 C 282.179,182.724 285.846,183.058 289.5,183.5C 289.122,185.921 288.455,188.254 287.5,190.5C 279.167,190.5 270.833,190.5 262.5,190.5C 262.5,188.167 262.5,185.833 262.5,183.5C 264.167,183.5 265.833,183.5 267.5,183.5C 271.371,183.815 275.038,183.482 278.5,182.5 Z"/></g>
<g><path style="opacity:1" fill="#5d6684" d="M 158.5,186.5 C 158.141,188.371 157.141,189.871 155.5,191C 143.595,193.935 131.595,194.268 119.5,192C 117.365,191.124 116.031,189.624 115.5,187.5C 129.657,186.504 143.99,186.171 158.5,186.5 Z"/></g>
<g><path style="opacity:1" fill="#ddaa97" d="M 426.5,183.5 C 428.167,183.5 429.833,183.5 431.5,183.5C 431.351,184.552 431.517,185.552 432,186.5C 435.545,185.434 439.045,185.767 442.5,187.5C 447.685,185.948 453.019,185.281 458.5,185.5C 465.601,185.419 472.601,186.086 479.5,187.5C 479.5,188.5 479.5,189.5 479.5,190.5C 461.833,190.5 444.167,190.5 426.5,190.5C 426.5,188.167 426.5,185.833 426.5,183.5 Z"/></g>
<g><path style="opacity:1" fill="#f6e7df" d="M 497.5,186.5 C 526.167,186.5 554.833,186.5 583.5,186.5C 583.5,188.167 583.5,189.833 583.5,191.5C 582.5,191.5 581.5,191.5 580.5,191.5C 580.5,190.833 580.167,190.5 579.5,190.5C 577.022,189.836 574.355,189.503 571.5,189.5C 568.41,189.522 565.743,190.188 563.5,191.5C 541.5,191.5 519.5,191.5 497.5,191.5C 497.5,189.833 497.5,188.167 497.5,186.5 Z"/></g>
<g><path style="opacity:1" fill="#dbab9a" d="M 163.5,183.5 C 171.5,183.5 179.5,183.5 187.5,183.5C 187.5,185.833 187.5,188.167 187.5,190.5C 179.5,190.5 171.5,190.5 163.5,190.5C 163.5,188.167 163.5,185.833 163.5,183.5 Z"/></g>
<g><path style="opacity:1" fill="#e5bfb3" d="M 319.5,184.5 C 319.5,186.5 319.5,188.5 319.5,190.5C 314.305,190.821 309.305,190.487 304.5,189.5C 304.5,187.833 304.5,186.167 304.5,184.5C 309.5,184.5 314.5,184.5 319.5,184.5 Z"/></g>
<g><path style="opacity:1" fill="#6a453b" d="M 274.5,181.5 C 275.449,180.848 276.615,180.514 278,180.5C 291.774,182.243 305.607,182.909 319.5,182.5C 319.5,182.833 319.5,183.167 319.5,183.5C 319.5,183.833 319.5,184.167 319.5,184.5C 314.5,184.5 309.5,184.5 304.5,184.5C 304.5,186.167 304.5,187.833 304.5,189.5C 303.596,190.209 303.263,191.209 303.5,192.5C 302.417,196.085 301.751,199.751 301.5,203.5C 300.659,205.379 300.325,207.379 300.5,209.5C 299.566,210.568 299.232,211.901 299.5,213.5C 298.833,213.5 298.167,213.5 297.5,213.5C 297.5,212.5 297.5,211.5 297.5,210.5C 298.301,208.958 298.634,207.292 298.5,205.5C 299.903,201.345 300.903,197.012 301.5,192.5C 301.5,191.833 301.5,191.167 301.5,190.5C 302.468,188.393 302.802,186.059 302.5,183.5C 299.15,183.335 295.817,183.502 292.5,184C 291.139,185.584 290.472,187.418 290.5,189.5C 289.599,190.29 288.932,191.29 288.5,192.5C 286.616,195.603 285.282,198.937 284.5,202.5C 282.992,204.181 281.992,206.181 281.5,208.5C 280.778,208.918 280.278,209.584 280,210.5C 279.536,209.906 279.369,209.239 279.5,208.5C 280.167,206.833 280.833,205.167 281.5,203.5C 282.957,199.822 284.623,196.155 286.5,192.5C 286.833,191.833 287.167,191.167 287.5,190.5C 288.455,188.254 289.122,185.921 289.5,183.5C 285.846,183.058 282.179,182.724 278.5,182.5C 277.041,182.567 275.708,182.234 274.5,181.5 Z"/></g>
<g><path style="opacity:1" fill="#e2bbb3" d="M 301.5,190.5 C 297.629,190.815 293.962,190.482 290.5,189.5C 290.472,187.418 291.139,185.584 292.5,184C 295.817,183.502 299.15,183.335 302.5,183.5C 302.802,186.059 302.468,188.393 301.5,190.5 Z"/></g>
<g><path style="opacity:1" fill="#a87a65" d="M 426.5,190.5 C 444.167,190.5 461.833,190.5 479.5,190.5C 479.842,191.338 480.508,191.672 481.5,191.5C 463.674,192.497 445.674,192.83 427.5,192.5C 427.167,192.5 426.833,192.5 426.5,192.5C 426.5,191.833 426.5,191.167 426.5,190.5 Z"/></g>
<g><path style="opacity:1" fill="#b2897b" d="M 290.5,189.5 C 293.962,190.482 297.629,190.815 301.5,190.5C 301.5,191.167 301.5,191.833 301.5,192.5C 297.167,192.5 292.833,192.5 288.5,192.5C 288.932,191.29 289.599,190.29 290.5,189.5 Z"/></g>
<g><path style="opacity:1" fill="#b1887c" d="M 304.5,189.5 C 309.305,190.487 314.305,190.821 319.5,190.5C 319.5,191.167 319.5,191.833 319.5,192.5C 319.167,192.5 318.833,192.5 318.5,192.5C 313.5,192.5 308.5,192.5 303.5,192.5C 303.263,191.209 303.596,190.209 304.5,189.5 Z"/></g>
<g><path style="opacity:1" fill="#a3594e" d="M 579.5,190.5 C 580.167,190.5 580.5,190.833 580.5,191.5C 581.131,194.702 582.131,197.702 583.5,200.5C 583.5,201.5 583.5,202.5 583.5,203.5C 582.5,203.5 581.5,203.5 580.5,203.5C 580.64,199.836 579.973,196.336 578.5,193C 578.528,191.93 578.861,191.097 579.5,190.5 Z"/></g>
<g><path style="opacity:1" fill="#eac2ac" d="M 303.5,192.5 C 308.5,192.5 313.5,192.5 318.5,192.5C 318.5,195.833 318.5,199.167 318.5,202.5C 312.741,202.214 307.075,202.548 301.5,203.5C 301.751,199.751 302.417,196.085 303.5,192.5 Z"/></g>
<g><path style="opacity:1" fill="#edc1ac" d="M 481.5,191.5 C 485.833,191.5 490.167,191.5 494.5,191.5C 497,202.207 493,206.207 482.5,203.5C 475.633,202.888 468.8,202.222 462,201.5C 450.91,202.653 439.743,202.82 428.5,202C 427.549,198.943 427.216,195.777 427.5,192.5C 445.674,192.83 463.674,192.497 481.5,191.5 Z"/></g>
<g><path style="opacity:1" fill="#a06e6d" d="M 80.5,181.5 C 81.5,181.5 82.5,181.5 83.5,181.5C 83.8333,181.5 84.1667,181.5 84.5,181.5C 90.5,181.5 96.5,181.5 102.5,181.5C 102.5,196.167 102.5,210.833 102.5,225.5C 100.876,225.64 99.7096,224.973 99,223.5C 88.8164,224.432 78.4831,224.432 68,223.5C 65.6985,224.867 63.1985,225.534 60.5,225.5C 60.3335,215.828 60.5002,206.161 61,196.5C 61.1858,194.1 61.6858,191.766 62.5,189.5C 65.2123,191.26 68.2123,191.927 71.5,191.5C 72.3629,187.838 71.0296,185.672 67.5,185C 72.1667,184.333 76.8333,183.667 81.5,183C 80.944,182.617 80.6107,182.117 80.5,181.5 Z"/></g>
<g><path style="opacity:1" fill="#e8bca6" d="M 103.5,191.5 C 105.833,191.5 108.167,191.5 110.5,191.5C 111.488,192.795 112.488,194.128 113.5,195.5C 114.74,197.988 116.74,199.821 119.5,201C 114.177,201.499 108.844,201.666 103.5,201.5C 103.5,198.167 103.5,194.833 103.5,191.5 Z"/></g>
<g><path style="opacity:1" fill="#a16e6d" d="M 242.5,184.5 C 242.829,198.344 242.496,212.01 241.5,225.5C 241.631,224.761 241.464,224.094 241,223.5C 227.591,224.598 214.257,224.598 201,223.5C 200.333,209.833 200.333,196.167 201,182.5C 206.588,183.076 212.421,183.409 218.5,183.5C 218.451,188.539 219.118,188.705 220.5,184C 221.448,183.517 222.448,183.351 223.5,183.5C 223.5,184.833 223.5,186.167 223.5,187.5C 224.833,187.5 226.167,187.5 227.5,187.5C 227.5,186.167 227.5,184.833 227.5,183.5C 232.595,183.221 237.595,183.555 242.5,184.5 Z"/></g>
<g><path style="opacity:1" fill="#c6cde4" d="M 319.5,183.5 C 321.467,183.261 323.301,183.594 325,184.5C 328.738,191.97 331.905,199.637 334.5,207.5C 333.5,207.5 332.5,207.5 331.5,207.5C 329.5,207.5 327.5,207.5 325.5,207.5C 323.5,207.5 321.5,207.5 319.5,207.5C 319.5,202.5 319.5,197.5 319.5,192.5C 319.5,191.833 319.5,191.167 319.5,190.5C 319.5,188.5 319.5,186.5 319.5,184.5C 319.5,184.167 319.5,183.833 319.5,183.5 Z"/></g>
<g><path style="opacity:1" fill="#ecc2ac" d="M 163.5,192.5 C 175.5,192.5 187.5,192.5 199.5,192.5C 199.5,195.5 199.5,198.5 199.5,201.5C 198.092,200.939 196.592,200.605 195,200.5C 183.865,202.798 172.698,202.798 161.5,200.5C 157.805,201.086 154.138,201.753 150.5,202.5C 148.889,201.68 148.222,200.346 148.5,198.5C 151.271,198.579 153.937,198.079 156.5,197C 158.734,195.25 161.068,193.75 163.5,192.5 Z"/></g>
<g><path style="opacity:1" fill="#ecc3ad" d="M 286.5,192.5 C 284.623,196.155 282.957,199.822 281.5,203.5C 280.726,202.853 279.726,202.52 278.5,202.5C 269.184,204.415 259.851,205.082 250.5,204.5C 248.803,203.636 247.637,202.303 247,200.5C 245.989,201.337 244.822,201.67 243.5,201.5C 243.5,198.5 243.5,195.5 243.5,192.5C 257.833,192.5 272.167,192.5 286.5,192.5 Z"/></g>
<g><path style="opacity:1" fill="#e8c0ac" d="M 288.5,192.5 C 292.833,192.5 297.167,192.5 301.5,192.5C 300.903,197.012 299.903,201.345 298.5,205.5C 298.649,204.448 298.483,203.448 298,202.5C 297.667,202.833 297.333,203.167 297,203.5C 296.692,202.692 296.192,202.025 295.5,201.5C 291.906,202.426 288.24,202.759 284.5,202.5C 285.282,198.937 286.616,195.603 288.5,192.5 Z"/></g>
<g><path style="opacity:1" fill="#c48f89" d="M 579.5,190.5 C 578.861,191.097 578.528,191.93 578.5,193C 579.973,196.336 580.64,199.836 580.5,203.5C 579.5,203.5 578.5,203.5 577.5,203.5C 572.985,204.812 568.318,204.812 563.5,203.5C 563.291,202.914 562.957,202.414 562.5,202C 543.662,201.832 524.996,201.332 506.5,200.5C 525.5,200.5 544.5,200.5 563.5,200.5C 563.5,197.5 563.5,194.5 563.5,191.5C 565.743,190.188 568.41,189.522 571.5,189.5C 574.355,189.503 577.022,189.836 579.5,190.5 Z"/></g>
<g><path style="opacity:1" fill="#b2554f" d="M 577.5,203.5 C 573.167,203.5 568.833,203.5 564.5,203.5C 564.5,199.167 564.5,194.833 564.5,190.5C 568.833,190.5 573.167,190.5 577.5,190.5C 577.5,194.833 577.5,199.167 577.5,203.5 Z"/></g>
<g><path style="opacity:1" fill="#5b4f5b" d="M 342.5,179.5 C 342.119,180.931 341.119,181.764 339.5,182C 335.534,182.828 331.534,183.328 327.5,183.5C 330.264,191.808 333.598,199.808 337.5,207.5C 337.5,207.833 337.5,208.167 337.5,208.5C 337.631,209.239 337.464,209.906 337,210.5C 336.148,209.429 335.315,208.429 334.5,207.5C 331.905,199.637 328.738,191.97 325,184.5C 323.301,183.594 321.467,183.261 319.5,183.5C 319.5,183.167 319.5,182.833 319.5,182.5C 327.276,182.036 334.942,181.036 342.5,179.5 Z"/></g>
<g><path style="opacity:1" fill="#e7cdc1" d="M 146.5,198.5 C 147.167,198.5 147.833,198.5 148.5,198.5C 148.222,200.346 148.889,201.68 150.5,202.5C 154.138,201.753 157.805,201.086 161.5,200.5C 172.698,202.798 183.865,202.798 195,200.5C 196.592,200.605 198.092,200.939 199.5,201.5C 199.5,209.833 199.5,218.167 199.5,226.5C 201.167,226.5 202.833,226.5 204.5,226.5C 204.5,228.833 204.5,231.167 204.5,233.5C 188.422,233.817 172.422,233.484 156.5,232.5C 153.373,221.119 150.04,209.786 146.5,198.5 Z"/></g>
<g><path style="opacity:1" fill="#e7cdc1" d="M 426.5,192.5 C 426.833,192.5 427.167,192.5 427.5,192.5C 427.216,195.777 427.549,198.943 428.5,202C 439.743,202.82 450.91,202.653 462,201.5C 468.8,202.222 475.633,202.888 482.5,203.5C 480.682,207.173 480.016,211.173 480.5,215.5C 481.5,215.5 482.5,215.5 483.5,215.5C 483.5,218.167 483.5,220.833 483.5,223.5C 482.5,223.5 481.5,223.5 480.5,223.5C 479.376,234.533 479.376,245.533 480.5,256.5C 357.833,256.5 235.167,256.5 112.5,256.5C 112.39,250.289 112.39,244.289 112.5,238.5C 143.167,238.5 173.833,238.5 204.5,238.5C 205.833,238.5 207.167,238.5 208.5,238.5C 217.167,238.5 225.833,238.5 234.5,238.5C 234.833,238.5 235.167,238.5 235.5,238.5C 236.5,238.5 237.5,238.5 238.5,238.5C 238.833,238.5 239.167,238.5 239.5,238.5C 244.544,238.827 249.544,238.494 254.5,237.5C 253.754,236.264 253.421,234.93 253.5,233.5C 248.833,233.5 244.167,233.5 239.5,233.5C 239.5,231.167 239.5,228.833 239.5,226.5C 240.833,226.5 242.167,226.5 243.5,226.5C 243.5,218.167 243.5,209.833 243.5,201.5C 244.822,201.67 245.989,201.337 247,200.5C 247.637,202.303 248.803,203.636 250.5,204.5C 259.851,205.082 269.184,204.415 278.5,202.5C 279.726,202.52 280.726,202.853 281.5,203.5C 280.833,205.167 280.167,206.833 279.5,208.5C 277.912,209.635 277.579,210.969 278.5,212.5C 284.798,213.496 291.132,213.83 297.5,213.5C 298.167,213.5 298.833,213.5 299.5,213.5C 341.505,213.833 383.505,213.5 425.5,212.5C 424.717,210.712 423.384,209.712 421.5,209.5C 421.5,208.833 421.5,208.167 421.5,207.5C 422.878,206.766 424.378,206.099 426,205.5C 426.499,201.179 426.666,196.846 426.5,192.5 Z"/></g>
<g><path style="opacity:1" fill="#e8cbbe" d="M 298.5,205.5 C 298.634,207.292 298.301,208.958 297.5,210.5C 291.729,211.113 286.396,210.446 281.5,208.5C 281.992,206.181 282.992,204.181 284.5,202.5C 288.24,202.759 291.906,202.426 295.5,201.5C 296.192,202.025 296.692,202.692 297,203.5C 297.333,203.167 297.667,202.833 298,202.5C 298.483,203.448 298.649,204.448 298.5,205.5 Z"/></g>
<g><path style="opacity:1" fill="#9b7572" d="M 496.5,186.5 C 496.833,186.5 497.167,186.5 497.5,186.5C 497.5,188.167 497.5,189.833 497.5,191.5C 497.5,194.5 497.5,197.5 497.5,200.5C 497.5,202.167 497.5,203.833 497.5,205.5C 526.167,205.5 554.833,205.5 583.5,205.5C 554.671,206.498 525.671,206.831 496.5,206.5C 496.5,201.5 496.5,196.5 496.5,191.5C 496.5,189.833 496.5,188.167 496.5,186.5 Z"/></g>
<g><path style="opacity:1" fill="#9a7b75" d="M 415.5,207.5 C 417.5,207.5 419.5,207.5 421.5,207.5C 421.5,208.167 421.5,208.833 421.5,209.5C 419.735,210.461 417.735,210.795 415.5,210.5C 415.5,209.5 415.5,208.5 415.5,207.5 Z"/></g>
<g><path style="opacity:1" fill="#e6cbc0" d="M 318.5,192.5 C 318.833,192.5 319.167,192.5 319.5,192.5C 319.5,197.5 319.5,202.5 319.5,207.5C 321.5,207.5 323.5,207.5 325.5,207.5C 325.5,208.167 325.5,208.833 325.5,209.5C 316.89,210.752 308.557,210.752 300.5,209.5C 300.325,207.379 300.659,205.379 301.5,203.5C 307.075,202.548 312.741,202.214 318.5,202.5C 318.5,199.167 318.5,195.833 318.5,192.5 Z"/></g>
<g><path style="opacity:1" fill="#8d716c" d="M 325.5,207.5 C 327.5,207.5 329.5,207.5 331.5,207.5C 331.5,208.5 331.5,209.5 331.5,210.5C 329.379,210.675 327.379,210.341 325.5,209.5C 325.5,208.833 325.5,208.167 325.5,207.5 Z"/></g>
<g><path style="opacity:1" fill="#eacfc4" d="M 384.5,207.5 C 394.833,207.5 405.167,207.5 415.5,207.5C 415.5,208.5 415.5,209.5 415.5,210.5C 405.167,210.5 394.833,210.5 384.5,210.5C 384.5,209.5 384.5,208.5 384.5,207.5 Z"/></g>
<g><path style="opacity:1" fill="#e4c6b7" d="M 495.5,95.5 C 495.5,127.5 495.5,159.5 495.5,191.5C 495.5,205.167 495.5,218.833 495.5,232.5C 514.167,232.5 532.833,232.5 551.5,232.5C 551.599,240.478 551.266,248.478 550.5,256.5C 527.167,256.5 503.833,256.5 480.5,256.5C 479.376,245.533 479.376,234.533 480.5,223.5C 481.5,223.5 482.5,223.5 483.5,223.5C 483.5,220.833 483.5,218.167 483.5,215.5C 482.5,215.5 481.5,215.5 480.5,215.5C 480.016,211.173 480.682,207.173 482.5,203.5C 493,206.207 497,202.207 494.5,191.5C 494.168,159.329 494.502,127.329 495.5,95.5 Z"/></g>
<g><path style="opacity:1" fill="#dab6a6" d="M 331.5,207.5 C 332.5,207.5 333.5,207.5 334.5,207.5C 335.315,208.429 336.148,209.429 337,210.5C 337.464,209.906 337.631,209.239 337.5,208.5C 351.088,209.481 364.754,209.815 378.5,209.5C 379.919,210.451 381.585,210.784 383.5,210.5C 383.5,209.5 383.5,208.5 383.5,207.5C 383.833,207.5 384.167,207.5 384.5,207.5C 384.5,208.5 384.5,209.5 384.5,210.5C 394.833,210.5 405.167,210.5 415.5,210.5C 417.735,210.795 419.735,210.461 421.5,209.5C 423.384,209.712 424.717,210.712 425.5,212.5C 383.505,213.5 341.505,213.833 299.5,213.5C 299.232,211.901 299.566,210.568 300.5,209.5C 308.557,210.752 316.89,210.752 325.5,209.5C 327.379,210.341 329.379,210.675 331.5,210.5C 331.5,209.5 331.5,208.5 331.5,207.5 Z"/></g>
<g><path style="opacity:1" fill="#9b7c72" d="M 378.5,207.5 C 380.167,207.5 381.833,207.5 383.5,207.5C 383.5,208.5 383.5,209.5 383.5,210.5C 381.585,210.784 379.919,210.451 378.5,209.5C 378.5,208.833 378.5,208.167 378.5,207.5 Z"/></g>
<g><path style="opacity:1" fill="#e5cec8" d="M 337.5,208.5 C 337.5,208.167 337.5,207.833 337.5,207.5C 349.5,207.5 361.5,207.5 373.5,207.5C 375.167,207.5 376.833,207.5 378.5,207.5C 378.5,208.167 378.5,208.833 378.5,209.5C 364.754,209.815 351.088,209.481 337.5,208.5 Z"/></g>
<g><path style="opacity:1" fill="#d6b0a6" d="M 279.5,208.5 C 279.369,209.239 279.536,209.906 280,210.5C 280.278,209.584 280.778,208.918 281.5,208.5C 286.396,210.446 291.729,211.113 297.5,210.5C 297.5,211.5 297.5,212.5 297.5,213.5C 291.132,213.83 284.798,213.496 278.5,212.5C 277.579,210.969 277.912,209.635 279.5,208.5 Z"/></g>
<g><path style="opacity:1" fill="#ebb89f" d="M -0.5,191.5 C 19.5,191.5 39.5,191.5 59.5,191.5C 59.5,194.5 59.5,197.5 59.5,200.5C 58.2058,201.29 57.0391,202.29 56,203.5C 55.6667,202.833 55.3333,202.167 55,201.5C 53.0283,202.305 51.5283,203.639 50.5,205.5C 49.5005,222.487 49.1672,239.487 49.5,256.5C 32.8333,256.5 16.1667,256.5 -0.5,256.5C -0.5,234.833 -0.5,213.167 -0.5,191.5 Z"/></g>
<g><path style="opacity:1" fill="#b58a7f" d="M 242.5,181.5 C 243.338,181.842 243.672,182.508 243.5,183.5C 243.5,185.833 243.5,188.167 243.5,190.5C 249.167,190.5 254.833,190.5 260.5,190.5C 260.5,188.167 260.5,185.833 260.5,183.5C 261.167,185.833 261.833,188.167 262.5,190.5C 270.833,190.5 279.167,190.5 287.5,190.5C 287.167,191.167 286.833,191.833 286.5,192.5C 272.167,192.5 257.833,192.5 243.5,192.5C 243.5,195.5 243.5,198.5 243.5,201.5C 243.5,209.833 243.5,218.167 243.5,226.5C 242.167,226.5 240.833,226.5 239.5,226.5C 239.5,228.833 239.5,231.167 239.5,233.5C 239.5,235.167 239.5,236.833 239.5,238.5C 239.167,238.5 238.833,238.5 238.5,238.5C 238.5,234.5 238.5,230.5 238.5,226.5C 239.209,225.596 240.209,225.263 241.5,225.5C 242.496,212.01 242.829,198.344 242.5,184.5C 242.5,183.5 242.5,182.5 242.5,181.5 Z"/></g>
<g><path style="opacity:1" fill="#e4c0b4" d="M 243.5,183.5 C 249.167,183.5 254.833,183.5 260.5,183.5C 260.5,185.833 260.5,188.167 260.5,190.5C 254.833,190.5 249.167,190.5 243.5,190.5C 243.5,188.167 243.5,185.833 243.5,183.5 Z"/></g>
<g><path style="opacity:1" fill="#6e6674" d="M 130.5,199.5 C 129.539,202.426 128.873,205.426 128.5,208.5C 134.509,208.666 140.509,208.499 146.5,208C 145.688,204.773 144.688,201.607 143.5,198.5C 144.5,198.5 145.5,198.5 146.5,198.5C 150.04,209.786 153.373,221.119 156.5,232.5C 156.44,233.043 156.107,233.376 155.5,233.5C 154.824,232.398 154.158,231.398 153.5,230.5C 152.104,224.313 150.104,218.313 147.5,212.5C 140.532,211.503 133.532,211.17 126.5,211.5C 124.511,218.818 122.511,226.151 120.5,233.5C 119.5,233.5 118.5,233.5 117.5,233.5C 121.048,222.193 124.382,210.859 127.5,199.5C 128.652,198.375 129.652,198.375 130.5,199.5 Z"/></g>
<g><path style="opacity:1" fill="#e6cec3" d="M 153.5,230.5 C 153.5,231.5 153.5,232.5 153.5,233.5C 142.5,233.5 131.5,233.5 120.5,233.5C 122.511,226.151 124.511,218.818 126.5,211.5C 133.532,211.17 140.532,211.503 147.5,212.5C 150.104,218.313 152.104,224.313 153.5,230.5 Z"/></g>
<g><path style="opacity:1" fill="#e3cac5" d="M 143.5,198.5 C 144.688,201.607 145.688,204.773 146.5,208C 140.509,208.499 134.509,208.666 128.5,208.5C 128.873,205.426 129.539,202.426 130.5,199.5C 134.735,198.564 139.069,198.231 143.5,198.5 Z"/></g>
<g><path style="opacity:1" fill="#e6c9bd" d="M 113.5,195.5 C 118.006,197.637 122.673,198.97 127.5,199.5C 124.382,210.859 121.048,222.193 117.5,233.5C 111.438,232.458 105.438,232.458 99.5,233.5C 99.5,231.167 99.5,228.833 99.5,226.5C 100.833,226.5 102.167,226.5 103.5,226.5C 103.5,218.167 103.5,209.833 103.5,201.5C 108.844,201.666 114.177,201.499 119.5,201C 116.74,199.821 114.74,197.988 113.5,195.5 Z"/></g>
<g><path style="opacity:1" fill="#a27770" d="M 208.5,181.5 C 212.5,181.5 216.5,181.5 220.5,181.5C 221.5,181.5 222.5,181.5 223.5,181.5C 223.833,181.5 224.167,181.5 224.5,181.5C 230.5,181.5 236.5,181.5 242.5,181.5C 242.5,182.5 242.5,183.5 242.5,184.5C 237.595,183.555 232.595,183.221 227.5,183.5C 227.5,184.833 227.5,186.167 227.5,187.5C 226.167,187.5 224.833,187.5 223.5,187.5C 223.5,186.167 223.5,184.833 223.5,183.5C 222.448,183.351 221.448,183.517 220.5,184C 219.118,188.705 218.451,188.539 218.5,183.5C 212.421,183.409 206.588,183.076 201,182.5C 200.333,196.167 200.333,209.833 201,223.5C 214.257,224.598 227.591,224.598 241,223.5C 241.464,224.094 241.631,224.761 241.5,225.5C 240.209,225.263 239.209,225.596 238.5,226.5C 237.5,226.5 236.5,226.5 235.5,226.5C 235.5,230.5 235.5,234.5 235.5,238.5C 235.167,238.5 234.833,238.5 234.5,238.5C 234.5,236.833 234.5,235.167 234.5,233.5C 234.5,231.167 234.5,228.833 234.5,226.5C 225.833,226.5 217.167,226.5 208.5,226.5C 207.5,226.5 206.5,226.5 205.5,226.5C 205.5,230.167 205.5,233.833 205.5,237.5C 206.5,237.5 207.5,237.5 208.5,237.5C 208.5,237.833 208.5,238.167 208.5,238.5C 207.167,238.5 205.833,238.5 204.5,238.5C 204.5,236.833 204.5,235.167 204.5,233.5C 204.5,231.167 204.5,228.833 204.5,226.5C 202.833,226.5 201.167,226.5 199.5,226.5C 199.5,218.167 199.5,209.833 199.5,201.5C 199.5,198.5 199.5,195.5 199.5,192.5C 187.5,192.5 175.5,192.5 163.5,192.5C 163.5,191.833 163.5,191.167 163.5,190.5C 171.5,190.5 179.5,190.5 187.5,190.5C 187.5,188.167 187.5,185.833 187.5,183.5C 187.833,183.5 188.167,183.5 188.5,183.5C 188.5,185.833 188.5,188.167 188.5,190.5C 192.167,190.5 195.833,190.5 199.5,190.5C 199.5,188.167 199.5,185.833 199.5,183.5C 201.988,181.612 204.988,180.945 208.5,181.5 Z"/></g>
<g><path style="opacity:1" fill="#dbaa9b" d="M 188.5,183.5 C 192.167,183.5 195.833,183.5 199.5,183.5C 199.5,185.833 199.5,188.167 199.5,190.5C 195.833,190.5 192.167,190.5 188.5,190.5C 188.5,188.167 188.5,185.833 188.5,183.5 Z"/></g>
<g><path style="opacity:1" fill="#eaccc4" d="M 208.5,226.5 C 217.167,226.5 225.833,226.5 234.5,226.5C 234.5,228.833 234.5,231.167 234.5,233.5C 225.833,233.5 217.167,233.5 208.5,233.5C 208.5,231.167 208.5,228.833 208.5,226.5 Z"/></g>
<g><path style="opacity:1" fill="#5f3f34" d="M 238.5,226.5 C 238.5,230.5 238.5,234.5 238.5,238.5C 237.5,238.5 236.5,238.5 235.5,238.5C 235.5,234.5 235.5,230.5 235.5,226.5C 236.5,226.5 237.5,226.5 238.5,226.5 Z"/></g>
<g><path style="opacity:1" fill="#663f38" d="M 585.5,164.5 C 585.5,187.167 585.5,209.833 585.5,232.5C 574.167,232.5 562.833,232.5 551.5,232.5C 532.833,232.5 514.167,232.5 495.5,232.5C 495.5,218.833 495.5,205.167 495.5,191.5C 495.833,191.5 496.167,191.5 496.5,191.5C 496.5,196.5 496.5,201.5 496.5,206.5C 496.5,206.833 496.5,207.167 496.5,207.5C 496.175,215.352 496.508,223.018 497.5,230.5C 526.167,230.5 554.833,230.5 583.5,230.5C 584.167,208.5 584.833,186.5 585.5,164.5 Z"/></g>
<g><path style="opacity:1" fill="#a27070" d="M 582.5,219.5 C 583.482,222.962 583.815,226.629 583.5,230.5C 554.833,230.5 526.167,230.5 497.5,230.5C 497.5,226.833 497.5,223.167 497.5,219.5C 525.833,219.5 554.167,219.5 582.5,219.5 Z"/></g>
<g><path style="opacity:1" fill="#865554" d="M 496.5,207.5 C 496.833,207.5 497.167,207.5 497.5,207.5C 497.5,211.167 497.5,214.833 497.5,218.5C 525.833,218.5 554.167,218.5 582.5,218.5C 582.5,218.833 582.5,219.167 582.5,219.5C 554.167,219.5 525.833,219.5 497.5,219.5C 497.5,223.167 497.5,226.833 497.5,230.5C 496.508,223.018 496.175,215.352 496.5,207.5 Z"/></g>
<g><path style="opacity:1" fill="#a36f70" d="M 497.5,207.5 C 526.167,207.5 554.833,207.5 583.5,207.5C 583.815,211.371 583.482,215.038 582.5,218.5C 554.167,218.5 525.833,218.5 497.5,218.5C 497.5,214.833 497.5,211.167 497.5,207.5 Z"/></g>
<g><path style="opacity:1" fill="#b28e8a" d="M 497.5,200.5 C 500.5,200.5 503.5,200.5 506.5,200.5C 524.996,201.332 543.662,201.832 562.5,202C 562.957,202.414 563.291,202.914 563.5,203.5C 568.318,204.812 572.985,204.812 577.5,203.5C 578.5,203.5 579.5,203.5 580.5,203.5C 581.5,203.5 582.5,203.5 583.5,203.5C 583.5,204.167 583.5,204.833 583.5,205.5C 554.833,205.5 526.167,205.5 497.5,205.5C 497.5,203.833 497.5,202.167 497.5,200.5 Z"/></g>
<g><path style="opacity:1" fill="#ebbba5" d="M 497.5,191.5 C 519.5,191.5 541.5,191.5 563.5,191.5C 563.5,194.5 563.5,197.5 563.5,200.5C 544.5,200.5 525.5,200.5 506.5,200.5C 503.5,200.5 500.5,200.5 497.5,200.5C 497.5,197.5 497.5,194.5 497.5,191.5 Z"/></g>
<g><path style="opacity:1" fill="#ecb8a6" d="M 580.5,191.5 C 581.5,191.5 582.5,191.5 583.5,191.5C 583.5,194.5 583.5,197.5 583.5,200.5C 582.131,197.702 581.131,194.702 580.5,191.5 Z"/></g>
<g><path style="opacity:1" fill="#e8c8ba" d="M 68.5,226.5 C 77.1667,226.5 85.8333,226.5 94.5,226.5C 94.5,228.833 94.5,231.167 94.5,233.5C 85.8333,233.5 77.1667,233.5 68.5,233.5C 68.5,231.167 68.5,228.833 68.5,226.5 Z"/></g>
<g><path style="opacity:1" fill="#604136" d="M 208.5,226.5 C 208.5,228.833 208.5,231.167 208.5,233.5C 208.5,234.833 208.5,236.167 208.5,237.5C 207.5,237.5 206.5,237.5 205.5,237.5C 205.5,233.833 205.5,230.167 205.5,226.5C 206.5,226.5 207.5,226.5 208.5,226.5 Z"/></g>
<g><path style="opacity:1" fill="#644036" d="M 68.5,226.5 C 68.5,228.833 68.5,231.167 68.5,233.5C 68.5,234.833 68.5,236.167 68.5,237.5C 67.5,237.5 66.5,237.5 65.5,237.5C 65.5,233.833 65.5,230.167 65.5,226.5C 66.5,226.5 67.5,226.5 68.5,226.5 Z"/></g>
<g><path style="opacity:1" fill="#dab7a5" d="M 153.5,230.5 C 154.158,231.398 154.824,232.398 155.5,233.5C 156.107,233.376 156.44,233.043 156.5,232.5C 172.422,233.484 188.422,233.817 204.5,233.5C 204.5,235.167 204.5,236.833 204.5,238.5C 173.833,238.5 143.167,238.5 112.5,238.5C 108.167,238.5 103.833,238.5 99.5,238.5C 99.5,236.833 99.5,235.167 99.5,233.5C 105.438,232.458 111.438,232.458 117.5,233.5C 118.5,233.5 119.5,233.5 120.5,233.5C 131.5,233.5 142.5,233.5 153.5,233.5C 153.5,232.5 153.5,231.5 153.5,230.5 Z"/></g>
<g><path style="opacity:1" fill="#d2a896" d="M 94.5,226.5 C 94.8333,226.5 95.1667,226.5 95.5,226.5C 95.5,230.5 95.5,234.5 95.5,238.5C 86.5,238.5 77.5,238.5 68.5,238.5C 68.5,238.167 68.5,237.833 68.5,237.5C 68.5,236.167 68.5,234.833 68.5,233.5C 77.1667,233.5 85.8333,233.5 94.5,233.5C 94.5,231.167 94.5,228.833 94.5,226.5 Z"/></g>
<g><path style="opacity:1" fill="#d8b5a3" d="M 208.5,233.5 C 217.167,233.5 225.833,233.5 234.5,233.5C 234.5,235.167 234.5,236.833 234.5,238.5C 225.833,238.5 217.167,238.5 208.5,238.5C 208.5,238.167 208.5,237.833 208.5,237.5C 208.5,236.167 208.5,234.833 208.5,233.5 Z"/></g>
<g><path style="opacity:1" fill="#d8b7a4" d="M 239.5,233.5 C 244.167,233.5 248.833,233.5 253.5,233.5C 253.421,234.93 253.754,236.264 254.5,237.5C 249.544,238.494 244.544,238.827 239.5,238.5C 239.5,236.833 239.5,235.167 239.5,233.5 Z"/></g>
<g><path style="opacity:1" fill="#643f38" d="M 95.5,226.5 C 96.5,226.5 97.5,226.5 98.5,226.5C 98.5,230.5 98.5,234.5 98.5,238.5C 97.5,238.5 96.5,238.5 95.5,238.5C 95.5,234.5 95.5,230.5 95.5,226.5 Z"/></g>
<g><path style="opacity:1" fill="#d4ad9c" d="M 64.5,233.5 C 64.5,235.167 64.5,236.833 64.5,238.5C 60.1667,238.5 55.8333,238.5 51.5,238.5C 51.5,236.833 51.5,235.167 51.5,233.5C 55.8333,233.5 60.1667,233.5 64.5,233.5 Z"/></g>
<g><path style="opacity:1" fill="#e6c7b8" d="M 59.5,200.5 C 59.5,209.167 59.5,217.833 59.5,226.5C 61.1667,226.5 62.8333,226.5 64.5,226.5C 64.5,228.833 64.5,231.167 64.5,233.5C 60.1667,233.5 55.8333,233.5 51.5,233.5C 51.5,235.167 51.5,236.833 51.5,238.5C 55.8333,238.5 60.1667,238.5 64.5,238.5C 65.8333,238.5 67.1667,238.5 68.5,238.5C 77.5,238.5 86.5,238.5 95.5,238.5C 96.5,238.5 97.5,238.5 98.5,238.5C 98.8333,238.5 99.1667,238.5 99.5,238.5C 103.833,238.5 108.167,238.5 112.5,238.5C 112.39,244.289 112.39,250.289 112.5,256.5C 91.5,256.5 70.5,256.5 49.5,256.5C 49.1672,239.487 49.5005,222.487 50.5,205.5C 51.5283,203.639 53.0283,202.305 55,201.5C 55.3333,202.167 55.6667,202.833 56,203.5C 57.0391,202.29 58.2058,201.29 59.5,200.5 Z"/></g>
<g><path style="opacity:1" fill="#e6b69d" d="M 585.5,95.5 C 586.498,127.329 586.832,159.329 586.5,191.5C 590.833,191.5 595.167,191.5 599.5,191.5C 599.5,213.167 599.5,234.833 599.5,256.5C 583.167,256.5 566.833,256.5 550.5,256.5C 551.266,248.478 551.599,240.478 551.5,232.5C 562.833,232.5 574.167,232.5 585.5,232.5C 585.5,209.833 585.5,187.167 585.5,164.5C 585.5,164.167 585.5,163.833 585.5,163.5C 585.5,140.833 585.5,118.167 585.5,95.5 Z"/></g>
</svg>
