<svg xmlns="http://www.w3.org/2000/svg" xmlns:xlink="http://www.w3.org/1999/xlink" version="1.1" style="shape-rendering:geometricPrecision; text-rendering:geometricPrecision; image-rendering:optimizeQuality; fill-rule:evenodd; clip-rule:evenodd" viewBox="114.5 200.5 1166 341">
<g><path style="opacity:0.989" fill="#b1ab7a" d="M 391.5,268.5 C 374.419,284.079 357.752,300.246 341.5,317C 337.606,320.404 333.606,323.571 329.5,326.5C 315.017,312.662 297.684,304.995 277.5,303.5C 277.174,269.123 277.507,234.79 278.5,200.5C 328.183,200.831 370.517,218.498 405.5,253.5C 400.812,258.52 396.145,263.52 391.5,268.5 Z"/></g>
<g><path style="opacity:0.984" fill="#c4c6c6" d="M 256.5,227.5 C 260.167,227.5 263.833,227.5 267.5,227.5C 267.5,253.167 267.5,278.833 267.5,304.5C 237.3,308.532 216.133,324.532 204,352.5C 201.388,359.278 199.888,366.278 199.5,373.5C 173.5,373.5 147.5,373.5 121.5,373.5C 123.893,313.838 151.226,270.005 203.5,242C 220.482,234.174 238.149,229.341 256.5,227.5 Z"/></g>
<g><path style="opacity:0.925" fill="#535453" d="M 597.5,244.5 C 599.446,246.353 600.946,248.686 602,251.5C 621.891,298.949 642.058,346.282 662.5,393.5C 656.537,394.496 650.537,394.829 644.5,394.5C 629.497,357 613.997,319.667 598,282.5C 582.609,319.615 566.942,356.615 551,393.5C 545.221,394.807 539.388,394.807 533.5,393.5C 554.84,343.804 576.174,294.138 597.5,244.5 Z"/></g>
<g><path style="opacity:0.925" fill="#535453" d="M 887.5,244.5 C 889.446,246.353 890.946,248.686 892,251.5C 911.891,298.949 932.058,346.282 952.5,393.5C 946.537,394.496 940.537,394.829 934.5,394.5C 919.497,357 903.997,319.667 888,282.5C 872.609,319.615 856.942,356.615 841,393.5C 835.221,394.807 829.388,394.807 823.5,393.5C 844.84,343.804 866.174,294.138 887.5,244.5 Z"/></g>
<g><path style="opacity:0.919" fill="#535453" d="M 1205.5,248.5 C 1228.21,246.905 1248.05,253.571 1265,268.5C 1263.32,273.222 1260.32,277.222 1256,280.5C 1234.58,260.817 1210.74,257.317 1184.5,270C 1157.84,288.982 1149.34,314.149 1159,345.5C 1172.42,374.298 1194.92,386.464 1226.5,382C 1237.78,379.196 1247.78,374.029 1256.5,366.5C 1259.69,369.853 1262.69,373.353 1265.5,377C 1240.7,398.02 1213.04,402.686 1182.5,391C 1147.98,372.799 1134.15,344.299 1141,305.5C 1150.81,273.183 1172.31,254.183 1205.5,248.5 Z"/></g>
<g><path style="opacity:0.948" fill="#535453" d="M 706.5,250.5 C 711.833,250.5 717.167,250.5 722.5,250.5C 722.5,294.167 722.5,337.833 722.5,381.5C 743.833,381.5 765.167,381.5 786.5,381.5C 786.5,385.833 786.5,390.167 786.5,394.5C 759.833,394.5 733.167,394.5 706.5,394.5C 706.5,346.5 706.5,298.5 706.5,250.5 Z"/></g>
<g><path style="opacity:0.928" fill="#535453" d="M 996.5,250.5 C 1018.87,250.078 1041.2,250.578 1063.5,252C 1081,256.167 1091.83,267 1096,284.5C 1099.48,304.397 1093.65,320.897 1078.5,334C 1073.74,336.587 1068.74,338.587 1063.5,340C 1075.42,357.83 1087.08,375.83 1098.5,394C 1092.17,394.667 1085.83,394.667 1079.5,394C 1067.94,376.768 1056.77,359.268 1046,341.5C 1045.5,336.511 1045.33,331.511 1045.5,326.5C 1068.11,328.56 1079.77,318.227 1080.5,295.5C 1080.87,278.706 1072.87,268.539 1056.5,265C 1041.84,264.5 1027.17,264.333 1012.5,264.5C 1012.5,307.833 1012.5,351.167 1012.5,394.5C 1007.17,394.5 1001.83,394.5 996.5,394.5C 996.5,346.5 996.5,298.5 996.5,250.5 Z"/></g>
<g><path style="opacity:0.986" fill="#5e4b5b" d="M 391.5,268.5 C 437.289,321.232 447.456,380.232 422,445.5C 392.262,504.807 344.096,536.14 277.5,539.5C 277.5,511.167 277.5,482.833 277.5,454.5C 317.17,449.664 341.003,427.664 349,388.5C 351.416,364.919 344.916,344.253 329.5,326.5C 333.606,323.571 337.606,320.404 341.5,317C 357.752,300.246 374.419,284.079 391.5,268.5 Z"/></g>
<g><path style="opacity:0.982" fill="#9ebf63" d="M 117.5,382.5 C 144.833,382.5 172.167,382.5 199.5,382.5C 201.286,413.25 215.953,435.417 243.5,449C 253.402,453.226 263.736,455.392 274.5,455.5C 275.381,484.156 275.714,512.823 275.5,541.5C 220.734,540.867 176.901,518.867 144,475.5C 124.655,447.963 114.822,417.296 114.5,383.5C 115.791,383.737 116.791,383.404 117.5,382.5 Z"/></g>
<g><path style="opacity:0.859" fill="#7ab266" d="M 532.5,472.5 C 535.898,472.18 539.232,472.513 542.5,473.5C 546.333,479.167 550.167,484.833 554,490.5C 558.289,484.755 562.456,478.921 566.5,473C 569.882,472.176 573.216,472.343 576.5,473.5C 570.863,482.303 565.029,490.97 559,499.5C 558.5,507.493 558.334,515.493 558.5,523.5C 555.833,523.5 553.167,523.5 550.5,523.5C 550.666,515.826 550.5,508.159 550,500.5C 543.895,491.279 538.061,481.945 532.5,472.5 Z"/></g>
<g><path style="opacity:0.87" fill="#7ab266" d="M 610.5,472.5 C 632.455,471.955 642.622,482.622 641,504.5C 636.339,519.478 626.173,525.978 610.5,524C 595.427,518.364 589.26,507.53 592,491.5C 595.044,481.958 601.21,475.625 610.5,472.5 Z M 611.5,480.5 C 629.738,480.966 636.238,489.966 631,507.5C 625.134,516.564 617.3,518.731 607.5,514C 595.874,501.223 597.207,490.056 611.5,480.5 Z"/></g>
<g><path style="opacity:0.856" fill="#7ab266" d="M 659.5,472.5 C 662.5,472.5 665.5,472.5 668.5,472.5C 668.333,484.838 668.5,497.171 669,509.5C 674.922,518.434 681.256,518.767 688,510.5C 689.42,497.894 689.92,485.228 689.5,472.5C 692.167,472.5 694.833,472.5 697.5,472.5C 697.946,486.24 697.446,499.907 696,513.5C 689.546,524.71 680.379,527.544 668.5,522C 665.238,519.408 662.738,516.241 661,512.5C 659.597,499.218 659.097,485.885 659.5,472.5 Z"/></g>
<g><path style="opacity:0.884" fill="#7ab266" d="M 717.5,472.5 C 726.568,472.119 735.568,472.619 744.5,474C 756.602,483.649 756.269,492.983 743.5,502C 748.833,509 754.167,516 759.5,523C 755.833,523.667 752.167,523.667 748.5,523C 744.027,516.361 739.361,509.861 734.5,503.5C 731.572,502.516 728.572,502.183 725.5,502.5C 725.5,509.5 725.5,516.5 725.5,523.5C 722.833,523.5 720.167,523.5 717.5,523.5C 717.5,506.5 717.5,489.5 717.5,472.5 Z M 725.5,480.5 C 730.511,480.334 735.511,480.501 740.5,481C 744.696,483.981 745.529,487.814 743,492.5C 742.25,493.126 741.416,493.626 740.5,494C 735.511,494.499 730.511,494.666 725.5,494.5C 725.5,489.833 725.5,485.167 725.5,480.5 Z"/></g>
<g><path style="opacity:0.852" fill="#7ab266" d="M 825.5,472.5 C 834.433,471.036 842.099,473.369 848.5,479.5C 847.299,481.909 845.633,483.909 843.5,485.5C 829.727,476.465 820.227,479.798 815,495.5C 814.729,510.231 821.896,517.064 836.5,516C 839.902,514.6 842.736,512.433 845,509.5C 846.667,511.167 848.333,512.833 850,514.5C 850.163,516.387 849.329,517.887 847.5,519C 834.724,527.227 822.891,526.061 812,515.5C 803.516,501.465 805.016,488.632 816.5,477C 819.592,475.454 822.592,473.954 825.5,472.5 Z"/></g>
<g><path style="opacity:0.865" fill="#7ab266" d="M 885.5,472.5 C 909.587,471.998 919.754,483.665 916,507.5C 908.736,523.209 896.902,528.042 880.5,522C 866.613,511.864 863.447,499.031 871,483.5C 874.951,478.466 879.784,474.799 885.5,472.5 Z M 887.5,480.5 C 903.758,480.267 910.591,488.267 908,504.5C 902.894,515.639 894.727,518.805 883.5,514C 871.792,501.198 873.126,490.032 887.5,480.5 Z"/></g>
<g><path style="opacity:0.867" fill="#7ab266" d="M 935.5,472.5 C 938.572,472.183 941.572,472.516 944.5,473.5C 950,481.167 955.5,488.833 961,496.5C 966.833,488.667 972.667,480.833 978.5,473C 981.146,472.503 983.813,472.336 986.5,472.5C 986.5,489.5 986.5,506.5 986.5,523.5C 983.833,523.5 981.167,523.5 978.5,523.5C 978.667,511.495 978.5,499.495 978,487.5C 973.64,493.026 969.474,498.693 965.5,504.5C 962.059,506.006 958.892,505.673 956,503.5C 952.333,498.167 948.667,492.833 945,487.5C 944.5,499.495 944.333,511.495 944.5,523.5C 941.5,523.5 938.5,523.5 935.5,523.5C 935.5,506.5 935.5,489.5 935.5,472.5 Z"/></g>
<g><path style="opacity:0.867" fill="#7ab266" d="M 1006.5,472.5 C 1009.57,472.183 1012.57,472.516 1015.5,473.5C 1021,481.167 1026.5,488.833 1032,496.5C 1037.83,488.667 1043.67,480.833 1049.5,473C 1052.15,472.503 1054.81,472.336 1057.5,472.5C 1057.5,489.5 1057.5,506.5 1057.5,523.5C 1054.83,523.5 1052.17,523.5 1049.5,523.5C 1049.67,511.495 1049.5,499.495 1049,487.5C 1044.64,493.026 1040.47,498.693 1036.5,504.5C 1033.06,506.006 1029.89,505.673 1027,503.5C 1023.33,498.167 1019.67,492.833 1016,487.5C 1015.5,499.495 1015.33,511.495 1015.5,523.5C 1012.5,523.5 1009.5,523.5 1006.5,523.5C 1006.5,506.5 1006.5,489.5 1006.5,472.5 Z"/></g>
<g><path style="opacity:0.885" fill="#7ab266" d="M 1077.5,472.5 C 1088.17,472.5 1098.83,472.5 1109.5,472.5C 1109.5,475.167 1109.5,477.833 1109.5,480.5C 1101.5,480.5 1093.5,480.5 1085.5,480.5C 1085.5,484.833 1085.5,489.167 1085.5,493.5C 1092.5,493.5 1099.5,493.5 1106.5,493.5C 1106.5,496.167 1106.5,498.833 1106.5,501.5C 1099.5,501.5 1092.5,501.5 1085.5,501.5C 1085.5,506.5 1085.5,511.5 1085.5,516.5C 1093.5,516.5 1101.5,516.5 1109.5,516.5C 1109.5,518.833 1109.5,521.167 1109.5,523.5C 1098.83,523.5 1088.17,523.5 1077.5,523.5C 1077.5,506.5 1077.5,489.5 1077.5,472.5 Z"/></g>
<g><path style="opacity:0.888" fill="#7ab266" d="M 1129.5,472.5 C 1138.24,472.124 1146.9,472.624 1155.5,474C 1164.83,479.282 1167,486.782 1162,496.5C 1160.13,498.709 1157.96,500.542 1155.5,502C 1160.45,509.284 1165.78,516.284 1171.5,523C 1167.83,523.667 1164.17,523.667 1160.5,523C 1155.74,516.154 1150.74,509.488 1145.5,503C 1142.85,502.503 1140.19,502.336 1137.5,502.5C 1137.5,509.5 1137.5,516.5 1137.5,523.5C 1134.83,523.5 1132.17,523.5 1129.5,523.5C 1129.5,506.5 1129.5,489.5 1129.5,472.5 Z M 1137.5,480.5 C 1142.51,480.334 1147.51,480.501 1152.5,481C 1158.08,485.845 1157.75,490.178 1151.5,494C 1146.85,494.499 1142.18,494.666 1137.5,494.5C 1137.5,489.833 1137.5,485.167 1137.5,480.5 Z"/></g>
<g><path style="opacity:0.852" fill="#7ab266" d="M 1205.5,472.5 C 1211.7,472.016 1217.7,472.849 1223.5,475C 1229.75,477.915 1230.08,481.415 1224.5,485.5C 1220.62,482.758 1216.45,480.758 1212,479.5C 1197.94,483.278 1192.94,492.278 1197,506.5C 1200.95,514.82 1207.45,517.987 1216.5,516C 1219.92,514.411 1222.92,512.245 1225.5,509.5C 1227.65,511.149 1229.65,512.982 1231.5,515C 1222.93,524.806 1212.6,527.139 1200.5,522C 1186.61,511.864 1183.45,499.031 1191,483.5C 1194.91,478.404 1199.74,474.738 1205.5,472.5 Z"/></g>
<g><path style="opacity:0.9" fill="#7ab266" d="M 1249.5,472.5 C 1259.83,472.5 1270.17,472.5 1280.5,472.5C 1280.5,475.167 1280.5,477.833 1280.5,480.5C 1272.83,480.5 1265.17,480.5 1257.5,480.5C 1257.5,484.833 1257.5,489.167 1257.5,493.5C 1264.5,493.5 1271.5,493.5 1278.5,493.5C 1278.5,496.167 1278.5,498.833 1278.5,501.5C 1271.5,501.5 1264.5,501.5 1257.5,501.5C 1257.5,506.5 1257.5,511.5 1257.5,516.5C 1265.17,516.5 1272.83,516.5 1280.5,516.5C 1280.5,518.833 1280.5,521.167 1280.5,523.5C 1270.17,523.5 1259.83,523.5 1249.5,523.5C 1249.5,506.5 1249.5,489.5 1249.5,472.5 Z"/></g>
</svg>