<svg width="229" height="68" viewBox="0 0 229 68" fill="none" xmlns="http://www.w3.org/2000/svg">
<path d="M41.662 26.7328C42.7197 28.2222 43.4139 29.3554 43.7448 30.1324C47.6474 39.2204 42.4341 49.0531 32.423 50.3069C31.7698 50.3883 31.4601 50.7543 31.494 51.405C31.6383 54.1651 31.6566 56.8578 31.5492 59.4833C31.494 60.8549 31.8461 62.7819 31.4771 64.5195C31.2932 65.3835 31.6312 65.8238 32.4909 65.8407C33.9388 65.8743 35.4603 65.7116 37.0552 65.3526C45.5731 63.4396 52.0534 59.005 56.4962 52.0488C58.0176 49.6702 59.1601 47.1121 59.9237 44.3745C62.3388 35.6988 60.9757 27.4424 55.8344 19.6054C55.1981 18.6377 54.1221 17.4036 52.6063 15.9029" stroke="#333A3F" stroke-width="2"/>
<path d="M52.6063 15.9029L54.9818 13.551C55.0433 13.4901 55.092 13.4177 55.1249 13.3379C55.1579 13.2581 55.1744 13.1726 55.1736 13.0864C55.1728 13.0002 55.1547 12.915 55.1203 12.8359C55.0859 12.7567 55.0359 12.6851 54.9733 12.6254C48.5142 6.47695 40.8264 3.27651 31.9098 3.02406C31.7514 3.01845 31.6708 3.09419 31.668 3.25126L31.4983 21.726C31.497 21.8445 31.5415 21.9591 31.6228 22.0459C31.7041 22.1328 31.8159 22.1855 31.9352 22.193C34.7434 22.3838 37.29 23.3557 39.575 25.1088C40.2763 25.6501 40.972 26.1915 41.662 26.7328" stroke="#3A6A43" stroke-width="2"/>
<path d="M52.6063 15.9029L41.662 26.7328" stroke="#5B8559" stroke-width="2"/>
<path d="M29.0634 8.30438C27.6353 8.27353 26.1987 8.39975 24.7536 8.68305C19.0099 9.80783 14.1161 12.4234 10.0721 16.5299C5.35224 21.3235 2.82827 27.3092 2.50023 34.4871C2.4776 34.9499 2.6996 35.1799 3.16621 35.1771L16.486 35.135C16.5645 35.1347 16.6402 35.1063 16.6988 35.0551C16.7574 35.004 16.7948 34.9337 16.8041 34.8573C17.6398 28.4621 22.429 23.3206 28.9828 22.4329C29.4409 22.3711 29.6686 22.1131 29.6657 21.6587L29.6361 8.885C29.635 8.73279 29.5746 8.58699 29.4677 8.47858C29.3607 8.37016 29.2157 8.30767 29.0634 8.30438Z" stroke="#253F2E" stroke-width="2"/>
<path d="M213.173 34.79C206.509 30.7467 207.107 20.2955 214.229 17.1567C217.754 15.6042 220.673 16.7023 223.625 19.1342C223.778 19.2632 223.915 19.2478 224.037 19.0879L225.797 16.7907C225.869 16.6966 225.901 16.5782 225.886 16.4608C225.871 16.3435 225.81 16.2368 225.717 16.1638C223.167 14.1484 220.117 12.8357 216.791 13.0419C209.559 13.4837 204.303 19.9 204.681 26.9642C205.16 35.8502 214.293 42.3675 222.743 38.2821C224.284 37.536 225.698 36.487 226.985 35.135C227.149 34.9611 227.145 34.7914 226.972 34.6259L224.728 32.4843C224.584 32.3469 224.451 32.3567 224.329 32.5138C221.64 35.9807 216.999 37.1125 213.173 34.79Z" stroke="#898F94" stroke-width="2"/>
<path d="M93.0661 17.893C93.2075 18.0585 93.3503 18.3068 93.4946 18.6378C96.4554 25.4425 99.4305 32.2557 102.42 39.0773C102.442 39.125 102.479 39.1503 102.53 39.1531C103.67 39.2204 104.815 39.2134 105.966 39.132C105.973 39.1313 105.98 39.1288 105.986 39.125C105.992 39.1211 105.997 39.116 106.001 39.1099C106.004 39.1037 106.007 39.0969 106.007 39.0898C106.008 39.0827 106.007 39.0755 106.004 39.0689L95.2974 13.5762C95.2662 13.5013 95.2133 13.4373 95.1453 13.3923C95.0773 13.3474 94.9973 13.3235 94.9156 13.3238L91.1063 13.328C91.0673 13.3292 91.0293 13.3418 90.997 13.3642C90.9647 13.3866 90.9393 13.4178 90.9239 13.4542L80.2766 38.7954C80.1748 39.0339 80.2554 39.1559 80.5184 39.1615L82.9702 39.2162C83.2474 39.2218 83.4411 39.0984 83.5514 38.8459L92.714 17.9477C92.8017 17.743 92.9191 17.7247 93.0661 17.893Z" stroke="#898F94" stroke-width="2"/>
<path d="M131.388 35.9092C131.388 35.8534 131.366 35.7998 131.326 35.7604C131.286 35.7209 131.232 35.6988 131.176 35.6988L119.523 35.7282C119.467 35.7282 119.413 35.7061 119.373 35.6666C119.333 35.6272 119.311 35.5737 119.311 35.5179V13.5215C119.311 13.4657 119.289 13.4122 119.249 13.3728C119.209 13.3333 119.155 13.3112 119.099 13.3112L115.655 13.349C115.599 13.3501 115.546 13.3728 115.507 13.4121C115.468 13.4514 115.447 13.5043 115.447 13.5594L115.442 38.989C115.442 39.0448 115.465 39.0983 115.505 39.1377C115.544 39.1772 115.598 39.1993 115.655 39.1993H131.18C131.236 39.1993 131.29 39.1772 131.33 39.1377C131.37 39.0983 131.392 39.0448 131.392 38.989L131.388 35.9092Z" stroke="#898F94" stroke-width="2"/>
<path d="M152.25 18.3643C152.377 18.412 152.468 18.4975 152.521 18.6209C155.253 24.918 158.203 31.7424 161.37 39.0942C161.387 39.1391 161.42 39.1629 161.468 39.1657C162.633 39.2386 163.807 39.2232 164.989 39.1194C164.995 39.1193 165 39.1177 165.006 39.1147C165.011 39.1117 165.015 39.1073 165.019 39.102C165.022 39.0967 165.024 39.0906 165.025 39.0841C165.025 39.0776 165.025 39.071 165.023 39.0647L154.32 13.5804C154.249 13.4122 154.122 13.328 153.938 13.328H150.294C150.085 13.328 149.941 13.4248 149.862 13.6183L139.168 39.0984C139.145 39.1517 139.162 39.1769 139.219 39.1741L143.015 39.1699C143.094 39.1699 143.15 39.1334 143.181 39.0605L151.974 18.4821C152.028 18.3559 152.12 18.3166 152.25 18.3643Z" stroke="#898F94" stroke-width="2"/>
<path d="M187.496 28.3821C187.233 28.0455 187.303 27.8001 187.704 27.6458C190.767 26.4677 192.663 23.6151 192.485 20.3586C192.324 17.3755 190.254 14.6365 187.386 13.7403C186.362 13.4206 185.108 13.2719 183.624 13.2944C180.654 13.3448 177.702 13.3505 174.766 13.3112C174.722 13.3106 174.679 13.3187 174.638 13.3349C174.598 13.3512 174.561 13.3753 174.53 13.4058C174.498 13.4363 174.474 13.4727 174.457 13.5128C174.44 13.5529 174.431 13.5959 174.431 13.6394L174.418 38.9133C174.418 39.0956 174.51 39.1868 174.694 39.1868L178.02 39.1783C178.184 39.1755 178.266 39.0788 178.266 38.888V16.8917C178.266 16.8532 178.274 16.8151 178.289 16.7798C178.305 16.7444 178.328 16.7126 178.356 16.6862C178.385 16.6598 178.419 16.6394 178.456 16.6262C178.493 16.6131 178.532 16.6075 178.571 16.6098C180.356 16.7248 182.142 16.743 183.929 16.6645C185.969 16.5719 187.844 17.182 188.493 19.2478C189.096 21.158 188.654 22.7232 187.17 23.9433C186.211 24.7343 184.832 24.7427 183.636 24.6754C183.61 24.6743 183.584 24.6784 183.559 24.6876C183.534 24.6969 183.512 24.7109 183.493 24.729C183.474 24.7471 183.459 24.7688 183.448 24.7929C183.438 24.8169 183.433 24.8428 183.433 24.8689C183.428 26.2111 183.144 28.6977 184.005 29.8211C186.372 32.9009 188.642 35.94 190.814 38.9385C190.947 39.1236 191.128 39.2148 191.357 39.212L195.543 39.1657C195.573 39.1655 195.603 39.1571 195.628 39.1413C195.653 39.1255 195.674 39.103 195.687 39.0764C195.7 39.0497 195.706 39.02 195.703 38.9904C195.7 38.9609 195.689 38.9327 195.671 38.9091L187.496 28.3821Z" stroke="#898F94" stroke-width="2"/>
<path d="M30.6754 50.6057C22.9041 50.105 17.3938 44.8794 16.7405 37.163C16.7363 37.118 16.7152 37.0762 16.6814 37.0458C16.6477 37.0154 16.6037 36.9987 16.5581 36.9989L1.37612 37.1504C1.18099 37.1532 1.08626 37.2513 1.09191 37.4449C1.65185 52.7052 12.6428 64.5112 27.8926 66.3161C28.857 66.4311 29.8241 66.4101 30.7941 66.253C30.9299 66.2306 30.9977 66.1506 30.9977 66.0132L30.9256 50.8665C30.9256 50.7038 30.8422 50.6169 30.6754 50.6057Z" stroke="#898F94" stroke-width="2"/>
<path d="M81.7146 58.0949C81.6792 58.0949 81.6441 58.0879 81.6114 58.0743C81.5787 58.0607 81.549 58.0408 81.5241 58.0157C81.4993 57.9907 81.4797 57.961 81.4665 57.9283C81.4533 57.8957 81.4468 57.8607 81.4474 57.8256L81.4644 55.2212C81.4644 55.186 81.4714 55.1512 81.4851 55.1188C81.4988 55.0863 81.5189 55.0569 81.5441 55.0323C81.5694 55.0076 81.5994 54.9882 81.6323 54.9751C81.6652 54.962 81.7004 54.9556 81.7358 54.9561L86.4572 54.9772C86.4933 54.9772 86.5292 54.97 86.5624 54.9559C86.5957 54.9417 86.6258 54.9211 86.6508 54.8951C86.6758 54.8692 86.6952 54.8384 86.7078 54.8048C86.7205 54.7712 86.7261 54.7353 86.7244 54.6995L86.6947 54.0347C86.6914 53.9666 86.6618 53.9024 86.6121 53.8554C86.5623 53.8084 86.4962 53.7822 86.4275 53.7823L80.493 53.8159C80.4221 53.8159 80.3541 53.8438 80.304 53.8936C80.2539 53.9433 80.2257 54.0107 80.2257 54.081L80.2766 63.5477C80.2769 63.5851 80.2852 63.6221 80.301 63.6562C80.3167 63.6902 80.3396 63.7206 80.3681 63.7453C80.3965 63.7699 80.4299 63.7883 80.4661 63.7992C80.5022 63.8101 80.5403 63.8133 80.5778 63.8085L81.3244 63.7117C81.3907 63.7034 81.4515 63.6706 81.4947 63.62C81.5379 63.5694 81.5603 63.5045 81.5577 63.4383L81.4177 59.5759C81.4166 59.5404 81.4226 59.505 81.4356 59.4718C81.4485 59.4387 81.468 59.4085 81.4929 59.383C81.5178 59.3575 81.5477 59.3372 81.5807 59.3233C81.6137 59.3095 81.6491 59.3024 81.6849 59.3024L85.9905 59.2982C86.06 59.2982 86.1267 59.2714 86.1766 59.2235C86.2264 59.1756 86.2556 59.1103 86.2578 59.0415L86.2832 58.3641C86.285 58.3283 86.2793 58.2924 86.2667 58.2588C86.254 58.2252 86.2346 58.1944 86.2096 58.1685C86.1846 58.1425 86.1546 58.1219 86.1213 58.1078C86.088 58.0937 86.0522 58.0864 86.016 58.0864L81.7146 58.0949Z" stroke="#5D746B" stroke-width="2"/>
<path d="M95.9125 59.9335C95.8446 63.2657 91.4288 63.3204 91.4075 60.2154C91.3934 58.0359 91.3991 56.0641 91.4245 54.2998C91.4302 53.9295 91.2463 53.7374 90.8731 53.7233L90.6397 53.7149C90.3372 53.7065 90.1873 53.8524 90.1901 54.1525C90.2071 56.0318 90.2099 58.0037 90.1986 60.0681C90.1816 62.4074 92.1838 64.2797 94.5763 63.5518C96.2504 63.0413 97.0974 61.7917 97.1172 59.803C97.137 57.9153 97.1455 56.0486 97.1427 54.203C97.1427 53.9113 96.9956 53.7556 96.7015 53.736L96.4088 53.7149C96.0355 53.6897 95.8559 53.8636 95.8701 54.2366C95.938 55.9589 95.9521 57.8578 95.9125 59.9335Z" stroke="#5D746B" stroke-width="2"/>
<path d="M102.661 62.4537L102.657 54.123C102.657 53.9239 102.56 53.8047 102.365 53.7654C102.209 53.7346 102.053 53.7303 101.898 53.7528C101.624 53.7893 101.486 53.9449 101.486 54.2198L101.495 63.514C101.495 63.6626 101.57 63.737 101.72 63.737L107.06 63.6865C107.287 63.6837 107.394 63.5701 107.383 63.3457L107.37 62.967C107.365 62.8645 107.322 62.7674 107.249 62.6944C107.176 62.6214 107.079 62.5776 106.976 62.5715C105.644 62.4846 104.295 62.5224 102.929 62.6851C102.751 62.7076 102.661 62.6304 102.661 62.4537Z" stroke="#5D746B" stroke-width="2"/>
<path d="M112.431 62.6052C112.397 62.6058 112.364 62.5997 112.334 62.5875C112.303 62.5753 112.275 62.5571 112.251 62.534C112.227 62.5109 112.208 62.4833 112.196 62.4529C112.183 62.4225 112.176 62.3899 112.176 62.357L112.227 54.0431C112.227 53.9773 112.201 53.9141 112.154 53.8676C112.107 53.821 112.043 53.7949 111.977 53.7949L111.247 53.7865C111.181 53.7865 111.117 53.8126 111.07 53.8592C111.023 53.9057 110.997 53.9689 110.997 54.0347L111.001 63.4803C111.001 63.5462 111.028 63.6093 111.074 63.6559C111.121 63.7024 111.185 63.7286 111.251 63.7286L116.596 63.7202C116.662 63.7202 116.725 63.6946 116.772 63.6489C116.819 63.6033 116.845 63.5412 116.847 63.4761L116.864 62.7777C116.864 62.7444 116.858 62.7113 116.845 62.6804C116.833 62.6495 116.814 62.6215 116.79 62.5979C116.767 62.5744 116.738 62.5558 116.707 62.5433C116.676 62.5308 116.643 62.5247 116.609 62.5253L112.431 62.6052Z" stroke="#5D746B" stroke-width="2"/>
<path d="M153.489 56.5255L155.593 59.6558C155.694 59.8059 155.831 59.9292 155.991 60.0147C156.152 60.1003 156.331 60.1454 156.513 60.1463C156.695 60.1471 156.874 60.1036 157.034 60.0195C157.195 59.9354 157.332 59.8134 157.434 59.6642L159.512 56.6138C159.789 56.2099 159.929 56.252 159.932 56.74L159.992 63.4887C159.994 63.7159 160.11 63.8267 160.339 63.8211L161.018 63.8085C161.236 63.8029 161.345 63.6907 161.345 63.4719L161.357 54.0683C161.357 53.999 161.335 53.9315 161.293 53.8761C161.25 53.8207 161.191 53.7804 161.124 53.7612C160.437 53.5592 159.826 53.8538 159.444 54.4218C158.542 55.7625 157.64 57.0682 156.738 58.3389C156.715 58.371 156.684 58.3972 156.649 58.4152C156.613 58.4333 156.574 58.4427 156.534 58.4427C156.495 58.4427 156.455 58.4333 156.42 58.4152C156.384 58.3972 156.354 58.371 156.331 58.3389C155.349 56.9364 154.425 55.611 153.557 54.3629C153.127 53.743 152.581 53.5452 151.919 53.7696C151.842 53.7952 151.774 53.8442 151.726 53.9099C151.678 53.9756 151.652 54.0546 151.652 54.1357V63.3962C151.652 63.4523 151.663 63.5079 151.685 63.5598C151.706 63.6116 151.738 63.6586 151.778 63.6981C151.817 63.7377 151.865 63.7689 151.917 63.79C151.969 63.8111 152.024 63.8217 152.08 63.8211H152.521C152.889 63.8211 153.071 63.6388 153.069 63.2741L153.043 56.6601C153.04 56.1216 153.189 56.0767 153.489 56.5255Z" stroke="#5D746B" stroke-width="2"/>
<path d="M173.935 56.3235C173.989 56.489 174.017 56.6601 174.02 56.8368C174.045 59.0331 174.059 61.2308 174.062 63.4298C174.062 63.6907 174.192 63.8197 174.452 63.8169H174.872C174.983 63.8169 175.088 63.7735 175.166 63.6962C175.244 63.6188 175.288 63.514 175.288 63.4046L175.309 54.0726C175.309 53.9267 175.24 53.8341 175.101 53.7949C174.813 53.7107 174.516 53.6939 174.211 53.7444C174.024 53.7752 173.877 53.8678 173.769 54.0221C172.683 55.5564 171.658 57.0374 170.694 58.4651C170.675 58.4938 170.649 58.5173 170.619 58.5336C170.589 58.5498 170.555 58.5584 170.52 58.5584C170.486 58.5584 170.452 58.5498 170.421 58.5336C170.391 58.5173 170.365 58.4938 170.346 58.4651C169.396 57.0626 168.439 55.6686 167.474 54.2829C167.114 53.7654 166.494 53.5593 165.905 53.7654C165.738 53.8243 165.655 53.9421 165.655 54.1188L165.667 63.514C165.667 63.7244 165.773 63.8253 165.985 63.8169L166.681 63.8001C166.924 63.7917 167.046 63.6683 167.046 63.4298L167.033 56.5381C167.033 56.0865 167.16 56.0486 167.415 56.4245L169.57 59.5969C169.674 59.7492 169.814 59.8737 169.978 59.9596C170.142 60.0454 170.324 60.0898 170.51 60.089C170.695 60.0882 170.877 60.0421 171.04 59.9548C171.203 59.8675 171.342 59.7417 171.445 59.5885L173.655 56.2815C173.776 56.0991 173.87 56.1132 173.935 56.3235Z" stroke="#5D746B" stroke-width="2"/>
<path d="M181.044 58.0317C181.008 58.0312 180.971 58.0235 180.938 58.009C180.904 57.9945 180.873 57.9736 180.848 57.9474C180.822 57.9213 180.802 57.8903 180.788 57.8564C180.775 57.8225 180.768 57.7863 180.769 57.7499L180.794 55.2633C180.795 55.1904 180.825 55.1208 180.878 55.0696C180.93 55.0185 181.001 54.9898 181.074 54.9898L185.142 54.9688C185.181 54.9683 185.219 54.96 185.254 54.9442C185.289 54.9284 185.321 54.9056 185.347 54.8772C185.373 54.8487 185.392 54.8152 185.405 54.7789C185.417 54.7425 185.421 54.704 185.418 54.6658L185.35 53.9758C185.343 53.9066 185.309 53.8428 185.257 53.7968C185.204 53.7508 185.136 53.7261 185.066 53.7276L179.704 53.7865C179.63 53.7876 179.56 53.8173 179.509 53.8693C179.457 53.9212 179.428 53.9912 179.428 54.0642L179.449 63.5392C179.449 63.6129 179.479 63.6835 179.531 63.7356C179.584 63.7877 179.655 63.8169 179.729 63.8169L185.176 63.7875C185.214 63.7875 185.252 63.7799 185.287 63.7649C185.322 63.7499 185.354 63.7279 185.38 63.7003C185.407 63.6727 185.427 63.6401 185.44 63.6044C185.453 63.5687 185.458 63.5308 185.456 63.493L185.405 62.8072C185.401 62.7379 185.371 62.6727 185.321 62.6244C185.27 62.5761 185.204 62.5483 185.134 62.5463L181.108 62.4453C181.037 62.4432 180.969 62.4142 180.918 62.3641C180.868 62.3141 180.839 62.2468 180.837 62.176L180.764 59.6516C180.763 59.6148 180.77 59.5781 180.783 59.5437C180.796 59.5093 180.816 59.4779 180.842 59.4513C180.868 59.4247 180.898 59.4034 180.932 59.3886C180.966 59.3739 181.003 59.366 181.04 59.3655L184.57 59.3108C184.641 59.3098 184.709 59.2818 184.76 59.2325C184.812 59.1833 184.842 59.1165 184.845 59.0457L184.875 58.3599C184.877 58.3228 184.871 58.2856 184.858 58.2508C184.845 58.2159 184.825 58.1839 184.799 58.1569C184.773 58.1298 184.742 58.1081 184.708 58.0931C184.674 58.0781 184.637 58.0701 184.599 58.0696L181.044 58.0317Z" stroke="#5D746B" stroke-width="2"/>
<path d="M191.348 59.437L192.65 59.4959C192.817 59.5043 192.949 59.5773 193.045 59.7147L195.556 63.2784C195.814 63.643 196.166 63.8225 196.612 63.8169L197.049 63.8127C197.431 63.8099 197.509 63.657 197.283 63.3541L194.525 59.6895C194.502 59.658 194.485 59.6219 194.477 59.5836C194.468 59.5453 194.468 59.5056 194.477 59.4673C194.485 59.429 194.502 59.3929 194.526 59.3616C194.549 59.3302 194.58 59.3043 194.614 59.2855C195.681 58.7077 196.252 57.8648 196.328 56.7569C196.578 53.1974 192.192 53.6687 189.893 53.8243C189.746 53.8355 189.673 53.9141 189.673 54.0599L189.639 63.3583C189.638 63.42 189.65 63.4811 189.674 63.5381C189.698 63.5951 189.733 63.6467 189.777 63.6899C189.821 63.7331 189.874 63.767 189.932 63.7895C189.99 63.8121 190.052 63.8228 190.114 63.8211L190.585 63.8127C190.935 63.8071 191.105 63.6304 191.094 63.2826L190.979 59.7946C190.973 59.545 191.096 59.4258 191.348 59.437Z" stroke="#5D746B" stroke-width="2"/>
<path d="M214.543 54.973L218.573 54.9645C218.683 54.9646 218.789 54.9218 218.867 54.8455C218.946 54.7692 218.991 54.6654 218.993 54.5564L218.997 54.3923C219.009 53.9884 218.811 53.7865 218.403 53.7865L213.334 53.8075C213.262 53.8086 213.193 53.8379 213.142 53.8891C213.091 53.9402 213.063 54.0092 213.063 54.081L213.054 63.5855C213.054 63.6109 213.059 63.6361 213.069 63.6596C213.079 63.6831 213.093 63.7044 213.111 63.7224C213.13 63.7403 213.151 63.7546 213.175 63.7643C213.198 63.7741 213.224 63.7791 213.249 63.7791L218.408 63.7749C218.767 63.7749 218.969 63.5981 219.014 63.2447L219.031 63.1143C219.079 62.7188 218.903 62.5196 218.501 62.5168L214.497 62.4958C214.441 62.4958 214.389 62.4736 214.35 62.4342C214.311 62.3947 214.289 62.3412 214.289 62.2854L214.318 59.5128C214.318 59.3725 214.39 59.3024 214.535 59.3024L217.899 59.3445C218.246 59.3473 218.464 59.1818 218.552 58.848C218.597 58.6657 218.542 58.4721 218.386 58.2674C218.334 58.1995 218.266 58.1449 218.188 58.1076C218.109 58.0704 218.024 58.0516 217.937 58.0528L214.564 58.078C214.5 58.078 214.439 58.0532 214.393 58.009C214.348 57.9648 214.323 57.9049 214.323 57.8424V55.1917C214.323 55.0459 214.396 54.973 214.543 54.973Z" stroke="#5D746B" stroke-width="2"/>
<path d="M129.356 55.5914C130.603 54.7107 131.973 54.792 133.467 55.8355C133.713 56.0066 133.903 55.9589 134.039 55.6924L134.158 55.4568C134.288 55.2044 134.239 54.9926 134.01 54.8215C132.666 53.8089 131.244 53.5705 129.742 54.1062C125.865 55.4905 125.347 61.0527 128.919 63.1017C130.619 64.0778 132.406 63.8983 134.281 62.5631C134.586 62.3443 134.66 62.0652 134.502 61.7258L134.438 61.5828C134.237 61.148 133.967 61.1017 133.628 61.4439C131.027 64.0567 127.456 61.5239 127.791 58.3683C127.918 57.165 128.44 56.2394 129.356 55.5914Z" stroke="#5D746B" stroke-width="2"/>
<path d="M143.192 63.7148C144.449 63.6887 145.644 63.1425 146.514 62.1963C147.384 61.2501 147.856 59.9815 147.829 58.6695C147.801 57.3575 147.275 56.1097 146.366 55.2004C145.457 54.2912 144.24 53.7951 142.983 53.8212C141.725 53.8473 140.53 54.3936 139.661 55.3398C138.791 56.2859 138.318 57.5545 138.346 58.8665C138.374 60.1785 138.9 61.4264 139.808 62.3356C140.717 63.2448 141.934 63.741 143.192 63.7148Z" stroke="#5D746B" stroke-width="2"/>
<path d="M206.433 62.399C203.713 62.9965 201.843 60.4594 202.331 57.9602C202.698 56.0613 203.882 55.0809 205.881 55.0192C206.687 54.9982 207.26 55.4863 207.943 55.8229C208.042 55.872 208.156 55.8841 208.264 55.8572C208.372 55.8302 208.467 55.7658 208.532 55.6756C208.572 55.6195 208.6 55.5578 208.617 55.4905C208.716 55.1118 208.597 54.8187 208.261 54.6111C202.933 51.3714 198.487 58.5787 202.424 62.3738C204.203 64.0904 206.232 64.2236 208.511 62.7735C208.862 62.5519 209.037 62.2349 209.037 61.8226C209.037 61.7413 209.02 61.6641 208.986 61.5912C208.836 61.2743 208.613 61.2111 208.316 61.4019C207.419 61.9853 206.792 62.3177 206.433 62.399Z" stroke="#5D746B" stroke-width="2"/>
<path d="M191.013 55.3474L190.966 57.7456C190.965 57.802 190.975 57.858 190.996 57.9105C191.017 57.963 191.048 58.0109 191.087 58.0516C191.126 58.0922 191.174 58.1247 191.226 58.1473C191.278 58.1699 191.334 58.1821 191.391 58.1832L193.401 58.2211C193.615 58.2251 193.828 58.1892 194.027 58.1153C194.226 58.0413 194.408 57.9309 194.562 57.7902C194.716 57.6495 194.84 57.4814 194.925 57.2954C195.01 57.1095 195.056 56.9093 195.06 56.7064V56.5381C195.067 56.1288 194.903 55.7331 194.603 55.438C194.303 55.1429 193.892 54.9726 193.461 54.9645L191.45 54.9267C191.336 54.9255 191.226 54.9691 191.144 55.0479C191.062 55.1267 191.015 55.2343 191.013 55.3474Z" stroke="#5D746B" stroke-width="2"/>
<path d="M143.022 62.5038C143.943 62.5166 144.833 62.1357 145.494 61.4449C146.155 60.7541 146.535 59.8101 146.548 58.8204C146.555 58.3303 146.472 57.8438 146.304 57.3887C146.136 56.9335 145.886 56.5186 145.568 56.1676C145.25 55.8167 144.871 55.5365 144.453 55.3431C144.034 55.1497 143.583 55.047 143.127 55.0407C142.206 55.0279 141.317 55.4088 140.655 56.0996C139.994 56.7904 139.615 57.7344 139.601 58.7241C139.594 59.2142 139.677 59.7006 139.845 60.1558C140.013 60.611 140.263 61.0259 140.581 61.3769C140.899 61.7278 141.278 62.008 141.697 62.2014C142.116 62.3948 142.566 62.4975 143.022 62.5038Z" stroke="#5D746B" stroke-width="2"/>
<path d="M52.6063 15.9029L41.6621 26.7328C40.972 26.1915 40.2764 25.6501 39.575 25.1088C37.29 23.3557 34.7434 22.3838 31.9352 22.193C31.816 22.1855 31.7042 22.1328 31.6229 22.0459C31.5416 21.9591 31.497 21.8445 31.4983 21.726L31.668 3.25126C31.6708 3.09419 31.7514 3.01845 31.9098 3.02406C40.8264 3.27651 48.5142 6.47695 54.9733 12.6254C55.036 12.6851 55.086 12.7567 55.1204 12.8359C55.1548 12.915 55.1729 13.0002 55.1737 13.0864C55.1745 13.1726 55.1579 13.2581 55.125 13.3379C55.092 13.4177 55.0434 13.4901 54.9818 13.551L52.6063 15.9029Z" fill="#5BCB55"/>
<path d="M29.0634 8.30435C29.2157 8.30764 29.3607 8.37013 29.4677 8.47855C29.5746 8.58696 29.635 8.73276 29.6361 8.88497L29.6657 21.6587C29.6686 22.1131 29.4409 22.3711 28.9828 22.4328C22.429 23.3206 17.6398 28.462 16.8041 34.8573C16.7948 34.9336 16.7574 35.004 16.6988 35.0551C16.6402 35.1062 16.5645 35.1346 16.486 35.135L3.16621 35.1771C2.6996 35.1799 2.4776 34.9499 2.50023 34.4871C2.82827 27.3092 5.35224 21.3235 10.0721 16.5298C14.1161 12.4234 19.0099 9.8078 24.7536 8.68302C26.1987 8.39972 27.6353 8.2735 29.0634 8.30435Z" fill="#375F34"/>
<path d="M214.229 17.1567C207.107 20.2955 206.509 30.7467 213.173 34.79C216.999 37.1125 221.64 35.9807 224.329 32.5138C224.451 32.3567 224.584 32.3469 224.728 32.4843L226.972 34.6259C227.145 34.7914 227.149 34.9611 226.985 35.135C225.698 36.487 224.284 37.536 222.743 38.2821C214.293 42.3675 205.16 35.8502 204.681 26.9642C204.303 19.9 209.559 13.4837 216.791 13.0419C220.117 12.8357 223.167 14.1484 225.717 16.1638C225.81 16.2368 225.871 16.3435 225.886 16.4608C225.901 16.5782 225.869 16.6966 225.797 16.7907L224.037 19.0879C223.915 19.2478 223.778 19.2632 223.625 19.1342C220.673 16.7023 217.754 15.6042 214.229 17.1567Z" fill="white"/>
<path d="M93.0661 17.893C92.9191 17.7247 92.8017 17.743 92.7141 17.9477L83.5514 38.8459C83.4411 39.0984 83.2474 39.2218 82.9703 39.2162L80.5184 39.1615C80.2554 39.1559 80.1748 39.0339 80.2766 38.7954L90.9239 13.4542C90.9393 13.4178 90.9647 13.3866 90.997 13.3642C91.0294 13.3418 91.0673 13.3292 91.1064 13.328L94.9156 13.3238C94.9969 13.3244 95.0765 13.3487 95.1444 13.3936C95.2123 13.4385 95.2655 13.502 95.2974 13.5762L106.004 39.0689C106.007 39.0755 106.008 39.0827 106.007 39.0898C106.007 39.0969 106.004 39.1037 106.001 39.1099C105.997 39.116 105.992 39.1211 105.986 39.125C105.98 39.1288 105.973 39.1313 105.966 39.132C104.815 39.2134 103.67 39.2204 102.53 39.1531C102.479 39.1503 102.442 39.125 102.42 39.0773C99.4305 32.2557 96.4555 25.4425 93.4946 18.6378C93.3504 18.3068 93.2075 18.0585 93.0661 17.893Z" fill="white"/>
<path d="M131.388 35.9092L131.392 38.989C131.392 39.0448 131.37 39.0983 131.33 39.1378C131.29 39.1772 131.236 39.1994 131.18 39.1994H115.655C115.598 39.1994 115.544 39.1772 115.505 39.1378C115.465 39.0983 115.443 39.0448 115.443 38.989L115.447 13.5594C115.447 13.5044 115.468 13.4515 115.507 13.4121C115.546 13.3728 115.599 13.3502 115.655 13.3491L119.099 13.3112C119.155 13.3112 119.209 13.3334 119.249 13.3728C119.289 13.4123 119.311 13.4658 119.311 13.5216V35.5179C119.311 35.5737 119.334 35.6272 119.373 35.6666C119.413 35.7061 119.467 35.7283 119.523 35.7283L131.176 35.6988C131.232 35.6988 131.286 35.721 131.326 35.7604C131.366 35.7999 131.388 35.8534 131.388 35.9092Z" fill="white"/>
<path d="M152.25 18.3643C152.12 18.3166 152.028 18.3559 151.974 18.4821L143.181 39.0605C143.15 39.1334 143.094 39.1699 143.015 39.1699L139.219 39.1741C139.162 39.1769 139.145 39.1517 139.168 39.0984L149.862 13.6183C149.941 13.4248 150.085 13.328 150.294 13.328H153.938C154.122 13.328 154.249 13.4122 154.32 13.5804L165.023 39.0647C165.025 39.071 165.025 39.0776 165.025 39.0841C165.024 39.0906 165.022 39.0967 165.019 39.102C165.015 39.1073 165.011 39.1117 165.006 39.1147C165 39.1177 164.995 39.1193 164.989 39.1194C163.807 39.2232 162.633 39.2386 161.468 39.1657C161.42 39.1629 161.387 39.1391 161.37 39.0942C158.203 31.7424 155.253 24.918 152.521 18.6209C152.468 18.4975 152.377 18.412 152.25 18.3643Z" fill="white"/>
<path d="M187.496 28.3821L195.671 38.9091C195.689 38.9327 195.7 38.9609 195.703 38.9904C195.706 39.02 195.7 39.0497 195.687 39.0764C195.674 39.103 195.653 39.1255 195.628 39.1413C195.603 39.1571 195.573 39.1655 195.543 39.1657L191.357 39.212C191.128 39.2148 190.947 39.1236 190.814 38.9385C188.642 35.94 186.372 32.9009 184.005 29.8211C183.144 28.6977 183.428 26.2111 183.433 24.8689C183.433 24.8428 183.438 24.8169 183.448 24.7929C183.459 24.7688 183.474 24.7471 183.493 24.729C183.512 24.7109 183.534 24.6969 183.559 24.6876C183.584 24.6784 183.61 24.6743 183.636 24.6754C184.833 24.7427 186.211 24.7343 187.17 23.9433C188.655 22.7232 189.096 21.158 188.493 19.2478C187.844 17.182 185.969 16.5719 183.929 16.6645C182.142 16.743 180.356 16.7248 178.571 16.6098C178.532 16.6075 178.493 16.6131 178.456 16.6262C178.419 16.6394 178.385 16.6598 178.356 16.6862C178.328 16.7126 178.305 16.7444 178.289 16.7798C178.274 16.8151 178.266 16.8532 178.266 16.8917V38.888C178.266 39.0788 178.184 39.1755 178.02 39.1783L174.694 39.1868C174.51 39.1868 174.418 39.0956 174.418 38.9133L174.431 13.6394C174.431 13.5959 174.44 13.5529 174.457 13.5128C174.474 13.4727 174.498 13.4363 174.53 13.4058C174.561 13.3753 174.598 13.3512 174.638 13.3349C174.679 13.3187 174.723 13.3106 174.766 13.3112C177.702 13.3505 180.654 13.3448 183.624 13.2944C185.108 13.2719 186.362 13.4206 187.386 13.7403C190.254 14.6365 192.324 17.3755 192.485 20.3586C192.663 23.6151 190.767 26.4677 187.704 27.6458C187.303 27.8001 187.233 28.0455 187.496 28.3821Z" fill="white"/>
<path d="M52.6063 15.9029C54.1221 17.4036 55.1981 18.6377 55.8344 19.6054C60.9757 27.4424 62.3388 35.6988 59.9237 44.3745C59.1601 47.1121 58.0176 49.6702 56.4962 52.0488C52.0534 59.005 45.5731 63.4396 37.0553 65.3526C35.4603 65.7116 33.9388 65.8743 32.4909 65.8407C31.6312 65.8238 31.2933 65.3835 31.4771 64.5195C31.8461 62.7819 31.4941 60.8549 31.5492 59.4833C31.6567 56.8578 31.6383 54.1651 31.4941 51.405C31.4601 50.7543 31.7698 50.3883 32.4231 50.3069C42.4341 49.0531 47.6475 39.2204 43.7449 30.1324C43.414 29.3554 42.7197 28.2222 41.662 26.7328L52.6063 15.9029Z" fill="#545455"/>
<path d="M16.7405 37.163C17.3938 44.8793 22.9041 50.105 30.6754 50.6056C30.8422 50.6169 30.9256 50.7038 30.9256 50.8665L30.9977 66.0132C30.9977 66.1506 30.9299 66.2305 30.7941 66.253C29.8241 66.4101 28.857 66.4311 27.8926 66.3161C12.6428 64.5111 1.65185 52.7051 1.09191 37.4449C1.08626 37.2513 1.18099 37.1531 1.37612 37.1503L16.5581 36.9989C16.6037 36.9987 16.6477 37.0154 16.6814 37.0458C16.7152 37.0761 16.7363 37.118 16.7405 37.163Z" fill="white"/>
<path d="M81.7147 58.0949L86.016 58.0864C86.0522 58.0864 86.088 58.0937 86.1213 58.1078C86.1546 58.1219 86.1846 58.1425 86.2096 58.1685C86.2346 58.1944 86.254 58.2252 86.2667 58.2588C86.2793 58.2924 86.285 58.3283 86.2833 58.3641L86.2578 59.0415C86.2556 59.1103 86.2265 59.1756 86.1766 59.2235C86.1267 59.2714 86.06 59.2982 85.9906 59.2982L81.685 59.3024C81.6492 59.3024 81.6137 59.3095 81.5807 59.3233C81.5477 59.3372 81.5179 59.3575 81.4929 59.383C81.468 59.4085 81.4485 59.4387 81.4356 59.4718C81.4227 59.505 81.4166 59.5404 81.4177 59.5759L81.5577 63.4383C81.5604 63.5045 81.5379 63.5694 81.4947 63.62C81.4515 63.6706 81.3907 63.7034 81.3244 63.7117L80.5778 63.8085C80.5403 63.8133 80.5023 63.8101 80.4661 63.7992C80.43 63.7883 80.3966 63.7699 80.3681 63.7453C80.3396 63.7206 80.3168 63.6902 80.301 63.6562C80.2852 63.6221 80.2769 63.5851 80.2766 63.5477L80.2257 54.081C80.2257 54.0107 80.2539 53.9433 80.304 53.8936C80.3541 53.8438 80.4221 53.8159 80.493 53.8159L86.4275 53.7823C86.4962 53.7822 86.5623 53.8084 86.6121 53.8554C86.6619 53.9024 86.6915 53.9666 86.6947 54.0347L86.7244 54.6995C86.7261 54.7353 86.7205 54.7712 86.7078 54.8048C86.6952 54.8384 86.6758 54.8692 86.6508 54.8951C86.6258 54.9211 86.5958 54.9417 86.5625 54.9559C86.5292 54.97 86.4934 54.9772 86.4572 54.9772L81.7359 54.9561C81.7004 54.9556 81.6652 54.962 81.6323 54.9751C81.5994 54.9882 81.5694 55.0076 81.5442 55.0323C81.5189 55.0569 81.4988 55.0863 81.4851 55.1188C81.4714 55.1512 81.4644 55.186 81.4644 55.2212L81.4474 57.8256C81.4469 57.8607 81.4534 57.8957 81.4665 57.9283C81.4797 57.961 81.4993 57.9907 81.5242 58.0157C81.5491 58.0408 81.5787 58.0607 81.6114 58.0743C81.6441 58.0879 81.6792 58.0949 81.7147 58.0949Z" fill="#A7C9AE"/>
<path d="M91.4075 60.2154C91.4288 63.3204 95.8446 63.2657 95.9125 59.9335C95.9521 57.8578 95.938 55.9589 95.8701 54.2366C95.8559 53.8636 96.0355 53.6897 96.4088 53.7149L96.7015 53.736C96.9956 53.7556 97.1427 53.9113 97.1427 54.203C97.1455 56.0486 97.137 57.9153 97.1172 59.803C97.0974 61.7917 96.2504 63.0413 94.5763 63.5518C92.1838 64.2797 90.1816 62.4074 90.1986 60.0681C90.2099 58.0037 90.2071 56.0318 90.1901 54.1525C90.1873 53.8524 90.3372 53.7065 90.6397 53.7149L90.8731 53.7233C91.2463 53.7374 91.4302 53.9295 91.4245 54.2998C91.3991 56.0641 91.3934 58.0359 91.4075 60.2154Z" fill="#A7C9AE"/>
<path d="M102.929 62.6851C104.295 62.5224 105.644 62.4845 106.976 62.5715C107.079 62.5776 107.176 62.6213 107.249 62.6943C107.322 62.7673 107.365 62.8644 107.37 62.967L107.383 63.3457C107.394 63.57 107.287 63.6836 107.06 63.6865L101.72 63.7369C101.57 63.7369 101.495 63.6626 101.495 63.5139L101.486 54.2198C101.486 53.9449 101.624 53.7892 101.898 53.7528C102.053 53.7303 102.209 53.7345 102.365 53.7654C102.56 53.8046 102.657 53.9239 102.657 54.123L102.661 62.4537C102.661 62.6304 102.751 62.7075 102.929 62.6851Z" fill="#A7C9AE"/>
<path d="M112.431 62.6052L116.609 62.5252C116.643 62.5247 116.676 62.5308 116.707 62.5433C116.738 62.5558 116.767 62.5743 116.79 62.5979C116.814 62.6215 116.833 62.6495 116.845 62.6804C116.858 62.7113 116.864 62.7444 116.864 62.7777L116.847 63.4761C116.846 63.5412 116.819 63.6033 116.772 63.6489C116.725 63.6946 116.662 63.7201 116.596 63.7201L111.251 63.7285C111.185 63.7285 111.121 63.7024 111.074 63.6558C111.028 63.6093 111.001 63.5461 111.001 63.4803L110.997 54.0347C110.997 53.9688 111.023 53.9057 111.07 53.8591C111.117 53.8126 111.181 53.7864 111.247 53.7864L111.977 53.7948C112.043 53.7948 112.107 53.821 112.154 53.8676C112.201 53.9141 112.227 53.9773 112.227 54.0431L112.176 62.3569C112.176 62.3899 112.183 62.4225 112.196 62.4529C112.209 62.4833 112.227 62.5109 112.251 62.534C112.275 62.5571 112.303 62.5753 112.334 62.5875C112.365 62.5997 112.398 62.6057 112.431 62.6052Z" fill="#A7C9AE"/>
<path d="M153.489 56.5255C153.189 56.0767 153.04 56.1216 153.043 56.6601L153.069 63.2741C153.071 63.6388 152.889 63.8211 152.521 63.8211H152.08C152.024 63.8217 151.969 63.8111 151.917 63.79C151.865 63.7689 151.817 63.7377 151.778 63.6981C151.738 63.6586 151.706 63.6116 151.685 63.5598C151.663 63.5079 151.652 63.4523 151.652 63.3962V54.1357C151.652 54.0546 151.678 53.9756 151.726 53.9099C151.774 53.8442 151.842 53.7952 151.919 53.7696C152.581 53.5452 153.127 53.743 153.557 54.3629C154.425 55.611 155.349 56.9364 156.331 58.3389C156.354 58.371 156.384 58.3972 156.42 58.4152C156.455 58.4333 156.495 58.4427 156.534 58.4427C156.574 58.4427 156.613 58.4333 156.649 58.4152C156.684 58.3972 156.715 58.371 156.738 58.3389C157.64 57.0682 158.542 55.7625 159.444 54.4218C159.826 53.8538 160.437 53.5592 161.124 53.7612C161.191 53.7804 161.25 53.8207 161.293 53.8761C161.335 53.9315 161.357 53.999 161.357 54.0683L161.345 63.4719C161.345 63.6907 161.236 63.8029 161.018 63.8085L160.339 63.8211C160.11 63.8267 159.994 63.7159 159.992 63.4887L159.932 56.74C159.929 56.252 159.789 56.2099 159.512 56.6138L157.434 59.6642C157.332 59.8134 157.195 59.9354 157.034 60.0195C156.874 60.1036 156.695 60.1471 156.513 60.1463C156.331 60.1454 156.152 60.1003 155.991 60.0147C155.831 59.9292 155.694 59.8059 155.593 59.6558L153.489 56.5255Z" fill="#A7C9AE"/>
<path d="M173.935 56.3235C173.87 56.1132 173.776 56.0991 173.655 56.2815L171.445 59.5885C171.342 59.7417 171.203 59.8675 171.04 59.9548C170.877 60.0421 170.695 60.0882 170.51 60.089C170.324 60.0898 170.142 60.0454 169.978 59.9596C169.814 59.8737 169.674 59.7492 169.57 59.5969L167.415 56.4245C167.16 56.0486 167.033 56.0865 167.033 56.5381L167.046 63.4298C167.046 63.6683 166.924 63.7917 166.681 63.8001L165.985 63.8169C165.773 63.8253 165.667 63.7244 165.667 63.514L165.655 54.1188C165.655 53.9421 165.738 53.8243 165.905 53.7654C166.494 53.5593 167.114 53.7654 167.474 54.2829C168.439 55.6686 169.396 57.0626 170.346 58.4651C170.365 58.4938 170.391 58.5173 170.421 58.5336C170.452 58.5498 170.486 58.5584 170.52 58.5584C170.555 58.5584 170.589 58.5498 170.619 58.5336C170.649 58.5173 170.675 58.4938 170.694 58.4651C171.658 57.0374 172.683 55.5564 173.769 54.0221C173.877 53.8678 174.024 53.7752 174.211 53.7444C174.516 53.6939 174.813 53.7107 175.101 53.7949C175.24 53.8341 175.309 53.9267 175.309 54.0726L175.288 63.4046C175.288 63.514 175.244 63.6188 175.166 63.6962C175.088 63.7735 174.983 63.8169 174.872 63.8169H174.452C174.192 63.8197 174.062 63.6907 174.062 63.4298C174.059 61.2308 174.045 59.0331 174.02 56.8368C174.017 56.6601 173.989 56.489 173.935 56.3235Z" fill="#A7C9AE"/>
<path d="M181.044 58.0317L184.599 58.0696C184.637 58.0701 184.674 58.0781 184.708 58.0931C184.742 58.1081 184.773 58.1298 184.799 58.1568C184.825 58.1839 184.845 58.2158 184.858 58.2507C184.871 58.2856 184.877 58.3227 184.875 58.3599L184.845 59.0457C184.842 59.1164 184.812 59.1832 184.76 59.2325C184.709 59.2818 184.641 59.3098 184.57 59.3108L181.04 59.3655C181.003 59.366 180.966 59.3739 180.932 59.3886C180.898 59.4033 180.868 59.4246 180.842 59.4512C180.816 59.4779 180.796 59.5093 180.783 59.5437C180.77 59.5781 180.763 59.6148 180.764 59.6516L180.837 62.176C180.839 62.2468 180.868 62.314 180.918 62.3641C180.969 62.4141 181.037 62.4432 181.108 62.4453L185.134 62.5463C185.204 62.5482 185.27 62.5761 185.321 62.6244C185.371 62.6727 185.401 62.7379 185.405 62.8071L185.456 63.4929C185.458 63.5308 185.453 63.5687 185.44 63.6044C185.427 63.64 185.407 63.6727 185.38 63.7003C185.354 63.7279 185.322 63.7498 185.287 63.7648C185.252 63.7798 185.214 63.7875 185.176 63.7874L179.729 63.8169C179.655 63.8169 179.584 63.7876 179.531 63.7356C179.479 63.6835 179.449 63.6129 179.449 63.5392L179.428 54.0641C179.428 53.9912 179.457 53.9212 179.509 53.8692C179.56 53.8173 179.63 53.7875 179.704 53.7864L185.066 53.7275C185.136 53.7261 185.204 53.7508 185.257 53.7968C185.309 53.8427 185.343 53.9066 185.35 53.9758L185.418 54.6658C185.421 54.704 185.417 54.7425 185.405 54.7788C185.392 54.8152 185.373 54.8487 185.347 54.8771C185.321 54.9056 185.289 54.9284 185.254 54.9442C185.219 54.9599 185.181 54.9683 185.142 54.9687L181.074 54.9898C181.001 54.9898 180.93 55.0184 180.878 55.0696C180.825 55.1208 180.795 55.1903 180.794 55.2632L180.769 57.7498C180.768 57.7863 180.775 57.8225 180.788 57.8564C180.802 57.8903 180.822 57.9212 180.848 57.9474C180.873 57.9736 180.904 57.9945 180.938 58.009C180.971 58.0234 181.008 58.0312 181.044 58.0317Z" fill="#A7C9AE"/>
<path d="M190.979 59.7946L191.094 63.2825C191.105 63.6304 190.935 63.8071 190.585 63.8127L190.114 63.8211C190.052 63.8228 189.99 63.8121 189.932 63.7895C189.874 63.767 189.821 63.7331 189.777 63.6899C189.733 63.6467 189.698 63.595 189.674 63.5381C189.65 63.4811 189.638 63.4199 189.639 63.3583L189.673 54.0599C189.673 53.9141 189.746 53.8355 189.893 53.8243C192.192 53.6686 196.578 53.1974 196.328 56.7569C196.252 57.8648 195.681 58.7077 194.614 59.2855C194.58 59.3043 194.549 59.3302 194.526 59.3616C194.502 59.3929 194.485 59.429 194.477 59.4673C194.468 59.5056 194.468 59.5453 194.477 59.5836C194.485 59.6219 194.502 59.658 194.525 59.6894L197.283 63.3541C197.509 63.657 197.431 63.8099 197.049 63.8127L196.612 63.8169C196.166 63.8225 195.814 63.643 195.556 63.2783L193.045 59.7147C192.949 59.5772 192.817 59.5043 192.65 59.4959L191.348 59.437C191.096 59.4258 190.973 59.545 190.979 59.7946ZM191.013 55.3474L190.966 57.7456C190.965 57.802 190.975 57.858 190.996 57.9105C191.017 57.963 191.048 58.0109 191.087 58.0515C191.126 58.0922 191.174 58.1247 191.226 58.1473C191.278 58.1699 191.334 58.1821 191.391 58.1832L193.401 58.221C193.615 58.2251 193.828 58.1892 194.027 58.1152C194.226 58.0413 194.408 57.9309 194.562 57.7902C194.716 57.6495 194.84 57.4814 194.925 57.2954C195.01 57.1094 195.056 56.9093 195.06 56.7064V56.5381C195.067 56.1288 194.903 55.7331 194.603 55.438C194.303 55.1429 193.892 54.9726 193.461 54.9645L191.45 54.9266C191.336 54.9255 191.226 54.9691 191.144 55.0479C191.062 55.1267 191.015 55.2343 191.013 55.3474Z" fill="#A7C9AE"/>
<path d="M214.543 54.9729C214.396 54.9729 214.323 55.0459 214.323 55.1917V57.8424C214.323 57.9049 214.348 57.9648 214.393 58.009C214.439 58.0532 214.5 58.078 214.564 58.078L217.937 58.0528C218.024 58.0516 218.109 58.0703 218.188 58.1076C218.266 58.1448 218.334 58.1995 218.386 58.2673C218.542 58.4721 218.597 58.6656 218.552 58.8479C218.464 59.1817 218.246 59.3472 217.899 59.3444L214.535 59.3024C214.39 59.3024 214.318 59.3725 214.318 59.5127L214.289 62.2854C214.289 62.3412 214.311 62.3947 214.35 62.4342C214.389 62.4736 214.441 62.4958 214.497 62.4958L218.501 62.5168C218.903 62.5196 219.079 62.7188 219.031 63.1143L219.014 63.2447C218.969 63.5981 218.767 63.7748 218.408 63.7748L213.249 63.779C213.224 63.779 213.198 63.774 213.175 63.7643C213.151 63.7546 213.13 63.7403 213.111 63.7223C213.093 63.7044 213.079 63.683 213.069 63.6596C213.059 63.6361 213.054 63.6109 213.054 63.5855L213.063 54.081C213.063 54.0091 213.091 53.9402 213.142 53.889C213.193 53.8379 213.262 53.8086 213.334 53.8075L218.403 53.7864C218.811 53.7864 219.009 53.9884 218.997 54.3923L218.993 54.5564C218.991 54.6654 218.946 54.7692 218.867 54.8455C218.789 54.9218 218.683 54.9645 218.573 54.9645L214.543 54.9729Z" fill="#A7C9AE"/>
<path d="M127.791 58.3683C127.456 61.5239 131.027 64.0567 133.628 61.4439C133.967 61.1017 134.237 61.148 134.438 61.5828L134.502 61.7258C134.66 62.0652 134.586 62.3443 134.281 62.5631C132.406 63.8983 130.619 64.0778 128.919 63.1017C125.347 61.0527 125.865 55.4905 129.742 54.1062C131.244 53.5705 132.666 53.8089 134.01 54.8215C134.239 54.9926 134.288 55.2044 134.158 55.4568L134.039 55.6924C133.903 55.9589 133.713 56.0066 133.467 55.8355C131.973 54.792 130.603 54.7107 129.356 55.5914C128.44 56.2394 127.918 57.165 127.791 58.3683Z" fill="#A7C9AE"/>
<path d="M143.192 63.7148C141.934 63.741 140.717 63.2448 139.808 62.3356C138.9 61.4264 138.374 60.1785 138.346 58.8665C138.318 57.5545 138.791 56.2859 139.661 55.3398C140.53 54.3936 141.725 53.8473 142.983 53.8212C144.24 53.7951 145.457 54.2912 146.366 55.2004C147.275 56.1097 147.801 57.3575 147.829 58.6695C147.856 59.9815 147.384 61.2501 146.514 62.1963C145.644 63.1425 144.449 63.6887 143.192 63.7148ZM143.022 62.5038C143.943 62.5166 144.833 62.1357 145.494 61.4449C146.155 60.7541 146.534 59.81 146.548 58.8204C146.555 58.3303 146.472 57.8438 146.304 57.3887C146.136 56.9335 145.886 56.5186 145.568 56.1676C145.25 55.8166 144.871 55.5365 144.453 55.3431C144.034 55.1497 143.583 55.047 143.127 55.0406C142.206 55.0279 141.317 55.4088 140.655 56.0996C139.994 56.7904 139.615 57.7344 139.601 58.7241C139.594 59.2141 139.677 59.7006 139.845 60.1558C140.013 60.6109 140.263 61.0259 140.581 61.3768C140.899 61.7278 141.278 62.008 141.697 62.2014C142.116 62.3947 142.566 62.4975 143.022 62.5038Z" fill="#A7C9AE"/>
<path d="M206.433 62.399C206.792 62.3177 207.42 61.9853 208.316 61.4018C208.613 61.2111 208.836 61.2742 208.986 61.5912C209.02 61.6641 209.037 61.7412 209.037 61.8226C209.037 62.2349 208.862 62.5519 208.511 62.7735C206.232 64.2236 204.203 64.0904 202.424 62.3738C198.487 58.5787 202.933 51.3714 208.261 54.6111C208.597 54.8187 208.716 55.1118 208.617 55.4904C208.6 55.5578 208.572 55.6195 208.532 55.6756C208.467 55.7658 208.372 55.8301 208.264 55.8571C208.156 55.8841 208.042 55.8719 207.943 55.8228C207.26 55.4862 206.687 54.9982 205.881 55.0192C203.882 55.0809 202.698 56.0612 202.331 57.9602C201.843 60.4594 203.713 62.9965 206.433 62.399Z" fill="#A7C9AE"/>
</svg>
