<?xml version="1.0" encoding="UTF-8"?>
<!DOCTYPE svg PUBLIC "-//W3C//DTD SVG 1.1//EN" "http://www.w3.org/Graphics/SVG/1.1/DTD/svg11.dtd">
<svg xmlns="http://www.w3.org/2000/svg" version="1.1" width="310px" height="322px" style="shape-rendering:geometricPrecision; text-rendering:geometricPrecision; image-rendering:optimizeQuality; fill-rule:evenodd; clip-rule:evenodd" xmlns:xlink="http://www.w3.org/1999/xlink">
<g><path style="opacity:0.037" fill="#000000" d="M 61.5,3.5 C 76.1461,4.64204 81.6461,12.3087 78,26.5C 72.7141,34.4633 65.5474,36.63 56.5,33C 48.5216,27.055 46.6883,19.555 51,10.5C 54.0429,7.24586 57.5429,4.91252 61.5,3.5 Z"/></g>
<g><path style="opacity:0.038" fill="#000000" d="M 107.5,3.5 C 145.832,4.01708 184.165,4.51708 222.5,5C 233.041,9.93282 235.874,17.7662 231,28.5C 228.635,31.8691 225.468,34.0357 221.5,35C 183.833,35.6667 146.167,35.6667 108.5,35C 94.6563,31.813 90.4896,23.6463 96,10.5C 98.9429,6.45582 102.776,4.12249 107.5,3.5 Z"/></g>
<g><path style="opacity:0.76" fill="#c1e253" d="M 29.5,34.5 C 30.824,38.107 31.4907,42.107 31.5,46.5C 31.1667,50.5 30.8333,54.5 30.5,58.5C 23.5713,54.8977 16.9046,50.8977 10.5,46.5C 16.6927,42.2393 23.026,38.2393 29.5,34.5 Z M 26.5,40.5 C 27.7943,42.0478 28.4609,44.0478 28.5,46.5C 28.3333,48.5 28.1667,50.5 28,52.5C 24.2486,50.7092 20.7486,48.5426 17.5,46C 20.8981,44.6429 23.8981,42.8096 26.5,40.5 Z"/></g>
<g><path style="opacity:0.756" fill="#fe4b59" d="M 273.5,34.5 C 283.174,33.849 285.84,37.849 281.5,46.5C 272.88,49.3772 269.38,46.3772 271,37.5C 271.698,36.3094 272.531,35.3094 273.5,34.5 Z M 274.5,38.5 C 276.167,38.5 277.833,38.5 279.5,38.5C 279.5,40.1667 279.5,41.8333 279.5,43.5C 277.833,43.5 276.167,43.5 274.5,43.5C 274.5,41.8333 274.5,40.1667 274.5,38.5 Z"/></g>
<g><path style="opacity:1" fill="#e5e6e5" d="M 197.5,50.5 C 200.833,50.5 204.167,50.5 207.5,50.5C 207.5,53.8333 207.5,57.1667 207.5,60.5C 204.167,60.5 200.833,60.5 197.5,60.5C 197.5,57.1667 197.5,53.8333 197.5,50.5 Z M 199.5,52.5 C 201.5,52.5 203.5,52.5 205.5,52.5C 205.5,54.5 205.5,56.5 205.5,58.5C 203.5,58.5 201.5,58.5 199.5,58.5C 199.5,56.5 199.5,54.5 199.5,52.5 Z"/></g>
<g><path style="opacity:1" fill="#92CC5C" d="M 249.5,95.5 C 230.18,111.488 211.18,127.822 192.5,144.5C 184.167,151.998 175.667,159.331 167,166.5C 158.562,159.041 150.062,151.707 141.5,144.5C 122.525,127.862 103.525,111.196 84.5,94.5C 83.7002,89.8063 85.3669,86.3063 89.5,84C 141.167,83.3333 192.833,83.3333 244.5,84C 248.905,86.5776 250.572,90.411 249.5,95.5 Z"/></g>
<g><path style="opacity:1" fill="#e7e7e8" d="M 84.5,94.5 C 103.525,111.196 122.525,127.862 141.5,144.5C 140.448,144.351 139.448,144.517 138.5,145C 120.629,161.042 102.629,176.875 84.5,192.5C 84.5,159.833 84.5,127.167 84.5,94.5 Z"/></g>
<g><path style="opacity:1" fill="#e7e7e8" d="M 249.5,95.5 C 249.5,108.167 249.5,120.833 249.5,133.5C 249.5,144.167 249.5,154.833 249.5,165.5C 249.5,174.167 249.5,182.833 249.5,191.5C 231.077,176.584 213.077,161.084 195.5,145C 194.552,144.517 193.552,144.351 192.5,144.5C 211.18,127.822 230.18,111.488 249.5,95.5 Z"/></g>
<g><path style="opacity:0.038" fill="#000000" d="M 249.5,133.5 C 264.499,133.965 279.499,134.465 294.5,135C 304.629,141.054 306.796,149.221 301,159.5C 298.374,162.231 295.207,164.064 291.5,165C 277.504,165.5 263.504,165.667 249.5,165.5C 249.5,154.833 249.5,144.167 249.5,133.5 Z"/></g>
<g><path style="opacity:1" fill="#f4f4f4" d="M 141.5,144.5 C 150.062,151.707 158.562,159.041 167,166.5C 175.667,159.331 184.167,151.998 192.5,144.5C 193.552,144.351 194.552,144.517 195.5,145C 213.077,161.084 231.077,176.584 249.5,191.5C 250.572,196.589 248.905,200.422 244.5,203C 192.833,203.667 141.167,203.667 89.5,203C 85.3669,200.694 83.7002,197.194 84.5,192.5C 102.629,176.875 120.629,161.042 138.5,145C 139.448,144.517 140.448,144.351 141.5,144.5 Z"/></g>
<g><path style="opacity:0.76" fill="#fef536" d="M 292.5,193.5 C 293.824,197.107 294.491,201.107 294.5,205.5C 294.167,209.5 293.833,213.5 293.5,217.5C 286.571,213.898 279.905,209.898 273.5,205.5C 279.693,201.239 286.026,197.239 292.5,193.5 Z M 289.5,199.5 C 290.794,201.048 291.461,203.048 291.5,205.5C 291.333,207.5 291.167,209.5 291,211.5C 287.249,209.709 283.749,207.543 280.5,205C 283.898,203.643 286.898,201.81 289.5,199.5 Z"/></g>
<g><path style="opacity:0.038" fill="#000000" d="M 51.5,212.5 C 76.5517,212.038 101.552,212.538 126.5,214C 135.771,219.824 137.938,227.657 133,237.5C 131.062,240.106 128.562,241.939 125.5,243C 100.5,243.667 75.5,243.667 50.5,243C 41.4027,239.645 37.9027,233.145 40,223.5C 42.1104,217.89 45.9437,214.224 51.5,212.5 Z"/></g>
<g><path style="opacity:0.805" fill="#82d15f" d="M 7.5,220.5 C 17.1736,219.849 19.8402,223.849 15.5,232.5C 6.87991,235.377 3.37991,232.377 5,223.5C 5.69794,222.309 6.53128,221.309 7.5,220.5 Z M 9.5,225.5 C 10.5,225.5 11.5,225.5 12.5,225.5C 12.5,226.5 12.5,227.5 12.5,228.5C 11.5,228.5 10.5,228.5 9.5,228.5C 9.5,227.5 9.5,226.5 9.5,225.5 Z"/></g>
<g><path style="opacity:1" fill="#e5e6e5" d="M 146.5,251.5 C 149.833,251.5 153.167,251.5 156.5,251.5C 156.5,254.833 156.5,258.167 156.5,261.5C 153.167,261.5 149.833,261.5 146.5,261.5C 146.5,258.167 146.5,254.833 146.5,251.5 Z M 148.5,253.5 C 150.5,253.5 152.5,253.5 154.5,253.5C 154.5,255.5 154.5,257.5 154.5,259.5C 152.5,259.5 150.5,259.5 148.5,259.5C 148.5,257.5 148.5,255.5 148.5,253.5 Z"/></g>
<g><path style="opacity:0.037" fill="#000000" d="M 119.5,294.5 C 150.835,294.333 182.168,294.5 213.5,295C 223.249,298.419 225.583,304.585 220.5,313.5C 218.869,315.297 216.869,316.464 214.5,317C 183.5,317.667 152.5,317.667 121.5,317C 111.699,313.89 109.199,307.723 114,298.5C 115.812,297.023 117.645,295.69 119.5,294.5 Z"/></g>
</svg>
