<?xml version="1.0"?>
<svg width="62.45" height="65.37" xmlns="http://www.w3.org/2000/svg" xmlns:svg="http://www.w3.org/2000/svg">
 <g class="layer">
  <path d="m41.66,24.73c1.06,1.49 1.75,2.63 2.08,3.4c3.91,9.09 -1.31,18.92 -11.32,20.18c-0.65,0.08 -0.96,0.44 -0.93,1.1c0.15,2.76 0.17,5.45 0.06,8.07c-0.06,1.37 0.3,3.3 -0.07,5.04c-0.19,0.86 0.15,1.3 1.01,1.32c1.45,0.03 2.97,-0.13 4.57,-0.49c8.51,-1.91 14.99,-6.34 19.44,-13.3c1.52,-2.38 2.66,-4.94 3.42,-7.68c2.42,-8.67 1.06,-16.93 -4.09,-24.76c-0.63,-0.97 -1.71,-2.21 -3.22,-3.71" id="svg_1" stroke="#333A3F" stroke-width="2"/>
  <path d="m52.61,13.9l2.37,-2.35c0.06,-0.06 0.11,-0.13 0.14,-0.21c0.04,-0.08 0.05,-0.17 0.05,-0.25c0,-0.09 -0.02,-0.18 -0.05,-0.25c-0.03,-0.08 -0.08,-0.15 -0.15,-0.21c-6.46,-6.15 -14.14,-9.35 -23.06,-9.61c-0.16,0 -0.24,0.07 -0.24,0.23l-0.17,18.48c0,0.11 0.04,0.23 0.12,0.32c0.08,0.08 0.2,0.14 0.32,0.14c2.8,0.19 5.35,1.17 7.64,2.92c0.7,0.54 1.39,1.08 2.08,1.62" id="svg_2" stroke="#3A6A43" stroke-width="2"/>
  <path d="m52.61,13.9l-10.95,10.83" id="svg_3" stroke="#5B8559" stroke-width="2"/>
  <path d="m29.06,6.3c-1.42,-0.03 -2.86,0.1 -4.31,0.38c-5.74,1.13 -10.63,3.74 -14.68,7.85c-4.72,4.79 -7.24,10.78 -7.57,17.96c-0.02,0.46 0.2,0.69 0.67,0.69l13.32,-0.05c0.07,0 0.15,-0.02 0.21,-0.07c0.06,-0.06 0.09,-0.13 0.1,-0.2c0.84,-6.4 5.63,-11.54 12.18,-12.43c0.46,-0.06 0.69,-0.32 0.69,-0.77l-0.03,-12.78c0,-0.15 -0.07,-0.29 -0.17,-0.4c-0.11,-0.11 -0.25,-0.17 -0.41,-0.18z" id="svg_4" stroke="#253F2E" stroke-width="2"/>
  <path d="m30.68,48.61c-7.78,-0.51 -13.29,-5.73 -13.94,-13.45c0,-0.04 -0.02,-0.08 -0.06,-0.11c-0.03,-0.03 -0.08,-0.05 -0.12,-0.05l-15.18,0.15c-0.2,0 -0.29,0.1 -0.29,0.29c0.56,15.27 11.55,27.07 26.8,28.88c0.97,0.11 1.93,0.09 2.9,-0.07c0.14,-0.02 0.21,-0.1 0.21,-0.24l-0.07,-15.14c0,-0.17 -0.09,-0.25 -0.25,-0.26z" id="svg_5" stroke="#898F94" stroke-width="2"/>
  <path d="m52.61,13.9l-10.95,10.83c-0.69,-0.54 -1.38,-1.08 -2.08,-1.62c-2.29,-1.75 -4.84,-2.73 -7.64,-2.92c-0.12,0 -0.24,-0.06 -0.32,-0.14c-0.08,-0.09 -0.12,-0.21 -0.12,-0.32l0.17,-18.48c0,-0.16 0.08,-0.23 0.24,-0.23c8.92,0.26 16.6,3.46 23.06,9.61c0.07,0.06 0.12,0.13 0.15,0.21c0.03,0.07 0.05,0.16 0.05,0.25c0,0.08 -0.01,0.17 -0.04,0.25c-0.04,0.08 -0.09,0.15 -0.15,0.21l-2.37,2.35z" fill="#5BCB55" id="svg_6"/>
  <path d="m29.06,6.3c0.16,0.01 0.3,0.07 0.41,0.18c0.1,0.11 0.17,0.25 0.17,0.4l0.03,12.78c0,0.45 -0.23,0.71 -0.69,0.77c-6.55,0.89 -11.34,6.03 -12.18,12.43c-0.01,0.07 -0.04,0.14 -0.1,0.2c-0.06,0.05 -0.14,0.07 -0.21,0.07l-13.32,0.05c-0.47,0 -0.69,-0.23 -0.67,-0.69c0.33,-7.18 2.85,-13.17 7.57,-17.96c4.05,-4.11 8.94,-6.72 14.68,-7.85c1.45,-0.28 2.89,-0.41 4.31,-0.38z" fill="#375F34" id="svg_7"/>
  <path d="m52.61,13.9c1.51,1.5 2.59,2.74 3.22,3.71c5.15,7.83 6.51,16.09 4.09,24.76c-0.76,2.74 -1.9,5.3 -3.42,7.68c-4.45,6.96 -10.93,11.39 -19.44,13.3c-1.6,0.36 -3.12,0.52 -4.57,0.49c-0.86,-0.02 -1.2,-0.46 -1.01,-1.32c0.37,-1.74 0.01,-3.67 0.07,-5.04c0.11,-2.62 0.09,-5.31 -0.06,-8.07c-0.03,-0.66 0.28,-1.02 0.93,-1.1c10.01,-1.26 15.23,-11.09 11.32,-20.18c-0.33,-0.77 -1.02,-1.91 -2.08,-3.4l10.95,-10.83z" fill="#545455" id="svg_8"/>
  <path d="m16.74,35.16c0.65,7.72 6.16,12.94 13.94,13.45c0.16,0.01 0.25,0.09 0.25,0.26l0.07,15.14c0,0.14 -0.07,0.22 -0.21,0.24c-0.97,0.16 -1.93,0.18 -2.9,0.07c-15.25,-1.81 -26.24,-13.61 -26.8,-28.88c0,-0.19 0.09,-0.29 0.29,-0.29l15.18,-0.15c0.04,0 0.09,0.02 0.12,0.05c0.04,0.03 0.06,0.07 0.06,0.11z" fill="white" id="svg_9"/>
 </g>
</svg>