<svg width="321" height="341" viewBox="0 0 321 341" fill="none" xmlns="http://www.w3.org/2000/svg">
<g clip-path="url(#clip0_215_40)">
<path opacity="0.989" fill-rule="evenodd" clip-rule="evenodd" d="M277 68C259.919 83.579 243.252 99.746 227 116.5C223.106 119.904 219.106 123.071 215 126C200.517 112.162 183.184 104.495 163 103C162.674 68.623 163.007 34.29 164 0C213.683 0.331 256.017 17.998 291 53C286.312 58.02 281.645 63.02 277 68Z" fill="#B1AB7A"/>
<path opacity="0.984" fill-rule="evenodd" clip-rule="evenodd" d="M142 27C145.667 27 149.333 27 153 27C153 52.667 153 78.333 153 104C122.8 108.032 101.633 124.032 89.5 152C86.888 158.778 85.388 165.778 85 173C59 173 33 173 7 173C9.393 113.338 36.726 69.505 89 41.5C105.982 33.674 123.649 28.841 142 27Z" fill="#C4C6C6"/>
<path opacity="0.986" fill-rule="evenodd" clip-rule="evenodd" d="M277 68C322.789 120.732 332.956 179.732 307.5 245C277.762 304.307 229.596 335.64 163 339C163 310.667 163 282.333 163 254C202.67 249.164 226.503 227.164 234.5 188C236.916 164.419 230.416 143.753 215 126C219.106 123.071 223.106 119.904 227 116.5C243.252 99.746 259.919 83.579 277 68Z" fill="#5E4B5B"/>
<path opacity="0.982" fill-rule="evenodd" clip-rule="evenodd" d="M3 182C30.333 182 57.667 182 85 182C86.786 212.75 101.453 234.917 129 248.5C138.902 252.726 149.236 254.892 160 255C160.881 283.656 161.214 312.323 161 341C106.234 340.367 62.401 318.367 29.5 275C10.155 247.463 0.322 216.796 0 183C1.291 183.237 2.291 182.904 3 182Z" fill="#9EBF63"/>
</g>
<defs>
<clipPath id="clip0_215_40">
<rect width="321" height="341" fill="white"/>
</clipPath>
</defs>
</svg>
