<svg xmlns="http://www.w3.org/2000/svg" fill="none" viewBox="0.09 2.02 61.99 65.37">
<path d="M41.662 26.7328C42.7197 28.2222 43.4139 29.3554 43.7448 30.1324C47.6474 39.2204 42.4341 49.0531 32.423 50.3069C31.7698 50.3883 31.4601 50.7543 31.494 51.405C31.6383 54.1651 31.6566 56.8578 31.5492 59.4833C31.494 60.8549 31.8461 62.7819 31.4771 64.5195C31.2932 65.3835 31.6312 65.8238 32.4909 65.8407C33.9388 65.8743 35.4603 65.7116 37.0552 65.3526C45.5731 63.4396 52.0534 59.005 56.4962 52.0488C58.0176 49.6702 59.1601 47.1121 59.9237 44.3745C62.3388 35.6988 60.9757 27.4424 55.8344 19.6054C55.1981 18.6377 54.1221 17.4036 52.6063 15.9029" stroke="#333A3F" stroke-width="2"/>
<path d="M52.6063 15.9029L54.9818 13.551C55.0433 13.4901 55.092 13.4177 55.1249 13.3379C55.1579 13.2581 55.1744 13.1726 55.1736 13.0864C55.1728 13.0002 55.1547 12.915 55.1203 12.8359C55.0859 12.7567 55.0359 12.6851 54.9733 12.6254C48.5142 6.47695 40.8264 3.27651 31.9098 3.02406C31.7514 3.01845 31.6708 3.09419 31.668 3.25126L31.4983 21.726C31.497 21.8445 31.5415 21.9591 31.6228 22.0459C31.7041 22.1328 31.8159 22.1855 31.9352 22.193C34.7434 22.3838 37.29 23.3557 39.575 25.1088C40.2763 25.6501 40.972 26.1915 41.662 26.7328" stroke="#3A6A43" stroke-width="2"/>
<path d="M52.6063 15.9029L41.662 26.7328" stroke="#5B8559" stroke-width="2"/>
<path d="M29.0634 8.30438C27.6353 8.27353 26.1987 8.39975 24.7536 8.68305C19.0099 9.80783 14.1161 12.4234 10.0721 16.5299C5.35224 21.3235 2.82827 27.3092 2.50023 34.4871C2.4776 34.9499 2.6996 35.1799 3.16621 35.1771L16.486 35.135C16.5645 35.1347 16.6402 35.1063 16.6988 35.0551C16.7574 35.004 16.7948 34.9337 16.8041 34.8573C17.6398 28.4621 22.429 23.3206 28.9828 22.4329C29.4409 22.3711 29.6686 22.1131 29.6657 21.6587L29.6361 8.885C29.635 8.73279 29.5746 8.58699 29.4677 8.47858C29.3607 8.37016 29.2157 8.30767 29.0634 8.30438Z" stroke="#253F2E" stroke-width="2"/>
<path d="M30.6754 50.6057C22.9041 50.105 17.3938 44.8794 16.7405 37.163C16.7363 37.118 16.7152 37.0762 16.6814 37.0458C16.6477 37.0154 16.6037 36.9987 16.5581 36.9989L1.37612 37.1504C1.18099 37.1532 1.08626 37.2513 1.09191 37.4449C1.65185 52.7052 12.6428 64.5112 27.8926 66.3161C28.857 66.4311 29.8241 66.4101 30.7941 66.253C30.9299 66.2306 30.9977 66.1506 30.9977 66.0132L30.9256 50.8665C30.9256 50.7038 30.8422 50.6169 30.6754 50.6057Z" stroke="#898F94" stroke-width="2"/>
<path d="M52.6063 15.9029L41.6621 26.7328C40.972 26.1915 40.2764 25.6501 39.575 25.1088C37.29 23.3557 34.7434 22.3838 31.9352 22.193C31.816 22.1855 31.7042 22.1328 31.6229 22.0459C31.5416 21.9591 31.497 21.8445 31.4983 21.726L31.668 3.25126C31.6708 3.09419 31.7514 3.01845 31.9098 3.02406C40.8264 3.27651 48.5142 6.47695 54.9733 12.6254C55.036 12.6851 55.086 12.7567 55.1204 12.8359C55.1548 12.915 55.1729 13.0002 55.1737 13.0864C55.1745 13.1726 55.1579 13.2581 55.125 13.3379C55.092 13.4177 55.0434 13.4901 54.9818 13.551L52.6063 15.9029Z" fill="#5BCB55"/>
<path d="M29.0634 8.30435C29.2157 8.30764 29.3607 8.37013 29.4677 8.47855C29.5746 8.58696 29.635 8.73276 29.6361 8.88497L29.6657 21.6587C29.6686 22.1131 29.4409 22.3711 28.9828 22.4328C22.429 23.3206 17.6398 28.462 16.8041 34.8573C16.7948 34.9336 16.7574 35.004 16.6988 35.0551C16.6402 35.1062 16.5645 35.1346 16.486 35.135L3.16621 35.1771C2.6996 35.1799 2.4776 34.9499 2.50023 34.4871C2.82827 27.3092 5.35224 21.3235 10.0721 16.5298C14.1161 12.4234 19.0099 9.8078 24.7536 8.68302C26.1987 8.39972 27.6353 8.2735 29.0634 8.30435Z" fill="#375F34"/>
<path d="M52.6063 15.9029C54.1221 17.4036 55.1981 18.6377 55.8344 19.6054C60.9757 27.4424 62.3388 35.6988 59.9237 44.3745C59.1601 47.1121 58.0176 49.6702 56.4962 52.0488C52.0534 59.005 45.5731 63.4396 37.0553 65.3526C35.4603 65.7116 33.9388 65.8743 32.4909 65.8407C31.6312 65.8238 31.2933 65.3835 31.4771 64.5195C31.8461 62.7819 31.4941 60.8549 31.5492 59.4833C31.6567 56.8578 31.6383 54.1651 31.4941 51.405C31.4601 50.7543 31.7698 50.3883 32.4231 50.3069C42.4341 49.0531 47.6475 39.2204 43.7449 30.1324C43.414 29.3554 42.7197 28.2222 41.662 26.7328L52.6063 15.9029Z" fill="#545455"/>
<path d="M16.7405 37.163C17.3938 44.8793 22.9041 50.105 30.6754 50.6056C30.8422 50.6169 30.9256 50.7038 30.9256 50.8665L30.9977 66.0132C30.9977 66.1506 30.9299 66.2305 30.7941 66.253C29.8241 66.4101 28.857 66.4311 27.8926 66.3161C12.6428 64.5111 1.65185 52.7051 1.09191 37.4449C1.08626 37.2513 1.18099 37.1531 1.37612 37.1503L16.5581 36.9989C16.6037 36.9987 16.6477 37.0154 16.6814 37.0458C16.7152 37.0761 16.7363 37.118 16.7405 37.163Z" fill="white"/>
</svg>