<?xml version="1.0" encoding="UTF-8" standalone="no"?>
<svg
   xmlns:dc="http://purl.org/dc/elements/1.1/"
   xmlns:cc="http://creativecommons.org/ns#"
   xmlns:rdf="http://www.w3.org/1999/02/22-rdf-syntax-ns#"
   xmlns:svg="http://www.w3.org/2000/svg"
   xmlns="http://www.w3.org/2000/svg"
   xmlns:sodipodi="http://sodipodi.sourceforge.net/DTD/sodipodi-0.dtd"
   xmlns:inkscape="http://www.inkscape.org/namespaces/inkscape"
   id="bhf_icon-logo"
   viewBox="0 0 4096 4096"
   version="1.1"
   sodipodi:docname="americanas-logo.svg"
   width="4096"
   height="4096"
   inkscape:version="0.92.2 (5c3e80d, 2017-08-06)"
   inkscape:export-filename="G:\Users\suitedoalex\sites\svg\americanas-logo-0.png"
   inkscape:export-xdpi="96"
   inkscape:export-ydpi="96">
  <metadata
     id="metadata9">
    <rdf:RDF>
      <cc:Work
         rdf:about="">
        <dc:format>image/svg+xml</dc:format>
        <dc:type
           rdf:resource="http://purl.org/dc/dcmitype/StillImage" />
        <dc:title></dc:title>
      </cc:Work>
    </rdf:RDF>
  </metadata>
  <defs
     id="defs7" />
  <sodipodi:namedview
     pagecolor="#ffffff"
     bordercolor="#666666"
     borderopacity="1"
     objecttolerance="10"
     gridtolerance="10"
     guidetolerance="10"
     inkscape:pageopacity="0"
     inkscape:pageshadow="2"
     inkscape:window-width="1600"
     inkscape:window-height="837"
     id="namedview5"
     showgrid="false"
     inkscape:zoom="0.04"
     inkscape:cx="4197.7164"
     inkscape:cy="3473.9496"
     inkscape:window-x="-8"
     inkscape:window-y="-8"
     inkscape:window-maximized="1"
     inkscape:current-layer="bhf_icon-logo" />
  <path
     d="m 637.82888,2016.1376 c 26.7233,-2.0557 49.3354,-10.2782 49.3354,-30.8346 0,-30.8347 -28.779,-30.8347 -49.3354,-32.8903 -39.05718,2.0556 -43.16847,16.4451 -51.39104,43.1684 h -76.0588 c 6.16694,-90.4482 71.94751,-104.8377 127.44984,-104.8377 59.6137,0 127.4499,16.4451 127.4499,84.2814 v 180.8964 c 0,16.4451 4.1113,22.6121 16.4451,30.8347 v 12.3339 h -86.3369 c -4.1113,-10.2783 -4.1113,-22.612 -6.1671,-34.9459 -24.6677,26.7233 -57.5579,45.224 -94.55947,45.224 -55.50236,0 -94.55958,-30.8346 -94.55958,-90.4483 0,-88.3926 74.00315,-96.6152 137.72805,-102.782 z m 51.391,37.0016 c -32.8902,22.6121 -108.94898,8.2225 -108.94898,61.6692 2.05565,26.7234 14.38951,37.0017 39.05718,37.0017 57.558,-10.2783 71.9476,-26.7235 69.8918,-98.6709 z m 575.58022,-43.1685 v 191.1747 h -80.1702 V 2007.915 c 0,-28.7791 -20.5563,-49.3354 -45.2242,-49.3354 -41.1128,6.1669 -47.2797,26.7234 -51.3909,61.6692 v 180.8966 h -80.1702 v -180.8966 c 2.0558,-34.9458 -8.22253,-61.6692 -43.16843,-61.6692 -51.3912,2.0556 -51.3912,26.7234 -51.3912,59.6136 v 182.9522 h -80.17 v -302.1795 h 76.0588 v 43.1685 c 18.5008,-32.8902 43.1685,-51.391 86.337,-51.391 43.16843,0 65.78053,16.4451 82.22573,51.391 20.5564,-37.0015 55.5023,-51.391 92.504,-51.391 78.1144,6.1669 98.6708,59.6137 94.5596,119.2273 z m 127.4499,59.6136 c 0,47.2798 26.7233,76.0588 67.8362,76.0588 28.779,-2.0557 45.2241,-14.3895 53.4467,-34.9459 h 80.1701 c -10.2783,53.4467 -61.6694,98.6707 -135.6724,98.6707 -26.7235,0 -145.9507,-8.2226 -145.9507,-158.2844 0,-117.1716 69.8918,-160.3402 141.8393,-160.3402 76.0588,0 143.895,37.0016 141.8394,178.8409 z m 2.0556,-51.3911 h 123.3385 c 0,-34.9459 -26.7235,-63.7249 -61.6693,-63.7249 -43.1684,0 -57.5579,30.8347 -59.6137,63.7249 z m 429.6293,-127.4498 v 80.17 c -43.1685,-2.0556 -96.6152,-6.1669 -96.6152,84.2814 v 143.8951 h -78.1144 v -302.1796 h 74.0032 v 53.4468 c 28.7789,-51.3912 57.5579,-61.6694 98.6708,-59.6137 z m 47.2798,6.1669 h 80.1701 v 302.1796 h -80.1701 z m 337.1253,108.9491 c -6.1668,-34.946 -26.7232,-49.3354 -51.3909,-49.3354 -55.5024,0 -61.6693,53.4467 -61.6693,96.6152 0,57.558 18.5008,90.4482 59.6136,90.4482 37.0017,-2.0556 45.2242,-14.3894 53.4467,-53.4467 h 80.1702 c -10.2783,71.9475 -57.5581,119.2273 -135.6725,119.2273 -96.6152,-2.0556 -139.7838,-59.6137 -139.7838,-156.2288 0,-108.9491 55.5025,-162.3958 141.8394,-164.4515 94.5596,0 129.5055,47.2798 135.6725,115.1161 z m 252.8443,10.2782 c 24.6676,-2.0557 47.2797,-10.2782 47.2797,-30.8346 0,-30.8347 -28.779,-30.8347 -49.3355,-32.8903 -39.0572,2.0556 -43.1684,16.4451 -49.3354,43.1684 h -78.1144 c 6.167,-74.0031 51.3911,-104.8377 131.5611,-104.8377 59.6137,0 125.3944,20.5564 125.3944,86.3369 v 178.841 c 0,16.4451 4.1112,22.6121 16.445,30.8347 v 12.3339 h -86.3369 c -4.1115,-12.3339 -4.1115,-24.6679 -6.1669,-34.946 -26.7235,26.7233 -55.5025,45.2241 -94.5596,45.2241 -57.5581,-2.0556 -94.5596,-30.8346 -94.5596,-90.4483 2.0555,-67.8361 43.1685,-94.5596 137.7281,-102.7821 z m 47.2797,37.0016 c -16.4453,10.2782 -37.0015,14.3894 -53.4467,16.4451 -32.8905,2.0556 -53.4468,12.3339 -53.4468,43.1685 2.0556,28.779 16.4452,39.0573 39.0574,39.0573 57.5578,-10.2783 74.0029,-32.8904 67.8361,-98.6709 z m 421.4067,-55.5024 v 203.5086 h -80.17 v -185.0078 c 2.0556,-34.9459 -10.2781,-59.6136 -49.3354,-59.6136 -49.3355,0 -61.6694,41.1128 -61.6694,80.17 v 164.4514 h -80.1701 v -302.1795 h 78.1145 v 43.1685 c 18.5008,-32.8902 47.2798,-51.391 90.4483,-51.391 57.558,2.0556 102.7821,22.612 102.7821,106.8934 z m 189.1191,-45.2241 c -32.8902,2.0556 -47.2797,12.3338 -51.3909,43.1684 h -76.0588 c 6.1669,-74.0031 51.3909,-104.8377 129.5053,-104.8377 47.2798,0 127.45,8.2225 127.45,94.5596 v 176.7852 c 2.0556,4.1113 0,16.4452 14.3894,26.7234 v 12.3338 h -84.2813 c -6.1669,-12.3338 -6.1669,-24.6676 -8.2225,-37.0015 -24.6677,28.779 -53.4468,45.2241 -92.504,47.2798 -53.4467,0 -94.5596,-32.8903 -94.5596,-90.4484 2.0557,-71.9475 43.1687,-88.3925 111.0048,-100.7265 32.8903,-2.0556 76.0589,-6.1669 76.0589,-32.8902 0,-32.8903 -26.7236,-32.8903 -51.3913,-34.9459 z m -4.1111,117.1716 c -22.6121,2.0556 -53.4468,10.2781 -53.4468,43.1685 0,32.8903 22.6121,37.0015 39.0573,39.0573 53.4467,-4.1114 69.8919,-28.7791 69.8919,-98.6709 -18.5009,10.2782 -39.0573,14.3894 -55.5024,16.4451 z m 263.1222,34.946 c 4.1114,43.1684 37.0017,45.224 63.725,45.224 26.7234,0 49.3353,-8.2225 49.3353,-28.779 2.0558,-28.7789 -47.2798,-28.7789 -92.5038,-43.1684 -43.1685,-10.2783 -94.5596,-26.7233 -92.5039,-86.337 4.1111,-78.1145 67.8361,-100.7265 125.3942,-100.7265 86.337,0 127.4498,34.9458 131.5612,98.6708 h -78.1145 c -4.1113,-28.779 -22.612,-39.0571 -53.4467,-39.0571 -32.8903,0 -49.3354,10.2781 -49.3354,24.6677 0,24.6676 24.6677,24.6676 94.5596,43.1684 57.5579,14.3896 92.5039,41.1129 94.5595,90.4483 -4.1112,78.1145 -59.6137,102.7822 -135.6725,102.7822 -86.337,0 -135.6723,-37.0017 -137.728,-106.8934 z M 502.15647,1740.6814 v 74.0032 H 3595.8992 v -74.0032 z m 0,540.6342 v 74.0031 H 3595.8992 v -74.0031 z"
     id="path2"
     inkscape:connector-curvature="0"
     style="stroke-width:20.55642891;fill:#e60014;fill-opacity:1"
     sodipodi:nodetypes="cscccsssccccssccccccccsccccccscccccscccccccsssccccsccccscccccccccccccssccccsccccscccsssccccccccccccscccssccccccscccssccccccccsccsccccscccsccssccscccccccccccc"
     inkscape:export-xdpi="12.403909"
     inkscape:export-ydpi="12.403909" />
  <path
     inkscape:connector-curvature="0"
     d="m 9648.2254,2353.331 c 25.4262,0 44.4959,-23.3074 44.4959,-48.7336 0,-25.4263 -19.0697,-46.6148 -44.4959,-46.6148 -25.4263,0 -46.6148,21.1885 -46.6148,46.6148 0,25.4262 21.1885,48.7336 46.6148,48.7336 z M 6525.0355,2162.6342 c 27.5451,-2.1189 50.8525,-10.5943 50.8525,-31.7828 0,-31.7828 -29.664,-31.7828 -50.8525,-33.9017 -40.2582,2.1189 -44.4959,16.9509 -52.9713,44.496 h -78.3976 c 6.3566,-93.2296 74.1599,-108.0616 131.3689,-108.0616 61.4468,0 131.3689,16.9509 131.3689,86.873 v 186.4591 c 0,16.9509 4.2377,23.3074 16.9508,31.7828 v 12.7131 h -88.9918 c -4.2377,-10.5942 -4.2377,-23.3073 -6.3566,-36.0205 -25.4262,27.5451 -59.3279,46.6148 -97.4672,46.6148 -57.2091,0 -97.4673,-31.7828 -97.4673,-93.2295 0,-91.1107 76.2788,-99.5861 141.9632,-105.9427 z m 52.9713,38.1394 c -33.9016,23.3073 -112.2992,8.4754 -112.2992,63.5656 2.1189,27.5451 14.832,38.1393 40.2582,38.1393 59.3279,-10.5942 74.1599,-27.5451 72.041,-101.7049 z m 593.279,-44.496 v 197.0534 h -82.6353 v -199.1722 c 0,-29.664 -21.1885,-50.8525 -46.6148,-50.8525 -42.377,6.3566 -48.7336,27.5451 -52.9713,63.5656 v 186.4591 h -82.6353 v -186.4591 c 2.1189,-36.0205 -8.4754,-63.5656 -44.4959,-63.5656 -52.9713,2.1189 -52.9713,27.5451 -52.9713,61.4468 v 188.5779 h -82.6353 v -311.4714 h 78.3975 v 44.4959 c 19.0697,-33.9017 44.496,-52.9714 88.9919,-52.9714 44.4959,0 67.8033,16.9509 84.7541,52.9714 21.1886,-38.1394 57.2091,-52.9714 95.3484,-52.9714 80.5165,6.3566 101.705,61.4468 97.4673,122.8935 z m 131.3689,61.4468 c 0,48.7336 27.5451,78.3976 69.9222,78.3976 29.6639,-2.1189 46.6148,-14.832 55.0902,-36.0205 h 82.6353 c -10.5943,55.0901 -63.5656,101.7049 -139.8444,101.7049 -27.5451,0 -150.4385,-8.4754 -150.4385,-163.1517 0,-120.7746 72.041,-165.2706 146.2008,-165.2706 78.3976,0 148.3198,38.1394 146.2009,184.3403 z m 2.1189,-52.9713 h 127.1312 c 0,-36.0206 -27.5451,-65.6845 -63.5656,-65.6845 -44.4959,0 -59.3279,31.7828 -61.4467,65.6845 z m 442.8403,-131.369 v 82.6353 c -44.4959,-2.1188 -99.5861,-6.3565 -99.5861,86.873 v 148.3197 h -80.5164 v -311.4714 h 76.2787 v 55.0902 c 29.664,-52.9713 59.3279,-63.5656 101.705,-61.4468 z m 48.7337,6.3566 h 82.6352 v 311.4714 h -82.6352 z m 347.4919,112.2992 c -6.3566,-36.0205 -27.5451,-50.8524 -52.9713,-50.8524 -57.2091,0 -63.5656,55.0901 -63.5656,99.5861 0,59.3279 19.0697,93.2295 61.4467,93.2295 38.1394,-2.1188 46.6148,-14.832 55.0902,-55.0902 h 82.6353 c -10.5943,74.1599 -59.3279,122.8935 -139.8443,122.8935 -99.5861,-2.1188 -144.0821,-61.4467 -144.0821,-161.0328 0,-112.2993 57.2091,-167.3895 146.2009,-169.5083 97.4673,0 133.4878,48.7336 139.8443,118.6558 z m 260.619,10.5943 c 25.4262,-2.1189 48.7336,-10.5943 48.7336,-31.7828 0,-31.7828 -29.664,-31.7828 -50.8525,-33.9017 -40.2582,2.1189 -44.4959,16.9509 -50.8525,44.496 h -80.5164 c 6.3566,-76.2788 52.9713,-108.0616 135.6066,-108.0616 61.4468,0 129.2501,21.1886 129.2501,88.9919 v 184.3402 c 0,16.9509 4.2377,23.3074 16.9508,31.7828 v 12.7131 h -88.9918 c -4.2377,-12.7131 -4.2377,-25.4262 -6.3566,-36.0205 -27.5451,27.5451 -57.209,46.6148 -97.4673,46.6148 -59.3278,-2.1188 -97.4672,-31.7828 -97.4672,-93.2295 2.1188,-69.9222 44.4959,-97.4673 141.9632,-105.9427 z m 48.7336,38.1394 c -16.9508,10.5942 -38.1394,14.8319 -55.0902,16.9508 -33.9016,2.1188 -55.0902,12.7131 -55.0902,44.4959 2.1189,29.664 16.9508,40.2582 40.2582,40.2582 59.3279,-10.5942 76.2788,-33.9016 69.9222,-101.7049 z m 434.3649,-57.2091 v 209.7665 h -82.6353 v -190.6968 c 2.1189,-36.0205 -10.5942,-61.4467 -50.8524,-61.4467 -50.8525,0 -63.5656,42.377 -63.5656,82.6352 v 169.5083 h -82.6353 v -311.4714 h 80.5164 v 44.4959 c 19.0697,-33.9017 48.7336,-52.9714 93.2296,-52.9714 59.3279,2.1189 105.9426,23.3074 105.9426,110.1804 z m 194.9345,-46.6148 c -33.9016,2.1189 -48.7336,12.7132 -52.9713,44.496 h -78.3976 c 6.3566,-76.2788 52.9714,-108.0616 133.4878,-108.0616 48.7336,0 131.3689,8.4755 131.3689,97.4673 v 182.2214 c 2.1188,4.2377 0,16.9508 14.832,27.5451 v 12.7131 h -86.873 c -6.3566,-12.7131 -6.3566,-25.4262 -8.4754,-38.1394 -25.4263,29.664 -55.0902,46.6148 -95.3484,48.7337 -55.0902,0 -97.4673,-33.9017 -97.4673,-93.2296 2.1189,-74.1598 44.4959,-91.1107 114.4181,-103.8238 33.9016,-2.1188 78.3976,-6.3566 78.3976,-33.9016 0,-33.9017 -27.5451,-33.9017 -52.9714,-36.0206 z m -4.2377,120.7747 c -23.3074,2.1188 -55.0902,10.5943 -55.0902,44.4959 0,33.9017 23.3074,38.1394 40.2583,40.2582 55.0901,-4.2377 72.041,-29.6639 72.041,-101.7049 -19.0697,10.5942 -40.2582,14.8319 -57.2091,16.9508 z m 271.2133,36.0205 c 4.2377,44.4959 38.1393,46.6148 65.6844,46.6148 27.5451,0 50.8525,-8.4754 50.8525,-29.664 2.1188,-29.6639 -48.7336,-29.6639 -95.3484,-44.4959 -44.4959,-10.5943 -97.4673,-27.5451 -95.3484,-88.9918 4.2377,-80.5165 69.9221,-103.8239 129.25,-103.8239 88.9919,0 131.3689,36.0206 135.6067,101.705 h -80.5165 c -4.2377,-29.6639 -23.3074,-40.2582 -55.0902,-40.2582 -33.9016,0 -50.8524,10.5943 -50.8524,25.4262 0,25.4263 25.4262,25.4263 97.4672,44.496 59.3279,14.8319 95.3484,42.377 97.4673,93.2295 -4.2377,80.5164 -61.4468,105.9427 -139.8444,105.9427 -88.9918,0 -139.8443,-38.1394 -141.9631,-110.1804 z m 586.9223,-99.5861 c -4.2377,-31.7828 -19.0697,-50.8525 -52.9713,-50.8525 -55.0902,0 -63.5656,52.9713 -63.5656,99.5861 -2.1189,42.3771 12.7131,93.2296 61.4467,93.2296 42.3771,0 48.7337,-25.4263 55.0902,-55.0902 h 82.6356 c -8.476,74.1598 -57.2093,122.8935 -137.7258,122.8935 -114.418,0 -146.2008,-80.5165 -146.2008,-161.0329 0,-97.4672 46.6147,-169.5083 146.2008,-169.5083 99.5861,0 133.4878,48.7337 139.8448,118.6558 z m 279.6886,209.7665 c -112.299,0 -158.914,-78.3976 -158.914,-165.2706 2.119,-69.9222 36.021,-165.2706 158.914,-165.2706 125.012,0 156.795,97.4673 156.795,165.2706 -2.119,93.2296 -50.852,165.2706 -156.795,165.2706 z m 72.041,-165.2706 c 0,-50.8525 -14.832,-97.4672 -72.041,-97.4672 -59.328,0 -74.16,55.0901 -74.16,97.4672 0,50.8525 19.07,97.4673 74.16,97.4673 57.209,0 72.041,-55.0902 72.041,-97.4673 z m 586.923,-52.9713 v 207.6476 h -82.636 v -197.0534 c 0,-29.6639 -14.832,-50.8524 -46.615,-50.8524 -40.258,0 -50.852,29.6639 -52.971,61.4467 v 186.4591 h -82.635 v -186.4591 c 2.119,-33.9016 -6.357,-61.4467 -44.496,-61.4467 -48.734,0 -52.971,27.5451 -52.971,61.4467 v 186.4591 h -82.636 v -309.3526 h 78.398 v 44.4959 c 21.188,-33.9016 44.496,-52.9713 88.992,-52.9713 55.09,0 69.922,21.1885 84.754,52.9713 23.307,-36.0205 50.852,-52.9713 95.348,-52.9713 25.426,0 97.468,10.5943 97.468,110.1804 z M 6385.1912,1878.7079 v 76.2787 h 3188.8743 v -76.2787 z m 0,557.2584 v 76.2787 h 3188.8743 v -76.2787 z"
     id="path2-6"
     style="stroke-width:21.18853378;fill:#e60014;fill-opacity:1"
     inkscape:export-xdpi="8.5485888"
     inkscape:export-ydpi="8.5485888" />
</svg>
