<svg width="232" height="46" viewBox="0 0 232 46" fill="none" xmlns="http://www.w3.org/2000/svg">
<g clip-path="url(#clip0_12_144)">
<path d="M10.3214 20.6154C12.324 20.4615 14.0186 19.8462 14.0186 18.3077C14.0186 16 11.8619 16 10.3214 15.8462C7.39442 16 7.08632 17.0769 6.47012 19.0769H0.770251C1.2324 12.3077 6.16202 11.2308 10.3214 11.2308C14.7888 11.2308 19.8725 12.4615 19.8725 17.5385V31.0769C19.8725 32.3077 20.1806 32.7692 21.1049 33.3846V34.3077H14.6348C14.3267 33.5385 14.3267 32.6154 14.1726 31.6923C12.324 33.6923 9.85923 35.0769 7.08632 35.0769C2.92696 35.0769 0 32.7692 0 28.3077C0 21.6923 5.54581 21.0769 10.3214 20.6154ZM14.1726 23.3846C11.7078 25.0769 6.00797 24 6.00797 28C6.16202 30 7.08632 30.7692 8.93492 30.7692C13.2483 30 14.3267 28.7692 14.1726 23.3846ZM57.3068 20.1539V34.4615H51.2988V20C51.2988 17.8462 49.7583 16.3077 47.9097 16.3077C44.8287 16.7692 44.3665 18.3077 44.0584 20.9231V34.4615H38.0505V20.9231C38.2045 18.3077 37.4343 16.3077 34.8154 16.3077C30.9641 16.4615 30.9641 18.3077 30.9641 20.7692V34.4615H24.9562V11.8462H30.656V15.0769C32.0425 12.6154 33.8911 11.2308 37.1262 11.2308C40.3612 11.2308 42.0558 12.4615 43.2882 15.0769C44.8287 12.3077 47.4475 11.2308 50.2205 11.2308C56.0744 11.6923 57.6149 15.6923 57.3068 20.1539ZM66.8579 24.6154C66.8579 28.1538 68.8606 30.3077 71.9416 30.3077C74.0983 30.1538 75.3307 29.2308 75.9469 27.6923H81.9548C81.1846 31.6923 77.3333 35.0769 71.7875 35.0769C69.7849 35.0769 60.8499 34.4615 60.8499 23.2308C60.8499 14.4615 66.0876 11.2308 71.4794 11.2308C77.1793 11.2308 82.2629 14 82.1089 24.6154H66.8579ZM67.0119 20.7692H76.255C76.255 18.1539 74.2523 16 71.6335 16C68.3984 16 67.3201 18.3077 67.166 20.7692H67.0119ZM99.2085 11.2308V17.2308C95.9734 17.0769 91.9681 16.7692 91.9681 23.5385V34.3077H86.1142V11.6923H91.66V15.6923C93.8167 11.8462 95.9734 11.0769 99.0544 11.2308H99.2085ZM102.752 11.6923H108.76V34.3077H102.752V11.6923ZM128.016 19.8462C127.554 17.2308 126.013 16.1539 124.165 16.1539C120.005 16.1539 119.543 20.1539 119.543 23.3846C119.543 27.6923 120.93 30.1538 124.011 30.1538C126.784 30 127.4 29.0769 128.016 26.1538H134.024C133.254 31.5385 129.71 35.0769 123.857 35.0769C116.616 34.9231 113.381 30.6154 113.381 23.3846C113.381 15.2308 117.54 11.2308 124.011 11.0769C131.097 11.0769 133.716 14.6154 134.178 19.6923L128.016 19.8462ZM146.964 20.6154C148.813 20.4615 150.507 19.8462 150.507 18.3077C150.507 16 148.351 16 146.81 15.8462C143.883 16 143.575 17.0769 143.113 19.0769H137.259C137.721 13.5385 141.11 11.2308 147.118 11.2308C151.586 11.2308 156.515 12.7692 156.515 17.6923V31.0769C156.515 32.3077 156.823 32.7692 157.748 33.3846V34.3077H151.278C150.969 33.3846 150.969 32.4615 150.815 31.6923C148.813 33.6923 146.656 35.0769 143.729 35.0769C139.416 34.9231 136.643 32.7692 136.643 28.3077C136.797 23.2308 139.878 21.2308 146.964 20.6154ZM150.507 23.3846C149.275 24.1538 147.734 24.4615 146.502 24.6154C144.037 24.7692 142.497 25.5385 142.497 27.8461C142.651 30 143.729 30.7692 145.424 30.7692C149.737 30 150.969 28.3077 150.507 23.3846ZM182.088 19.2308V34.4615H176.08V20.6154C176.234 18 175.309 16.1539 172.382 16.1539C168.685 16.1539 167.761 19.2308 167.761 22.1538V34.4615H161.753V11.8462H167.607V15.0769C168.993 12.6154 171.15 11.2308 174.385 11.2308C178.699 11.3846 182.088 12.9231 182.088 19.2308ZM196.26 15.8462C193.795 16 192.717 16.7692 192.409 19.0769H186.709C187.171 13.5385 190.56 11.2308 196.414 11.2308C199.957 11.2308 205.965 11.8462 205.965 18.3077V31.5385C206.12 31.8462 205.965 32.7692 207.044 33.5385V34.4615H200.728C200.266 33.5385 200.266 32.6154 200.112 31.6923C198.263 33.8462 196.106 35.0769 193.179 35.2308C189.174 35.2308 186.093 32.7692 186.093 28.4615C186.247 23.0769 189.328 21.8462 194.412 20.9231C196.876 20.7692 200.112 20.4615 200.112 18.4615C200.112 16 198.109 16 196.26 15.8462ZM195.952 24.6154C194.258 24.7692 191.947 25.3846 191.947 27.8461C191.947 30.3077 193.641 30.6154 194.874 30.7692C198.879 30.4615 200.112 28.6154 200.112 23.3846C198.725 24.1538 197.185 24.4615 195.952 24.6154ZM215.671 27.2308C215.979 30.4615 218.444 30.6154 220.446 30.6154C222.449 30.6154 224.143 30 224.143 28.4615C224.297 26.3077 220.6 26.3077 217.211 25.2308C213.976 24.4615 210.125 23.2308 210.279 18.7692C210.587 12.9231 215.363 11.2308 219.676 11.2308C226.146 11.2308 229.227 13.8461 229.535 18.6154H223.681C223.373 16.4615 221.987 15.6923 219.676 15.6923C217.211 15.6923 215.979 16.4615 215.979 17.5385C215.979 19.3846 217.827 19.3846 223.065 20.7692C227.378 21.8462 229.997 23.8462 230.151 27.5385C229.843 33.3846 225.684 35.2308 219.984 35.2308C213.514 35.2308 209.817 32.4615 209.663 27.2308H215.671ZM0.15405 0V5.53846H232V0H0.15405ZM0.15405 40.4616V46H232V40.4616H0.15405Z" fill="#E60014"/>
</g>
<defs>
<clipPath id="clip0_12_144">
<rect width="232" height="46" fill="white" transform="matrix(-1 0 0 -1 232 46)"/>
</clipPath>
</defs>
</svg>
