<svg width="188" height="34" viewBox="0 0 188 34" fill="none" xmlns="http://www.w3.org/2000/svg">
<g clip-path="url(#clip0_12_147)">
<path d="M112.996 16.6765C113.901 16.3905 114.686 15.8203 115.232 15.0528C115.778 14.2853 116.054 13.3628 116.018 12.4261C116.018 9.47254 113.639 7.6228 109.749 7.6228H101.295V26.3923H110.028C114.255 26.3923 116.942 24.3203 116.942 21.2584C116.992 20.1446 116.613 19.0534 115.881 18.2036C115.149 17.3538 114.118 16.8083 112.996 16.6765ZM103.955 9.94156H109.47C112.017 9.94156 113.472 11.0181 113.472 12.7567C113.472 14.6337 111.988 15.7931 109.27 15.7931H103.956L103.955 9.94156ZM109.917 24.0735H103.956V18.1401H110.002C112.689 18.1401 114.312 19.1337 114.312 20.9552C114.312 22.7211 112.742 24.0735 109.917 24.0735Z" fill="#E71A3B"/>
<path d="M127.38 7.51257L118.899 26.3923H121.754L123.88 21.5617H133.397L135.524 26.3923H138.379L129.898 7.51257H127.38ZM124.944 19.1327L128.639 10.6865L132.334 19.1327H124.944Z" fill="#E71A3B"/>
<path d="M154.784 15.9305H144.29V7.62183H141.631V26.3913H144.29V18.3604H154.786V26.3923H157.469V7.62275H154.782L154.784 15.9305Z" fill="#E71A3B"/>
<path d="M165.407 7.6228H162.748V26.3923H165.407V7.6228Z" fill="#E71A3B"/>
<path d="M179.595 7.51257H177.071L168.59 26.3923H171.444L173.571 21.5617H183.088L185.215 26.3923H188.07L179.595 7.51257ZM174.64 19.1327L178.335 10.6865L182.03 19.1327H174.64Z" fill="#E71A3B"/>
<path d="M28.0175 7.51257L19.9282 26.3923H24.9661L26.2258 23.1628H34.2873L35.5747 26.3923H40.6126L32.552 7.51257H28.0175ZM27.793 19.1911L30.2561 12.9535L32.7191 19.1911H27.793Z" fill="#0033C6"/>
<path d="M52.2842 15.2966L49.6253 14.6892C48.1145 14.3859 47.3332 13.916 47.3332 12.8404C47.3332 11.6255 48.4248 10.9087 50.1029 10.9087C50.8605 10.8365 51.6162 11.0637 52.2041 11.5405C52.7919 12.0173 53.1639 12.7046 53.2383 13.4516H57.9963C57.5188 8.40067 52.9346 7.21399 49.8517 7.21399C45.3735 7.21399 42.2944 9.58735 42.2944 13.3414C42.2944 16.3223 44.0574 18.0063 47.8079 18.804L50.9424 19.4633C52.5936 19.7675 52.9575 20.4569 52.9575 21.119C52.9575 22.1682 51.9499 22.8303 50.27 22.8303C48.0314 22.8303 46.6036 21.7538 46.2951 20.099H41.5361C41.984 24.7365 45.8463 26.7784 50.1315 26.7784C54.8896 26.7784 58.024 24.4323 58.024 20.6782C58.0221 17.4497 55.7825 16.0416 52.2842 15.2966Z" fill="#0033C6"/>
<path d="M67.3234 7.51257L59.2341 26.3923H64.272L65.5317 23.1628H73.5923L74.8797 26.3923H79.9176L71.856 7.51257H67.3234ZM67.0999 19.1911L69.5629 12.9535L72.026 19.1911H67.0999Z" fill="#0033C6"/>
<path d="M91.589 15.2966L88.9302 14.6892C87.4184 14.3859 86.6381 13.916 86.6381 12.8404C86.6381 11.6255 87.7297 10.9087 89.4077 10.9087C90.1653 10.8365 90.921 11.0637 91.5089 11.5405C92.0968 12.0173 92.4687 12.7046 92.5432 13.4516H97.2955C96.8179 8.40067 92.2337 7.21399 89.1508 7.21399C84.6726 7.21399 81.5935 9.58735 81.5935 13.3414C81.5935 16.3223 83.3566 18.0063 87.107 18.804L90.2425 19.4633C91.8937 19.7675 92.2576 20.4569 92.2576 21.119C92.2576 22.1682 91.25 22.8303 89.5701 22.8303C87.3314 22.8303 85.9037 21.7538 85.5962 20.099H80.8381C81.2861 24.7365 85.1483 26.7784 89.4335 26.7784C94.1916 26.7784 97.326 24.4323 97.326 20.6782C97.327 17.4497 95.0874 16.0416 91.589 15.2966Z" fill="#0033C6"/>
<path d="M14.6822 18.6081C14.515 19.704 13.9418 20.6998 13.0734 21.4033C12.2051 22.1067 11.1031 22.4678 9.98053 22.4168C8.56522 22.3586 7.22749 21.7631 6.24695 20.755C5.2664 19.7468 4.71893 18.4039 4.71893 17.007C4.71893 15.6101 5.2664 14.2672 6.24695 13.259C7.22749 12.2509 8.56522 11.6554 9.98053 11.5972C11.1031 11.5462 12.2051 11.9073 13.0734 12.6107C13.9418 13.3142 14.515 14.31 14.6822 15.4059L19.4298 14.6619C19.0357 12.5097 17.8639 10.5713 16.1316 9.20589C14.3993 7.84044 12.2238 7.14045 10.0082 7.23562C8.69289 7.21356 7.38628 7.45002 6.16458 7.93115C4.94288 8.41228 3.83054 9.12847 2.89245 10.038C1.95437 10.9475 1.20929 12.032 0.7007 13.2285C0.19211 14.4249 -0.0698242 15.7092 -0.0698242 17.0065C-0.0698242 18.3038 0.19211 19.5881 0.7007 20.7846C1.20929 21.981 1.95437 23.0656 2.89245 23.9751C3.83054 24.8846 4.94288 25.6008 6.16458 26.0819C7.38628 26.5631 8.69289 26.7995 10.0082 26.7774C12.2262 26.8725 14.4038 26.1708 16.1369 24.8024C17.8699 23.4341 19.0406 21.4922 19.4317 19.3371L14.7519 18.6043L14.6822 18.6081Z" fill="#0033C6"/>
</g>
<defs>
<clipPath id="clip0_12_147">
<rect width="188" height="34" fill="white"/>
</clipPath>
</defs>
</svg>
