<svg xmlns="http://www.w3.org/2000/svg" xmlns:xlink="http://www.w3.org/1999/xlink" viewBox="0 0 1392.92 207.85"><defs><style>.cls-1{fill:#371e56;}.cls-2{fill:#2bc4c3;}.cls-3{fill:url(#linear-gradient);}</style><linearGradient id="linear-gradient" x1="92.42" y1="228.32" x2="150.4" y2="99.02" gradientUnits="userSpaceOnUse"><stop offset="0.29" stop-color="#0c9898"/><stop offset="1" stop-color="#2bc4c3"/></linearGradient></defs><g id="Layer_2" data-name="Layer 2"><g id="VariacoesDeLogo"><path class="cls-1" d="M182.64,70.22a35.11,35.11,0,1,0-35.11-35.11,35.11,35.11,0,0,0,35.11,35.11"/><path class="cls-2" d="M146.11,173.77a79.37,79.37,0,0,1-77.46-62.15,41.45,41.45,0,0,1-1.89-12.37V51.8A33.38,33.38,0,0,0,0,51.8V97.6c0,60.77,49.49,110.72,110.24,109.51a108,108,0,0,0,93.88-58.58A79.12,79.12,0,0,1,146.11,173.77Z"/><path class="cls-3" d="M216.07,97.91a9.61,9.61,0,0,0-9.61-9.61H158.79a9.61,9.61,0,0,0-9.61,9.61v1.34a41.22,41.22,0,0,1-80.53,12.37,79.32,79.32,0,0,0,135.47,36.91A107.67,107.67,0,0,0,216.07,99.1Z"/><path class="cls-1" d="M627.93,39.5c-6,.2-10.68,4.27-10.68,10.48s4.66,10.48,10.68,10.48c6.2,0,10.86-4.27,10.86-10.48S634.13,39.5,627.93,39.5Z"/><path class="cls-1" d="M701.88,77.34c-16.29,0-27.93,8.34-33,18.43L668.51,82a2.9,2.9,0,0,0-3.1-2.91H660A2.75,2.75,0,0,0,657.07,82v83.42a2.75,2.75,0,0,0,2.91,2.91h8.14a2.75,2.75,0,0,0,2.91-2.91v-50c1.36-12.22,10.68-25.42,28.52-25.42,16.49-.19,27.55,11.84,27.55,30.66v44.81a2.75,2.75,0,0,0,2.91,2.91h8a2.75,2.75,0,0,0,2.91-2.91V118.85C740.88,93.83,725.16,77.34,701.88,77.34Z"/><path class="cls-1" d="M866.28,77.34c-26.78,0-45,20.17-45,46.36,0,26.78,19.79,46.37,47.34,46.37,15.52,0,25.42-4.85,32.4-9.89a2.84,2.84,0,0,0,.58-4.08l-3.3-5.24c-1-1.74-2.32-1.74-3.88-.58a40.16,40.16,0,0,1-24.44,8c-19.21,0-33.37-12.42-35.31-30.27h70a2.8,2.8,0,0,0,3.1-2.91V122C907.79,95.38,890.72,77.34,866.28,77.34Zm28.32,39.38H835c2.71-16.49,14.94-27.55,31.62-27.55,14.94,0,26.58,10.67,27.94,27.16Z"/><path class="cls-1" d="M1005.89,79.08h-6.21A2.75,2.75,0,0,0,996.77,82l-.39,13.19c-6.21-9.7-18-17.84-35.51-17.84C936.62,77.34,918,97.12,918,123.7s19,46.37,43.26,46.37c15.52,0,26.78-7,33.76-16.49V165c0,17.46-12.42,30.84-33.95,30.84a57.44,57.44,0,0,1-29.88-8c-1.74-1-3.1-.78-4.07,1l-3.3,5.43c-1,1.75-.58,3.11,1,4.08,8,4.85,19.21,9.5,37.05,9.5,30.46,0,47-19.2,47-44.43V82A2.91,2.91,0,0,0,1005.89,79.08Zm-42.3,78.38c-17.46,0-31.82-14.36-31.82-33.76s14.36-33.76,31.82-33.76c19.21,0,32.21,14.36,32.21,33.76C995.8,143.3,982.8,157.46,963.59,157.46Z"/><path class="cls-1" d="M1284.51,50h-7.57a2.75,2.75,0,0,0-2.91,2.91V95.18c-6.18-10-18-17.84-34.73-17.84-24.25,0-42.87,19.78-42.87,46.36s19,46.37,43.26,46.37c16.68,0,28.52-7.76,35.31-18l.39,13.38a2.75,2.75,0,0,0,2.91,2.91h6.21a2.75,2.75,0,0,0,2.91-2.91V52.89A2.75,2.75,0,0,0,1284.51,50ZM1242,157.46c-17.46,0-31.82-14.36-31.82-33.76s14.36-33.76,31.82-33.76c19.21,0,32.2,14.36,32.2,33.76C1274.22,143.3,1261.23,157.46,1242,157.46Z"/><path class="cls-1" d="M1390,79.08h-6.21a2.75,2.75,0,0,0-2.91,2.91l-.43,13.19c-6-9.8-18.19-17.84-35.65-17.84-24.26,0-42.88,19.78-42.88,46.36s19,46.37,43.26,46.37c16.69,0,28.52-7.57,35.31-17.85l.39,13.19a2.75,2.75,0,0,0,2.91,2.91H1390a2.75,2.75,0,0,0,2.91-2.91V82A2.75,2.75,0,0,0,1390,79.08Zm-42.49,78.38c-17.46,0-31.81-14.36-31.81-33.76s14.35-33.76,31.81-33.76c19.21,0,32.21,14.36,32.21,33.76C1379.68,143.3,1366.68,157.46,1347.47,157.46Z"/><rect class="cls-1" x="621.33" y="79.08" width="13.78" height="89.24" rx="2.91"/><path class="cls-1" d="M1176.83,79.08h-6.21a2.75,2.75,0,0,0-2.91,2.91l-.39,13c-6.2-9.7-18.23-17.65-35.69-17.65-24.25,0-42.88,19.78-42.88,46.36s19,46.37,43.26,46.37c16.69,0,28.52-7.57,35.31-17.85l.39,13.19a2.75,2.75,0,0,0,2.91,2.91h6.21a2.75,2.75,0,0,0,2.91-2.91V82A2.75,2.75,0,0,0,1176.83,79.08Zm-42.49,78.38c-17.46,0-31.81-14.36-31.81-33.76s14.35-33.76,31.81-33.76c19.21,0,32.21,14.36,32.21,33.76C1166.55,143.3,1153.55,157.46,1134.34,157.46Z"/><path class="cls-1" d="M1085.82,82c-5.14-3.06-11.92-4.36-19.32-3.62-10.11,1-18.69,6-22.94,16.78h0L1043,82a2.91,2.91,0,0,0-3.1-2.91h-6.21a2.91,2.91,0,0,0-2.91,2.91v83.42a2.91,2.91,0,0,0,2.91,2.91h7.95a2.91,2.91,0,0,0,2.91-2.91v-49c1.06-13.73,7.56-25,21.84-27.21A24.48,24.48,0,0,1,1080,91.47a2.92,2.92,0,0,0,3.76-.92l3-4.37A2.92,2.92,0,0,0,1085.82,82Z"/><path class="cls-1" d="M815.66,154c-1.13-1.79-2.27-2.41-3.78-1.19-3.46,2.79-9.43,6.13-16.82,4.75-9.65-1.8-16.37-10.7-16.37-20.52V90.33h29.59a2.89,2.89,0,0,0,2.63-1.66l2.58-5.43a2.91,2.91,0,0,0-2.63-4.16H778.69V52.89A2.91,2.91,0,0,0,775.78,50h-7.56a2.91,2.91,0,0,0-2.91,2.91V79.08H749.78a2.9,2.9,0,0,0-2.9,2.91v5.43a2.91,2.91,0,0,0,2.91,2.91h15.32v48.89c0,19.79,13.19,30.85,31.24,30.85,12.51,0,19.89-5.46,21.79-7.18a2.89,2.89,0,0,0,.74-3.8C818.14,157.92,817.62,157.07,815.66,154Z"/><path class="cls-1" d="M594.68,79.08H579.22a4.5,4.5,0,0,0-4.35,3.35l-1.53,5.75c-6.55-7.46-14.73-10.84-26.14-10.84-24.78,0-43.47,19.9-43.47,46.3s18.44,46.3,42.9,46.3a37.23,37.23,0,0,0,27.84-11.83l.39,5.72a4.47,4.47,0,0,0,4.87,4.41h14.95c2.84,0,4.68-1.77,4.68-4.5V83.58C599.36,80.85,597.52,79.08,594.68,79.08Zm-26.35,61.18c-4.1,4.16-9.77,6.36-16.39,6.36-12.87,0-22.58-9.88-22.58-23s9.71-23,22.58-23c13.5,0,22.57,9.24,22.57,23A22.83,22.83,0,0,1,568.33,140.26Z"/><path class="cls-1" d="M395.59,77.36c-26.77,0-48.3,20-48.3,46.36s21.53,46.35,48.3,46.35,48.29-20,48.29-46.35S422.35,77.36,395.59,77.36Zm0,69.63c-12.81,0-22.7-10.28-22.7-23.27,0-12.81,9.89-23.28,22.7-23.28,13,0,22.69,10.47,22.69,23.28C418.28,136.71,408.58,147,395.59,147Z"/><path class="cls-1" d="M484.07,79.08H456.74a4.51,4.51,0,0,0-4.5,4.5V93.83a4.51,4.51,0,0,0,4.5,4.5h6v70.61A13.09,13.09,0,0,1,449.69,182a2.83,2.83,0,0,0-2.83,2.83V205a2.83,2.83,0,0,0,2.82,2.83h0a38.89,38.89,0,0,0,38.88-38.89V83.58A4.5,4.5,0,0,0,484.07,79.08Z"/><path class="cls-1" d="M475.41,34.88c-8.74.18-15.47,6.18-15.47,15.1s6.73,15.1,15.47,15.1c8.91,0,15.83-6.19,15.83-15.1S484.32,34.88,475.41,34.88Z"/><path class="cls-1" d="M338.55,146.12a3.57,3.57,0,0,0-3.89-2.14,15.63,15.63,0,0,1-3.51.3c-7.38-.6-11.69-5.86-11.69-13.09V54.48A4.5,4.5,0,0,0,315,50H298.16a4.5,4.5,0,0,0-4.5,4.5v76.71c0,22.73,16.21,38.89,38.89,38.89a34.51,34.51,0,0,0,10-1.55,4.51,4.51,0,0,0,2.83-6.06Z"/></g></g></svg>