<svg xmlns="http://www.w3.org/2000/svg" xmlns:xlink="http://www.w3.org/1999/xlink" version="1.1" style="shape-rendering:geometricPrecision; text-rendering:geometricPrecision; image-rendering:optimizeQuality; fill-rule:evenodd; clip-rule:evenodd" viewBox="91.89 95.41 1268.83 208.02">
<g><path style="opacity:0.961" fill="#2b3357" d="M 266.5,95.5 C 315.374,93.8432 350.541,114.843 372,158.5C 387.594,200.189 380.927,237.855 352,271.5C 318.61,303.046 280.11,311.213 236.5,296C 224.286,290.604 213.286,283.438 203.5,274.5C 163.395,287.937 130.562,277.937 105,244.5C 85.4398,209.892 87.7732,176.892 112,145.5C 138.012,119.329 168.512,112.329 203.5,124.5C 221.418,108.039 242.418,98.3728 266.5,95.5 Z M 268.5,119.5 C 306.372,118.341 333.539,134.674 350,168.5C 362.521,204.248 355.021,235.081 327.5,261C 298.879,282.499 268.545,285.166 236.5,269C 210.804,253.096 197.471,229.93 196.5,199.5C 188.5,199.5 180.5,199.5 172.5,199.5C 172.279,219.118 177.279,237.285 187.5,254C 153.254,260.435 130.087,247.269 118,214.5C 112.245,182.509 124.078,159.676 153.5,146C 178.407,138.351 199.574,144.185 217,163.5C 225.708,174.26 229.875,186.594 229.5,200.5C 237.5,200.5 245.5,200.5 253.5,200.5C 253.779,175.235 244.446,154.402 225.5,138C 238.224,127.968 252.557,121.802 268.5,119.5 Z"/></g>
<g><path style="opacity:0.967" fill="#2b3357" d="M 1054.5,130.5 C 1062.17,130.5 1069.83,130.5 1077.5,130.5C 1077.33,145.17 1077.5,159.837 1078,174.5C 1081.69,169.487 1086.52,165.987 1092.5,164C 1108.8,159.364 1122.63,163.198 1134,175.5C 1136.84,180.172 1138.84,185.172 1140,190.5C 1140.5,212.831 1140.67,235.164 1140.5,257.5C 1133.17,257.5 1125.83,257.5 1118.5,257.5C 1118.93,237.46 1118.43,217.46 1117,197.5C 1114.43,188.129 1108.27,183.462 1098.5,183.5C 1087.59,184.239 1080.76,189.906 1078,200.5C 1077.5,219.497 1077.33,238.497 1077.5,257.5C 1069.83,257.5 1062.17,257.5 1054.5,257.5C 1054.5,215.167 1054.5,172.833 1054.5,130.5 Z"/></g>
<g><path style="opacity:0.966" fill="#2b3357" d="M 479.5,162.5 C 502.427,159.192 516.927,168.525 523,190.5C 523.5,212.831 523.667,235.164 523.5,257.5C 516.167,257.5 508.833,257.5 501.5,257.5C 501.939,237.454 501.439,217.454 500,197.5C 497.435,188.129 491.268,183.462 481.5,183.5C 470.619,184.21 463.785,189.876 461,200.5C 460.5,219.497 460.333,238.497 460.5,257.5C 452.833,257.5 445.167,257.5 437.5,257.5C 437.5,226.5 437.5,195.5 437.5,164.5C 445.167,164.5 452.833,164.5 460.5,164.5C 460.335,167.85 460.502,171.183 461,174.5C 463.425,170.866 466.592,168.032 470.5,166C 473.571,164.704 476.571,163.538 479.5,162.5 Z"/></g>
<g><path style="opacity:0.95" fill="#2b3357" d="M 758.5,162.5 C 796.74,161.406 815.406,180.073 814.5,218.5C 790.833,218.5 767.167,218.5 743.5,218.5C 746.86,231.878 755.526,239.211 769.5,240.5C 779.727,239.759 787.56,235.092 793,226.5C 799.259,229.38 805.426,232.38 811.5,235.5C 799.583,254.953 782.249,262.787 759.5,259C 736.778,254.416 723.944,240.583 721,217.5C 719.155,189.145 731.655,170.811 758.5,162.5 Z M 761.5,181.5 C 777.637,179.221 787.637,185.887 791.5,201.5C 775.486,201.833 759.486,201.499 743.5,200.5C 746.822,191.514 752.822,185.181 761.5,181.5 Z"/></g>
<g><path style="opacity:0.96" fill="#2b3357" d="M 865.5,162.5 C 880.854,159.853 892.854,164.853 901.5,177.5C 911.555,165.089 924.555,160.256 940.5,163C 953.741,166.576 961.908,175.076 965,188.5C 966.4,211.471 966.9,234.471 966.5,257.5C 958.833,257.5 951.167,257.5 943.5,257.5C 943.941,236.788 943.441,216.121 942,195.5C 936.874,183.527 928.374,180.36 916.5,186C 912.072,189.092 909.239,193.259 908,198.5C 906.59,218.13 906.09,237.797 906.5,257.5C 899.167,257.5 891.833,257.5 884.5,257.5C 884.927,237.126 884.427,216.793 883,196.5C 879.716,185.772 872.549,181.605 861.5,184C 854.903,186.667 850.737,191.5 849,198.5C 847.562,218.12 847.062,237.787 847.5,257.5C 839.833,257.5 832.167,257.5 824.5,257.5C 824.5,226.5 824.5,195.5 824.5,164.5C 832.167,164.5 839.833,164.5 847.5,164.5C 847.335,167.85 847.502,171.183 848,174.5C 852.429,168.375 858.262,164.375 865.5,162.5 Z"/></g>
<g><path style="opacity:0.95" fill="#2b3357" d="M 1001.5,162.5 C 1016.33,160.386 1028.83,164.719 1039,175.5C 1040.75,178.005 1042.25,180.671 1043.5,183.5C 1037.82,187.341 1031.82,190.674 1025.5,193.5C 1022.64,188.474 1018.64,184.641 1013.5,182C 1006.36,180.142 1001.36,182.476 998.5,189C 999.361,191.868 1001.03,194.202 1003.5,196C 1011.42,199.197 1019.42,202.197 1027.5,205C 1045.27,215.23 1049.1,229.397 1039,247.5C 1028.61,257.895 1016.11,261.728 1001.5,259C 988.221,256.048 978.888,248.381 973.5,236C 979.269,232.699 985.103,229.532 991,226.5C 993.727,230.235 996.894,233.735 1000.5,237C 1006.35,240.97 1012.35,241.303 1018.5,238C 1023.42,233.997 1023.75,229.663 1019.5,225C 1012.32,221.94 1004.99,219.273 997.5,217C 977.703,208.282 972.536,194.115 982,174.5C 987.253,168.298 993.753,164.298 1001.5,162.5 Z"/></g>
<g><path style="opacity:0.956" fill="#2b3357" d="M 1191.5,162.5 C 1230.34,160.514 1249.84,178.847 1250,217.5C 1247.03,238.277 1235.53,251.777 1215.5,258C 1194.57,263.13 1176.73,257.963 1162,242.5C 1149.62,224.32 1148.28,205.32 1158,185.5C 1166.07,173.224 1177.23,165.557 1191.5,162.5 Z M 1194.5,183.5 C 1217.78,182.944 1228.61,194.277 1227,217.5C 1221.87,233.287 1211.04,240.12 1194.5,238C 1181.53,233.694 1174.53,224.694 1173.5,211C 1174.73,197.286 1181.73,188.119 1194.5,183.5 Z"/></g>
<g><path style="opacity:0.955" fill="#2b3357" d="M 1306.5,162.5 C 1333.55,160.074 1351.05,171.741 1359,197.5C 1364.18,220.263 1357.68,238.763 1339.5,253C 1324.84,260.87 1309.84,261.536 1294.5,255C 1290.97,252.499 1287.8,249.666 1285,246.5C 1284.5,261.496 1284.33,276.496 1284.5,291.5C 1276.83,291.5 1269.17,291.5 1261.5,291.5C 1261.5,249.167 1261.5,206.833 1261.5,164.5C 1269.17,164.5 1276.83,164.5 1284.5,164.5C 1284.33,168.182 1284.5,171.848 1285,175.5C 1290.93,168.96 1298.09,164.626 1306.5,162.5 Z M 1310.5,182.5 C 1330.44,185.707 1339.28,197.373 1337,217.5C 1330.78,235.193 1318.61,241.693 1300.5,237C 1285.46,228.557 1280.63,216.057 1286,199.5C 1291.07,189.249 1299.24,183.582 1310.5,182.5 Z"/></g>
<g><path style="opacity:0.956" fill="#2b3357" d="M 538.5,164.5 C 546.167,164.5 553.833,164.5 561.5,164.5C 561.048,184.887 561.548,205.221 563,225.5C 566.813,235.996 574.313,240.162 585.5,238C 592.508,235.656 596.674,230.823 598,223.5C 598.5,203.836 598.667,184.169 598.5,164.5C 606.167,164.5 613.833,164.5 621.5,164.5C 621.667,185.169 621.5,205.836 621,226.5C 616.955,249.041 603.455,260.041 580.5,259.5C 555.957,259.669 542.124,247.669 539,223.5C 538.5,203.836 538.333,184.169 538.5,164.5 Z"/></g>
<g><path style="opacity:0.952" fill="#2b3357" d="M 627.5,164.5 C 635.528,164.169 643.528,164.502 651.5,165.5C 659.628,185.716 667.461,206.049 675,226.5C 683.451,206.32 691.618,185.987 699.5,165.5C 707.5,164.167 715.5,164.167 723.5,165.5C 710.833,195.833 698.167,226.167 685.5,256.5C 678.532,257.497 671.532,257.83 664.5,257.5C 651.971,226.58 639.638,195.58 627.5,164.5 Z"/></g>
</svg>