<?xml version="1.0" encoding="UTF-8"?>
<!DOCTYPE svg PUBLIC "-//W3C//DTD SVG 1.1//EN" "http://www.w3.org/Graphics/SVG/1.1/DTD/svg11.dtd">
<svg xmlns="http://www.w3.org/2000/svg" version="1.1" width="3413px" height="1526px" style="shape-rendering:geometricPrecision; text-rendering:geometricPrecision; image-rendering:optimizeQuality; fill-rule:evenodd; clip-rule:evenodd" xmlns:xlink="http://www.w3.org/1999/xlink">
<g><path style="opacity:0.997" fill="#131051" d="M 277.5,-0.5 C 278.5,-0.5 279.5,-0.5 280.5,-0.5C 280.5,64.5 280.5,129.5 280.5,194.5C 347.833,194.5 415.167,194.5 482.5,194.5C 482.5,238.5 482.5,282.5 482.5,326.5C 415.167,326.5 347.833,326.5 280.5,326.5C 280.333,471.5 280.5,616.5 281,761.5C 285.942,855.773 335.442,898.607 429.5,890C 453.467,888.41 477.134,884.91 500.5,879.5C 503.482,923.745 506.815,967.912 510.5,1012C 444.544,1028.89 377.878,1032.55 310.5,1023C 220.764,1007.59 161.597,956.754 133,870.5C 125.2,844.365 120.2,817.699 118,790.5C 116.521,635.847 116.021,481.18 116.5,326.5C 77.5,326.5 38.5,326.5 -0.5,326.5C -0.5,282.5 -0.5,238.5 -0.5,194.5C 38.5,194.5 77.5,194.5 116.5,194.5C 116.5,132.167 116.5,69.8333 116.5,7.5C 170.349,5.39082 224.016,2.72415 277.5,-0.5 Z"/></g>
<g><path style="opacity:0.994" fill="#131051" d="M 985.5,174.5 C 1033.93,172.866 1081.93,176.533 1129.5,185.5C 1122.17,231.501 1114.83,277.501 1107.5,323.5C 1071.16,313.485 1034.16,309.985 996.5,313C 941.012,315.163 888.512,328.663 839,353.5C 838.5,572.166 838.333,790.833 838.5,1009.5C 783.5,1009.5 728.5,1009.5 673.5,1009.5C 673.167,756.832 673.5,504.166 674.5,251.5C 721.322,226.724 770.656,208.557 822.5,197C 876.315,184.65 930.648,177.15 985.5,174.5 Z"/></g>
<g><path style="opacity:0.996" fill="#131051" d="M 1482.5,174.5 C 1538.86,171.781 1594.19,177.947 1648.5,193C 1750.93,225.771 1813.09,294.937 1835,400.5C 1839.27,421.631 1841.94,442.964 1843,464.5C 1843.67,627.833 1843.67,791.167 1843,954.5C 1787.88,984.207 1729.38,1004.37 1667.5,1015C 1597.95,1027.43 1527.95,1031.09 1457.5,1026C 1406.49,1022.17 1358.16,1008.83 1312.5,986C 1233.71,941.983 1193.71,874.483 1192.5,783.5C 1195.27,673.085 1248.27,598.585 1351.5,560C 1403.99,542.049 1457.99,533.549 1513.5,534.5C 1570.72,534.756 1627.39,540.422 1683.5,551.5C 1683.86,520.815 1683.36,490.149 1682,459.5C 1676.52,388.711 1640.02,342.878 1572.5,322C 1545.65,314.727 1518.32,311.561 1490.5,312.5C 1416.79,312.543 1345.62,325.876 1277,352.5C 1266.02,310.596 1255.36,268.596 1245,226.5C 1244.19,224.421 1244.36,222.421 1245.5,220.5C 1298.17,200.584 1352.5,187.417 1408.5,181C 1433.26,178.067 1457.92,175.9 1482.5,174.5 Z M 1503.5,643.5 C 1564.33,640.871 1624.17,647.204 1683,662.5C 1683.83,732.404 1683.66,802.237 1682.5,872C 1655.42,886.138 1626.75,895.471 1596.5,900C 1550.02,907.955 1503.69,907.288 1457.5,898C 1385.23,880.046 1352.06,833.879 1358,759.5C 1363.94,708.894 1390.78,674.727 1438.5,657C 1459.78,649.978 1481.45,645.478 1503.5,643.5 Z"/></g>
<g><path style="opacity:0.998" fill="#0097fe" d="M 3412.5,196.5 C 3412.5,206.5 3412.5,216.5 3412.5,226.5C 3408.05,316.191 3392.88,404.191 3367,490.5C 3317.43,650.616 3245.77,799.616 3152,937.5C 3133.24,960.13 3109.07,971.964 3079.5,973C 2923.17,973.667 2766.83,973.667 2610.5,973C 2582.21,972.357 2558.71,961.524 2540,940.5C 2535.3,933.652 2530.47,926.985 2525.5,920.5C 2612.98,708.989 2678.48,490.323 2722,264.5C 2725.82,242.554 2729.32,220.554 2732.5,198.5C 2678.5,198.5 2624.5,198.5 2570.5,198.5C 2558.49,296.372 2539.99,393.039 2515,488.5C 2491.17,579.151 2463.01,668.484 2430.5,756.5C 2382.63,663.746 2344.47,567.08 2316,466.5C 2290.98,378.226 2278.15,288.226 2277.5,196.5C 2655.83,196.5 3034.17,196.5 3412.5,196.5 Z"/></g>
<g><path style="opacity:0.997" fill="#131151" d="M 2525.5,920.5 C 2476.12,1036.24 2417.29,1146.58 2349,1251.5C 2299,1252.17 2249,1252.83 2199,1253.5C 2198.48,1251.71 2198.81,1250.04 2200,1248.5C 2246.1,1169.65 2288.6,1088.65 2327.5,1005.5C 2314.02,992.194 2301.85,977.861 2291,962.5C 2154.23,772.542 2064.07,561.876 2020.5,330.5C 1984.17,329.5 1947.84,329.167 1911.5,329.5C 1911.5,286.167 1911.5,242.833 1911.5,199.5C 1996.83,199.5 2082.17,199.5 2167.5,199.5C 2190.13,431.903 2261.97,647.569 2383,846.5C 2386,849.5 2389,852.5 2392,855.5C 2405.91,822.943 2418.74,789.943 2430.5,756.5C 2463.01,668.484 2491.17,579.151 2515,488.5C 2539.99,393.039 2558.49,296.372 2570.5,198.5C 2624.5,198.5 2678.5,198.5 2732.5,198.5C 2729.32,220.554 2725.82,242.554 2722,264.5C 2678.48,490.323 2612.98,708.989 2525.5,920.5 Z"/></g>
<g><path style="opacity:0.994" fill="#131051" d="M 2228.5,1525.5 C 2221.5,1525.5 2214.5,1525.5 2207.5,1525.5C 2153.23,1515.05 2123.56,1482.22 2118.5,1427C 2121.66,1375.52 2147.99,1342.85 2197.5,1329C 2242.98,1322 2278.48,1337.5 2304,1375.5C 2324.21,1414.89 2321.54,1452.56 2296,1488.5C 2278.34,1509.67 2255.84,1522 2228.5,1525.5 Z"/></g>
<g><path style="opacity:0.994" fill="#131051" d="M 3120.5,1525.5 C 3113.5,1525.5 3106.5,1525.5 3099.5,1525.5C 3061.4,1519.91 3034.23,1499.58 3018,1464.5C 3004.46,1427.13 3009.79,1392.8 3034,1361.5C 3065.98,1328.38 3103.82,1319.21 3147.5,1334C 3186.36,1352.23 3207.03,1382.89 3209.5,1426C 3207.4,1468.88 3187.07,1499.55 3148.5,1518C 3139.28,1521.47 3129.95,1523.97 3120.5,1525.5 Z"/></g>
</svg>
